<svg width="57" height="77" viewBox="0 0 57 77" fill="none" xmlns="http://www.w3.org/2000/svg">
<path d="M10.9511 48.6818L5.02976 70.8871C4.75909 71.6844 5.39509 72.7551 6.21109 73.1924C7.33509 73.7964 8.45376 73.1364 8.50309 73.1071C10.4378 71.9311 12.3738 70.7538 14.3098 69.5778L19.2071 51.1298L10.9511 48.6818Z" fill="#FFC255"/>
<path d="M27.4628 53.1103L21.4934 75.3036C21.3294 76.129 20.2428 76.7383 19.3188 76.7103C18.0441 76.6703 17.4028 75.5396 17.3761 75.4903C16.2868 73.5036 15.1988 71.517 14.1094 69.5303L19.0881 51.1049L27.4628 53.1103Z" fill="#FFC255"/>
<path d="M45.274 48.6818L51.1953 70.8871C51.466 71.6844 50.8287 72.7551 50.014 73.1924C48.89 73.7964 47.77 73.1364 47.722 73.1071C45.786 71.9311 43.8513 70.7538 41.914 69.5778L37.018 51.1298L45.274 48.6818Z" fill="#FFC255"/>
<path d="M28.7623 53.1103L34.7316 75.3036C34.8956 76.129 35.9823 76.7383 36.9063 76.7103C38.1809 76.6703 38.8223 75.5396 38.8489 75.4903C39.9369 73.5036 41.0263 71.517 42.1156 69.5303L37.1369 51.1049L28.7623 53.1103Z" fill="#FFC255"/>
<path d="M56.6333 28.3173C56.6333 43.956 43.956 56.6333 28.3173 56.6333C12.6773 56.6333 0 43.956 0 28.3173C0 12.6787 12.6773 -1.6878e-06 28.3173 -1.6878e-06C43.956 -1.6878e-06 56.6333 12.6787 56.6333 28.3173Z" fill="#E9AB3B"/>
<path d="M49.8467 28.0773C49.8467 40.1853 40.0307 50 27.924 50C15.816 50 6 40.1853 6 28.0773C6 15.9693 15.816 6.15333 27.924 6.15333C40.0307 6.15333 49.8467 15.9693 49.8467 28.0773Z" fill="white"/>
<path d="M28.4797 39C28.315 38.6705 28.1811 38.0836 28.0782 37.2392C26.7499 38.619 25.1642 39.3089 23.321 39.3089C21.6735 39.3089 20.3195 38.8455 19.2589 37.9188C18.2087 36.9818 17.6835 35.7977 17.6835 34.3664C17.6835 32.6263 18.3425 31.2774 19.6605 30.3198C20.9888 29.3519 22.8525 28.8679 25.2517 28.8679H28.0318V27.5551C28.0318 26.5563 27.7332 25.7635 27.136 25.1765C26.5388 24.5793 25.6584 24.2807 24.4949 24.2807C23.4755 24.2807 22.6208 24.5381 21.931 25.053C21.2411 25.5678 20.8961 26.1908 20.8961 26.9218H18.0233C18.0233 26.0878 18.3168 25.2846 18.9037 24.5124C19.5009 23.7298 20.3041 23.112 21.3132 22.659C22.3325 22.2059 23.4497 21.9794 24.6648 21.9794C26.5903 21.9794 28.0988 22.4633 29.1902 23.4312C30.2817 24.3888 30.848 25.712 30.8892 27.4006V35.0924C30.8892 36.6266 31.0848 37.8468 31.4761 38.7529V39H28.4797ZM23.7381 36.8222C24.6339 36.8222 25.4834 36.5905 26.2865 36.1272C27.0897 35.6638 27.6714 35.0615 28.0318 34.3201V30.8913H25.7923C22.2914 30.8913 20.5409 31.9158 20.5409 33.9649C20.5409 34.8607 20.8395 35.5609 21.4367 36.0654C22.0339 36.57 22.801 36.8222 23.7381 36.8222ZM38.4728 39H35.6154V15.2762H38.4728V39Z" fill="#E29320"/>
</svg>
