<svg width="57" height="77" viewBox="0 0 57 77" fill="none" xmlns="http://www.w3.org/2000/svg">
<g clip-path="url(#clip0)">
<path d="M10.9511 48.6819L5.02976 70.8872C4.75909 71.6845 5.39509 72.7552 6.21109 73.1925C7.33509 73.7965 8.45376 73.1365 8.50309 73.1072C10.4391 71.9312 12.3738 70.7539 14.3111 69.5779L19.2071 51.1299L10.9511 48.6819Z" fill="#D8252C"/>
<path d="M27.4628 53.1103L21.4935 75.3036C21.3295 76.129 20.2428 76.7383 19.3188 76.7103C18.0442 76.6703 17.4028 75.5396 17.3762 75.4903C16.2868 73.5036 15.1988 71.517 14.1095 69.5303L19.0882 51.1049L27.4628 53.1103Z" fill="#D8252C"/>
<path d="M45.274 48.6819L51.1953 70.8872C51.466 71.6845 50.8287 72.7552 50.014 73.1925C48.89 73.7965 47.7713 73.1365 47.722 73.1072C45.786 71.9312 43.8513 70.7539 41.914 69.5779L37.018 51.1299L45.274 48.6819Z" fill="#D8252C"/>
<path d="M28.7623 53.1103L34.7316 75.3036C34.8956 76.129 35.9823 76.7383 36.9063 76.7103C38.1809 76.6703 38.8223 75.5396 38.8489 75.4903C39.9369 73.5036 41.0263 71.517 42.1156 69.5303L37.1369 51.1049L28.7623 53.1103Z" fill="#D8252C"/>
<path d="M56.6333 28.3173C56.6333 43.956 43.956 56.6333 28.3173 56.6333C12.6773 56.6333 0 43.956 0 28.3173C0 12.6787 12.6773 -1.6878e-06 28.3173 -1.6878e-06C43.956 -1.6878e-06 56.6333 12.6787 56.6333 28.3173Z" fill="#FF5757"/>
<path d="M49.8467 28.0773C49.8467 40.1853 40.032 50 27.924 50C15.816 50 6 40.1853 6 28.0773C6 15.9693 15.816 6.15333 27.924 6.15333C40.032 6.15333 49.8467 15.9693 49.8467 28.0773Z" fill="white"/>
<path d="M19.8656 36.9767C20.8849 36.9767 21.7756 36.6678 22.5376 36.05C23.2995 35.4322 23.7217 34.6599 23.8041 33.7332H26.507C26.4555 34.6908 26.126 35.6021 25.5185 36.467C24.911 37.3319 24.0975 38.0218 23.0782 38.5366C22.0691 39.0515 20.9982 39.3089 19.8656 39.3089C17.59 39.3089 15.7777 38.5521 14.4288 37.0385C13.0903 35.5145 12.421 33.4346 12.421 30.7986V30.3198C12.421 28.6929 12.7196 27.2462 13.3168 25.9797C13.914 24.7132 14.7686 23.7298 15.8807 23.0296C17.003 22.3295 18.3262 21.9794 19.8501 21.9794C21.7241 21.9794 23.2789 22.5405 24.5146 23.6629C25.7605 24.7853 26.4246 26.2423 26.507 28.0339H23.8041C23.7217 26.9527 23.3098 26.0672 22.5685 25.3773C21.8374 24.6771 20.9313 24.327 19.8501 24.327C18.3983 24.327 17.2708 24.8522 16.4676 25.9025C15.6748 26.9424 15.2783 28.4509 15.2783 30.4279V30.9685C15.2783 32.894 15.6748 34.3767 16.4676 35.4167C17.2605 36.4567 18.3931 36.9767 19.8656 36.9767ZM28.9628 30.4897C28.9628 28.8525 29.282 27.3801 29.9204 26.0724C30.5691 24.7647 31.4649 23.7556 32.6079 23.0451C33.7611 22.3346 35.0739 21.9794 36.5464 21.9794C38.822 21.9794 40.66 22.7671 42.0603 24.3425C43.471 25.9179 44.1763 28.0133 44.1763 30.6287V30.8295C44.1763 32.4564 43.8623 33.9185 43.2342 35.2159C42.6164 36.503 41.7257 37.507 40.5621 38.2277C39.4089 38.9485 38.0806 39.3089 36.5773 39.3089C34.312 39.3089 32.474 38.5212 31.0633 36.9458C29.663 35.3704 28.9628 33.2853 28.9628 30.6905V30.4897ZM31.8356 30.8295C31.8356 32.6829 32.2629 34.1708 33.1175 35.2931C33.9825 36.4155 35.1357 36.9767 36.5773 36.9767C38.0291 36.9767 39.1824 36.4104 40.037 35.2777C40.8916 34.1348 41.319 32.5388 41.319 30.4897C41.319 28.6569 40.8813 27.1741 40.0061 26.0415C39.1412 24.8985 37.9879 24.327 36.5464 24.327C35.1357 24.327 33.9979 24.8882 33.133 26.0106C32.2681 27.1329 31.8356 28.7392 31.8356 30.8295Z" fill="#D8252C"/>
</g>
<defs>
<clipPath id="clip0">
<rect width="56.6333" height="76.7112" fill="white"/>
</clipPath>
</defs>
</svg>
