<svg width="73" height="79" viewBox="0 0 73 79" fill="none" xmlns="http://www.w3.org/2000/svg">
<path d="M71.05 21.89L68.53 17.52C66.39 13.83 61.67 12.56 57.97 14.69C54.32 16.85 49.6001 15.65 47.4301 11.99C47.4201 11.98 47.41 11.96 47.41 11.95C46.74 10.83 46.39 9.55 46.37 8.25C46.51 3.98 43.15 0.40001 38.88 0.26001C38.8 0.26001 38.71 0.26001 38.63 0.26001H33.55C29.3 0.26001 25.86 3.70001 25.86 7.95001C25.86 7.97001 25.86 7.99 25.86 8C25.8 12.24 22.34 15.65 18.1 15.64C16.8 15.63 15.52 15.27 14.4 14.6C10.7 12.47 5.98003 13.74 3.84003 17.43L1.14001 21.88C-0.989987 25.58 0.279969 30.3 3.96997 32.44C6.36997 33.82 7.84002 36.38 7.84002 39.15C7.84002 41.92 6.35997 44.47 3.96997 45.86C0.279969 47.97 -0.990007 52.67 1.11999 56.36C1.12999 56.37 1.13001 56.38 1.14001 56.39L3.70001 60.8C5.77001 64.54 10.48 65.91 14.22 63.84C14.24 63.83 14.26 63.82 14.27 63.81C17.93 61.68 22.63 62.92 24.76 66.58C24.77 66.6 24.78 66.62 24.8 66.64C25.47 67.76 25.82 69.04 25.84 70.34C25.84 74.62 29.31 78.08 33.58 78.08H38.64C42.9 78.08 46.35 74.65 46.38 70.39C46.35 66.14 49.77 62.68 54.02 62.65C54.06 62.65 54.09 62.65 54.13 62.65C55.43 62.68 56.7 63.04 57.83 63.69C61.53 65.82 66.25 64.55 68.39 60.86L71.0601 56.41C73.2001 52.74 71.97 48.03 68.3 45.89C68.2801 45.88 68.25 45.86 68.23 45.85C64.54 43.75 63.25 39.05 65.36 35.36C65.37 35.34 65.39 35.31 65.4 35.29C66.07 34.11 67.05 33.13 68.23 32.46C71.9 30.32 73.1701 25.63 71.0601 21.94V21.89H71.05Z" fill="#99B876"/>
<path d="M35.33 49.5499C28.95 49.6599 23.7 44.5699 23.59 38.1899C23.59 38.1699 23.59 38.1499 23.59 38.1299C23.66 31.7299 28.9 26.61 35.29 26.67C35.3 26.67 35.31 26.67 35.32 26.67C41.64 26.67 46.76 31.7899 46.76 38.1099C46.76 44.4299 41.65 49.5499 35.33 49.5499Z" fill="#1F3341"/>
</svg>
