<svg width="42" height="26" viewBox="0 0 42 26" fill="none" xmlns="http://www.w3.org/2000/svg">
<path d="M8.4856 10.65V19.938C8.51893 20.2193 8.5936 20.6313 8.77493 21.094C10.6256 25.7913 19.7629 25.8753 20.7776 25.874C21.7176 25.8727 31.0029 25.762 32.8896 20.9687C33.0536 20.5527 33.1283 20.1873 33.1656 19.938V11.0233L8.4856 10.65Z" fill="#295E6B"/>
<path d="M0 8.45075L20.6987 7.95981e-05L41.7907 8.38941L20.8947 17.1321L0 8.45075Z" fill="#063040"/>
<path d="M37.713 8.32788H37.2531V16.7505H37.713V8.32788Z" fill="#E9AB3B"/>
<path d="M39.1093 21.3266C39.1293 21.4079 39.1426 21.5239 39.0986 21.6399C38.8 22.4159 36.1813 22.4359 35.8706 21.6666C35.8106 21.5199 35.848 21.3759 35.8626 21.3266C36.3266 19.8013 36.7906 18.2773 37.2533 16.7519H37.7133C38.1786 18.2773 38.644 19.8013 39.1093 21.3266Z" fill="#FFC255"/>
</svg>
