<svg width="82" height="82" viewBox="0 0 82 82" fill="none" xmlns="http://www.w3.org/2000/svg">
<path d="M81.53 40.9099C81.53 63.2699 63.41 81.39 41.05 81.39C18.69 81.39 0.570007 63.2699 0.570007 40.9099C0.570007 18.5499 18.69 0.429932 41.05 0.429932C63.41 0.439932 81.53 18.5599 81.53 40.9099Z" fill="#99B876"/>
<path d="M56.68 27.5799L50.12 48.3099C49.87 49.1699 49.2 49.8399 48.34 50.0999L27.7 56.5799C26.74 56.8699 25.73 56.3399 25.43 55.3799C25.32 55.0299 25.32 54.6599 25.43 54.3099L31.91 33.5399C32.17 32.6899 32.84 32.0199 33.69 31.7599L54.42 25.2799C55.38 24.9799 56.4 25.5099 56.7 26.4699C56.8 26.8299 56.8 27.2199 56.68 27.5799Z" fill="#1F3341"/>
</svg>
