<svg width="57" height="77" viewBox="0 0 57 77" fill="none" xmlns="http://www.w3.org/2000/svg">
<path d="M10.951 48.6818L5.0297 70.8872C4.75903 71.6845 5.39503 72.7552 6.21103 73.1925C7.33503 73.7965 8.4537 73.1365 8.50303 73.1072C10.4377 71.9312 12.3737 70.7538 14.3097 69.5778L19.207 51.1298L10.951 48.6818Z" fill="#063040"/>
<path d="M27.4628 53.1103L21.4935 75.3036C21.3295 76.129 20.2428 76.7383 19.3188 76.7103C18.0442 76.6703 17.4028 75.5396 17.3762 75.4903C16.2868 73.5036 15.1988 71.517 14.1095 69.5303L19.0882 51.1049L27.4628 53.1103Z" fill="#063040"/>
<path d="M45.274 48.6818L51.1953 70.8872C51.466 71.6845 50.8287 72.7552 50.014 73.1925C48.89 73.7965 47.77 73.1365 47.722 73.1072C45.786 71.9312 43.8513 70.7538 41.914 69.5778L37.018 51.1298L45.274 48.6818Z" fill="#063040"/>
<path d="M28.7623 53.1103L34.7316 75.3036C34.8956 76.129 35.9823 76.7383 36.9063 76.7103C38.1809 76.6703 38.8223 75.5396 38.8489 75.4903C39.9369 73.5036 41.0263 71.517 42.1156 69.5303L37.1369 51.1049L28.7623 53.1103Z" fill="#063040"/>
<path d="M56.6333 28.3173C56.6333 43.956 43.956 56.6333 28.3173 56.6333C12.6773 56.6333 0 43.956 0 28.3173C0 12.6787 12.6773 -1.6878e-06 28.3173 -1.6878e-06C43.956 -1.6878e-06 56.6333 12.6787 56.6333 28.3173Z" fill="#295E6B"/>
<path d="M49.8467 28.0773C49.8467 40.1853 40.032 50 27.924 50C15.816 50 6 40.1853 6 28.0773C6 15.9693 15.816 6.15333 27.924 6.15333C40.032 6.15333 49.8467 15.9693 49.8467 28.0773Z" fill="white"/>
<path d="M20.7493 16H16V20.7493H20.7493V16Z" fill="#063040"/>
<path d="M26.853 37.4071C25.309 35.8631 24.537 33.9991 24.537 31.8164C24.537 29.6378 25.309 27.7764 26.853 26.2324C28.3983 24.6831 30.261 23.9071 32.445 23.9071V27.8618C31.353 27.8618 30.421 28.2511 29.649 29.0284C28.877 29.8004 28.4903 30.7298 28.4903 31.8164C28.4903 32.9071 28.877 33.8391 29.649 34.6111C30.421 35.3831 31.353 35.7698 32.445 35.7698C33.5303 35.7698 34.4597 35.3831 35.233 34.6111C36.009 33.8391 36.3983 32.9071 36.3983 31.8164V16.0004H40.353V31.8164C40.353 33.9991 39.577 35.8631 38.0277 37.4071C36.4837 38.9511 34.6223 39.7244 32.445 39.7244C30.261 39.7244 28.3983 38.9511 26.853 37.4071Z" fill="#063040"/>
<path d="M20.5093 23.8853H16.2386V39.72H20.5093V23.8853Z" fill="#063040"/>
</svg>
