<svg width="82" height="77" viewBox="0 0 82 77" fill="none" xmlns="http://www.w3.org/2000/svg">
<path d="M44.51 2.51999L53.51 20.63C54.17 21.95 55.44 22.85 56.9 23.06L77.14 26.01C78.32 26.18 79.39 26.8 80.12 27.75C80.84 28.69 81.14 29.88 80.97 31.05C80.83 32.02 80.37 32.92 79.67 33.61L65 47.8199C63.93 48.8099 63.44 50.2799 63.7 51.7199L67.31 71.7099C67.7 74.1199 66.1 76.4 63.7 76.86C62.71 77.02 61.7 76.85 60.81 76.4L42.75 66.99C41.41 66.31 39.83 66.31 38.49 66.99L20.45 76.4C18.23 77.58 15.48 76.7799 14.24 74.5899C13.78 73.7199 13.62 72.73 13.77 71.76L17.38 51.76C17.64 50.32 17.15 48.85 16.08 47.86L1.40999 33.63C-0.330012 31.95 -0.380017 29.19 1.27998 27.44L1.39999 27.32C2.09999 26.61 3.00998 26.16 3.99998 26.0399L24.24 23.09C25.7 22.88 26.97 21.9799 27.63 20.6599L36.34 2.50998C37.11 0.94998 38.72 -0.0200098 40.46 0.0199902H41C42.52 0.21999 43.83 1.14999 44.51 2.51999Z" fill="#FEB12B"/>
</svg>
