<svg width="73" height="81" viewBox="0 0 73 81" fill="none" xmlns="http://www.w3.org/2000/svg">
<path d="M67.3702 30.3099C67.3702 30.5899 65.2102 57.8699 63.9802 69.3599C63.7802 75.8699 58.3502 80.9899 51.8402 80.7999C46.6102 80.9199 41.4802 80.96 36.4302 80.96C31.0702 80.96 25.8402 80.9199 20.7602 80.7999C14.3602 80.8299 9.11023 75.7499 8.91023 69.3599C7.64023 57.8399 5.5302 30.5899 5.4802 30.3099C5.4402 29.4899 5.72023 28.6799 6.26023 28.0499C6.80023 27.4499 7.57023 27.11 8.38023 27.1H64.5202C65.3302 27.11 66.0902 27.4599 66.6402 28.0499C67.1802 28.6699 67.4402 29.4899 67.3702 30.3099Z" fill="#99B876"/>
<path d="M72.8602 16.1C72.8802 14.49 71.6002 13.16 69.9802 13.13H69.9702H58.1702C55.7402 13.11 53.6502 11.39 53.1502 9.01001L52.4902 6.07001C51.6002 2.54001 48.4402 0.04 44.8002 0H28.0702C24.3502 0.05 21.1502 2.63001 20.3302 6.26001L19.7102 9.01996C19.2002 11.4 17.1202 13.1 14.6902 13.13H2.89021C1.28021 13.15 -0.0197723 14.47 0.000227717 16.08V16.09V17.63C-0.00977228 19.24 1.28021 20.56 2.89021 20.6H69.9802C71.5902 20.56 72.8802 19.24 72.8702 17.63V16.1H72.8602Z" fill="#1F3341"/>
</svg>
