<svg width="16" height="16" viewBox="0 0 16 16" fill="none" xmlns="http://www.w3.org/2000/svg">
<path d="M15.4207 12.6285L12.7031 9.91094C13.2164 8.94766 13.4891 7.86719 13.4891 6.74453C13.4891 4.94297 12.7875 3.24922 11.5137 1.97539C10.2398 0.701562 8.54609 0 6.74453 0C3.02539 0 0 3.02578 0 6.74492C0 8.54649 0.701562 10.2402 1.97539 11.5141C3.24922 12.7879 4.94297 13.4895 6.74453 13.4895C7.8668 13.4895 8.94727 13.2172 9.91055 12.7039L12.6273 15.4215C13.0004 15.7945 13.4965 16 14.0238 16C14.5516 16 15.0473 15.7945 15.4203 15.4215C15.7934 15.0484 15.9988 14.5523 15.9988 14.025C15.9992 13.4973 15.7938 13.0012 15.4207 12.6285ZM9.77109 11.7027C9.75352 11.7117 9.73672 11.7227 9.72031 11.734C8.82969 12.2672 7.80899 12.552 6.74414 12.552C3.54219 12.552 0.937109 9.94688 0.936719 6.74492C0.936719 3.54258 3.5418 0.9375 6.74375 0.9375C9.9457 0.9375 12.5512 3.54258 12.5512 6.74453C12.5512 8.2957 11.9473 9.75391 10.85 10.8512C10.5207 11.1805 10.1582 11.4652 9.77109 11.7027ZM14.7578 14.7586C14.5617 14.9547 14.3016 15.0625 14.0242 15.0625C13.7473 15.0625 13.4863 14.9543 13.2906 14.7586L10.7238 12.1918C11.0016 11.9883 11.2652 11.7621 11.5133 11.5141C11.7613 11.266 11.9871 11.002 12.191 10.7246L14.7582 13.2914C15.1621 13.6957 15.1621 14.3539 14.7578 14.7586Z" fill="#9AB977"/>
<path d="M6.74375 3.01212C4.68594 3.01212 3.01172 4.68633 3.01133 6.74454C3.01133 8.80235 4.68555 10.477 6.74375 10.477C8.80195 10.477 10.4762 8.80274 10.4762 6.74454C10.4762 4.68672 8.80195 3.01251 6.74375 3.01212ZM6.74375 9.53946C5.20274 9.53946 3.94883 8.28594 3.94883 6.74493C3.94883 5.20391 5.20274 3.95001 6.74375 3.95001C8.28477 3.95001 9.53867 5.20391 9.53867 6.74493C9.53867 8.28555 8.28477 9.53946 6.74375 9.53946Z" fill="#9AB977"/>
</svg>
