<svg width="69" height="82" viewBox="0 0 69 82" fill="none" xmlns="http://www.w3.org/2000/svg">
<path d="M65.95 39.1999C63.01 36.0999 61.46 31.9499 61.65 27.6799V25.9399C61.94 20.4599 60.21 15.0699 56.79 10.7799C51.4 4.08991 43.27 0.179912 34.68 0.159912H34.32C25.92 0.189912 17.96 3.90989 12.55 10.3299C8.93005 14.6999 7.08005 20.2699 7.35005 25.9399V27.6799C7.58005 31.9499 6.02004 36.1199 3.05004 39.1999C0.940045 41.8399 -0.11996 45.1799 0.10004 48.5499C0.0700402 52.0799 1.31005 55.4899 3.60005 58.1799C6.68005 61.4599 10.86 63.4999 15.34 63.8999C21.71 64.5999 28.11 64.9299 34.51 64.8999C40.96 64.8999 47.32 64.4399 53.68 63.8999C58.16 63.4999 62.34 61.4599 65.42 58.1799C67.7 55.4999 68.94 52.0799 68.91 48.5499C69.12 45.1799 68.07 41.8499 65.95 39.1999Z" fill="#1F3341"/>
<path d="M42.63 69.9001C37.18 69.4701 31.7 69.4701 26.25 69.9001C24.52 70.3001 22.65 71.2301 22.65 73.2701C22.81 75.2101 23.85 76.9601 25.48 78.0201C27.5 79.5901 29.89 80.6201 32.42 80.9801C33.77 81.1601 35.15 81.1601 36.5 80.9801C39.02 80.6101 41.4 79.5901 43.41 78.0201C45.04 76.9601 46.08 75.2101 46.24 73.2701C46.24 71.2501 44.37 70.3001 42.64 69.9001" fill="#99B876"/>
</svg>
