<svg width="32" height="32" viewBox="0 0 32 32" fill="none" xmlns="http://www.w3.org/2000/svg">
<path d="M24.596 19.0563C24.596 25.8483 19.0907 31.355 12.2973 31.355C5.50667 31.355 0 25.8483 0 19.0563C0 12.2643 5.50667 6.75898 12.2973 6.75898C19.0907 6.75898 24.596 12.2643 24.596 19.0563Z" fill="#295E6B"/>
<path d="M21.4509 19.0479C21.4509 24.1666 17.3016 28.3159 12.1843 28.3159C7.0656 28.3159 2.9176 24.1666 2.9176 19.0479C2.9176 13.9306 7.0656 9.78125 12.1843 9.78125C17.3016 9.78125 21.4509 13.9306 21.4509 19.0479Z" fill="white"/>
<path d="M19.8324 19.2067C19.8324 23.3334 16.4151 26.6787 12.1978 26.6787C7.98178 26.6787 4.56311 23.3334 4.56311 19.2067C4.56311 15.08 7.98178 11.7347 12.1978 11.7347C16.4151 11.7347 19.8324 15.08 19.8324 19.2067Z" fill="#295E6B"/>
<path d="M17.8806 19.2014C17.8806 22.312 15.3046 24.832 12.1272 24.832C8.9499 24.832 6.3739 22.312 6.3739 19.2014C6.3739 16.0907 8.9499 13.5707 12.1272 13.5707C15.3046 13.5707 17.8806 16.0907 17.8806 19.2014Z" fill="white"/>
<path d="M14.7575 19.1852C14.7575 20.6012 13.6095 21.7505 12.1922 21.7505C10.7762 21.7505 9.62817 20.6012 9.62817 19.1852C9.62817 17.7692 10.7762 16.6198 12.1922 16.6198C13.6095 16.6198 14.7575 17.7692 14.7575 19.1852Z" fill="#E9AB3B"/>
<path d="M19.3428 11.5082V5.79891L25.1401 0.000246128V6.69491L19.8174 12.0176L19.3428 11.5082Z" fill="#E9AB3B"/>
<path d="M20.8539 9.94434V6.179L23.5659 3.46834V7.327L20.8539 9.94434Z" fill="white"/>
<path d="M24.6039 5.88704L10.3265 20.1644L11.1799 21.019L25.4572 6.74038L24.6039 5.88704Z" fill="#E9AB3B"/>
<path d="M19.9802 11.9766H25.6895L31.4868 6.17923H24.7935L19.4708 11.5032L19.9802 11.9766Z" fill="#E9AB3B"/>
<path d="M21.5433 10.4663H25.3087L28.0193 7.75431H24.1607L21.5433 10.4663Z" fill="white"/>
</svg>
