<svg width="27" height="30" viewBox="0 0 27 30" fill="none" xmlns="http://www.w3.org/2000/svg">
<path d="M6.22131 24.517L6.87731 28.7703C7.62531 29.0943 8.95065 29.5516 10.6586 29.5556C12.404 29.5596 13.756 29.0863 14.508 28.7596C14.6666 27.3396 14.8266 25.9223 14.9853 24.5036L6.22131 24.517Z" fill="#E9AB3B"/>
<path d="M6.28642 24.7673C6.92509 25.1673 8.31442 25.9126 10.2238 25.9993C12.5718 26.1046 14.2851 25.1486 14.9144 24.7539C15.1531 23.9113 15.3931 23.0686 15.6318 22.2259C16.0984 21.9699 21.3144 18.9993 21.7558 13.4513C22.2158 7.64327 17.2478 1.51127 10.7544 1.65927C4.92908 1.79394 0.466418 6.91927 0.251751 12.2966C0.00775134 18.3846 5.31442 22.0326 5.62909 22.2406C5.84775 23.0833 6.06642 23.9246 6.28642 24.7673Z" fill="#FFC255"/>
<path d="M26.4531 4.60703L25.9397 3.71503C25.5037 2.96169 24.5397 2.70303 23.7864 3.13636C23.0397 3.57903 22.0784 3.33236 21.6371 2.58569C21.6344 2.58303 21.6331 2.58036 21.6317 2.57903C21.4957 2.34969 21.4237 2.08836 21.4197 1.82169C21.4477 0.951026 20.7637 0.221693 19.8917 0.192359H19.8411H18.8051C17.9384 0.192359 17.2357 0.895026 17.2357 1.76036V1.77236C17.2251 2.63636 16.5184 3.33236 15.6531 3.32969C15.3877 3.32703 15.1264 3.25369 14.8984 3.11903C14.1437 2.68569 13.1797 2.94303 12.7437 3.69636L12.1931 4.60436C11.7584 5.35903 12.0171 6.32303 12.7704 6.75903C13.2584 7.04036 13.5611 7.56303 13.5611 8.12836C13.5611 8.69103 13.2584 9.21369 12.7704 9.49503C12.0184 9.92569 11.7584 10.8844 12.1891 11.6364C12.1904 11.6377 12.1917 11.639 12.1931 11.6417L12.7144 12.5404C13.1357 13.3044 14.0957 13.5817 14.8597 13.1617C14.8637 13.159 14.8677 13.1577 14.8704 13.155C15.6184 12.7204 16.5757 12.9737 17.0104 13.7204C17.0131 13.7257 17.0144 13.7297 17.0171 13.7337C17.1531 13.963 17.2264 14.223 17.2291 14.4884C17.2291 15.3604 17.9357 16.0684 18.8091 16.0684H19.8411C20.7091 16.0684 21.4144 15.367 21.4197 14.5004C21.4144 13.6337 22.1117 12.9257 22.9784 12.9204H22.9997C23.2651 12.927 23.5251 13.0004 23.7557 13.1324C24.5091 13.5657 25.4731 13.307 25.9091 12.5537L26.4531 11.6444C26.8904 10.8977 26.6384 9.93636 25.8904 9.49903C25.8851 9.49636 25.8797 9.49369 25.8757 9.49103C25.1224 9.06303 24.8597 8.10436 25.2891 7.35236C25.2917 7.34703 25.2944 7.34169 25.2971 7.33769C25.4344 7.09636 25.6344 6.89636 25.8757 6.75903C26.6237 6.32303 26.8824 5.36436 26.4531 4.61236V4.60703Z" fill="#063040"/>
<path d="M19.3261 5.95209C20.5275 5.95209 21.5021 6.92542 21.5021 8.12809C21.5021 9.32942 20.5275 10.3054 19.3261 10.3054C18.1248 10.3054 17.1501 9.32942 17.1501 8.12809C17.1501 6.92542 18.1248 5.95209 19.3261 5.95209Z" fill="#295E6B"/>
<path d="M9.00975 16.9039C8.91108 15.8386 9.78041 14.9786 10.6884 15.0239C11.5364 15.0653 12.2871 15.8919 12.2004 16.8853C11.6684 19.9266 11.1351 22.9666 10.6031 26.0066C10.0724 22.9733 9.54041 19.9373 9.00975 16.9039Z" fill="#FFD085"/>
</svg>
