<svg width="83" height="79" viewBox="0 0 83 79" fill="none" xmlns="http://www.w3.org/2000/svg">
<path d="M57.71 35.0201C65.08 35.0201 71.0499 29.0501 71.0699 21.6901C71.0699 14.3101 65.09 8.33008 57.71 8.33008" stroke="#99B876" stroke-width="7" stroke-miterlimit="10" stroke-linecap="round" stroke-linejoin="round"/>
<path d="M63.8501 49.53C66.0501 49.68 68.2401 50 70.4001 50.47C73.5601 50.74 76.4401 52.39 78.2701 54.98C79.0901 56.7 79.0901 58.7 78.2701 60.42C76.4301 63.01 73.5601 64.66 70.4001 64.95" stroke="#1F3341" stroke-width="7" stroke-miterlimit="10" stroke-linecap="round" stroke-linejoin="round"/>
<path d="M31.69 52.4001C46.63 52.4001 59.39 54.6601 59.39 63.7001C59.39 72.7401 46.71 75.0701 31.69 75.0701C16.75 75.0701 4 72.8302 4 63.7802C4 54.7402 16.67 52.4001 31.69 52.4001Z" stroke="#1F3341" stroke-width="7" stroke-miterlimit="10" stroke-linecap="round" stroke-linejoin="round"/>
<path d="M31.6899 39.5C21.8899 39.5 13.9399 31.55 13.9399 21.75C13.9399 11.95 21.8899 4 31.6899 4C41.4899 4 49.4399 11.95 49.4399 21.75C49.4799 31.52 41.5899 39.46 31.8199 39.5C31.7799 39.5 31.7299 39.5 31.6899 39.5Z" stroke="#99B876" stroke-width="7" stroke-miterlimit="10" stroke-linecap="round" stroke-linejoin="round"/>
</svg>
