<svg width="60" height="73" viewBox="0 0 60 73" fill="none" xmlns="http://www.w3.org/2000/svg">
<path d="M29.75 48.0017C13.71 48.0017 0 50.4817 0 60.3917C0 70.3017 13.62 72.8717 29.75 72.8717C45.8 72.8717 59.5 70.3917 59.5 60.4817C59.5 50.5717 45.89 48.0017 29.75 48.0017Z" fill="#1F3341"/>
<path d="M29.75 38.5617C40.48 38.7017 49.29 30.1217 49.43 19.3917C49.43 19.3517 49.43 19.3217 49.43 19.2817C49.35 8.55169 40.58 -0.0783108 29.85 0.0016892C29.82 0.0016892 29.78 0.0016892 29.75 0.0016892C19.02 -0.138311 10.21 8.44167 10.07 19.1717C10.07 19.2017 10.07 19.2417 10.07 19.2717C10.15 30.0017 18.92 38.6317 29.65 38.5517C29.68 38.5617 29.71 38.5617 29.75 38.5617Z" fill="#99B876"/>
</svg>
