<svg width="31" height="30" viewBox="0 0 31 30" fill="none" xmlns="http://www.w3.org/2000/svg">
<path d="M16.3024 17.8727L18.2184 15.9567L30.1064 27.8447L28.1904 29.7607L16.3024 17.8727Z" fill="#295E6B"/>
<path d="M22.8583 11.4523C22.8583 17.559 17.909 22.5083 11.8023 22.5083C5.69701 22.5083 0.747681 17.559 0.747681 11.4523C0.747681 5.34697 5.69701 0.396301 11.8023 0.396301C17.909 0.396301 22.8583 5.34697 22.8583 11.4523Z" fill="#295E6B"/>
<path d="M21.3882 11.5221C21.3882 16.8154 17.0962 21.1074 11.8029 21.1074C6.5082 21.1074 2.21753 16.8154 2.21753 11.5221C2.21753 6.22742 6.5082 1.93676 11.8029 1.93676C17.0962 1.93676 21.3882 6.22742 21.3882 11.5221Z" fill="white"/>
<path d="M14.7965 10.1308C14.8045 11.7881 13.4685 13.1375 11.8112 13.1455C10.1552 13.1548 8.80454 11.8175 8.79654 10.1601C8.78854 8.50413 10.1245 7.15479 11.7805 7.14546C13.4379 7.13746 14.7885 8.47346 14.7965 10.1308Z" fill="#063040"/>
<path d="M4.52637 16.0225C4.8757 16.6412 5.51703 17.5919 6.60503 18.4225C8.68637 20.0119 10.949 20.0439 11.8464 20.0439C12.7264 20.0452 15.265 20.0452 17.3837 18.2025C18.2917 17.4132 18.8237 16.5465 19.125 15.9492C17.6024 15.3439 14.997 14.5305 11.6837 14.5705C8.51037 14.6079 6.01837 15.4119 4.52637 16.0225Z" fill="#FFC255"/>
</svg>
