<svg width="82" height="66" viewBox="0 0 82 66" fill="none" xmlns="http://www.w3.org/2000/svg">
<path d="M40.9301 65.02C24.2201 65.02 9.18999 53.34 0.72999 33.77C0.40999 33.03 0.40999 32.2 0.72999 31.46C9.17999 11.92 24.2001 0.25 40.9301 0.25H40.97C49.42 0.33 57.6 3.24003 64.19 8.53003C71.69 14.63 77.5399 22.51 81.1899 31.46C81.5099 32.2 81.5099 33.03 81.1899 33.77C72.7499 53.34 57.7 65.02 40.97 65.02H40.9301ZM25.19 32.64C25.14 41.36 32.17 48.46 40.89 48.51C49.61 48.56 56.71 41.53 56.76 32.81C56.81 24.09 49.7801 16.99 41.0601 16.94C41.0301 16.94 41 16.94 40.98 16.94C32.28 16.92 25.21 23.94 25.19 32.64ZM31.1 32.64C31.1 31.99 31.1701 31.35 31.3001 30.72H31.5C35.85 30.72 39.42 27.29 39.6 22.94C40.05 22.86 40.51 22.82 40.98 22.82C46.39 22.86 50.74 27.28 50.69 32.69C50.65 38.1 46.23 42.45 40.82 42.4C35.45 42.36 31.12 38.01 31.1 32.64Z" fill="#1F3341"/>
</svg>
