<svg width="598" height="919" viewBox="0 0 598 919" fill="none" xmlns="http://www.w3.org/2000/svg">
<path d="M64.7702 818.66C67.3262 823.322 70.4249 830.317 71.8795 839.261C72.7715 844.756 72.8249 849.637 72.5742 853.581C64.6302 866.197 54.0795 880.58 40.1849 895.092C32.3302 903.293 24.5489 910.342 17.1942 916.372C16.2369 916.952 11.8155 919.494 7.41687 917.925C2.0022 915.993 -1.5858 908.469 0.700871 900.222C5.43554 890.5 10.1689 880.777 14.9035 871.056C22.5462 856.285 30.1889 841.514 37.8315 826.742C46.8115 824.048 55.7915 821.354 64.7702 818.66Z" fill="#E29320"/>
<path d="M208.069 734.632C209.892 755.678 213.392 779.3 219.649 804.716C222.632 816.839 225.964 828.231 229.478 838.872C229.606 841.455 230.829 843.789 232.756 844.643C235.622 845.913 240.178 843.95 241.741 839.248C244.081 828.18 246.098 815.767 247.349 802.169C248.99 784.355 248.98 768.187 248.176 754.159C240.269 744.147 232.366 734.133 224.462 724.121L208.069 734.632Z" fill="url(#paint0_linear)"/>
<path d="M221.068 763.513L234.942 741.738C230.28 718.157 223.671 691.949 214.216 663.957C200.807 624.257 184.882 590.47 169.624 562.863C206.695 508.546 243.766 454.231 280.838 399.917L222.33 378.042L100.683 537.714C109.7 579.073 127.918 636.854 167.162 696.373C184.924 723.313 203.646 745.529 221.068 763.513Z" fill="#E29320"/>
<path d="M346.498 182.315C278.166 196.797 266.14 205.299 258.586 215.887C248.71 229.735 252.145 239.223 245.129 282.282C240.406 311.275 234.332 334.707 229.777 350.397C254.897 359.083 282.229 370.48 310.673 385.576C320.932 391.02 330.66 396.587 339.864 402.195C356.528 385.392 366.998 368.339 373.68 352.511C397.844 295.247 372.812 252.979 400.42 204.963C410.53 187.375 424.182 175.136 436.53 166.617C399.809 171.672 369.212 177.501 346.498 182.315" fill="url(#paint1_linear)"/>
<path d="M565.013 24.3734C553.157 29.0187 535.081 32.9574 508.719 28.6507C508.634 28.6374 507.471 28.5588 506.767 29.4681C506.277 30.1014 506.324 30.8135 506.34 30.9922C509.065 37.4962 511.791 44.0002 514.518 50.5042L537.298 50.6855L563.418 50.2002C569.771 49.0002 576.125 47.8016 582.478 46.6016C584.566 45.8002 589.654 43.5281 593.518 38.0775C598.425 31.1561 597.999 23.8601 597.815 21.8574C597.638 20.7801 597.213 19.2774 596.039 18.0934C594.685 16.7294 592.719 16.1774 590.383 16.1774C583.066 16.1774 572.12 21.5907 565.013 24.3734" fill="url(#paint2_linear)"/>
<path d="M586.801 44.4124C576.661 46.2217 565.498 47.6364 553.432 48.3137C548.254 48.6044 543.248 48.7391 538.425 48.7497C535.773 48.9151 520.041 49.6537 510.725 38.5271C508.653 36.0537 507.27 33.4377 506.34 30.9924C504.288 44.4031 502.237 57.8151 500.185 71.2257L519.586 76.9377C519.637 76.3831 519.689 75.8271 519.74 75.2724C523.113 61.9244 528.672 56.3457 533.8 53.9924C535.057 53.4137 536.078 53.1271 550.066 52.1764C564.81 51.1737 568.534 51.1631 574.257 49.5911C577.242 48.7711 581.662 47.2817 586.801 44.4124Z" fill="#FFC255"/>
<path d="M125.332 334.578C117.153 339.804 75.8636 366.585 79.9942 379.08C81.1489 382.575 86.5316 386.994 92.7036 388.339C97.5849 389.403 101.785 388.284 103.98 387.512C115.324 378.401 126.669 369.288 138.013 360.175L148.541 339.963L145.15 330.515C135.118 327.111 125.088 323.707 115.056 320.3C118.481 325.059 121.908 329.819 125.332 334.578Z" fill="url(#paint3_linear)"/>
<path d="M167.496 322.784C162.076 324.225 152.4 326.038 140.764 323.988C129.766 322.05 121.81 317.505 117.348 314.464C113.605 312.502 112.349 312.554 111.937 313.04C110.585 314.633 116.094 323.485 123.725 328.562C130.362 332.978 137.246 333.634 141.105 333.666C140.289 344.068 137.033 350.781 134.11 355.048C129.889 361.216 125.774 363.137 118.244 370.498C111.737 376.86 107.082 382.978 103.981 387.513C114.036 383.189 125.953 377.018 138.488 368.145C146.368 362.565 153.137 356.876 158.864 351.52C161.741 341.941 164.618 332.362 167.496 322.784Z" fill="#FFC255"/>
<path d="M419.852 161.653C416.115 173.224 409.348 189.863 396.568 206.695C380.726 227.56 370.366 229.331 347.858 248.377C299.946 288.921 299.67 320.855 255.075 341.668C244.462 346.621 235.222 349.131 229.776 350.399C233.684 338.235 237.295 324.529 240.047 309.409C245.558 279.121 245.984 252.14 244.594 230.421C303.014 207.499 361.432 184.576 419.852 161.653Z" fill="#FCB94C"/>
<path d="M522.867 74.8798L498.561 65.9345C474.773 127.121 448.553 145.032 427.886 149.134C401.862 154.3 390.063 136.489 347.934 137.577C337.561 137.846 299.899 139.284 267.753 162.86C241.923 181.802 239.254 200.662 210.007 247.405C194.505 272.185 176.579 296.732 155.851 320.742C157.215 332.63 158.579 344.518 159.943 356.406C175.729 344.604 199.17 325.197 222.926 296.9C249.813 264.872 248.073 256.036 269.034 237.257C305.586 204.51 349.941 196.38 369.402 193.05C406.501 186.702 412.833 194.94 434.139 189.045C460.849 181.656 494.978 156.52 522.867 74.8798Z" fill="#E9AB3B"/>
<path d="M336.858 136.88L359.931 137.794C361.242 138.078 366.302 139.32 367.647 143.097C368.887 146.584 366.278 150.31 365.215 151.83C356.665 164.046 314.225 167.304 289.051 174.56C274.559 178.737 254.358 187.53 232.549 208.35C237.018 198.117 247.377 178.23 268.873 161.62C296.618 140.18 325.861 137.378 336.858 136.88Z" fill="#FFC255"/>
<path d="M295.544 127.637C297.98 135.857 298.769 143.268 298.912 149.122C302.905 161.898 314.038 169.429 324.018 167.963C332.425 166.729 337.304 159.511 338.34 157.896C336.045 140.119 333.749 122.339 331.454 104.561L320.949 100.075C306.293 98.3626 291.638 96.6547 276.982 94.9467C282.497 100.996 290.876 111.89 295.544 127.637" fill="url(#paint4_linear)"/>
<path d="M291.879 24.8228C268.962 43.1801 263.314 41.7959 261.181 48.7613C253.101 75.1519 295.323 102.1 298.621 103.649C300.002 104.299 301.422 104.872 301.422 104.872C303.876 105.867 306.005 106.513 307.885 107.053C339.879 116.268 350.12 105.299 350.12 105.299C360.685 94.3 349.712 66.7908 340.48 52.9468C333.197 42.0268 320.965 30.5613 314.181 24.2053C309.906 20.1986 306.23 17.024 303.686 14.884C301.03 17.2333 296.971 20.7441 291.879 24.8228" fill="url(#paint5_linear)"/>
<path d="M287.63 0.0015218C286.254 3.82419 283.808 9.25752 279.318 14.5989C269.99 25.6935 260.485 26.0974 253.828 32.8254C248.146 38.5627 243.634 49.8186 248.872 74.0399C251.136 81.1519 257.536 97.7399 274.154 109.805C281.072 114.824 287.877 117.701 293.238 119.399C294.944 115.341 294.505 112.965 293.76 111.535C292.268 108.663 289.084 108.697 285.958 105.329C283.906 103.12 282.972 100.619 282.505 98.8362C283.75 97.8548 284.997 96.8734 286.244 95.8948C292.729 104.047 299.216 112.203 305.704 120.357C325.129 138.231 349.102 141.355 362.04 131.249C364.361 129.437 370.252 124.132 372.48 112.277C372.282 105.275 370.849 89.8294 360.378 74.7307C354.776 66.648 348.396 61.2813 343.616 57.9293C344.142 59.4973 347.776 70.904 340.965 81.8974C333.186 94.4587 318.789 95.1667 317.649 95.2014C311.688 94.2841 293.061 90.6189 280.554 74.4322C276.686 69.4295 274.297 64.3842 272.786 60.1269C265.929 57.8749 263.073 52.0961 264.444 48.8508C265.389 46.6201 268.432 45.3373 271.662 45.148C276.79 43.9587 286.381 40.972 295.352 32.9267C300.609 28.212 303.988 23.2519 306.093 19.5132C308.302 15.6946 308.04 12.8413 307.822 11.636C306.68 5.3293 298.701 -0.00143914 288.001 -0.000105807C287.877 -0.000105807 287.753 -0.000105807 287.63 -0.000105807" fill="url(#paint6_linear)"/>
<path d="M272.213 93.6254C275.437 99.196 283.678 101.471 290.55 97.543C284.953 91.4777 279.353 85.4095 273.754 79.3415C270.385 83.7122 269.788 89.4374 272.213 93.6254" fill="url(#paint7_linear)"/>
<path d="M303.446 97.407C303.034 95.491 301.491 87.2776 306.399 79.4003C313.558 67.9136 327.651 68.0283 328.366 68.0456C328.53 66.4136 329.353 60.1763 334.603 55.6483C339.978 51.011 347.883 49.987 354.969 52.935C349.935 54.2376 344.335 56.711 340.471 61.7123C336.098 67.3696 337.545 71.6056 332.879 75.6563C327.983 79.907 323.598 77.663 317.094 80.699C312.989 82.6136 307.598 86.839 303.446 97.407Z" fill="#FFC255"/>
<path d="M171.062 412.316C150.026 436.403 130.938 459.983 113.646 482.685C108.788 488.777 98.3662 503.699 98.7248 523.831C98.8182 529.055 99.6195 533.725 100.685 537.713C115.009 520.357 130.439 502.564 147.035 484.511C168.967 460.656 190.651 438.833 211.695 418.927C215.689 409.728 219.685 400.528 223.678 391.329C222.395 399.727 221.115 408.123 219.833 416.518C234.145 413.064 248.456 409.608 262.766 406.152C248.481 412.025 234.193 417.899 219.909 423.771C195.65 445.075 170.068 469.361 144.024 496.875C117.889 524.483 94.9728 551.449 74.9808 576.916C64.3302 611.1 54.2769 650.389 46.7129 694.255C37.6209 747.008 34.0982 794.984 33.4595 836.34C29.0369 843.633 27.6355 848.161 29.2502 849.927C32.0409 852.975 43.8395 847.775 64.6422 834.331C75.0555 802.729 85.2328 769.883 95.0328 735.82C106.729 695.161 117.057 655.663 126.189 617.488C169.708 585.075 218.605 543.515 267.77 490.976C302.193 454.194 331.005 418.166 354.985 384.795C315.957 370.236 276.928 355.679 237.901 341.123C216.209 362.624 193.768 386.316 171.062 412.316Z" fill="url(#paint8_linear)"/>
<defs>
<linearGradient id="paint0_linear" x1="212.465" y1="790.637" x2="255.623" y2="775.744" gradientUnits="userSpaceOnUse">
<stop stop-color="#FEB12B"/>
<stop offset="0.795031" stop-color="#FEB12B"/>
<stop offset="0.994924" stop-color="#FEB12B"/>
<stop offset="1" stop-color="#FEB12B"/>
</linearGradient>
<linearGradient id="paint1_linear" x1="274.736" y1="199.152" x2="408.291" y2="334.853" gradientUnits="userSpaceOnUse">
<stop stop-color="#FCB43F"/>
<stop offset="0.0111732" stop-color="#FCB43F"/>
<stop offset="0.451797" stop-color="#FFC255"/>
<stop offset="0.535916" stop-color="#FFC255"/>
<stop offset="0.905767" stop-color="#F8E4B1"/>
<stop offset="0.994413" stop-color="#F8E4B1"/>
<stop offset="1" stop-color="#F8E4B1"/>
</linearGradient>
<linearGradient id="paint2_linear" x1="533.709" y1="61.7885" x2="568.909" y2="1.92687" gradientUnits="userSpaceOnUse">
<stop stop-color="#FEB12B"/>
<stop offset="0.0111732" stop-color="#FEB12B"/>
<stop offset="0.263774" stop-color="#FFDC83"/>
<stop offset="0.413011" stop-color="#FFDC83"/>
<stop offset="0.644641" stop-color="#FFDC83"/>
<stop offset="0.938547" stop-color="#EFEFEF"/>
<stop offset="1" stop-color="#EFEFEF"/>
</linearGradient>
<linearGradient id="paint3_linear" x1="136.183" y1="367.428" x2="92.1721" y2="347.625" gradientUnits="userSpaceOnUse">
<stop stop-color="#FEB12B"/>
<stop offset="0.0111732" stop-color="#FEB12B"/>
<stop offset="0.263774" stop-color="#FFDC83"/>
<stop offset="0.413011" stop-color="#FFDC83"/>
<stop offset="0.644641" stop-color="#FFDC83"/>
<stop offset="0.938547" stop-color="#EEEEEE"/>
<stop offset="1" stop-color="#EEEEEE"/>
</linearGradient>
<linearGradient id="paint4_linear" x1="313.06" y1="98.5458" x2="300.31" y2="164.374" gradientUnits="userSpaceOnUse">
<stop stop-color="#FEB12B"/>
<stop offset="0.0111732" stop-color="#FEB12B"/>
<stop offset="0.263774" stop-color="#FFDC83"/>
<stop offset="0.413011" stop-color="#FFDC83"/>
<stop offset="0.644641" stop-color="#FFDC83"/>
<stop offset="0.938547" stop-color="#EFEFEF"/>
<stop offset="1" stop-color="#EFEFEF"/>
</linearGradient>
<linearGradient id="paint5_linear" x1="360.119" y1="83.1496" x2="263.086" y2="43.9244" gradientUnits="userSpaceOnUse">
<stop stop-color="#FEB12B"/>
<stop offset="0.0111732" stop-color="#FEB12B"/>
<stop offset="0.263774" stop-color="#FFDC83"/>
<stop offset="0.413011" stop-color="#FFDC83"/>
<stop offset="0.644641" stop-color="#FFDC83"/>
<stop offset="0.938547" stop-color="#EFEFEF"/>
<stop offset="1" stop-color="#EFEFEF"/>
</linearGradient>
<linearGradient id="paint6_linear" x1="254.557" y1="90.5851" x2="356.355" y2="55.457" gradientUnits="userSpaceOnUse">
<stop stop-color="#FEB12B"/>
<stop offset="0.795031" stop-color="#FEB12B"/>
<stop offset="0.994924" stop-color="#FEB12B"/>
<stop offset="1" stop-color="#FEB12B"/>
</linearGradient>
<linearGradient id="paint7_linear" x1="277.241" y1="98.1746" x2="283.986" y2="84.3237" gradientUnits="userSpaceOnUse">
<stop stop-color="#FFDC83"/>
<stop offset="0.413011" stop-color="#FFDC83"/>
<stop offset="0.644641" stop-color="#FFDC83"/>
<stop offset="0.938547" stop-color="#EFEFEF"/>
<stop offset="1" stop-color="#EFEFEF"/>
</linearGradient>
<linearGradient id="paint8_linear" x1="-37.9045" y1="655.872" x2="396.767" y2="505.878" gradientUnits="userSpaceOnUse">
<stop stop-color="#FEB12B"/>
<stop offset="0.795031" stop-color="#FEB12B"/>
<stop offset="0.994924" stop-color="#FEB12B"/>
<stop offset="1" stop-color="#FEB12B"/>
</linearGradient>
</defs>
</svg>
