<?xml version="1.0" encoding="UTF-8" standalone="no"?>
<svg
   xmlns:dc="http://purl.org/dc/elements/1.1/"
   xmlns:cc="http://creativecommons.org/ns#"
   xmlns:rdf="http://www.w3.org/1999/02/22-rdf-syntax-ns#"
   xmlns:svg="http://www.w3.org/2000/svg"
   xmlns="http://www.w3.org/2000/svg"
   xmlns:sodipodi="http://sodipodi.sourceforge.net/DTD/sodipodi-0.dtd"
   xmlns:inkscape="http://www.inkscape.org/namespaces/inkscape"
   width="116.58961"
   height="54.875988"
   viewBox="0 0 116.58961 54.875988"
   fill="none"
   version="1.1"
   id="svg1726"
   sodipodi:docname="aspasDestaque.svg"
   inkscape:version="1.0.1 (3bc2e813f5, 2020-09-07)">
  <metadata
     id="metadata1730">
    <rdf:RDF>
      <cc:Work
         rdf:about="">
        <dc:format>image/svg+xml</dc:format>
        <dc:type
           rdf:resource="http://purl.org/dc/dcmitype/StillImage" />
        <dc:title></dc:title>
      </cc:Work>
    </rdf:RDF>
  </metadata>
  <sodipodi:namedview
     pagecolor="#ffffff"
     bordercolor="#666666"
     borderopacity="1"
     objecttolerance="10"
     gridtolerance="10"
     guidetolerance="10"
     inkscape:pageopacity="0"
     inkscape:pageshadow="2"
     inkscape:window-width="1920"
     inkscape:window-height="1016"
     id="namedview1728"
     showgrid="false"
     fit-margin-top="0"
     fit-margin-left="0"
     fit-margin-right="0"
     fit-margin-bottom="0"
     inkscape:zoom="0.88982456"
     inkscape:cx="-381.77477"
     inkscape:cy="47.999987"
     inkscape:window-x="1920"
     inkscape:window-y="27"
     inkscape:window-maximized="1"
     inkscape:current-layer="svg1726" />
  <path
     d="m 0,54.875987 c 24.48,-14.752 43.9,-23.9174 56.79,-29.4347 0,0 7.91,-3.3867 19.89,-7.1067 13.11,-4.0733 35.36,-10.9839503 39.3,-4.4986 0.45,0.7426 0.52,1.4306 0.58,2.1213 0.86,9.5627 -17.28,17.752 -20.11,18.9947 -8.89,3.7586 -18.86,7.3733 -29.86,10.468 -25.32,7.1226 -48.21,9.2813 -66.59,9.456 z"
     fill="#d8252c"
     id="path1715" />
  <path
     d="m 29.74,30.903287 c 4.89,-4.624 9.78,-9.248 14.67,-13.8693 C 50.1,11.219287 52.02,5.0233067 49.85,1.9646367 48.61,0.22863871 46.43,0.02197301 46.32,0.01397301 42.35,-0.30069329 37.79,4.7219767 35.52,12.781987 Z"
     fill="#ff7878"
     id="path1717" />
  <defs
     id="defs1724">
    <clipPath
       id="clip0">
      <rect
         width="1424.95"
         height="95.279198"
         fill="#ffffff"
         id="rect1721"
         x="0"
         y="0" />
    </clipPath>
  </defs>
</svg>
