<svg width="1921" height="1251" viewBox="0 0 1921 1251" fill="none" xmlns="http://www.w3.org/2000/svg">
<path d="M0 0H1919.91V1250.64H1653.08L1541.84 1139.4H1093.64L1036.94 1082.7H0V0Z" fill="#072F3F"/>
<path d="M1252.55 515.28L1919.27 1182" stroke="white" stroke-width="4" stroke-miterlimit="10"/>
<path d="M1548.47 590.16L1855.19 896.88" stroke="white" stroke-width="4" stroke-miterlimit="10"/>
<path d="M1319.51 810.48L1626.23 1117.2" stroke="white" stroke-width="4" stroke-miterlimit="10"/>
<path d="M1854.47 894.36V1119" stroke="white" stroke-width="4" stroke-miterlimit="10"/>
<path d="M1623.59 1117.2H1854.47" stroke="white" stroke-width="4" stroke-miterlimit="10"/>
<path d="M1013.09 1006.68H1515.71" stroke="white" stroke-width="4" stroke-miterlimit="10"/>
<path d="M1750.03 281.84V791.72" stroke="white" stroke-width="4" stroke-miterlimit="10"/>
<path d="M1175.56 1006.68V629.47" stroke="white" stroke-width="4" stroke-miterlimit="10"/>
<path d="M1750.03 433.56H1372.82" stroke="white" stroke-width="4" stroke-miterlimit="10"/>
<path d="M1072.86 536.93L1176.65 631.51" stroke="white" stroke-width="4" stroke-miterlimit="10"/>
<path d="M912.53 913.95L1016.32 1008.53" stroke="white" stroke-width="4" stroke-miterlimit="10"/>
<path d="M1271.27 340.2L1375.06 434.78" stroke="white" stroke-width="4" stroke-miterlimit="10"/>
<path d="M1652.52 183.92L1750.83 284.18" stroke="white" stroke-width="4" stroke-miterlimit="10"/>
<path d="M1689.24 177.79C1689.24 199.85 1671.35 217.74 1649.29 217.74C1627.22 217.74 1609.34 199.85 1609.34 177.79C1609.34 155.72 1627.23 137.84 1649.29 137.84C1671.35 137.84 1689.24 155.72 1689.24 177.79Z" stroke="#30886F" stroke-width="4" stroke-miterlimit="10"/>
<path d="M1679.91 177.79C1679.91 194.7 1666.2 208.42 1649.28 208.42C1632.36 208.42 1618.65 194.7 1618.65 177.79C1618.65 160.87 1632.36 147.16 1649.28 147.16C1666.2 147.16 1679.91 160.87 1679.91 177.79Z" stroke="url(#paint0_linear)" stroke-width="3" stroke-miterlimit="10"/>
<path d="M1670.31 177.42C1670.31 189.2 1660.77 198.74 1648.99 198.74C1637.21 198.74 1627.66 189.19 1627.66 177.42C1627.66 165.64 1637.21 156.1 1648.99 156.1C1660.77 156.1 1670.31 165.64 1670.31 177.42Z" fill="white"/>
<path d="M1299.46 325.53C1299.46 347.59 1281.57 365.48 1259.51 365.48C1237.44 365.48 1219.56 347.59 1219.56 325.53C1219.56 303.46 1237.45 285.58 1259.51 285.58C1281.57 285.58 1299.46 303.47 1299.46 325.53Z" stroke="#30886F" stroke-width="4" stroke-miterlimit="10"/>
<path d="M1290.13 325.53C1290.13 342.44 1276.42 356.16 1259.5 356.16C1242.58 356.16 1228.87 342.44 1228.87 325.53C1228.87 308.61 1242.58 294.9 1259.5 294.9C1276.42 294.9 1290.13 308.62 1290.13 325.53Z" stroke="url(#paint1_linear)" stroke-width="3" stroke-miterlimit="10"/>
<path d="M1280.53 325.16C1280.53 336.94 1270.99 346.48 1259.21 346.48C1247.43 346.48 1237.88 336.93 1237.88 325.16C1237.88 313.38 1247.43 303.84 1259.21 303.84C1270.99 303.84 1280.53 313.38 1280.53 325.16Z" fill="white"/>
<path d="M1280.53 500.64C1280.53 522.7 1262.64 540.59 1240.58 540.59C1218.51 540.59 1200.63 522.7 1200.63 500.64C1200.63 478.57 1218.52 460.69 1240.58 460.69C1262.64 460.69 1280.53 478.58 1280.53 500.64Z" stroke="#30886F" stroke-width="4" stroke-miterlimit="10"/>
<path d="M1271.2 500.64C1271.2 517.55 1257.49 531.27 1240.57 531.27C1223.65 531.27 1209.94 517.55 1209.94 500.64C1209.94 483.72 1223.65 470.01 1240.57 470.01C1257.49 470.01 1271.2 483.72 1271.2 500.64Z" stroke="url(#paint2_linear)" stroke-width="3" stroke-miterlimit="10"/>
<path d="M1261.6 500.27C1261.6 512.05 1252.06 521.59 1240.28 521.59C1228.5 521.59 1218.95 512.04 1218.95 500.27C1218.95 488.5 1228.5 478.95 1240.28 478.95C1252.06 478.95 1261.6 488.49 1261.6 500.27Z" fill="white"/>
<path d="M1097.86 524.07C1097.86 546.13 1079.97 564.02 1057.91 564.02C1035.84 564.02 1017.96 546.13 1017.96 524.07C1017.96 502 1035.85 484.12 1057.91 484.12C1079.97 484.12 1097.86 502.01 1097.86 524.07Z" stroke="#30886F" stroke-width="4" stroke-miterlimit="10"/>
<path d="M1088.54 524.07C1088.54 540.98 1074.83 554.7 1057.91 554.7C1040.99 554.7 1027.28 540.98 1027.28 524.07C1027.28 507.15 1040.99 493.44 1057.91 493.44C1074.82 493.44 1088.54 507.16 1088.54 524.07Z" stroke="url(#paint3_linear)" stroke-width="3" stroke-miterlimit="10"/>
<path d="M1078.93 523.7C1078.93 535.48 1069.39 545.02 1057.61 545.02C1045.83 545.02 1036.28 535.47 1036.28 523.7C1036.28 511.93 1045.83 502.38 1057.61 502.38C1069.39 502.38 1078.93 511.92 1078.93 523.7Z" fill="white"/>
<path d="M952.49 913.95C952.49 936.01 934.6 953.9 912.54 953.9C890.47 953.9 872.59 936.01 872.59 913.95C872.59 891.88 890.48 874 912.54 874C934.6 874 952.49 891.89 952.49 913.95Z" stroke="#30886F" stroke-width="4" stroke-miterlimit="10"/>
<path d="M943.159 913.95C943.159 930.86 929.449 944.58 912.529 944.58C895.609 944.58 881.899 930.86 881.899 913.95C881.899 897.03 895.609 883.32 912.529 883.32C929.449 883.32 943.159 897.04 943.159 913.95Z" stroke="url(#paint4_linear)" stroke-width="3" stroke-miterlimit="10"/>
<path d="M933.549 913.58C933.549 925.36 924.009 934.9 912.229 934.9C900.449 934.9 890.899 925.35 890.899 913.58C890.899 901.8 900.449 892.26 912.229 892.26C924.009 892.26 933.549 901.8 933.549 913.58Z" fill="white"/>
<path d="M1365.1 810.48C1365.1 832.54 1347.21 850.43 1325.15 850.43C1303.08 850.43 1285.2 832.54 1285.2 810.48C1285.2 788.41 1303.09 770.53 1325.15 770.53C1347.21 770.53 1365.1 788.42 1365.1 810.48Z" stroke="#30886F" stroke-width="4" stroke-miterlimit="10"/>
<path d="M1355.77 810.48C1355.77 827.39 1342.06 841.11 1325.14 841.11C1308.22 841.11 1294.51 827.39 1294.51 810.48C1294.51 793.56 1308.22 779.85 1325.14 779.85C1342.06 779.85 1355.77 793.57 1355.77 810.48Z" stroke="url(#paint5_linear)" stroke-width="3" stroke-miterlimit="10"/>
<path d="M1346.17 810.11C1346.17 821.89 1336.63 831.43 1324.85 831.43C1313.07 831.43 1303.52 821.88 1303.52 810.11C1303.52 798.33 1313.07 788.79 1324.85 788.79C1336.63 788.79 1346.17 798.33 1346.17 810.11Z" fill="white"/>
<path d="M1570.66 1012.8C1570.66 1034.86 1552.77 1052.75 1530.71 1052.75C1508.64 1052.75 1490.76 1034.86 1490.76 1012.8C1490.76 990.73 1508.65 972.85 1530.71 972.85C1552.77 972.85 1570.66 990.73 1570.66 1012.8Z" stroke="#30886F" stroke-width="4" stroke-miterlimit="10"/>
<path d="M1561.33 1012.8C1561.33 1029.71 1547.62 1043.43 1530.7 1043.43C1513.78 1043.43 1500.07 1029.71 1500.07 1012.8C1500.07 995.88 1513.78 982.17 1530.7 982.17C1547.62 982.17 1561.33 995.88 1561.33 1012.8Z" stroke="url(#paint6_linear)" stroke-width="3" stroke-miterlimit="10"/>
<path d="M1551.73 1012.43C1551.73 1024.21 1542.19 1033.75 1530.41 1033.75C1518.63 1033.75 1509.08 1024.2 1509.08 1012.43C1509.08 1000.65 1518.63 991.11 1530.41 991.11C1542.19 991.11 1551.73 1000.65 1551.73 1012.43Z" fill="white"/>
<path d="M1789.98 791.73C1789.98 813.79 1772.09 831.68 1750.03 831.68C1727.96 831.68 1710.08 813.79 1710.08 791.73C1710.08 769.66 1727.97 751.78 1750.03 751.78C1772.1 751.77 1789.98 769.66 1789.98 791.73Z" stroke="#30886F" stroke-width="4" stroke-miterlimit="10"/>
<path d="M1780.66 791.73C1780.66 808.64 1766.95 822.36 1750.03 822.36C1733.11 822.36 1719.4 808.64 1719.4 791.73C1719.4 774.81 1733.11 761.1 1750.03 761.1C1766.95 761.1 1780.66 774.81 1780.66 791.73Z" stroke="url(#paint7_linear)" stroke-width="3" stroke-miterlimit="10"/>
<path d="M1771.05 791.35C1771.05 803.13 1761.51 812.67 1749.73 812.67C1737.95 812.67 1728.4 803.12 1728.4 791.35C1728.4 779.57 1737.95 770.03 1749.73 770.03C1761.51 770.03 1771.05 779.57 1771.05 791.35Z" fill="white"/>
<path d="M1594.18 590.16C1594.18 612.22 1576.29 630.11 1554.23 630.11C1532.16 630.11 1514.28 612.22 1514.28 590.16C1514.28 568.09 1532.17 550.21 1554.23 550.21C1576.29 550.21 1594.18 568.1 1594.18 590.16Z" stroke="#30886F" stroke-width="4" stroke-miterlimit="10"/>
<path d="M1584.85 590.16C1584.85 607.07 1571.14 620.79 1554.22 620.79C1537.3 620.79 1523.59 607.07 1523.59 590.16C1523.59 573.24 1537.3 559.53 1554.22 559.53C1571.14 559.53 1584.85 573.24 1584.85 590.16Z" stroke="url(#paint8_linear)" stroke-width="3" stroke-miterlimit="10"/>
<path d="M1575.25 589.79C1575.25 601.57 1565.71 611.11 1553.93 611.11C1542.15 611.11 1532.6 601.56 1532.6 589.79C1532.6 578.01 1542.15 568.47 1553.93 568.47C1565.71 568.47 1575.25 578.01 1575.25 589.79Z" fill="white"/>
<path d="M912.23 709.591C912.23 752.151 877.73 786.651 835.17 786.651C792.6 786.651 758.11 752.151 758.11 709.591C758.11 667.021 792.6 632.521 835.17 632.521C877.73 632.531 912.23 667.031 912.23 709.591Z" stroke="url(#paint9_linear)" stroke-width="3" stroke-miterlimit="10"/>
<path d="M856.25 701.37C855.74 700.1 854.78 699.91 853.89 700.07C854 698.42 854.05 696.59 854.06 694.4C854.1 678.55 845.57 673.96 834.38 673.65H834.37C823.19 673.96 814.65 678.56 814.7 694.4C814.7 696.66 814.76 698.53 814.87 700.23C813.86 699.89 812.55 699.82 811.92 701.38C811.92 701.38 812.58 711.03 816.6 710.53C817.07 712.44 817.63 714.62 818.32 717.29C820.21 724.71 830.29 728.62 834.13 728.87C834.21 728.86 834.3 728.86 834.39 728.85C834.47 728.86 834.56 728.86 834.64 728.87C838.48 728.61 848.56 724.7 850.45 717.29C851.13 714.62 851.7 712.43 852.16 710.52C855.66 710.05 856.25 701.37 856.25 701.37Z" fill="#8CBA73"/>
<path d="M814.961 700.96L816.711 711.48L818.161 712.42L816.711 697.66L819.201 691.77C832.921 687.55 835.401 681.41 835.401 681.41C851.751 681.74 849.541 693.1 849.541 693.1L851.941 698.2L850.491 712.97L851.941 712.03L853.691 701.51C856.331 695.72 854.741 682.3 854.741 682.3C854.741 682.3 852.751 676.83 848.511 676.2C848.511 676.2 847.861 667.87 833.521 667.23C833.521 667.22 803.111 667.38 814.961 700.96Z" fill="#8CBA73"/>
<path d="M818.73 736.3L801.9 740.68C801.13 740.72 799.86 740.9 798.56 741.69C795.64 743.47 795.14 746.8 795.07 747.32C802.27 751.93 809.46 756.54 816.66 761.15C821.75 762.4 828.97 763.59 837.59 763.1C844.44 762.72 850.21 761.39 854.59 760.04C860.95 755.48 867.31 750.92 873.68 746.36C873.27 745.4 871.39 741.26 867.91 740.74C867.6 740.69 867.27 740.67 866.91 740.69C861.04 739 855.16 737.32 849.29 735.63L834.34 761.65L818.73 736.3Z" fill="#8CBA73"/>
<path d="M825.46 725.74C825.46 725.74 825.39 732.5 818.73 736.3L808.95 740.12L824.6 761H842.82L860.84 740.12L848.71 735.63C848.71 735.63 843.27 731.61 843.29 725.74" fill="#8CBA73"/>
<path d="M887.37 709.59C887.37 739.22 863.36 763.24 833.73 763.24C804.1 763.24 780.07 739.22 780.07 709.59C780.07 679.96 804.1 655.94 833.73 655.94C863.36 655.94 887.37 679.96 887.37 709.59Z" stroke="#30886F" stroke-width="3" stroke-miterlimit="10"/>
<path d="M1134.97 304.88C1134.97 347.44 1100.47 381.94 1057.91 381.94C1015.34 381.94 980.851 347.44 980.851 304.88C980.851 262.31 1015.34 227.81 1057.91 227.81C1100.47 227.81 1134.97 262.32 1134.97 304.88Z" stroke="url(#paint10_linear)" stroke-width="3" stroke-miterlimit="10"/>
<path d="M1078.99 296.66C1078.48 295.39 1077.52 295.2 1076.63 295.36C1076.74 293.71 1076.79 291.88 1076.8 289.69C1076.84 273.84 1068.31 269.25 1057.12 268.94H1057.11C1045.93 269.25 1037.39 273.85 1037.44 289.69C1037.44 291.95 1037.5 293.82 1037.61 295.52C1036.6 295.18 1035.29 295.11 1034.66 296.67C1034.66 296.67 1035.32 306.32 1039.34 305.82C1039.81 307.73 1040.37 309.91 1041.06 312.58C1042.95 320 1053.03 323.91 1056.87 324.16C1056.95 324.15 1057.04 324.15 1057.13 324.14C1057.21 324.15 1057.3 324.15 1057.38 324.16C1061.22 323.9 1071.3 319.99 1073.19 312.58C1073.87 309.91 1074.44 307.72 1074.9 305.81C1078.39 305.34 1078.99 296.66 1078.99 296.66Z" fill="#8CBA73"/>
<path d="M1037.69 296.25L1039.44 306.77L1040.89 307.71L1039.44 292.95L1041.93 287.06C1055.65 282.84 1058.13 276.7 1058.13 276.7C1074.48 277.03 1072.27 288.39 1072.27 288.39L1074.67 293.49L1073.22 308.26L1074.67 307.32L1076.42 296.8C1079.06 291.01 1077.47 277.59 1077.47 277.59C1077.47 277.59 1075.48 272.12 1071.24 271.49C1071.24 271.49 1070.59 263.16 1056.25 262.52C1056.26 262.5 1025.84 262.67 1037.69 296.25Z" fill="#8CBA73"/>
<path d="M1041.47 331.59L1024.64 335.97C1023.87 336.01 1022.6 336.19 1021.3 336.98C1018.38 338.76 1017.88 342.09 1017.81 342.61C1025.01 347.22 1032.2 351.83 1039.4 356.44C1044.49 357.69 1051.71 358.88 1060.33 358.39C1067.18 358.01 1072.95 356.68 1077.33 355.33C1083.69 350.77 1090.05 346.21 1096.42 341.65C1096.01 340.69 1094.13 336.55 1090.65 336.03C1090.34 335.98 1090.01 335.96 1089.65 335.98C1083.78 334.29 1077.9 332.61 1072.03 330.92L1057.08 356.94L1041.47 331.59Z" fill="#8CBA73"/>
<path d="M1048.2 321.03C1048.2 321.03 1048.13 327.79 1041.47 331.59L1031.69 335.41L1047.34 356.29H1065.56L1083.58 335.41L1071.45 330.92C1071.45 330.92 1066.01 326.9 1066.03 321.03" fill="#8CBA73"/>
<path d="M1110.1 304.88C1110.1 334.51 1086.09 358.53 1056.46 358.53C1026.83 358.53 1002.8 334.51 1002.8 304.88C1002.8 275.25 1026.83 251.23 1056.46 251.23C1086.09 251.23 1110.1 275.25 1110.1 304.88Z" stroke="#30886F" stroke-width="3" stroke-miterlimit="10"/>
<path d="M1473.63 90.7902C1473.63 133.35 1439.13 167.85 1396.57 167.85C1354 167.85 1319.51 133.35 1319.51 90.7902C1319.51 48.2202 1354 13.7202 1396.57 13.7202C1439.13 13.7202 1473.63 48.2202 1473.63 90.7902Z" stroke="url(#paint11_linear)" stroke-width="3" stroke-miterlimit="10"/>
<path d="M1417.65 82.5701C1417.14 81.3001 1416.18 81.1101 1415.29 81.2701C1415.4 79.6201 1415.45 77.7901 1415.46 75.6001C1415.5 59.7501 1406.97 55.1601 1395.78 54.8501H1395.77C1384.59 55.1601 1376.05 59.7601 1376.1 75.6001C1376.1 77.8601 1376.16 79.7301 1376.27 81.4301C1375.26 81.0901 1373.95 81.0201 1373.32 82.5801C1373.32 82.5801 1373.98 92.2301 1378 91.7301C1378.47 93.6401 1379.03 95.8201 1379.72 98.4901C1381.61 105.91 1391.69 109.82 1395.53 110.07C1395.61 110.06 1395.7 110.06 1395.79 110.05C1395.87 110.06 1395.96 110.06 1396.04 110.07C1399.88 109.81 1409.96 105.9 1411.85 98.4901C1412.53 95.8201 1413.1 93.6301 1413.56 91.7201C1417.05 91.2501 1417.65 82.5701 1417.65 82.5701Z" fill="#8CBA73"/>
<path d="M1376.35 82.1501L1378.1 92.6701L1379.55 93.6101L1378.1 78.8502L1380.59 72.9602C1394.31 68.7402 1396.79 62.6002 1396.79 62.6002C1413.14 62.9302 1410.93 74.2901 1410.93 74.2901L1413.33 79.3901L1411.88 94.1602L1413.33 93.2201L1415.08 82.7001C1417.72 76.9101 1416.13 63.4902 1416.13 63.4902C1416.13 63.4902 1414.14 58.0201 1409.9 57.3901C1409.9 57.3901 1409.25 49.0601 1394.91 48.4201C1394.92 48.4101 1364.5 48.5801 1376.35 82.1501Z" fill="#8CBA73"/>
<path d="M1380.13 117.5L1363.3 121.88C1362.53 121.92 1361.26 122.1 1359.96 122.89C1357.04 124.67 1356.54 128 1356.47 128.52C1363.67 133.13 1370.86 137.74 1378.06 142.35C1383.15 143.6 1390.37 144.79 1398.99 144.3C1405.84 143.92 1411.61 142.59 1415.99 141.24C1422.35 136.68 1428.71 132.12 1435.08 127.56C1434.67 126.6 1432.79 122.46 1429.31 121.94C1429 121.89 1428.67 121.87 1428.31 121.89C1422.44 120.2 1416.56 118.52 1410.69 116.83L1395.74 142.85L1380.13 117.5Z" fill="#8CBA73"/>
<path d="M1386.86 106.94C1386.86 106.94 1386.79 113.7 1380.13 117.5L1370.35 121.32L1386 142.2H1404.22L1422.24 121.32L1410.11 116.83C1410.11 116.83 1404.67 112.81 1404.69 106.94" fill="#8CBA73"/>
<path d="M1448.76 90.7901C1448.76 120.42 1424.75 144.44 1395.12 144.44C1365.49 144.44 1341.46 120.42 1341.46 90.7901C1341.46 61.1601 1365.49 37.1401 1395.12 37.1401C1424.75 37.1401 1448.76 61.1501 1448.76 90.7901Z" stroke="#30886F" stroke-width="3" stroke-miterlimit="10"/>
<defs>
<linearGradient id="paint0_linear" x1="1617.16" y1="177.791" x2="1681.41" y2="177.791" gradientUnits="userSpaceOnUse">
<stop stop-color="#FEB12B"/>
<stop offset="0.1976" stop-color="#FEAE2B"/>
<stop offset="0.3521" stop-color="#FEA42B"/>
<stop offset="0.4919" stop-color="#FD932A"/>
<stop offset="0.6231" stop-color="#FD7C2A"/>
<stop offset="0.7483" stop-color="#FD5E29"/>
<stop offset="0.8689" stop-color="#FC3928"/>
<stop offset="0.9839" stop-color="#FB0E27"/>
<stop offset="0.9949" stop-color="#FB0927"/>
</linearGradient>
<linearGradient id="paint1_linear" x1="1227.38" y1="325.534" x2="1291.63" y2="325.534" gradientUnits="userSpaceOnUse">
<stop stop-color="#FEB12B"/>
<stop offset="0.1976" stop-color="#FEAE2B"/>
<stop offset="0.3521" stop-color="#FEA42B"/>
<stop offset="0.4919" stop-color="#FD932A"/>
<stop offset="0.6231" stop-color="#FD7C2A"/>
<stop offset="0.7483" stop-color="#FD5E29"/>
<stop offset="0.8689" stop-color="#FC3928"/>
<stop offset="0.9839" stop-color="#FB0E27"/>
<stop offset="0.9949" stop-color="#FB0927"/>
</linearGradient>
<linearGradient id="paint2_linear" x1="1208.45" y1="500.642" x2="1272.7" y2="500.642" gradientUnits="userSpaceOnUse">
<stop stop-color="#FEB12B"/>
<stop offset="0.1976" stop-color="#FEAE2B"/>
<stop offset="0.3521" stop-color="#FEA42B"/>
<stop offset="0.4919" stop-color="#FD932A"/>
<stop offset="0.6231" stop-color="#FD7C2A"/>
<stop offset="0.7483" stop-color="#FD5E29"/>
<stop offset="0.8689" stop-color="#FC3928"/>
<stop offset="0.9839" stop-color="#FB0E27"/>
<stop offset="0.9949" stop-color="#FB0927"/>
</linearGradient>
<linearGradient id="paint3_linear" x1="1025.78" y1="524.073" x2="1090.04" y2="524.073" gradientUnits="userSpaceOnUse">
<stop stop-color="#FEB12B"/>
<stop offset="0.1976" stop-color="#FEAE2B"/>
<stop offset="0.3521" stop-color="#FEA42B"/>
<stop offset="0.4919" stop-color="#FD932A"/>
<stop offset="0.6231" stop-color="#FD7C2A"/>
<stop offset="0.7483" stop-color="#FD5E29"/>
<stop offset="0.8689" stop-color="#FC3928"/>
<stop offset="0.9839" stop-color="#FB0E27"/>
<stop offset="0.9949" stop-color="#FB0927"/>
</linearGradient>
<linearGradient id="paint4_linear" x1="880.404" y1="913.953" x2="944.66" y2="913.953" gradientUnits="userSpaceOnUse">
<stop stop-color="#FEB12B"/>
<stop offset="0.1976" stop-color="#FEAE2B"/>
<stop offset="0.3521" stop-color="#FEA42B"/>
<stop offset="0.4919" stop-color="#FD932A"/>
<stop offset="0.6231" stop-color="#FD7C2A"/>
<stop offset="0.7483" stop-color="#FD5E29"/>
<stop offset="0.8689" stop-color="#FC3928"/>
<stop offset="0.9839" stop-color="#FB0E27"/>
<stop offset="0.9949" stop-color="#FB0927"/>
</linearGradient>
<linearGradient id="paint5_linear" x1="1293.02" y1="810.483" x2="1357.27" y2="810.483" gradientUnits="userSpaceOnUse">
<stop stop-color="#FEB12B"/>
<stop offset="0.1976" stop-color="#FEAE2B"/>
<stop offset="0.3521" stop-color="#FEA42B"/>
<stop offset="0.4919" stop-color="#FD932A"/>
<stop offset="0.6231" stop-color="#FD7C2A"/>
<stop offset="0.7483" stop-color="#FD5E29"/>
<stop offset="0.8689" stop-color="#FC3928"/>
<stop offset="0.9839" stop-color="#FB0E27"/>
<stop offset="0.9949" stop-color="#FB0927"/>
</linearGradient>
<linearGradient id="paint6_linear" x1="1498.58" y1="1012.8" x2="1562.83" y2="1012.8" gradientUnits="userSpaceOnUse">
<stop stop-color="#FEB12B"/>
<stop offset="0.1976" stop-color="#FEAE2B"/>
<stop offset="0.3521" stop-color="#FEA42B"/>
<stop offset="0.4919" stop-color="#FD932A"/>
<stop offset="0.6231" stop-color="#FD7C2A"/>
<stop offset="0.7483" stop-color="#FD5E29"/>
<stop offset="0.8689" stop-color="#FC3928"/>
<stop offset="0.9839" stop-color="#FB0E27"/>
<stop offset="0.9949" stop-color="#FB0927"/>
</linearGradient>
<linearGradient id="paint7_linear" x1="1717.9" y1="791.725" x2="1782.16" y2="791.725" gradientUnits="userSpaceOnUse">
<stop stop-color="#FEB12B"/>
<stop offset="0.1976" stop-color="#FEAE2B"/>
<stop offset="0.3521" stop-color="#FEA42B"/>
<stop offset="0.4919" stop-color="#FD932A"/>
<stop offset="0.6231" stop-color="#FD7C2A"/>
<stop offset="0.7483" stop-color="#FD5E29"/>
<stop offset="0.8689" stop-color="#FC3928"/>
<stop offset="0.9839" stop-color="#FB0E27"/>
<stop offset="0.9949" stop-color="#FB0927"/>
</linearGradient>
<linearGradient id="paint8_linear" x1="1522.1" y1="590.162" x2="1586.35" y2="590.162" gradientUnits="userSpaceOnUse">
<stop stop-color="#FEB12B"/>
<stop offset="0.1976" stop-color="#FEAE2B"/>
<stop offset="0.3521" stop-color="#FEA42B"/>
<stop offset="0.4919" stop-color="#FD932A"/>
<stop offset="0.6231" stop-color="#FD7C2A"/>
<stop offset="0.7483" stop-color="#FD5E29"/>
<stop offset="0.8689" stop-color="#FC3928"/>
<stop offset="0.9839" stop-color="#FB0E27"/>
<stop offset="0.9949" stop-color="#FB0927"/>
</linearGradient>
<linearGradient id="paint9_linear" x1="756.611" y1="709.593" x2="913.732" y2="709.593" gradientUnits="userSpaceOnUse">
<stop stop-color="#FEB12B"/>
<stop offset="0.1976" stop-color="#FEAE2B"/>
<stop offset="0.3521" stop-color="#FEA42B"/>
<stop offset="0.4919" stop-color="#FD932A"/>
<stop offset="0.6231" stop-color="#FD7C2A"/>
<stop offset="0.7483" stop-color="#FD5E29"/>
<stop offset="0.8689" stop-color="#FC3928"/>
<stop offset="0.9839" stop-color="#FB0E27"/>
<stop offset="0.9949" stop-color="#FB0927"/>
</linearGradient>
<linearGradient id="paint10_linear" x1="979.347" y1="304.88" x2="1136.47" y2="304.88" gradientUnits="userSpaceOnUse">
<stop stop-color="#FEB12B"/>
<stop offset="0.1976" stop-color="#FEAE2B"/>
<stop offset="0.3521" stop-color="#FEA42B"/>
<stop offset="0.4919" stop-color="#FD932A"/>
<stop offset="0.6231" stop-color="#FD7C2A"/>
<stop offset="0.7483" stop-color="#FD5E29"/>
<stop offset="0.8689" stop-color="#FC3928"/>
<stop offset="0.9839" stop-color="#FB0E27"/>
<stop offset="0.9949" stop-color="#FB0927"/>
</linearGradient>
<linearGradient id="paint11_linear" x1="1318.01" y1="90.7874" x2="1475.13" y2="90.7874" gradientUnits="userSpaceOnUse">
<stop stop-color="#FEB12B"/>
<stop offset="0.1976" stop-color="#FEAE2B"/>
<stop offset="0.3521" stop-color="#FEA42B"/>
<stop offset="0.4919" stop-color="#FD932A"/>
<stop offset="0.6231" stop-color="#FD7C2A"/>
<stop offset="0.7483" stop-color="#FD5E29"/>
<stop offset="0.8689" stop-color="#FC3928"/>
<stop offset="0.9839" stop-color="#FB0E27"/>
<stop offset="0.9949" stop-color="#FB0927"/>
</linearGradient>
</defs>
</svg>
