<svg width="1427" height="1233" viewBox="0 0 1427 1233" fill="none" xmlns="http://www.w3.org/2000/svg">
<path d="M125.647 63.4544C315.807 36.3244 523.347 17.2944 746.187 12.1644C828.887 10.2544 909.297 10.3644 987.287 12.1644C1009.85 199.444 1032.4 386.724 1054.96 574.014C967.957 597.014 875.487 618.274 777.807 636.654C565.577 676.604 368.767 695.484 192.837 701.874C173.287 622.014 155.807 532.764 143.427 435.084C125.967 297.194 122.367 171.904 125.647 63.4544Z" fill="#B0C98F"/>
<path d="M184.857 341.844C185.997 396.924 191.687 461.294 206.457 531.924C214.497 570.384 224.187 605.734 234.537 637.764C341.787 633.764 449.037 629.754 556.287 625.754L510.867 385.604L184.857 341.844Z" fill="#7B9650"/>
<path d="M190.247 179.084C183.867 166.314 177.477 153.554 171.097 140.784C298.697 111.994 452.107 87.8344 626.417 81.2144C744.017 76.7444 851.817 80.9944 947.697 89.7244C958.407 169.504 967.157 253.274 973.227 340.784C975.887 379.184 977.937 416.894 979.437 453.874C716.377 362.274 453.307 270.684 190.247 179.084Z" fill="#7B9650"/>
<path d="M124.587 146.534C124.687 175.564 125.337 205.564 126.647 236.464C128.247 274.484 130.727 311.084 133.877 346.164C164.597 365.574 209.627 399.094 248.187 452.864C294.737 517.774 286.867 549.264 329.217 591.204C376.927 638.454 453.957 664.194 520.907 652.464C605.947 637.564 621.517 571.534 691.197 536.814C754.437 505.304 861.817 499.814 1054.98 618.864C1040.86 551.814 1026.75 484.774 1012.63 417.724C1000.01 408.494 980.117 395.654 953.707 385.664C847.507 345.514 783.167 407.294 675.057 397.524C585.257 389.404 519.327 336.814 451.747 282.904C358.207 208.304 337.157 148.254 258.057 130.734C205.807 119.154 157.737 132.734 124.587 146.534Z" fill="#0D5060"/>
<path d="M283.747 97.1344C357.387 81.5444 446.327 68.3044 547.577 64.5244C645.567 60.8744 732.606 66.9144 805.477 76.3844C803.237 151.004 811.067 257.034 864.767 363.924C930.577 494.934 1023.08 543.224 1123.66 642.574C1207.41 725.304 1310.74 857.234 1386.5 1069.44C1308.81 1119.95 1193.97 1180.15 1045.6 1211.73C986.346 1224.34 931.407 1230.33 882.557 1232.48C822.097 935.914 700.787 783.554 597.967 698.904C506.007 623.184 421.027 595.204 351.927 488.434C267.437 357.874 268.997 205.794 283.747 97.1344Z" fill="url(#paint0_linear)"/>
<path d="M329.637 245.264C329.057 243.124 325.567 229.294 334.227 215.924C342.917 202.514 357.017 200.064 359.207 199.724C474.147 189.594 589.087 179.464 704.017 169.334C706.847 168.924 726.627 166.364 740.787 180.184C746.687 185.944 749.447 192.434 750.767 196.594C761.817 250.834 772.877 305.074 783.927 359.304C784.127 360.794 785.477 372.294 777.007 380.964C771.567 386.534 764.467 387.894 761.517 388.384C744.647 391.204 580.077 406.184 355.487 425.454C353.027 424.994 350.277 424.084 347.627 422.354C336.647 415.204 336.617 400.154 336.637 398.394C334.307 347.364 331.977 296.314 329.637 245.264Z" fill="url(#paint1_linear)"/>
<path d="M365.377 217.414C364.797 215.274 361.307 201.444 369.967 188.074C378.657 174.664 392.757 172.214 394.947 171.874C509.887 161.744 624.827 151.614 739.757 141.484C742.587 141.074 762.367 138.514 776.527 152.334C782.427 158.094 785.187 164.584 786.507 168.744C797.557 222.984 808.617 277.224 819.667 331.454C819.867 332.944 821.217 344.444 812.747 353.114C807.307 358.684 800.207 360.044 797.257 360.534C780.387 363.354 615.817 378.334 391.227 397.604C388.767 397.144 386.017 396.234 383.367 394.504C372.387 387.354 372.357 372.304 372.377 370.544C370.047 319.514 367.707 268.464 365.377 217.414Z" fill="#E6E6E6"/>
<path d="M755.611 240.07L413.256 267.028L415.376 293.954L757.732 266.996L755.611 240.07Z" fill="#99B876"/>
<path d="M769.651 293.039L427.295 319.998L429.415 346.924L771.771 319.966L769.651 293.039Z" fill="#7B9650"/>
<path d="M585.507 219.654C616.247 219.654 641.167 194.735 641.167 163.994C641.167 133.254 616.247 108.334 585.507 108.334C554.766 108.334 529.847 133.254 529.847 163.994C529.847 194.735 554.766 219.654 585.507 219.654Z" fill="#999999"/>
<path d="M585.127 174.984C595.857 174.984 604.557 166.285 604.557 155.554C604.557 144.823 595.857 136.124 585.127 136.124C574.396 136.124 565.697 144.823 565.697 155.554C565.697 166.285 574.396 174.984 585.127 174.984Z" fill="white"/>
<path d="M539.617 195.504C542.037 199.414 546.437 205.404 553.697 210.494C567.587 220.234 582.237 219.844 588.047 219.614C593.747 219.384 610.177 218.714 623.407 206.234C629.077 200.884 632.287 195.134 634.077 191.184C624.067 187.674 606.987 183.094 585.557 184.224C565.037 185.304 549.117 191.164 539.617 195.504Z" fill="#99B876"/>
<path d="M864.117 60.0244C871.164 60.0244 876.877 54.3116 876.877 47.2644C876.877 40.2172 871.164 34.5044 864.117 34.5044C857.069 34.5044 851.357 40.2172 851.357 47.2644C851.357 54.3116 857.069 60.0244 864.117 60.0244Z" fill="#00FF00"/>
<path d="M905.997 59.7444C913.044 59.7444 918.757 54.0315 918.757 46.9844C918.757 39.9372 913.044 34.2244 905.997 34.2244C898.949 34.2244 893.237 39.9372 893.237 46.9844C893.237 54.0315 898.949 59.7444 905.997 59.7444Z" fill="#FBB03B"/>
<path d="M948.097 60.6244C955.144 60.6244 960.857 54.9115 960.857 47.8644C960.857 40.8172 955.144 35.1044 948.097 35.1044C941.049 35.1044 935.337 40.8172 935.337 47.8644C935.337 54.9115 941.049 60.6244 948.097 60.6244Z" fill="#FF0000"/>
<path d="M1048.94 233.024C1050.52 235.104 1054.9 240.224 1062.01 241.234C1070.7 242.474 1079.99 237.064 1086.08 227.424C1089.11 205.084 1092.14 182.734 1095.17 160.394L1058.92 178.894L1047.38 191.244L1048.94 233.024Z" fill="url(#paint2_linear)"/>
<path d="M1040.04 69.4543C1035.27 80.1343 1030.49 90.8043 1025.72 101.484C1003.66 144.684 1012.3 183.504 1030.58 192.324C1048.95 201.184 1076.51 179.494 1078.82 177.634C1082.13 174.944 1085.44 172.254 1088.75 169.564C1087.18 148.684 1085.61 127.794 1084.03 106.914C1083.65 102.324 1082.39 95.8243 1078.38 89.3643C1066.72 70.5243 1042.65 69.5243 1040.04 69.4543Z" fill="url(#paint3_linear)"/>
<path d="M1044.45 98.6644C1037.34 95.4544 1032.33 95.5844 1028.81 94.6044C1022.05 92.7244 1013.6 86.0044 1006.91 64.0844C1012.31 60.2444 1042.84 39.3444 1083.97 46.9044C1122.57 53.9944 1143.28 81.1444 1147.58 87.0544C1140.35 91.8044 1133.13 96.5644 1125.9 101.314C1126.83 111.634 1127.95 140.104 1109.39 165.104C1103.98 172.394 1098.02 177.874 1092.63 181.944C1089.87 181.354 1086.93 180.814 1083.82 180.354C1083.06 180.244 1082.31 180.144 1081.56 180.044C1081.56 180.044 1078.85 179.694 1076.43 179.484C1071.76 179.074 1066.04 179.104 1065.18 179.114C1066.88 175.384 1068.76 169.854 1068.51 163.234C1068.23 155.974 1065.58 152.584 1062.75 145.534C1054.02 123.854 1059.89 109.254 1049.89 101.694C1047.71 100.044 1045.67 99.1344 1044.45 98.6644Z" fill="#D8252C"/>
<path d="M1066.41 120.154C1074.79 123.604 1080.03 130.924 1079.57 138.364C1078.95 148.264 1068.28 157.364 1054.97 157.074C1058.78 144.764 1062.59 132.454 1066.41 120.154Z" fill="url(#paint4_linear)"/>
<path d="M1346.22 284.004C1352.37 275.504 1358.52 267.004 1364.67 258.504C1364.63 264.314 1364.59 270.114 1364.56 275.924C1374.16 275.454 1422.87 273.414 1426.69 285.874C1427.76 289.354 1425.95 296.014 1421.73 300.634C1418.4 304.294 1414.36 305.794 1412.15 306.434C1397.76 305.574 1383.38 304.724 1368.99 303.864L1348.9 293.574L1346.22 284.004Z" fill="url(#paint5_linear)"/>
<path d="M1323.74 290.574C1328.94 288.634 1337.8 284.554 1346.02 276.224C1353.79 268.354 1357.61 260.124 1359.47 255.104C1361.37 251.374 1362.41 250.694 1363.02 250.854C1365.02 251.364 1365.65 261.674 1362.4 270.144C1359.57 277.514 1354.39 281.994 1351.29 284.234C1357.91 292.164 1364.39 295.724 1369.2 297.494C1376.15 300.054 1380.57 299.244 1390.87 300.874C1399.77 302.284 1407.04 304.554 1412.14 306.444C1401.54 308.714 1388.38 310.564 1373.17 310.584C1363.61 310.594 1354.88 309.884 1347.18 308.844C1339.37 302.744 1331.55 296.664 1323.74 290.574Z" fill="#FC4949"/>
<path d="M1109.17 568.184C1053.61 574.154 998.037 580.124 942.477 586.094C922.367 589.074 902.257 592.054 882.147 595.034C879.877 587.164 876.367 575.504 871.567 561.424C866.117 545.434 865.037 544.864 865.487 542.124C868.567 523.454 918.167 525.284 965.397 504.444C983.677 496.374 1009.01 481.654 1035.06 452.564C1059.76 491.104 1084.47 529.644 1109.17 568.184Z" fill="#FF5757"/>
<path d="M1204.06 984.414C1210.33 1002.3 1207.5 1020.76 1196.29 1031.77C1190.6 1037.35 1183.96 1039.83 1179.16 1040.99C1171.88 1039.49 1160.85 1036.84 1147.89 1032.07C1131.44 1026.03 1112.07 1016.66 1093.51 1001.23C1081.83 991.524 1069.93 981.634 1072.5 973.594C1074.68 966.774 1086.22 964.624 1091.55 963.914C1103.32 969.464 1119.83 975.734 1140.3 979.064C1156.56 981.714 1170.85 981.784 1182.1 981.024C1189.42 982.164 1196.74 983.284 1204.06 984.414Z" fill="#FF5757"/>
<path d="M986.787 800.924C945.487 793.844 904.177 786.774 862.877 779.694C858.027 777.374 852.397 778.964 849.857 782.964C847.837 786.134 847.997 790.434 850.267 793.824C860.167 805.084 876.436 820.964 900.216 834.404C923.336 847.474 944.717 853.254 959.267 856.004C963.947 855.254 971.817 853.214 978.507 846.934C989.737 836.394 992.917 818.314 986.787 800.924Z" fill="#F70D29"/>
<path d="M1140.49 417.724C1166.9 602.584 1215.94 960.424 1201.98 997.474C1201.96 997.524 1201.94 997.564 1201.94 997.564C1200.45 1001.46 1197.11 1004.17 1192.99 1006.07C1190.92 1006.2 1180.45 1006.67 1171.98 998.924C1166.66 994.054 1164.72 988.314 1164 985.654C1125.12 800.904 1086.25 616.154 1047.37 431.404L1140.49 417.724Z" fill="#D8252C"/>
<path d="M865.487 542.124C892.857 629.044 920.217 715.974 947.587 802.894C950.537 813.424 960.357 820.094 970.097 818.974C977.897 818.074 984.647 812.284 987.277 804.284C974.877 718.954 962.477 633.624 950.077 548.284C921.877 546.234 893.677 544.174 865.487 542.124Z" fill="#FF5757"/>
<path d="M1127.45 257.414C1141.81 276.094 1159.9 302.844 1175.87 337.454C1182.06 350.864 1206.26 405.184 1213.42 481.724C1220.77 560.264 1206.73 625.404 1193.66 667.494C1153.23 619.954 1113.73 599.074 1083.98 588.934C1039.85 573.894 1001.81 577.254 959.007 545.764C939.167 531.164 926.067 514.784 917.977 502.974C970.957 474.414 990.507 443.164 998.017 418.494C1015.37 361.484 982.937 292.104 1008.89 252.494C1011.58 248.394 1019.22 236.724 1031.62 234.704C1043.38 232.794 1052.71 240.634 1061.76 246.014C1074.29 253.454 1094.57 260.724 1127.45 257.414Z" fill="url(#paint6_linear)"/>
<path d="M822.327 296.594C815.167 286.694 808.007 276.804 800.847 266.904C800.887 273.664 800.936 280.424 800.976 287.184C789.796 286.644 733.097 284.264 728.637 298.764C727.387 302.824 729.507 310.574 734.407 315.954C738.287 320.214 742.986 321.964 745.566 322.704C762.316 321.704 779.066 320.714 795.816 319.714L819.207 307.734L822.327 296.594Z" fill="url(#paint7_linear)"/>
<path d="M848.497 304.244C842.437 301.984 832.127 297.234 822.557 287.534C813.507 278.374 809.067 268.784 806.897 262.944C804.687 258.604 803.467 257.814 802.757 257.994C800.427 258.594 799.697 270.594 803.477 280.454C806.767 289.034 812.807 294.244 816.417 296.854C808.707 306.094 801.167 310.224 795.567 312.294C787.477 315.274 782.327 314.334 770.337 316.234C759.977 317.874 751.517 320.514 745.567 322.714C757.907 325.364 773.237 327.514 790.947 327.534C802.077 327.544 812.247 326.714 821.207 325.504C830.307 318.414 839.407 311.324 848.497 304.244Z" fill="#FC4949"/>
<path d="M1348.14 308.334L1331.25 283.694C1268.04 325.354 1231.43 324.694 1209.26 314.754C1181.34 302.244 1182.13 277.614 1141.79 250.524C1131.86 243.854 1095.48 220.064 1049.52 220.774C1012.59 221.344 997.487 237.294 938.787 261.734C907.667 274.684 874.427 285.804 838.907 294.544C832.257 306.634 825.607 318.724 818.947 330.814C841.667 330.254 876.667 327.654 917.897 316.894C964.557 304.724 968.817 295.254 1001.07 291.584C1057.3 285.184 1104.43 307.154 1124.96 317.004C1164.08 335.794 1164.54 347.774 1188.51 356.444C1218.55 367.344 1267.42 366.484 1348.14 308.334Z" fill="#D8252C"/>
<path d="M1131.85 242.474L1152.94 258.734C1153.98 259.874 1157.91 264.424 1156.65 268.874C1155.49 272.984 1150.55 274.744 1148.54 275.464C1132.34 281.244 1090.26 255.984 1061.75 245.994C1045.34 240.244 1020.47 235.034 986.067 240.054C997.097 233.414 1020.12 221.634 1051.42 220.354C1091.81 218.724 1121.17 235.604 1131.85 242.474Z" fill="#FF5757"/>
<path d="M89.3266 8.03436C84.0966 10.9344 74.7166 17.1044 67.4466 28.4444C65.1266 32.0644 57.1466 44.9144 58.0066 61.7144C58.0866 63.2644 58.2266 64.5344 58.3366 65.3844C59.3866 78.3044 55.7066 89.2444 48.4266 92.7044C47.6166 93.0844 44.8966 94.3344 41.5566 93.8344C32.9366 92.5344 28.0466 80.9244 27.8566 78.7444C27.5166 74.8544 25.5966 47.2744 46.7466 26.4344C63.5766 9.85436 84.0966 8.28436 89.3266 8.03436Z" fill="url(#paint8_linear)"/>
<path d="M127.107 11.1144C118.077 9.72438 98.9466 8.05438 77.2766 16.4244C49.2466 27.2544 34.7266 48.0244 30.0166 55.4744C29.4166 56.8644 20.6166 76.6944 8.41656 76.4544C7.49656 76.4344 3.93656 76.3644 1.78656 73.9044C-1.26344 70.4244 -0.413445 63.4144 4.37656 56.4544C5.65656 53.8744 32.1866 2.34438 82.7966 0.0743764C102.507 -0.795624 118.237 6.15438 127.107 11.1144Z" fill="#0D5060"/>
<path d="M1245.15 712.404C1281.38 722.784 1308.97 717.004 1313.55 704.694C1318.3 691.944 1298.05 673.134 1295.18 670.524C1278.51 684.484 1261.83 698.444 1245.15 712.404Z" fill="url(#paint9_linear)"/>
<path d="M1302.48 536.254C1292.34 544.524 1288.53 552.574 1286.86 557.954C1276.4 591.634 1319.81 616.884 1313.73 662.154C1313.09 666.954 1311.23 679.604 1302.06 691.334C1280.62 718.754 1239.35 715.394 1233.12 714.804C1267.75 690.204 1277.94 667.024 1280.64 650.034C1287.1 609.404 1255.08 576.834 1270.99 552.724C1278.37 541.554 1292.37 537.754 1302.48 536.254Z" fill="#0D5060"/>
<defs>
<linearGradient id="paint0_linear" x1="831.243" y1="1232.48" x2="831.243" y2="63.4509" gradientUnits="userSpaceOnUse">
<stop stop-color="#FEB12B"/>
<stop offset="0.3422" stop-color="#FEAF2B"/>
<stop offset="0.4933" stop-color="#FEA82B"/>
<stop offset="0.6069" stop-color="#FE9B2A"/>
<stop offset="0.7017" stop-color="#FD892A"/>
<stop offset="0.7847" stop-color="#FD7229"/>
<stop offset="0.8596" stop-color="#FC5529"/>
<stop offset="0.9273" stop-color="#FC3328"/>
<stop offset="0.9895" stop-color="#FB0D27"/>
<stop offset="0.9949" stop-color="#FB0927"/>
</linearGradient>
<linearGradient id="paint1_linear" x1="561.666" y1="416.059" x2="550.692" y2="176.158" gradientUnits="userSpaceOnUse">
<stop stop-color="#CCCECE"/>
<stop offset="1" stop-color="#999999" stop-opacity="0"/>
</linearGradient>
<linearGradient id="paint2_linear" x1="1046.61" y1="199.963" x2="1091.33" y2="203.908" gradientUnits="userSpaceOnUse">
<stop stop-color="#FB0927"/>
<stop offset="0.00265193" stop-color="#FB0B28"/>
<stop offset="0.0414" stop-color="#FD2739"/>
<stop offset="0.0831" stop-color="#FE3C46"/>
<stop offset="0.1294" stop-color="#FE4B50"/>
<stop offset="0.1832" stop-color="#FF5455"/>
<stop offset="0.2626" stop-color="#FF5757"/>
<stop offset="0.3805" stop-color="#FF6B6B"/>
<stop offset="0.5326" stop-color="#FF7E7E"/>
<stop offset="0.6896" stop-color="#FF8989"/>
<stop offset="0.8575" stop-color="#FF8D8D"/>
</linearGradient>
<linearGradient id="paint3_linear" x1="1007.64" y1="168.679" x2="1087.61" y2="99.3632" gradientUnits="userSpaceOnUse">
<stop stop-color="#FB0927"/>
<stop offset="0.1614" stop-color="#FD3240"/>
<stop offset="0.2956" stop-color="#FE4D51"/>
<stop offset="0.3743" stop-color="#FF5757"/>
<stop offset="0.4372" stop-color="#FF6060"/>
<stop offset="0.6364" stop-color="#FF7979"/>
<stop offset="0.8192" stop-color="#FF8888"/>
<stop offset="0.9693" stop-color="#FF8D8D"/>
</linearGradient>
<linearGradient id="paint4_linear" x1="1075.44" y1="148.212" x2="1056.27" y2="132.576" gradientUnits="userSpaceOnUse">
<stop offset="0.0894" stop-color="#FF5757"/>
<stop offset="0.1824" stop-color="#FF6060"/>
<stop offset="0.477" stop-color="#FF7979"/>
<stop offset="0.7474" stop-color="#FF8888"/>
<stop offset="0.9693" stop-color="#FF8D8D"/>
</linearGradient>
<linearGradient id="paint5_linear" x1="1374.67" y1="308.683" x2="1398.87" y2="267.456" gradientUnits="userSpaceOnUse">
<stop offset="0.3743" stop-color="#FF5757"/>
<stop offset="0.4372" stop-color="#FF6060"/>
<stop offset="0.6364" stop-color="#FF7979"/>
<stop offset="0.8192" stop-color="#FF8888"/>
<stop offset="0.9693" stop-color="#FF8D8D"/>
</linearGradient>
<linearGradient id="paint6_linear" x1="1212.46" y1="446.597" x2="916.096" y2="459.65" gradientUnits="userSpaceOnUse">
<stop stop-color="#FB0927"/>
<stop offset="0.1614" stop-color="#FD3240"/>
<stop offset="0.2956" stop-color="#FE4D51"/>
<stop offset="0.3743" stop-color="#FF5757"/>
<stop offset="0.4372" stop-color="#FF6060"/>
<stop offset="0.6364" stop-color="#FF7979"/>
<stop offset="0.8192" stop-color="#FF8888"/>
<stop offset="0.9693" stop-color="#FF8D8D"/>
</linearGradient>
<linearGradient id="paint7_linear" x1="789.192" y1="325.324" x2="761.028" y2="277.326" gradientUnits="userSpaceOnUse">
<stop offset="0.3743" stop-color="#FF5757"/>
<stop offset="0.4372" stop-color="#FF6060"/>
<stop offset="0.6364" stop-color="#FF7979"/>
<stop offset="0.8192" stop-color="#FF8888"/>
<stop offset="0.9693" stop-color="#FF8D8D"/>
</linearGradient>
<linearGradient id="paint8_linear" x1="97.3063" y1="17.4018" x2="24.9152" y2="79.0045" gradientUnits="userSpaceOnUse">
<stop offset="0.0112" stop-color="#146072"/>
<stop offset="0.0561" stop-color="#2D7382"/>
<stop offset="0.1174" stop-color="#488792"/>
<stop offset="0.1878" stop-color="#5E97A0"/>
<stop offset="0.27" stop-color="#6FA4AA"/>
<stop offset="0.3716" stop-color="#7AADB2"/>
<stop offset="0.5143" stop-color="#81B2B6"/>
<stop offset="0.9102" stop-color="#83B3B7"/>
<stop offset="0.9514" stop-color="#82B1B5"/>
<stop offset="0.9662" stop-color="#7FABAE"/>
<stop offset="0.9768" stop-color="#7A9FA3"/>
<stop offset="0.9853" stop-color="#738F92"/>
<stop offset="0.9926" stop-color="#6A7A7C"/>
<stop offset="0.999" stop-color="#5E6161"/>
<stop offset="1" stop-color="#5C5C5C"/>
</linearGradient>
<linearGradient id="paint9_linear" x1="1245.15" y1="694.152" x2="1314.27" y2="694.152" gradientUnits="userSpaceOnUse">
<stop offset="0.0112" stop-color="#146072"/>
<stop offset="0.0561" stop-color="#2D7382"/>
<stop offset="0.1174" stop-color="#488792"/>
<stop offset="0.1878" stop-color="#5E97A0"/>
<stop offset="0.27" stop-color="#6FA4AA"/>
<stop offset="0.3716" stop-color="#7AADB2"/>
<stop offset="0.5143" stop-color="#81B2B6"/>
<stop offset="0.9102" stop-color="#83B3B7"/>
<stop offset="0.9514" stop-color="#82B1B5"/>
<stop offset="0.9662" stop-color="#7FABAE"/>
<stop offset="0.9768" stop-color="#7A9FA3"/>
<stop offset="0.9853" stop-color="#738F92"/>
<stop offset="0.9926" stop-color="#6A7A7C"/>
<stop offset="0.999" stop-color="#5E6161"/>
<stop offset="1" stop-color="#5C5C5C"/>
</linearGradient>
</defs>
</svg>
