<svg width="575" height="419" viewBox="0 0 575 419" fill="none" xmlns="http://www.w3.org/2000/svg">
<g clip-path="url(#clip0)">
<path d="M538.022 0.598539C369.649 14.0105 201.278 27.4229 32.9051 40.8336C31.0118 40.7482 17.9931 40.3761 8.30377 50.7574C-2.59623 62.4281 0.257103 77.4628 0.553103 78.8935C9.66244 173.773 18.7704 268.654 27.8758 363.531C27.9304 365.335 28.3891 375.149 36.4411 382.289C41.8438 387.085 47.8411 388.165 50.2931 388.466C198.866 398.525 347.438 408.58 496.012 418.639C498.868 418.616 511.305 418.198 521.712 408.388C533.512 397.26 533.569 382.656 533.538 380.252L573.906 34.8505C574.309 32.6105 576.03 21.6785 569.014 12.0159C563.46 4.36652 554.24 0.000231664 544.364 0.000231664C542.27 0.000231664 540.146 0.197206 538.022 0.598539" fill="url(#paint0_linear)"/>
<path d="M227.226 177.717C202.874 171.826 190.398 176.261 183.473 182.052C169.146 194.029 175.557 214.32 158.161 225.805C148.329 232.297 141.757 228.801 132.427 237.4C122.753 246.316 120.618 258.552 120.202 261.334C116.243 287.814 139.277 318.134 165.698 322.001C165.715 322.004 165.727 322.013 165.754 322.009C169.37 321.629 297.738 305.718 297.738 305.718L227.226 177.717Z" fill="#88A562"/>
<path d="M186.727 307.346C179.171 297.117 172.144 284.115 176.421 273.717C181.545 261.261 198.989 262.023 218.185 249.851C229.528 242.661 242.855 230.083 253.224 206.459L293.253 283.481L186.727 307.346Z" fill="#7B9650"/>
<path d="M394.608 290.824C380.701 284.619 365.949 281.436 365.949 281.436C365.949 281.436 365.719 281.387 365.484 281.338C288.389 264.97 227.491 281.286 227.491 281.286C204.803 287.368 188.904 295.226 177.127 301.126C155.282 312.07 144.36 317.542 144.059 323.002C143.015 341.963 215.894 376.17 286.248 356.07V356.068C294.032 354.163 305.919 350.972 320.236 345.896C324.493 344.768 331.029 343.176 339.1 341.807C355.284 339.062 367.568 338.915 372.249 338.812C399.843 338.206 439.535 337.332 442.301 326.69C445.399 314.771 401.349 293.832 394.608 290.824Z" fill="#1F3341"/>
<path d="M300.421 314.802C273.064 325.972 247.224 321.472 236.648 318.932C228.355 316.939 215.268 312.742 201.147 303.208C205.211 298.944 211.528 293.188 220.368 288.154C225.507 285.227 230.944 282.86 238.428 280.523C260.337 273.679 280.208 273.198 283.197 273.146C322.828 272.451 373.128 281.688 372.732 287.899C372.484 291.806 352.519 289.128 322.115 303.162C309.123 309.158 310.619 310.638 300.421 314.802Z" fill="#0D5060"/>
<path d="M212.308 232.719C211.149 246.872 207.98 258.559 204.98 267.08C213.536 264.871 224.664 260.981 236.417 253.844C243.145 249.76 248.717 245.433 253.224 241.435C239.073 227.028 224.924 212.619 210.773 198.211C212.286 207.008 213.445 218.844 212.308 232.719" fill="url(#paint1_linear)"/>
<path d="M268.926 226.743L258.954 244.83L274.385 293.198C276.976 295.126 283.94 299.722 292.87 298.653C303.804 297.346 313.294 288.083 317.549 274.879C313.977 247.796 310.406 220.714 306.837 193.634L268.926 226.743Z" fill="url(#paint2_linear)"/>
<path d="M204.708 140.996C192.078 200.491 215.192 244.68 240.2 249.402C265.328 254.146 291.626 218.902 293.824 215.895C296.954 211.559 300.086 207.223 303.217 202.89C317.316 178.702 315.838 150.123 300.294 132.014C287.208 116.767 268.657 114.187 263.108 113.628C249.368 110.949 235.628 108.272 221.888 105.595L204.708 140.996Z" fill="url(#paint3_linear)"/>
<path d="M221.078 85.0632C194.794 108.347 195.496 142.231 195.669 146.894C208.224 148.725 222.428 150.062 238.02 150.326C258.546 150.676 276.885 149.087 292.458 146.785C292.858 163.369 292.456 181.837 290.674 201.837C288.696 224.022 285.377 244.096 281.564 261.739C291.718 257.296 318.746 243.835 335.68 213.193C363.154 163.477 339.938 112.19 337.272 106.551C335.334 103.126 315.474 69.375 276.789 65.9617C275.882 65.883 274.426 65.7539 272.528 65.6765C271.674 65.6419 270.829 65.6244 269.989 65.6244C243.358 65.6244 223.837 82.6219 221.078 85.0632" fill="url(#paint4_linear)"/>
</g>
<defs>
<linearGradient id="paint0_linear" x1="436.751" y1="-67.1356" x2="141.816" y2="443.706" gradientUnits="userSpaceOnUse">
<stop stop-color="#B3B3B3"/>
<stop offset="0.409143" stop-color="#E6E6E6"/>
<stop offset="0.536313" stop-color="#E6E6E6"/>
<stop offset="0.637582" stop-color="#E6E6E6"/>
<stop offset="0.969274" stop-color="#F2F2F2"/>
<stop offset="1" stop-color="#F2F2F2"/>
</linearGradient>
<linearGradient id="paint1_linear" x1="196.986" y1="240.64" x2="236.471" y2="219.055" gradientUnits="userSpaceOnUse">
<stop stop-color="#063040"/>
<stop offset="0.0111732" stop-color="#063040"/>
<stop offset="0.37862" stop-color="#063040"/>
<stop offset="1" stop-color="#1B545E"/>
</linearGradient>
<linearGradient id="paint2_linear" x1="267.514" y1="285.897" x2="334.41" y2="222.924" gradientUnits="userSpaceOnUse">
<stop stop-color="#146072"/>
<stop offset="0.0111732" stop-color="#146072"/>
<stop offset="0.22036" stop-color="#83B3B7"/>
<stop offset="0.586195" stop-color="#83B3B7"/>
<stop offset="0.916861" stop-color="#83B3B7"/>
<stop offset="1" stop-color="#7F7F7E"/>
</linearGradient>
<linearGradient id="paint3_linear" x1="210.168" y1="231.857" x2="285.652" y2="120.017" gradientUnits="userSpaceOnUse">
<stop stop-color="#146072"/>
<stop offset="0.0111732" stop-color="#146072"/>
<stop offset="0.487185" stop-color="#83B3B7"/>
<stop offset="0.586195" stop-color="#83B3B7"/>
<stop offset="0.916861" stop-color="#83B3B7"/>
<stop offset="1" stop-color="#7F7F7E"/>
</linearGradient>
<linearGradient id="paint4_linear" x1="232.352" y1="182.946" x2="336.139" y2="126.21" gradientUnits="userSpaceOnUse">
<stop stop-color="#063040"/>
<stop offset="0.0111732" stop-color="#063040"/>
<stop offset="0.37862" stop-color="#063040"/>
<stop offset="1" stop-color="#1B545E"/>
</linearGradient>
<clipPath id="clip0">
<rect width="574.386" height="418.639" fill="white"/>
</clipPath>
</defs>
</svg>
