<svg width="575" height="419" viewBox="0 0 575 419" fill="none" xmlns="http://www.w3.org/2000/svg">
<g clip-path="url(#clip0)">
<path d="M538.023 0.598539C369.65 14.0105 201.277 27.4229 32.9058 40.8336C31.0112 40.7482 17.9952 40.3761 8.30184 50.7574C-2.59682 62.4281 0.256512 77.4628 0.555179 78.8935C9.66051 173.773 18.7685 268.654 27.8765 363.531C27.9285 365.335 28.3911 375.149 36.4391 382.289C41.8431 387.085 47.8405 388.165 50.2939 388.466C198.865 398.525 347.438 408.58 496.011 418.639C498.87 418.616 511.303 418.198 521.71 408.388C533.512 397.26 533.567 382.656 533.536 380.252L573.907 34.8505C574.31 32.6105 576.031 21.6785 569.014 12.0159C563.459 4.36652 554.239 0.000231664 544.364 0.000231664C542.27 0.000231664 540.147 0.197206 538.023 0.598539" fill="url(#paint0_linear)"/>
<path d="M241.159 174.441L290.015 240.401L306.299 314.08C256.993 339.993 205.796 339.348 180 314.08C175.768 309.935 156.936 291.489 158.648 268.933C160.06 250.348 174.325 243.372 171.315 227.399C168.355 211.701 153.071 210.437 151.772 196.337C150.457 182.055 164.729 168.029 176.724 162.047C195.887 152.491 221.205 157.492 241.159 174.441Z" fill="#99B876"/>
<path d="M156.115 245.096C136.131 237.015 124.702 225.303 126.622 217.465C127.768 212.783 134.128 207.659 140.735 207.352C141.974 207.295 147.239 207.051 149.42 210.241C152.128 214.203 147.182 219.207 147.023 226.679C146.93 230.993 148.411 237.275 156.115 245.096Z" fill="#7B9650"/>
<path d="M209.431 310.469C195.199 294.823 189.837 283.453 193.345 276.361C199.459 263.996 232.533 264.632 292.561 278.267C264.851 289.001 237.142 299.735 209.431 310.469Z" fill="#7B9650"/>
<path d="M266.008 220.013C270.286 217.492 274.564 214.972 278.841 212.452L292.561 308.179C291.278 308.452 263.521 313.879 245.154 293.657C243.112 291.408 228.205 274.411 233.925 252.032C237.87 236.599 250.152 224.372 266.008 220.013Z" fill="#7B9650"/>
<path d="M404.062 290.788C390.145 284.591 375.38 281.412 375.38 281.412C375.38 281.412 375.149 281.361 374.914 281.312C297.757 264.964 236.812 281.26 236.812 281.26C214.104 287.336 198.194 295.184 186.406 301.077C164.545 312.008 153.614 317.473 153.313 322.927C152.268 341.867 225.204 376.035 295.614 355.956H295.616C303.406 354.053 315.302 350.865 329.632 345.795C333.89 344.668 340.432 343.079 348.51 341.711C364.706 338.969 377.001 338.823 381.686 338.72C409.302 338.113 449.025 337.241 451.793 326.611C454.894 314.707 410.809 293.792 404.062 290.788Z" fill="#D8252C"/>
<path d="M309.799 314.738C282.422 325.895 256.559 321.402 245.975 318.863C237.675 316.872 224.578 312.679 210.446 303.156C214.513 298.899 220.835 293.148 229.683 288.12C234.826 285.198 240.267 282.834 247.758 280.499C269.683 273.663 289.571 273.183 292.561 273.13C332.223 272.436 382.565 281.663 382.169 287.867C381.921 291.768 361.938 289.095 331.51 303.111C318.509 309.099 320.006 310.578 309.799 314.738Z" fill="#FF5757"/>
<path d="M278.004 224.353L267.863 243.043L283.058 293.415C285.649 295.443 292.62 300.28 301.606 299.255C312.602 298 322.2 288.472 326.566 274.798C323.151 246.641 319.739 218.482 316.327 190.328L278.004 224.353Z" fill="url(#paint1_linear)"/>
<path d="M212.903 140.667C199.742 200.25 222.627 244.759 247.726 249.689C272.947 254.644 299.657 219.496 301.885 216.495C305.067 212.172 308.247 207.848 311.431 203.523C312.766 201.043 331.875 164.441 316.234 140.507C308.642 128.887 291.837 118.699 289.25 117.134C286.841 115.672 281.573 112.608 273.277 109.191C262.779 104.865 245.046 98.9874 220.175 97.1368C217.754 111.649 215.329 126.157 212.903 140.667" fill="url(#paint2_linear)"/>
<path d="M314.367 198.726C330.696 194.859 340.804 180.395 338.412 168.146C336.616 158.938 327.895 151.699 316.576 150.156C315.839 166.346 315.104 182.536 314.367 198.726" fill="url(#paint3_linear)"/>
<path d="M318.883 161.849C322.361 160.917 325.84 159.986 329.319 159.054C339.38 142.563 339.141 123.251 329.16 110.954C322.32 102.529 312.848 99.7858 308.445 98.8392C305.192 93.2378 300.665 87.3672 294.316 82.3245C268.44 61.7765 224.017 64.3178 208.553 83.8498C204.143 89.4218 203.124 95.1192 195.953 99.1152C186.952 104.131 176.272 102.181 168.841 99.8552C169.071 105.594 170.444 119.707 181.048 129.335C185.389 133.278 190.616 135.867 196.944 137.458C233.093 146.55 271.975 113.982 297.499 127.295C304.351 130.87 313.712 139.178 318.883 161.849Z" fill="#D8252C"/>
<path d="M314.367 199.055C330.696 195.186 340.804 180.719 338.412 168.475C336.616 159.267 327.895 152.027 316.576 150.484C315.839 166.672 315.104 182.864 314.367 199.055" fill="url(#paint4_linear)"/>
</g>
<defs>
<linearGradient id="paint0_linear" x1="436.75" y1="-67.1356" x2="141.816" y2="443.706" gradientUnits="userSpaceOnUse">
<stop stop-color="#B3B3B3"/>
<stop offset="0.409143" stop-color="#E6E6E6"/>
<stop offset="0.536313" stop-color="#E6E6E6"/>
<stop offset="0.637582" stop-color="#E6E6E6"/>
<stop offset="0.969274" stop-color="#F2F2F2"/>
<stop offset="1" stop-color="#F2F2F2"/>
</linearGradient>
<linearGradient id="paint1_linear" x1="269.69" y1="253.865" x2="325.457" y2="244.458" gradientUnits="userSpaceOnUse">
<stop stop-color="#FB0927"/>
<stop offset="0.0940471" stop-color="#FF5757"/>
<stop offset="0.26257" stop-color="#FF5757"/>
<stop offset="0.543529" stop-color="#FF8D8D"/>
<stop offset="0.857542" stop-color="#FF8D8D"/>
<stop offset="1" stop-color="#FF8D8D"/>
</linearGradient>
<linearGradient id="paint2_linear" x1="212.37" y1="228.186" x2="288.92" y2="116.647" gradientUnits="userSpaceOnUse">
<stop stop-color="#FB0927"/>
<stop offset="0.285548" stop-color="#FF5757"/>
<stop offset="0.374302" stop-color="#FF5757"/>
<stop offset="0.723819" stop-color="#FF8D8D"/>
<stop offset="0.969274" stop-color="#FF8D8D"/>
<stop offset="1" stop-color="#FF8D8D"/>
</linearGradient>
<linearGradient id="paint3_linear" x1="336.526" y1="181.433" x2="308.197" y2="168.472" gradientUnits="userSpaceOnUse">
<stop stop-color="#FF8D8D"/>
<stop offset="0.231844" stop-color="#FF8D8D"/>
<stop offset="0.717021" stop-color="#FF5757"/>
<stop offset="1" stop-color="#FF5757"/>
</linearGradient>
<linearGradient id="paint4_linear" x1="336.526" y1="181.759" x2="308.197" y2="168.798" gradientUnits="userSpaceOnUse">
<stop stop-color="#FF8D8D"/>
<stop offset="0.231844" stop-color="#FF8D8D"/>
<stop offset="0.717021" stop-color="#FF5757"/>
<stop offset="1" stop-color="#FF5757"/>
</linearGradient>
<clipPath id="clip0">
<rect width="574.386" height="418.639" fill="white"/>
</clipPath>
</defs>
</svg>
