<svg width="575" height="419" viewBox="0 0 575 419" fill="none" xmlns="http://www.w3.org/2000/svg">
<g clip-path="url(#clip0)">
<path d="M538.021 0.598742C369.648 14.0121 201.275 27.4224 32.904 40.8344C31.0093 40.7491 17.9933 40.3789 8.30127 50.7589C-2.59607 62.4296 0.257218 77.4643 0.553218 78.8963C9.65855 173.775 18.7665 268.653 27.8745 363.532C27.9265 365.337 28.3892 375.152 36.4372 382.292C41.8412 387.084 47.8412 388.167 50.2918 388.468C198.865 398.527 347.436 408.582 496.009 418.64C498.868 418.617 511.304 418.198 521.708 408.39C533.512 397.262 533.567 382.657 533.535 380.253L573.907 34.8546C574.308 32.6119 576.029 21.6814 569.012 12.0174C563.456 4.3667 554.233 -0.000215927 544.357 -0.000215927C542.265 -0.000215927 540.144 0.196076 538.021 0.598742" fill="url(#paint0_linear)"/>
<path d="M242.466 194.722C211.459 183.746 185.022 184.26 177.514 195.805C176.92 196.717 171.152 205.588 174.267 212.765C176.88 218.786 184.668 221.125 184.008 226.116C183.96 226.48 183.698 228.146 182.384 229.182C178.751 232.053 171.771 226.365 163.622 224.13C163.622 224.13 153.054 221.233 140.347 226.116C124.326 232.272 115.09 252.005 114.339 267.996C113.32 289.702 127.631 310.993 150.451 321.649C195.316 317.066 240.18 312.484 285.046 307.902L242.466 194.722Z" fill="#88A562"/>
<path d="M201.438 317.769C202.612 317.273 288.833 286.069 288.833 286.069L237.006 212.765C226.521 218.715 221.089 225.727 218.16 232.081C211.921 245.607 216.712 256.816 209.129 262.765C203.96 266.819 200.47 262.604 190.361 267.248C186.533 269.007 179.012 272.463 175.754 280.621C172.31 289.255 175.813 297.715 176.612 299.641C182.83 314.661 199.942 317.543 201.438 317.769Z" fill="#7B9650"/>
<path d="M404.914 290.529C391.037 284.336 376.317 281.161 376.317 281.161C376.317 281.161 376.086 281.112 375.851 281.061C298.918 264.729 238.149 281.01 238.147 281.01C215.506 287.081 199.642 294.921 187.889 300.809C166.091 311.729 155.191 317.19 154.89 322.638C153.849 341.56 226.575 375.696 296.781 355.637H296.782C304.551 353.736 316.411 350.55 330.699 345.485C334.946 344.36 341.469 342.772 349.523 341.405C365.673 338.665 377.933 338.52 382.603 338.417C410.139 337.81 449.747 336.94 452.507 326.318C455.599 314.425 411.642 293.53 404.914 290.529Z" fill="#FFC255"/>
<path d="M310.926 314.456C283.626 325.603 257.839 321.114 247.286 318.578C239.008 316.588 225.951 312.4 211.859 302.887C215.914 298.631 222.219 292.887 231.04 287.864C236.168 284.944 241.594 282.582 249.063 280.248C270.924 273.419 290.755 272.94 293.736 272.888C333.286 272.194 383.479 281.412 383.084 287.61C382.838 291.508 362.912 288.836 332.572 302.84C319.61 308.823 321.102 310.3 310.926 314.456Z" fill="#FFC255"/>
<path d="M227.219 77.945C224.287 80.0943 222.519 81.9666 220.109 84.5452C188.179 118.724 181.649 181.375 205.896 227.705C208.927 233.495 213.569 241.196 220.619 249.536C232.032 263.153 240.803 267.711 239.4 273.396C238.353 277.644 232.592 278.604 221.434 283.272C209.582 288.232 200.639 293.609 195.088 297.249C205.352 307.697 215.755 314.739 225.188 319.593C300.987 358.6 394.321 297.654 404.915 290.529C402.423 289.042 398.759 286.927 394.239 284.563C367.691 270.699 358.64 272.074 351.596 265.781C338.307 253.908 350.567 230.748 352.611 191.156C354.091 162.471 356.007 125.352 334.335 99.2666C317.71 79.2546 288.831 67.6917 263.139 67.693C249.496 67.693 236.748 70.9556 227.219 77.945" fill="url(#paint1_linear)"/>
<path d="M213.128 138.069C210.401 148.995 207.743 165.765 210.92 185.492C212.139 193.041 221.213 244.809 249.033 249.47C271.559 253.241 296.773 224.83 303.032 216.306C306.208 211.986 309.379 207.665 312.551 203.345C313.88 200.868 332.937 164.298 317.341 140.388C309.771 128.777 293.013 118.603 290.437 117.036C290.437 117.036 281.968 111.913 274.509 109.103C273.797 108.833 272.88 108.7 271.776 108.7C262.305 108.7 239.025 118.545 213.128 138.069" fill="url(#paint2_linear)"/>
</g>
<defs>
<linearGradient id="paint0_linear" x1="436.749" y1="-67.1339" x2="141.815" y2="443.708" gradientUnits="userSpaceOnUse">
<stop stop-color="#B3B3B3"/>
<stop offset="0.409143" stop-color="#E6E6E6"/>
<stop offset="0.536313" stop-color="#E6E6E6"/>
<stop offset="0.637582" stop-color="#E6E6E6"/>
<stop offset="0.969274" stop-color="#F2F2F2"/>
<stop offset="1" stop-color="#F2F2F2"/>
</linearGradient>
<linearGradient id="paint1_linear" x1="191.222" y1="200.112" x2="404.915" y2="200.112" gradientUnits="userSpaceOnUse">
<stop stop-color="#FEB12B"/>
<stop offset="0.795031" stop-color="#FEB12B"/>
<stop offset="0.994924" stop-color="#FEB12B"/>
<stop offset="1" stop-color="#FEB12B"/>
</linearGradient>
<linearGradient id="paint2_linear" x1="220.361" y1="232.601" x2="296.834" y2="121.177" gradientUnits="userSpaceOnUse">
<stop stop-color="#FFC255"/>
<stop offset="0.0111732" stop-color="#FFC255"/>
<stop offset="0.263774" stop-color="#FFDC83"/>
<stop offset="0.413011" stop-color="#FFDC83"/>
<stop offset="0.644641" stop-color="#FFDC83"/>
<stop offset="0.938547" stop-color="#EFEFEF"/>
<stop offset="1" stop-color="#EFEFEF"/>
</linearGradient>
<clipPath id="clip0">
<rect width="574.385" height="418.64" fill="white"/>
</clipPath>
</defs>
</svg>
