<svg width="720" height="816" viewBox="0 0 720 816" fill="none" xmlns="http://www.w3.org/2000/svg">
<path d="M332.824 439.504L229.153 510.813C214.298 516.629 199.445 522.443 184.59 528.257C181.466 522.639 176.732 514.339 170.588 504.421C163.59 493.125 162.904 492.865 162.549 490.736C160.041 475.653 189.898 461.093 218.754 440.396C232.573 430.481 252.088 414.913 273.246 391.86C293.106 407.741 312.964 423.623 332.824 439.504Z" fill="#FF5757"/>
<path d="M94.804 756.358C95.9987 760.581 97.2347 766.933 96.6507 774.609C96.2734 779.573 95.2334 783.773 94.164 787.01C85.9934 791.566 76.6707 796.182 66.2147 800.458C50.9614 806.695 36.772 810.786 24.4507 813.519C11.62 816.389 2.0627 815.75 0.296031 811.695C-0.127969 810.719 -0.459971 808.723 2.00403 804.987C20.1894 790.477 38.3747 775.966 56.56 761.455C69.308 759.757 82.056 758.057 94.804 756.358Z" fill="#FF5757"/>
<path d="M269.497 666.935C265.651 697.851 261.807 728.77 257.963 759.686C256.41 763.611 257.963 767.927 261.234 769.702C263.823 771.107 267.179 770.748 269.709 768.791C277.986 760.428 289.522 746.826 298.746 727.479C307.715 708.668 311.071 691.62 312.431 680.086C311.53 676.926 309.405 671.084 304.287 665.522C300.046 660.912 295.514 658.412 292.677 657.122C284.95 660.392 277.223 663.664 269.497 666.935Z" fill="#F70D29"/>
<path d="M406.795 456.509C305 561.885 106.947 764.576 77.271 773.776C76.3976 774.046 58.0976 779.72 54.823 774.362C54.823 774.362 53.999 773.012 56.5603 761.456L353.479 405.424L406.795 456.509Z" fill="#D8252C"/>
<path d="M162.549 490.736C198.763 552.386 234.978 614.04 271.193 675.69C275.298 683.225 283.983 686.598 291.231 684.024C297.033 681.962 301.181 676.349 301.781 669.766C277.291 606.7 252.799 543.632 228.31 480.564L162.549 490.736Z" fill="#FF5757"/>
<path d="M317.309 178.808C285.332 198.591 319.724 271.128 289.744 339.545C273.246 377.188 242.621 401.357 215.969 416.84C269.094 417.557 296.536 433.885 311.802 448.864C329.369 466.104 337.909 488.511 368.346 507.135C382.421 515.747 395.528 520.091 404.134 522.388C416.709 490.24 428.818 453.891 438.97 413.587C456.961 342.173 463.992 277.437 465.904 223.593C430.232 209.028 394.56 194.464 358.888 179.899C348.61 175.993 340.436 174.511 333.89 174.511C326.52 174.511 321.216 176.391 317.309 178.808" fill="url(#paint0_linear)"/>
<path d="M407.971 55.2827C407.637 53.1907 409.276 51.6267 412.855 45.4133C416.551 38.9933 418.973 33.4173 420.464 29.636C419.284 19.756 418.105 9.87731 416.925 -2.44364e-05C428.492 2.94931 445.387 8.76532 462.968 20.8493C487.387 37.6307 500.869 58.0786 507.413 69.824C500.173 72.1506 492.935 74.4773 485.696 76.8066C484.055 85.7666 478.308 110.144 456.712 126.96C450.412 131.865 444.076 135.104 438.549 137.283C438.271 135.795 436.589 125.935 443.387 117.332C449.332 109.809 457.637 108.469 459.427 108.223C458.187 102.157 456.463 98.936 454.255 98.56C450.107 97.8547 444.252 107.185 436.689 126.551C438.76 106.188 440.832 85.824 442.903 65.4613C415.357 63.328 408.572 59.0427 407.971 55.2827Z" fill="#D8252C"/>
<path d="M630.496 147.749C629.738 148.109 629.442 148.795 629.374 148.968C628.834 156.319 628.297 163.671 627.76 171.024L648.901 181.979L673.477 193.891C679.968 195.783 686.456 197.671 692.946 199.562C695.27 199.806 701.086 200.097 707.272 196.846C715.12 192.718 718.178 185.715 718.954 183.763C719.297 182.678 719.614 181.073 719.082 179.414C716.536 171.507 697.668 171.596 687.188 170.578C673.941 169.292 655.232 164.407 632.7 147.911C632.646 147.876 632.101 147.547 631.398 147.547C631.116 147.547 630.808 147.601 630.496 147.749Z" fill="url(#paint1_linear)"/>
<path d="M698.01 199.569C687.703 196.454 676.63 192.489 665.062 187.406C660.099 185.226 655.37 182.984 650.871 180.708C648.319 179.606 633.31 172.846 629.892 158.066C629.134 154.78 629.083 151.688 629.374 148.968C621.112 160.494 612.85 172.024 604.588 183.552L619.967 198.06C620.278 197.566 620.588 197.073 620.898 196.58C630.362 185.737 638.184 183.17 644.078 183.404C645.523 183.461 646.61 183.677 660.096 189.414C674.314 195.46 677.788 197.213 683.868 198.457C687.038 199.105 691.862 199.81 698.01 199.569Z" fill="#FF5757"/>
<path d="M130.686 249.173C120.148 250.528 66.7372 257.75 64.1425 271.775C63.4185 275.695 66.2465 282.443 71.4319 286.561C75.5332 289.82 80.1264 290.645 82.6238 290.897C98.2158 287.205 113.807 283.517 129.399 279.825L150.018 264.977L151.725 254.25C143.933 246.372 136.138 238.493 128.346 230.616C129.125 236.801 129.905 242.985 130.686 249.173" fill="url(#paint2_linear)"/>
<path d="M175.423 260.494C169.688 259.271 159.812 256.38 149.939 248.96C140.607 241.947 135.343 233.944 132.623 228.996C130.064 225.398 128.869 224.852 128.255 225.11C126.241 225.954 127.184 236.811 131.893 245.156C135.988 252.414 142.093 256.284 145.673 258.142C139.991 267.45 133.777 272.164 129.033 274.759C122.177 278.508 117.433 278.351 106.929 281.646C97.8533 284.494 90.6186 287.992 85.58 290.75C97 291.48 111.028 291.372 126.912 289.035C136.896 287.567 145.9 285.47 153.773 283.188C160.989 275.624 168.207 268.059 175.423 260.494Z" fill="#FC4949"/>
<path d="M623.999 197.697L605.579 177.85C554.442 223.614 521.523 227.894 500.321 221.933C473.621 214.426 471.057 192.241 431.277 173.309C421.482 168.649 385.701 152.157 344.577 158.91C311.537 164.337 300.119 180.65 250.733 210.367C224.551 226.122 196.223 240.514 165.535 253.079C161.179 264.803 156.822 276.529 152.466 288.254C172.765 284.727 203.801 277.739 239.339 262.613C279.561 245.494 282.122 236.434 310.549 228.855C360.119 215.641 405.307 229.062 425.022 235.173C462.603 246.822 464.605 257.497 487.253 262.09C515.645 267.849 559.354 260.581 623.999 197.697Z" fill="#D8252C"/>
<path d="M421.284 167.414L442.356 179.19C443.442 180.078 447.571 183.63 447.035 187.786C446.54 191.623 442.346 193.862 440.636 194.775C426.882 202.111 385.786 185.054 358.888 179.898C343.406 176.93 320.414 175.563 290.231 184.641C299.242 177.219 318.311 163.589 346.208 158.285C382.219 151.439 410.799 162.671 421.284 167.414Z" fill="#FF5757"/>
<path d="M410.712 126.784L398.036 134.53L389.53 170.298C390.382 172.432 392.888 177.796 398.669 180.323C405.745 183.415 414.878 181.018 422.308 174.28C430.128 156.064 437.95 137.851 445.77 119.637L410.712 126.784Z" fill="url(#paint3_linear)"/>
<path d="M400.801 53.4004C371.956 84.8071 370.145 119.726 383.556 131.498C397.034 143.322 425.477 131.43 427.876 130.396C431.314 128.898 434.752 127.398 438.186 125.896C441.768 107.836 445.348 89.7762 448.925 71.7149C449.684 67.7375 450.142 61.9376 448.268 55.5163C442.81 36.8176 422.65 30.3055 420.464 29.6348C413.91 37.5575 407.357 45.4791 400.801 53.4004Z" fill="url(#paint4_linear)"/>
<path d="M436.745 121.184C447.952 124.564 459.127 119.361 461.983 111.12C464.128 104.925 461.407 97.4949 455.12 92.5976C448.996 102.127 442.871 111.656 436.745 121.184" fill="url(#paint5_linear)"/>
<defs>
<linearGradient id="paint0_linear" x1="485.639" y1="325.501" x2="208.668" y2="379.141" gradientUnits="userSpaceOnUse">
<stop stop-color="#FB0927"/>
<stop offset="0.285548" stop-color="#FF5757"/>
<stop offset="0.374302" stop-color="#FF5757"/>
<stop offset="0.723819" stop-color="#FF8D8D"/>
<stop offset="0.969274" stop-color="#FF8D8D"/>
<stop offset="1" stop-color="#FF8D8D"/>
</linearGradient>
<linearGradient id="paint1_linear" x1="640.301" y1="190.628" x2="701.449" y2="151.502" gradientUnits="userSpaceOnUse">
<stop stop-color="#FB0927"/>
<stop offset="0.285548" stop-color="#FF5757"/>
<stop offset="0.374302" stop-color="#FF5757"/>
<stop offset="0.723819" stop-color="#FF8D8D"/>
<stop offset="0.969274" stop-color="#FF8D8D"/>
<stop offset="1" stop-color="#FF8D8D"/>
</linearGradient>
<linearGradient id="paint2_linear" x1="123.86" y1="286.042" x2="92.2177" y2="246.749" gradientUnits="userSpaceOnUse">
<stop stop-color="#FF5757"/>
<stop offset="0.374302" stop-color="#FF5757"/>
<stop offset="0.723819" stop-color="#FF8D8D"/>
<stop offset="0.969274" stop-color="#FF8D8D"/>
<stop offset="1" stop-color="#FF8D8D"/>
</linearGradient>
<linearGradient id="paint3_linear" x1="395.348" y1="141.7" x2="432.297" y2="155.558" gradientUnits="userSpaceOnUse">
<stop stop-color="#FB0927"/>
<stop offset="0.0940471" stop-color="#FF5757"/>
<stop offset="0.26257" stop-color="#FF5757"/>
<stop offset="0.543529" stop-color="#FF8D8D"/>
<stop offset="0.857542" stop-color="#FF8D8D"/>
<stop offset="1" stop-color="#FF8D8D"/>
</linearGradient>
<linearGradient id="paint4_linear" x1="369.729" y1="106.07" x2="453.774" y2="66.1559" gradientUnits="userSpaceOnUse">
<stop stop-color="#FB0927"/>
<stop offset="0.285548" stop-color="#FF5757"/>
<stop offset="0.374302" stop-color="#FF5757"/>
<stop offset="0.723819" stop-color="#FF8D8D"/>
<stop offset="0.969274" stop-color="#FF8D8D"/>
<stop offset="1" stop-color="#FF8D8D"/>
</linearGradient>
<linearGradient id="paint5_linear" x1="456.187" y1="118.486" x2="443.626" y2="100.732" gradientUnits="userSpaceOnUse">
<stop stop-color="#FF5757"/>
<stop offset="0.0893855" stop-color="#FF5757"/>
<stop offset="0.606277" stop-color="#FF8D8D"/>
<stop offset="0.969274" stop-color="#FF8D8D"/>
<stop offset="1" stop-color="#FF8D8D"/>
</linearGradient>
</defs>
</svg>
