<?xml version="1.0" encoding="utf-8"?>
<!-- Generator: Adobe Illustrator 24.0.1, SVG Export Plug-In . SVG Version: 6.00 Build 0)  -->
<svg version="1.1" id="Layer_1" xmlns="http://www.w3.org/2000/svg" xmlns:xlink="http://www.w3.org/1999/xlink" x="0px" y="0px"
	 viewBox="0 0 2480 1655" style="enable-background:new 0 0 2480 1655;" xml:space="preserve">
<style type="text/css">
	.st0{opacity:0.5;fill:#CCCCCC;}
	.st1{opacity:0.2;fill:#FFFFFF;}
	.st2{opacity:0.53;fill:#FFFFFF;}
	.st3{fill:url(#SVGID_1_);}
	.st4{fill:#FFFFFF;}
	.st5{fill:url(#SVGID_2_);}
	.st6{fill:#D8252C;}
	.st7{fill:#F76D6D;}
	.st8{fill:#1F3341;}
	.st9{fill:#0D5060;}
	.st10{fill:url(#SVGID_3_);}
	.st11{fill:url(#SVGID_4_);}
	.st12{fill:url(#SVGID_5_);}
	.st13{fill:url(#SVGID_6_);}
	.st14{fill:url(#SVGID_7_);}
	.st15{fill:url(#SVGID_8_);}
	.st16{fill:url(#SVGID_9_);}
	.st17{fill:url(#SVGID_10_);}
	.st18{fill:url(#SVGID_11_);}
	.st19{fill:#88A562;}
	.st20{fill:#B0C98F;}
	.st21{fill:#7B9650;}
	.st22{fill:url(#SVGID_12_);}
	.st23{fill:url(#SVGID_13_);}
	.st24{fill:url(#SVGID_14_);}
	.st25{fill:url(#SVGID_15_);}
	.st26{fill:url(#SVGID_16_);}
	.st27{fill:#FFDB94;}
	.st28{fill:#FCB454;}
</style>
<g id="convite">
	<path class="st0" d="M1454.6,323.3c-27.2,42.1,30,125.6,143.7,291.4c133.8,195.2,302.7,441.6,431.2,403
		c94.5-28.4,154.4-207.4,126.6-345.4C2089.8,343.6,1520.3,221.4,1454.6,323.3z"/>
	<path class="st0" d="M1857,1293.4c-2.8,17.5-31.5,69.7-852.6,76.3c-425,3.4-499.5-9.9-565.9-68.2
		c-143.5-126-158.8-382.8-35.1-545.9C570.3,535.5,928.1,569,1119.2,635.1c21.4,7.4,38.6,14.4,55.3,23.6
		c296.9,162.9,297.9,334.2,604.8,559.3C1833,1257.4,1860.4,1272.1,1857,1293.4z"/>
	<g>
		<path class="st1" d="M2017.9,442.2h-330.5c-7.1,0-12.8-5.7-12.8-12.8l0,0c0-7.1,5.7-12.8,12.8-12.8h330.5
			c7.1,0,12.8,5.7,12.8,12.8l0,0C2030.7,436.4,2025,442.2,2017.9,442.2z"/>
		<path class="st2" d="M2057.6,492.3h-330.5c-7.1,0-12.8-5.7-12.8-12.8l0,0c0-7.1,5.7-12.8,12.8-12.8h330.5
			c7.1,0,12.8,5.7,12.8,12.8l0,0C2070.4,486.5,2064.7,492.3,2057.6,492.3z"/>
		<path class="st2" d="M1963.7,592.5h-236.5c-7.1,0-12.8-5.7-12.8-12.8l0,0c0-7.1,5.7-12.8,12.8-12.8h236.5
			c7.1,0,12.8,5.7,12.8,12.8l0,0C1976.4,586.7,1970.7,592.5,1963.7,592.5z"/>
		<path class="st1" d="M2094.7,542.4h-330.5c-7.1,0-12.8-5.7-12.8-12.8l0,0c0-7.1,5.7-12.8,12.8-12.8h330.5
			c7.1,0,12.8,5.7,12.8,12.8l0,0C2107.5,536.6,2101.8,542.4,2094.7,542.4z"/>
	</g>
	<g>
		<path class="st1" d="M617.5,1119.7H287c-7.1,0-12.8-5.7-12.8-12.8l0,0c0-7.1,5.7-12.8,12.8-12.8h330.5c7.1,0,12.8,5.7,12.8,12.8
			l0,0C630.3,1114,624.6,1119.7,617.5,1119.7z"/>
		<path class="st2" d="M657.2,1169.8H326.7c-7.1,0-12.8-5.7-12.8-12.8l0,0c0-7.1,5.7-12.8,12.8-12.8h330.5c7.1,0,12.8,5.7,12.8,12.8
			l0,0C670,1164.1,664.3,1169.8,657.2,1169.8z"/>
		<path class="st2" d="M563.3,1270H326.7c-7.1,0-12.8-5.7-12.8-12.8l0,0c0-7.1,5.7-12.8,12.8-12.8h236.5c7.1,0,12.8,5.7,12.8,12.8
			l0,0C576,1264.3,570.3,1270,563.3,1270z"/>
		<path class="st1" d="M694.3,1219.9H363.8c-7.1,0-12.8-5.7-12.8-12.8l0,0c0-7.1,5.7-12.8,12.8-12.8h330.5c7.1,0,12.8,5.7,12.8,12.8
			l0,0C707.1,1214.2,701.4,1219.9,694.3,1219.9z"/>
	</g>
	<linearGradient id="SVGID_1_" gradientUnits="userSpaceOnUse" x1="1278.2772" y1="685.0966" x2="1278.2772" y2="468.2259">
		<stop  offset="0" style="stop-color:#FEB12B"/>
		<stop  offset="0.1435" style="stop-color:#FEAD2B"/>
		<stop  offset="0.2987" style="stop-color:#FEA02B"/>
		<stop  offset="0.4593" style="stop-color:#FD8A2A"/>
		<stop  offset="0.6238" style="stop-color:#FD6C29"/>
		<stop  offset="0.7912" style="stop-color:#FC4528"/>
		<stop  offset="0.9588" style="stop-color:#FB1627"/>
		<stop  offset="1" style="stop-color:#FB0927"/>
	</linearGradient>
	<path class="st3" d="M1030.1,468.2l5.2,163.3c0.9,28.5,24.3,51.1,52.9,51.3l391,2.3c19.1,0.1,35.4-13.8,38.2-32.6
		c6.1-41.2,13.9-115,5.1-184.3H1030.1z"/>
	<path class="st4" d="M1465.4,675.1C1465.4,675.1,1465.4,675.1,1465.4,675.1l-2.9,0c-0.3,0-0.5-0.2-0.5-0.5c0-0.3,0.2-0.5,0.5-0.5
		c0,0,0,0,0,0l2.8,0c0.3,0,0.5,0.2,0.5,0.5C1465.8,674.9,1465.6,675.1,1465.4,675.1z M1472,675c-0.2,0-0.5-0.2-0.5-0.4
		c0-0.3,0.2-0.5,0.4-0.5c0.9-0.1,1.9-0.2,2.8-0.3c0.3,0,0.5,0.1,0.5,0.4c0,0.3-0.1,0.5-0.4,0.5C1473.9,674.9,1473,675,1472,675
		C1472,675,1472,675,1472,675z M1455.9,675C1455.9,675,1455.9,675,1455.9,675l-2.9,0c-0.3,0-0.5-0.2-0.5-0.5c0-0.3,0.2-0.5,0.5-0.5
		c0,0,0,0,0,0l2.8,0c0.3,0,0.5,0.2,0.5,0.5C1456.3,674.8,1456.1,675,1455.9,675z M1446.4,675C1446.4,675,1446.4,675,1446.4,675
		l-2.9,0c-0.3,0-0.5-0.2-0.5-0.5c0-0.3,0.2-0.5,0.5-0.5c0,0,0,0,0,0l2.8,0c0.3,0,0.5,0.2,0.5,0.5
		C1446.8,674.7,1446.6,675,1446.4,675z M1436.9,674.9C1436.9,674.9,1436.9,674.9,1436.9,674.9l-2.9,0c-0.3,0-0.5-0.2-0.5-0.5
		c0-0.3,0.3-0.5,0.5-0.5l2.8,0c0.3,0,0.5,0.2,0.5,0.5C1437.3,674.7,1437.1,674.9,1436.9,674.9z M1427.4,674.8
		C1427.4,674.8,1427.4,674.8,1427.4,674.8l-2.9,0c-0.3,0-0.5-0.2-0.5-0.5c0-0.3,0.2-0.5,0.5-0.5c0,0,0,0,0,0l2.8,0
		c0.3,0,0.5,0.2,0.5,0.5C1427.9,674.6,1427.6,674.8,1427.4,674.8z M1417.9,674.8C1417.9,674.8,1417.9,674.8,1417.9,674.8l-2.9,0
		c-0.3,0-0.5-0.2-0.5-0.5c0-0.3,0.3-0.5,0.5-0.5l2.8,0c0.3,0,0.5,0.2,0.5,0.5C1418.4,674.6,1418.1,674.8,1417.9,674.8z
		 M1408.4,674.7C1408.4,674.7,1408.4,674.7,1408.4,674.7l-2.9,0c-0.3,0-0.5-0.2-0.5-0.5c0-0.3,0.2-0.5,0.5-0.5c0,0,0,0,0,0l2.8,0
		c0.3,0,0.5,0.2,0.5,0.5C1408.9,674.5,1408.7,674.7,1408.4,674.7z M1398.9,674.7C1398.9,674.7,1398.9,674.7,1398.9,674.7l-2.9,0
		c-0.3,0-0.5-0.2-0.5-0.5c0-0.3,0.2-0.5,0.5-0.5c0,0,0,0,0,0l2.8,0c0.3,0,0.5,0.2,0.5,0.5C1399.4,674.5,1399.2,674.7,1398.9,674.7z
		 M1389.4,674.6C1389.4,674.6,1389.4,674.6,1389.4,674.6l-2.9,0c-0.3,0-0.5-0.2-0.5-0.5c0-0.3,0.2-0.5,0.5-0.5c0,0,0,0,0,0l2.8,0
		c0.3,0,0.5,0.2,0.5,0.5C1389.9,674.4,1389.7,674.6,1389.4,674.6z M1379.9,674.6C1379.9,674.6,1379.9,674.6,1379.9,674.6l-2.9,0
		c-0.3,0-0.5-0.2-0.5-0.5c0-0.3,0.2-0.5,0.5-0.5c0,0,0,0,0,0l2.8,0c0.3,0,0.5,0.2,0.5,0.5C1380.4,674.4,1380.2,674.6,1379.9,674.6z
		 M1370.4,674.5C1370.4,674.5,1370.4,674.5,1370.4,674.5l-2.9,0c-0.3,0-0.5-0.2-0.5-0.5c0-0.3,0.2-0.5,0.5-0.5c0,0,0,0,0,0l2.8,0
		c0.3,0,0.5,0.2,0.5,0.5C1370.9,674.3,1370.7,674.5,1370.4,674.5z M1360.9,674.4C1360.9,674.4,1360.9,674.4,1360.9,674.4l-2.9,0
		c-0.3,0-0.5-0.2-0.5-0.5c0-0.3,0.2-0.5,0.5-0.5c0,0,0,0,0,0l2.8,0c0.3,0,0.5,0.2,0.5,0.5C1361.4,674.2,1361.2,674.4,1360.9,674.4z
		 M1351.4,674.4C1351.4,674.4,1351.4,674.4,1351.4,674.4l-2.9,0c-0.3,0-0.5-0.2-0.5-0.5c0-0.3,0.2-0.5,0.5-0.5c0,0,0,0,0,0l2.8,0
		c0.3,0,0.5,0.2,0.5,0.5C1351.9,674.2,1351.7,674.4,1351.4,674.4z M1341.9,674.3C1341.9,674.3,1341.9,674.3,1341.9,674.3l-2.9,0
		c-0.3,0-0.5-0.2-0.5-0.5c0-0.3,0.2-0.5,0.5-0.5c0,0,0,0,0,0l2.8,0c0.3,0,0.5,0.2,0.5,0.5C1342.4,674.1,1342.2,674.3,1341.9,674.3z
		 M1332.4,674.3C1332.4,674.3,1332.4,674.3,1332.4,674.3l-2.9,0c-0.3,0-0.5-0.2-0.5-0.5c0-0.3,0.2-0.5,0.5-0.5c0,0,0,0,0,0l2.8,0
		c0.3,0,0.5,0.2,0.5,0.5C1332.9,674.1,1332.7,674.3,1332.4,674.3z M1323,674.2C1323,674.2,1323,674.2,1323,674.2l-2.9,0
		c-0.3,0-0.5-0.2-0.5-0.5c0-0.3,0.2-0.4,0.5-0.5l2.8,0c0.3,0,0.5,0.2,0.5,0.5C1323.4,674,1323.2,674.2,1323,674.2z M1313.5,674.2
		C1313.5,674.2,1313.5,674.2,1313.5,674.2l-2.9,0c-0.3,0-0.5-0.2-0.5-0.5c0-0.3,0.2-0.5,0.5-0.5c0,0,0,0,0,0l2.8,0
		c0.3,0,0.5,0.2,0.5,0.5C1313.9,674,1313.7,674.2,1313.5,674.2z M1304,674.1C1304,674.1,1304,674.1,1304,674.1l-2.9,0
		c-0.3,0-0.5-0.2-0.5-0.5c0-0.3,0.2-0.5,0.5-0.5l2.8,0c0.3,0,0.5,0.2,0.5,0.5C1304.4,673.9,1304.2,674.1,1304,674.1z M1294.5,674.1
		C1294.5,674.1,1294.5,674.1,1294.5,674.1l-2.9,0c-0.3,0-0.5-0.2-0.5-0.5c0-0.3,0.2-0.5,0.5-0.5c0,0,0,0,0,0l2.8,0
		c0.3,0,0.5,0.2,0.5,0.5C1295,673.8,1294.7,674.1,1294.5,674.1z M1285,674C1285,674,1285,674,1285,674l-2.9,0
		c-0.3,0-0.5-0.2-0.5-0.5c0-0.3,0.2-0.5,0.5-0.5l2.8,0c0.3,0,0.5,0.2,0.5,0.5C1285.5,673.8,1285.2,674,1285,674z M1275.5,673.9
		C1275.5,673.9,1275.5,673.9,1275.5,673.9l-2.9,0c-0.3,0-0.5-0.2-0.5-0.5c0-0.3,0.2-0.5,0.5-0.5c0,0,0,0,0,0l2.8,0
		c0.3,0,0.5,0.2,0.5,0.5C1276,673.7,1275.8,673.9,1275.5,673.9z M1266,673.9C1266,673.9,1266,673.9,1266,673.9l-2.9,0
		c-0.3,0-0.5-0.2-0.5-0.5c0-0.3,0.2-0.5,0.5-0.5c0,0,0,0,0,0l2.8,0c0.3,0,0.5,0.2,0.5,0.5C1266.5,673.7,1266.3,673.9,1266,673.9z
		 M1256.5,673.8C1256.5,673.8,1256.5,673.8,1256.5,673.8l-2.9,0c-0.3,0-0.5-0.2-0.5-0.5c0-0.3,0.2-0.5,0.5-0.5c0,0,0,0,0,0l2.8,0
		c0.3,0,0.5,0.2,0.5,0.5C1257,673.6,1256.8,673.8,1256.5,673.8z M1247,673.8C1247,673.8,1247,673.8,1247,673.8l-2.9,0
		c-0.3,0-0.5-0.2-0.5-0.5c0-0.3,0.2-0.5,0.5-0.5c0,0,0,0,0,0l2.8,0c0.3,0,0.5,0.2,0.5,0.5C1247.5,673.6,1247.3,673.8,1247,673.8z
		 M1237.5,673.7C1237.5,673.7,1237.5,673.7,1237.5,673.7l-2.9,0c-0.3,0-0.5-0.2-0.5-0.5c0-0.3,0.2-0.5,0.5-0.5c0,0,0,0,0,0l2.8,0
		c0.3,0,0.5,0.2,0.5,0.5C1238,673.5,1237.8,673.7,1237.5,673.7z M1228,673.7C1228,673.7,1228,673.7,1228,673.7l-2.9,0
		c-0.3,0-0.5-0.2-0.5-0.5c0-0.3,0.2-0.5,0.5-0.5c0,0,0,0,0,0l2.8,0c0.3,0,0.5,0.2,0.5,0.5C1228.5,673.5,1228.3,673.7,1228,673.7z
		 M1218.5,673.6C1218.5,673.6,1218.5,673.6,1218.5,673.6l-2.9,0c-0.3,0-0.5-0.2-0.5-0.5c0-0.3,0.2-0.5,0.5-0.5c0,0,0,0,0,0l2.8,0
		c0.3,0,0.5,0.2,0.5,0.5C1219,673.4,1218.8,673.6,1218.5,673.6z M1209,673.6C1209,673.6,1209,673.6,1209,673.6l-2.9,0
		c-0.3,0-0.5-0.2-0.5-0.5c0-0.3,0.2-0.5,0.5-0.5c0,0,0,0,0,0l2.8,0c0.3,0,0.5,0.2,0.5,0.5C1209.5,673.3,1209.3,673.6,1209,673.6z
		 M1199.5,673.5C1199.5,673.5,1199.5,673.5,1199.5,673.5l-2.9,0c-0.3,0-0.5-0.2-0.5-0.5c0-0.3,0.2-0.5,0.5-0.5c0,0,0,0,0,0l2.8,0
		c0.3,0,0.5,0.2,0.5,0.5C1200,673.3,1199.8,673.5,1199.5,673.5z M1190.1,673.4C1190.1,673.4,1190.1,673.4,1190.1,673.4l-2.9,0
		c-0.3,0-0.5-0.2-0.5-0.5c0-0.3,0.2-0.4,0.5-0.5l2.8,0c0.3,0,0.5,0.2,0.5,0.5C1190.5,673.2,1190.3,673.4,1190.1,673.4z
		 M1180.6,673.4C1180.6,673.4,1180.6,673.4,1180.6,673.4l-2.9,0c-0.3,0-0.5-0.2-0.5-0.5c0-0.3,0.2-0.5,0.5-0.5c0,0,0,0,0,0l2.8,0
		c0.3,0,0.5,0.2,0.5,0.5C1181,673.2,1180.8,673.4,1180.6,673.4z M1171.1,673.3C1171.1,673.3,1171.1,673.3,1171.1,673.3l-2.9,0
		c-0.3,0-0.5-0.2-0.5-0.5c0-0.3,0.2-0.5,0.5-0.5l2.8,0c0.3,0,0.5,0.2,0.5,0.5C1171.5,673.1,1171.3,673.3,1171.1,673.3z
		 M1161.6,673.3C1161.6,673.3,1161.6,673.3,1161.6,673.3l-2.9,0c-0.3,0-0.5-0.2-0.5-0.5c0-0.3,0.2-0.5,0.5-0.5c0,0,0,0,0,0l2.8,0
		c0.3,0,0.5,0.2,0.5,0.5C1162,673.1,1161.8,673.3,1161.6,673.3z M1481.3,673.2c-0.2,0-0.4-0.1-0.5-0.3c-0.1-0.2,0.1-0.5,0.3-0.6
		c0.9-0.3,1.8-0.6,2.6-1c0.2-0.1,0.5,0,0.6,0.3c0.1,0.2,0,0.5-0.3,0.6c-0.9,0.4-1.8,0.7-2.7,1
		C1481.4,673.2,1481.3,673.2,1481.3,673.2z M1152.1,673.2C1152.1,673.2,1152.1,673.2,1152.1,673.2l-2.9,0c-0.3,0-0.5-0.2-0.5-0.5
		c0-0.3,0.2-0.5,0.5-0.5l2.8,0c0.3,0,0.5,0.2,0.5,0.5C1152.6,673,1152.3,673.2,1152.1,673.2z M1142.6,673.2
		C1142.6,673.2,1142.6,673.2,1142.6,673.2l-2.9,0c-0.3,0-0.5-0.2-0.5-0.5c0-0.3,0.2-0.5,0.5-0.5c0,0,0,0,0,0l2.8,0
		c0.3,0,0.5,0.2,0.5,0.5C1143.1,673,1142.8,673.2,1142.6,673.2z M1133.1,673.1C1133.1,673.1,1133.1,673.1,1133.1,673.1l-2.9,0
		c-0.3,0-0.5-0.2-0.5-0.5c0-0.3,0.2-0.5,0.5-0.5c0,0,0,0,0,0l2.8,0c0.3,0,0.5,0.2,0.5,0.5C1133.6,672.9,1133.4,673.1,1133.1,673.1z
		 M1123.6,673.1C1123.6,673.1,1123.6,673.1,1123.6,673.1l-2.9,0c-0.3,0-0.5-0.2-0.5-0.5c0-0.3,0.2-0.5,0.5-0.5c0,0,0,0,0,0l2.8,0
		c0.3,0,0.5,0.2,0.5,0.5C1124.1,672.8,1123.9,673.1,1123.6,673.1z M1114.1,673C1114.1,673,1114.1,673,1114.1,673l-2.9,0
		c-0.3,0-0.5-0.2-0.5-0.5c0-0.3,0.2-0.5,0.5-0.5c0,0,0,0,0,0l2.8,0c0.3,0,0.5,0.2,0.5,0.5C1114.6,672.8,1114.4,673,1114.1,673z
		 M1104.6,672.9C1104.6,672.9,1104.6,672.9,1104.6,672.9l-2.9,0c-0.3,0-0.5-0.2-0.5-0.5c0-0.3,0.2-0.5,0.5-0.5c0,0,0,0,0,0l2.8,0
		c0.3,0,0.5,0.2,0.5,0.5C1105.1,672.7,1104.9,672.9,1104.6,672.9z M1095.1,672.8C1095.1,672.8,1095.1,672.8,1095.1,672.8
		c-1,0-1.9-0.1-2.9-0.2c-0.3,0-0.4-0.3-0.4-0.5c0-0.3,0.3-0.5,0.5-0.4c0.9,0.1,1.9,0.2,2.8,0.2c0.3,0,0.5,0.2,0.5,0.5
		C1095.6,672.6,1095.4,672.8,1095.1,672.8z M1085.7,671.5c0,0-0.1,0-0.1,0c-0.9-0.2-1.9-0.5-2.8-0.8c-0.3-0.1-0.4-0.3-0.3-0.6
		c0.1-0.3,0.3-0.4,0.6-0.3c0.9,0.3,1.8,0.5,2.7,0.7c0.3,0.1,0.4,0.3,0.4,0.6C1086.2,671.3,1086,671.5,1085.7,671.5z M1489.8,669.1
		c-0.2,0-0.3-0.1-0.4-0.2c-0.1-0.2-0.1-0.5,0.1-0.7c0.8-0.5,1.6-1.1,2.3-1.6c0.2-0.2,0.5-0.1,0.7,0.1c0.2,0.2,0.1,0.5-0.1,0.7
		c-0.8,0.6-1.5,1.1-2.3,1.7C1490,669.1,1489.9,669.1,1489.8,669.1z M1076.8,668.4c-0.1,0-0.1,0-0.2,0c-0.9-0.4-1.7-0.8-2.6-1.3
		c-0.2-0.1-0.3-0.4-0.2-0.6c0.1-0.2,0.4-0.3,0.6-0.2c0.8,0.4,1.7,0.8,2.5,1.2c0.2,0.1,0.3,0.4,0.2,0.6
		C1077.1,668.3,1077,668.4,1076.8,668.4z M1068.6,663.7c-0.1,0-0.2,0-0.3-0.1c-0.8-0.5-1.6-1.1-2.3-1.7c-0.2-0.2-0.2-0.5-0.1-0.7
		c0.2-0.2,0.5-0.2,0.7-0.1c0.7,0.6,1.5,1.1,2.3,1.7c0.2,0.2,0.3,0.4,0.1,0.7C1068.8,663.6,1068.7,663.7,1068.6,663.7z M1497,662.9
		c-0.1,0-0.2,0-0.3-0.1c-0.2-0.2-0.2-0.5,0-0.7c0.6-0.7,1.2-1.4,1.8-2.2c0.2-0.2,0.5-0.2,0.7-0.1c0.2,0.2,0.2,0.5,0.1,0.7
		c-0.6,0.8-1.2,1.5-1.8,2.2C1497.2,662.9,1497.1,662.9,1497,662.9z M1061.3,657.6c-0.1,0-0.2,0-0.3-0.1c-0.7-0.7-1.3-1.4-1.9-2.1
		c-0.2-0.2-0.2-0.5,0-0.7c0.2-0.2,0.5-0.2,0.7,0c0.6,0.7,1.3,1.4,1.9,2.1c0.2,0.2,0.2,0.5,0,0.7
		C1061.6,657.5,1061.5,657.6,1061.3,657.6z M1502.3,655.1c-0.1,0-0.1,0-0.2-0.1c-0.2-0.1-0.3-0.4-0.2-0.6c0.4-0.8,0.8-1.7,1.2-2.6
		c0.1-0.2,0.4-0.4,0.6-0.3c0.2,0.1,0.4,0.4,0.3,0.6c-0.4,0.9-0.8,1.8-1.2,2.6C1502.7,655,1502.5,655.1,1502.3,655.1z M1055.4,650.2
		c-0.2,0-0.3-0.1-0.4-0.2c-0.5-0.8-1-1.6-1.5-2.4c-0.1-0.2-0.1-0.5,0.2-0.6c0.2-0.1,0.5-0.1,0.6,0.2c0.5,0.8,1,1.6,1.5,2.4
		c0.1,0.2,0.1,0.5-0.1,0.7C1055.6,650.2,1055.5,650.2,1055.4,650.2z M1505.5,646.2C1505.4,646.2,1505.4,646.2,1505.5,646.2
		c-0.4-0.1-0.5-0.3-0.5-0.6c0.1-0.7,0.3-1.4,0.4-2.1l0.1-0.7c0-0.3,0.3-0.4,0.5-0.4c0.3,0,0.4,0.3,0.4,0.5l-0.1,0.7
		c-0.1,0.7-0.2,1.5-0.4,2.2C1505.9,646,1505.7,646.2,1505.5,646.2z M1050.9,641.8c-0.2,0-0.4-0.1-0.4-0.3c-0.4-0.9-0.7-1.8-1-2.7
		c-0.1-0.2,0-0.5,0.3-0.6c0.2-0.1,0.5,0,0.6,0.3c0.3,0.9,0.7,1.8,1,2.6c0.1,0.2,0,0.5-0.3,0.6C1051,641.8,1051,641.8,1050.9,641.8z
		 M1506.9,636.8C1506.9,636.8,1506.9,636.8,1506.9,636.8c-0.3,0-0.5-0.3-0.5-0.5c0.1-0.9,0.3-1.9,0.4-2.8c0-0.3,0.3-0.4,0.5-0.4
		c0.3,0,0.4,0.3,0.4,0.5c-0.1,1-0.3,1.9-0.4,2.8C1507.3,636.6,1507.1,636.8,1506.9,636.8z M1048.1,632.8c-0.2,0-0.4-0.2-0.5-0.4
		c-0.2-0.9-0.4-1.9-0.5-2.8c0-0.3,0.1-0.5,0.4-0.5c0.3,0,0.5,0.1,0.5,0.4c0.1,0.9,0.3,1.9,0.5,2.8
		C1048.6,632.5,1048.5,632.7,1048.1,632.8C1048.2,632.8,1048.1,632.8,1048.1,632.8z M1508.2,627.4
		C1508.1,627.4,1508.1,627.4,1508.2,627.4c-0.3,0-0.5-0.3-0.5-0.5l0.4-2.8c0-0.3,0.3-0.4,0.5-0.4c0.3,0,0.4,0.3,0.4,0.5l-0.4,2.8
		C1508.6,627.2,1508.4,627.4,1508.2,627.4z M1047,623.4c-0.3,0-0.5-0.2-0.5-0.5l-0.1-2.8c0-0.3,0.2-0.5,0.5-0.5
		c0.3,0,0.5,0.2,0.5,0.5l0.1,2.8C1047.5,623.1,1047.3,623.4,1047,623.4C1047.1,623.4,1047,623.4,1047,623.4z M1509.3,618
		C1509.3,618,1509.3,618,1509.3,618c-0.3,0-0.5-0.3-0.5-0.5c0.1-0.9,0.2-1.9,0.3-2.8c0-0.3,0.3-0.4,0.5-0.4c0.3,0,0.4,0.3,0.4,0.5
		c-0.1,1-0.2,1.9-0.3,2.8C1509.7,617.8,1509.5,618,1509.3,618z M1046.7,613.9c-0.3,0-0.5-0.2-0.5-0.5l-0.1-2.8
		c0-0.3,0.2-0.5,0.5-0.5c0.3,0,0.5,0.2,0.5,0.5l0.1,2.8C1047.2,613.6,1047,613.9,1046.7,613.9
		C1046.7,613.9,1046.7,613.9,1046.7,613.9z M1510.3,608.5C1510.3,608.5,1510.3,608.5,1510.3,608.5c-0.3,0-0.5-0.3-0.5-0.5
		c0.1-0.9,0.2-1.9,0.3-2.8c0-0.3,0.3-0.4,0.5-0.4c0.3,0,0.5,0.3,0.4,0.5c-0.1,1-0.2,1.9-0.3,2.8
		C1510.8,608.4,1510.6,608.5,1510.3,608.5z M1046.4,604.4c-0.3,0-0.5-0.2-0.5-0.5l-0.1-2.8c0-0.3,0.2-0.5,0.5-0.5
		c0.2,0,0.5,0.2,0.5,0.5l0.1,2.8C1046.9,604.2,1046.7,604.4,1046.4,604.4C1046.4,604.4,1046.4,604.4,1046.4,604.4z M1511.3,599.1
		C1511.3,599.1,1511.2,599.1,1511.3,599.1c-0.3,0-0.5-0.3-0.5-0.5c0.1-0.9,0.2-1.9,0.3-2.8c0-0.3,0.2-0.5,0.5-0.4
		c0.3,0,0.5,0.3,0.4,0.5c-0.1,1-0.2,1.9-0.3,2.8C1511.7,598.9,1511.5,599.1,1511.3,599.1z M1046.1,594.9c-0.3,0-0.5-0.2-0.5-0.5
		l-0.1-2.8c0-0.3,0.2-0.5,0.5-0.5c0.2,0,0.5,0.2,0.5,0.5l0.1,2.8C1046.6,594.7,1046.4,594.9,1046.1,594.9
		C1046.1,594.9,1046.1,594.9,1046.1,594.9z M1512.1,589.6C1512.1,589.6,1512.1,589.6,1512.1,589.6c-0.3,0-0.5-0.3-0.5-0.5l0.2-2.8
		c0-0.3,0.2-0.5,0.5-0.4c0.3,0,0.5,0.2,0.4,0.5l-0.2,2.8C1512.5,589.4,1512.3,589.6,1512.1,589.6z M1045.8,585.4
		c-0.3,0-0.5-0.2-0.5-0.5l-0.1-2.8c0-0.3,0.2-0.5,0.5-0.5c0.3,0,0.5,0.2,0.5,0.5l0.1,2.8C1046.3,585.2,1046.1,585.4,1045.8,585.4
		C1045.8,585.4,1045.8,585.4,1045.8,585.4z M1512.8,580.2C1512.8,580.2,1512.8,580.2,1512.8,580.2c-0.3,0-0.5-0.2-0.5-0.5l0.2-2.8
		c0-0.3,0.2-0.5,0.5-0.4c0.3,0,0.5,0.2,0.4,0.5l-0.2,2.8C1513.3,580,1513,580.2,1512.8,580.2z M1045.5,575.9c-0.3,0-0.5-0.2-0.5-0.5
		l-0.1-2.8c0-0.3,0.2-0.5,0.5-0.5c0.3,0,0.5,0.2,0.5,0.5l0.1,2.8C1046,575.7,1045.8,575.9,1045.5,575.9
		C1045.5,575.9,1045.5,575.9,1045.5,575.9z M1513.4,570.7C1513.4,570.7,1513.4,570.7,1513.4,570.7c-0.3,0-0.5-0.2-0.5-0.5
		c0.1-0.9,0.1-1.9,0.2-2.8c0-0.3,0.2-0.5,0.5-0.4c0.3,0,0.5,0.2,0.4,0.5c0,1-0.1,1.9-0.2,2.8
		C1513.8,570.5,1513.6,570.7,1513.4,570.7z M1045.2,566.4c-0.3,0-0.5-0.2-0.5-0.5l-0.1-2.8c0-0.3,0.2-0.5,0.5-0.5
		c0.2,0,0.5,0.2,0.5,0.5l0.1,2.8C1045.7,566.2,1045.5,566.4,1045.2,566.4C1045.2,566.4,1045.2,566.4,1045.2,566.4z M1513.9,561.2
		C1513.8,561.2,1513.8,561.2,1513.9,561.2c-0.3,0-0.5-0.2-0.5-0.5c0-0.9,0.1-1.9,0.1-2.8c0-0.3,0.2-0.5,0.5-0.5
		c0.3,0,0.5,0.2,0.5,0.5c0,1-0.1,1.9-0.1,2.8C1514.3,561,1514.1,561.2,1513.9,561.2z M1044.9,556.9c-0.3,0-0.5-0.2-0.5-0.5l-0.1-2.8
		c0-0.3,0.2-0.5,0.5-0.5c0.2,0,0.5,0.2,0.5,0.5l0.1,2.8C1045.4,556.7,1045.2,556.9,1044.9,556.9
		C1044.9,556.9,1044.9,556.9,1044.9,556.9z M1514.2,551.7C1514.2,551.7,1514.2,551.7,1514.2,551.7c-0.3,0-0.5-0.2-0.5-0.5
		c0-0.9,0.1-1.9,0.1-2.8c0-0.3,0.2-0.5,0.5-0.5c0.3,0,0.5,0.2,0.5,0.5c0,1-0.1,1.9-0.1,2.8C1514.7,551.5,1514.5,551.7,1514.2,551.7z
		 M1044.6,547.5c-0.3,0-0.5-0.2-0.5-0.5l-0.1-2.8c0-0.3,0.2-0.5,0.5-0.5c0.2,0,0.5,0.2,0.5,0.5l0.1,2.8
		C1045.1,547.2,1044.9,547.4,1044.6,547.5C1044.6,547.5,1044.6,547.5,1044.6,547.5z M1514.4,542.2
		C1514.4,542.2,1514.4,542.2,1514.4,542.2c-0.3,0-0.5-0.2-0.5-0.5c0-0.9,0-1.9,0-2.8c0-0.3,0.2-0.5,0.5-0.5c0.3,0,0.5,0.2,0.5,0.5
		c0,1,0,1.9,0,2.9C1514.9,542,1514.7,542.2,1514.4,542.2z M1044.3,538c-0.3,0-0.5-0.2-0.5-0.5l-0.1-2.8c0-0.3,0.2-0.5,0.5-0.5
		c0.2,0,0.5,0.2,0.5,0.5l0.1,2.8C1044.8,537.7,1044.6,538,1044.3,538C1044.3,538,1044.3,538,1044.3,538z M1514.5,532.7
		c-0.3,0-0.5-0.2-0.5-0.5V532c0-0.9,0-1.7,0-2.6c0-0.3,0.2-0.5,0.5-0.5c0,0,0,0,0,0c0.3,0,0.5,0.2,0.5,0.5c0,0.9,0,1.7,0,2.6v0.2
		C1515,532.5,1514.7,532.7,1514.5,532.7z M1044,528.5c-0.3,0-0.5-0.2-0.5-0.5l-0.1-2.8c0-0.3,0.2-0.5,0.5-0.5c0.3,0,0.5,0.2,0.5,0.5
		l0.1,2.8C1044.5,528.2,1044.3,528.5,1044,528.5C1044,528.5,1044,528.5,1044,528.5z M1514.4,523.2c-0.3,0-0.5-0.2-0.5-0.5
		c0-0.9,0-1.9-0.1-2.8c0-0.3,0.2-0.5,0.5-0.5c0.2,0,0.5,0.2,0.5,0.5c0,1,0,1.9,0.1,2.8C1514.9,523,1514.7,523.2,1514.4,523.2
		C1514.4,523.2,1514.4,523.2,1514.4,523.2z M1043.7,519c-0.3,0-0.5-0.2-0.5-0.5l-0.1-2.8c0-0.3,0.2-0.5,0.5-0.5
		c0.2,0,0.5,0.2,0.5,0.5l0.1,2.8C1044.2,518.8,1044,519,1043.7,519C1043.7,519,1043.7,519,1043.7,519z M1514.2,513.7
		c-0.3,0-0.5-0.2-0.5-0.5c0-0.9-0.1-1.9-0.1-2.8c0-0.3,0.2-0.5,0.5-0.5c0.3,0,0.5,0.2,0.5,0.5c0,1,0.1,1.9,0.1,2.8
		C1514.7,513.5,1514.5,513.7,1514.2,513.7C1514.2,513.7,1514.2,513.7,1514.2,513.7z M1043.4,509.5c-0.3,0-0.5-0.2-0.5-0.5l-0.1-2.8
		c0-0.3,0.2-0.5,0.5-0.5c0.3,0,0.5,0.2,0.5,0.5l0.1,2.8C1043.9,509.3,1043.7,509.5,1043.4,509.5
		C1043.4,509.5,1043.4,509.5,1043.4,509.5z M1513.8,504.3c-0.3,0-0.5-0.2-0.5-0.5c0-0.9-0.1-1.9-0.1-2.8c0-0.3,0.2-0.5,0.4-0.5
		c0.3,0,0.5,0.2,0.5,0.4c0.1,0.9,0.1,1.9,0.1,2.8C1514.3,504,1514.1,504.2,1513.8,504.3C1513.8,504.3,1513.8,504.3,1513.8,504.3z
		 M1043.1,500c-0.3,0-0.5-0.2-0.5-0.5l-0.1-2.8c0-0.3,0.2-0.5,0.5-0.5c0.3,0,0.5,0.2,0.5,0.5l0.1,2.8
		C1043.6,499.8,1043.4,500,1043.1,500C1043.1,500,1043.1,500,1043.1,500z M1513.3,494.8c-0.2,0-0.5-0.2-0.5-0.4
		c-0.1-0.9-0.1-1.9-0.2-2.8c0-0.3,0.2-0.5,0.4-0.5c0.3,0,0.5,0.2,0.5,0.4c0.1,0.9,0.1,1.9,0.2,2.8
		C1513.7,494.5,1513.5,494.8,1513.3,494.8C1513.3,494.8,1513.3,494.8,1513.3,494.8z M1042.8,490.5c-0.3,0-0.5-0.2-0.5-0.5l-0.1-2.8
		c0-0.3,0.2-0.5,0.5-0.5c0.2,0,0.5,0.2,0.5,0.5l0.1,2.8C1043.3,490.3,1043,490.5,1042.8,490.5
		C1042.8,490.5,1042.8,490.5,1042.8,490.5z M1512.5,485.3c-0.2,0-0.5-0.2-0.5-0.4c-0.1-0.9-0.2-1.9-0.3-2.8c0-0.3,0.2-0.5,0.4-0.5
		c0.3,0,0.5,0.2,0.5,0.4c0.1,0.9,0.2,1.9,0.3,2.8C1513,485.1,1512.8,485.3,1512.5,485.3C1512.5,485.3,1512.5,485.3,1512.5,485.3z
		 M1042.5,481c-0.3,0-0.5-0.2-0.5-0.5l-0.1-2.8c0-0.3,0.2-0.5,0.5-0.5c0.2,0,0.5,0.2,0.5,0.5l0.1,2.8
		C1043,480.8,1042.7,481,1042.5,481C1042.5,481,1042.5,481,1042.5,481z M1511.6,475.9c-0.2,0-0.4-0.2-0.5-0.4
		c-0.1-0.9-0.2-1.9-0.3-2.8c0-0.3,0.2-0.5,0.4-0.5c0.3,0,0.5,0.2,0.5,0.4c0.1,0.9,0.2,1.9,0.3,2.8
		C1512.1,475.6,1511.9,475.8,1511.6,475.9C1511.6,475.9,1511.6,475.9,1511.6,475.9z M1042.2,471.5c-0.3,0-0.5-0.2-0.5-0.5l-0.1-3.3
		h1.7c0.3,0,0.5,0.2,0.5,0.5c0,0.3-0.2,0.5-0.5,0.5h-0.7l0.1,2.4C1042.6,471.3,1042.4,471.5,1042.2,471.5
		C1042.2,471.5,1042.2,471.5,1042.2,471.5z M1508.5,468.7h-2.8c-0.3,0-0.5-0.2-0.5-0.5c0-0.3,0.2-0.5,0.5-0.5h2.8
		c0.3,0,0.5,0.2,0.5,0.5C1508.9,468.5,1508.7,468.7,1508.5,468.7z M1499,468.7h-2.8c-0.3,0-0.5-0.2-0.5-0.5c0-0.3,0.2-0.5,0.5-0.5
		h2.8c0.3,0,0.5,0.2,0.5,0.5C1499.5,468.5,1499.2,468.7,1499,468.7z M1489.5,468.7h-2.8c-0.3,0-0.5-0.2-0.5-0.5
		c0-0.3,0.2-0.5,0.5-0.5h2.8c0.3,0,0.5,0.2,0.5,0.5C1490,468.5,1489.7,468.7,1489.5,468.7z M1480,468.7h-2.8c-0.3,0-0.5-0.2-0.5-0.5
		c0-0.3,0.2-0.5,0.5-0.5h2.8c0.3,0,0.5,0.2,0.5,0.5C1480.5,468.5,1480.3,468.7,1480,468.7z M1470.5,468.7h-2.8
		c-0.3,0-0.5-0.2-0.5-0.5c0-0.3,0.2-0.5,0.5-0.5h2.8c0.3,0,0.5,0.2,0.5,0.5C1471,468.5,1470.8,468.7,1470.5,468.7z M1461,468.7h-2.8
		c-0.3,0-0.5-0.2-0.5-0.5c0-0.3,0.2-0.5,0.5-0.5h2.8c0.3,0,0.5,0.2,0.5,0.5C1461.5,468.5,1461.3,468.7,1461,468.7z M1451.5,468.7
		h-2.8c-0.3,0-0.5-0.2-0.5-0.5c0-0.3,0.2-0.5,0.5-0.5h2.8c0.3,0,0.5,0.2,0.5,0.5C1452,468.5,1451.8,468.7,1451.5,468.7z M1442,468.7
		h-2.8c-0.3,0-0.5-0.2-0.5-0.5c0-0.3,0.2-0.5,0.5-0.5h2.8c0.3,0,0.5,0.2,0.5,0.5C1442.5,468.5,1442.3,468.7,1442,468.7z
		 M1432.5,468.7h-2.8c-0.3,0-0.5-0.2-0.5-0.5c0-0.3,0.2-0.5,0.5-0.5h2.8c0.3,0,0.5,0.2,0.5,0.5
		C1433,468.5,1432.8,468.7,1432.5,468.7z M1423,468.7h-2.8c-0.3,0-0.5-0.2-0.5-0.5c0-0.3,0.2-0.5,0.5-0.5h2.8c0.3,0,0.5,0.2,0.5,0.5
		C1423.5,468.5,1423.3,468.7,1423,468.7z M1413.5,468.7h-2.8c-0.3,0-0.5-0.2-0.5-0.5c0-0.3,0.2-0.5,0.5-0.5h2.8
		c0.3,0,0.5,0.2,0.5,0.5C1414,468.5,1413.8,468.7,1413.5,468.7z M1404,468.7h-2.8c-0.3,0-0.5-0.2-0.5-0.5c0-0.3,0.2-0.5,0.5-0.5h2.8
		c0.3,0,0.5,0.2,0.5,0.5C1404.5,468.5,1404.3,468.7,1404,468.7z M1394.6,468.7h-2.8c-0.3,0-0.5-0.2-0.5-0.5c0-0.3,0.2-0.5,0.5-0.5
		h2.8c0.3,0,0.5,0.2,0.5,0.5C1395,468.5,1394.8,468.7,1394.6,468.7z M1385.1,468.7h-2.8c-0.3,0-0.5-0.2-0.5-0.5
		c0-0.3,0.2-0.5,0.5-0.5h2.8c0.3,0,0.5,0.2,0.5,0.5C1385.5,468.5,1385.3,468.7,1385.1,468.7z M1375.6,468.7h-2.8
		c-0.3,0-0.5-0.2-0.5-0.5c0-0.3,0.2-0.5,0.5-0.5h2.8c0.3,0,0.5,0.2,0.5,0.5C1376,468.5,1375.8,468.7,1375.6,468.7z M1366.1,468.7
		h-2.8c-0.3,0-0.5-0.2-0.5-0.5c0-0.3,0.2-0.5,0.5-0.5h2.8c0.3,0,0.5,0.2,0.5,0.5C1366.5,468.5,1366.3,468.7,1366.1,468.7z
		 M1356.6,468.7h-2.8c-0.3,0-0.5-0.2-0.5-0.5c0-0.3,0.2-0.5,0.5-0.5h2.8c0.3,0,0.5,0.2,0.5,0.5
		C1357.1,468.5,1356.8,468.7,1356.6,468.7z M1347.1,468.7h-2.8c-0.3,0-0.5-0.2-0.5-0.5c0-0.3,0.2-0.5,0.5-0.5h2.8
		c0.3,0,0.5,0.2,0.5,0.5C1347.6,468.5,1347.3,468.7,1347.1,468.7z M1337.6,468.7h-2.8c-0.3,0-0.5-0.2-0.5-0.5c0-0.3,0.2-0.5,0.5-0.5
		h2.8c0.3,0,0.5,0.2,0.5,0.5C1338.1,468.5,1337.9,468.7,1337.6,468.7z M1328.1,468.7h-2.8c-0.3,0-0.5-0.2-0.5-0.5
		c0-0.3,0.2-0.5,0.5-0.5h2.8c0.3,0,0.5,0.2,0.5,0.5C1328.6,468.5,1328.4,468.7,1328.1,468.7z M1318.6,468.7h-2.8
		c-0.3,0-0.5-0.2-0.5-0.5c0-0.3,0.2-0.5,0.5-0.5h2.8c0.3,0,0.5,0.2,0.5,0.5C1319.1,468.5,1318.9,468.7,1318.6,468.7z M1309.1,468.7
		h-2.8c-0.3,0-0.5-0.2-0.5-0.5c0-0.3,0.2-0.5,0.5-0.5h2.8c0.3,0,0.5,0.2,0.5,0.5C1309.6,468.5,1309.4,468.7,1309.1,468.7z
		 M1299.6,468.7h-2.8c-0.3,0-0.5-0.2-0.5-0.5c0-0.3,0.2-0.5,0.5-0.5h2.8c0.3,0,0.5,0.2,0.5,0.5
		C1300.1,468.5,1299.9,468.7,1299.6,468.7z M1290.1,468.7h-2.8c-0.3,0-0.5-0.2-0.5-0.5c0-0.3,0.2-0.5,0.5-0.5h2.8
		c0.3,0,0.5,0.2,0.5,0.5C1290.6,468.5,1290.4,468.7,1290.1,468.7z M1280.6,468.7h-2.8c-0.3,0-0.5-0.2-0.5-0.5c0-0.3,0.2-0.5,0.5-0.5
		h2.8c0.3,0,0.5,0.2,0.5,0.5C1281.1,468.5,1280.9,468.7,1280.6,468.7z M1271.1,468.7h-2.8c-0.3,0-0.5-0.2-0.5-0.5
		c0-0.3,0.2-0.5,0.5-0.5h2.8c0.3,0,0.5,0.2,0.5,0.5C1271.6,468.5,1271.4,468.7,1271.1,468.7z M1261.6,468.7h-2.8
		c-0.3,0-0.5-0.2-0.5-0.5c0-0.3,0.2-0.5,0.5-0.5h2.8c0.3,0,0.5,0.2,0.5,0.5C1262.1,468.5,1261.9,468.7,1261.6,468.7z M1252.2,468.7
		h-2.8c-0.3,0-0.5-0.2-0.5-0.5c0-0.3,0.2-0.5,0.5-0.5h2.8c0.3,0,0.5,0.2,0.5,0.5C1252.6,468.5,1252.4,468.7,1252.2,468.7z
		 M1242.7,468.7h-2.8c-0.3,0-0.5-0.2-0.5-0.5c0-0.3,0.2-0.5,0.5-0.5h2.8c0.3,0,0.5,0.2,0.5,0.5
		C1243.1,468.5,1242.9,468.7,1242.7,468.7z M1233.2,468.7h-2.8c-0.3,0-0.5-0.2-0.5-0.5c0-0.3,0.2-0.5,0.5-0.5h2.8
		c0.3,0,0.5,0.2,0.5,0.5C1233.6,468.5,1233.4,468.7,1233.2,468.7z M1223.7,468.7h-2.8c-0.3,0-0.5-0.2-0.5-0.5c0-0.3,0.2-0.5,0.5-0.5
		h2.8c0.3,0,0.5,0.2,0.5,0.5C1224.1,468.5,1223.9,468.7,1223.7,468.7z M1214.2,468.7h-2.8c-0.3,0-0.5-0.2-0.5-0.5
		c0-0.3,0.2-0.5,0.5-0.5h2.8c0.3,0,0.5,0.2,0.5,0.5C1214.7,468.5,1214.4,468.7,1214.2,468.7z M1204.7,468.7h-2.8
		c-0.3,0-0.5-0.2-0.5-0.5c0-0.3,0.2-0.5,0.5-0.5h2.8c0.3,0,0.5,0.2,0.5,0.5C1205.2,468.5,1205,468.7,1204.7,468.7z M1195.2,468.7
		h-2.8c-0.3,0-0.5-0.2-0.5-0.5c0-0.3,0.2-0.5,0.5-0.5h2.8c0.3,0,0.5,0.2,0.5,0.5C1195.7,468.5,1195.5,468.7,1195.2,468.7z
		 M1185.7,468.7h-2.8c-0.3,0-0.5-0.2-0.5-0.5c0-0.3,0.2-0.5,0.5-0.5h2.8c0.3,0,0.5,0.2,0.5,0.5
		C1186.2,468.5,1186,468.7,1185.7,468.7z M1176.2,468.7h-2.8c-0.3,0-0.5-0.2-0.5-0.5c0-0.3,0.2-0.5,0.5-0.5h2.8
		c0.3,0,0.5,0.2,0.5,0.5C1176.7,468.5,1176.5,468.7,1176.2,468.7z M1166.7,468.7h-2.8c-0.3,0-0.5-0.2-0.5-0.5c0-0.3,0.2-0.5,0.5-0.5
		h2.8c0.3,0,0.5,0.2,0.5,0.5C1167.2,468.5,1167,468.7,1166.7,468.7z M1157.2,468.7h-2.8c-0.3,0-0.5-0.2-0.5-0.5
		c0-0.3,0.2-0.5,0.5-0.5h2.8c0.3,0,0.5,0.2,0.5,0.5C1157.7,468.5,1157.5,468.7,1157.2,468.7z M1147.7,468.7h-2.8
		c-0.3,0-0.5-0.2-0.5-0.5c0-0.3,0.2-0.5,0.5-0.5h2.8c0.3,0,0.5,0.2,0.5,0.5C1148.2,468.5,1148,468.7,1147.7,468.7z M1138.2,468.7
		h-2.8c-0.3,0-0.5-0.2-0.5-0.5c0-0.3,0.2-0.5,0.5-0.5h2.8c0.3,0,0.5,0.2,0.5,0.5C1138.7,468.5,1138.5,468.7,1138.2,468.7z
		 M1128.7,468.7h-2.8c-0.3,0-0.5-0.2-0.5-0.5c0-0.3,0.2-0.5,0.5-0.5h2.8c0.3,0,0.5,0.2,0.5,0.5
		C1129.2,468.5,1129,468.7,1128.7,468.7z M1119.2,468.7h-2.8c-0.3,0-0.5-0.2-0.5-0.5c0-0.3,0.2-0.5,0.5-0.5h2.8
		c0.3,0,0.5,0.2,0.5,0.5C1119.7,468.5,1119.5,468.7,1119.2,468.7z M1109.8,468.7h-2.8c-0.3,0-0.5-0.2-0.5-0.5c0-0.3,0.2-0.5,0.5-0.5
		h2.8c0.3,0,0.5,0.2,0.5,0.5C1110.2,468.5,1110,468.7,1109.8,468.7z M1100.3,468.7h-2.8c-0.3,0-0.5-0.2-0.5-0.5
		c0-0.3,0.2-0.5,0.5-0.5h2.8c0.3,0,0.5,0.2,0.5,0.5C1100.7,468.5,1100.5,468.7,1100.3,468.7z M1090.8,468.7h-2.8
		c-0.3,0-0.5-0.2-0.5-0.5c0-0.3,0.2-0.5,0.5-0.5h2.8c0.3,0,0.5,0.2,0.5,0.5C1091.2,468.5,1091,468.7,1090.8,468.7z M1081.3,468.7
		h-2.8c-0.3,0-0.5-0.2-0.5-0.5c0-0.3,0.2-0.5,0.5-0.5h2.8c0.3,0,0.5,0.2,0.5,0.5C1081.8,468.5,1081.5,468.7,1081.3,468.7z
		 M1071.8,468.7h-2.8c-0.3,0-0.5-0.2-0.5-0.5c0-0.3,0.2-0.5,0.5-0.5h2.8c0.3,0,0.5,0.2,0.5,0.5
		C1072.3,468.5,1072,468.7,1071.8,468.7z M1062.3,468.7h-2.8c-0.3,0-0.5-0.2-0.5-0.5c0-0.3,0.2-0.5,0.5-0.5h2.8
		c0.3,0,0.5,0.2,0.5,0.5C1062.8,468.5,1062.6,468.7,1062.3,468.7z M1052.8,468.7h-2.8c-0.3,0-0.5-0.2-0.5-0.5c0-0.3,0.2-0.5,0.5-0.5
		h2.8c0.3,0,0.5,0.2,0.5,0.5C1053.3,468.5,1053.1,468.7,1052.8,468.7z"/>
	<linearGradient id="SVGID_2_" gradientUnits="userSpaceOnUse" x1="1272.1378" y1="609.0793" x2="1283.1625" y2="290.4739">
		<stop  offset="0" style="stop-color:#FEB12B"/>
		<stop  offset="0.3422" style="stop-color:#FEAF2B"/>
		<stop  offset="0.4933" style="stop-color:#FEA82B"/>
		<stop  offset="0.6069" style="stop-color:#FE9B2A"/>
		<stop  offset="0.7017" style="stop-color:#FD892A"/>
		<stop  offset="0.7847" style="stop-color:#FD7229"/>
		<stop  offset="0.8596" style="stop-color:#FC5529"/>
		<stop  offset="0.9273" style="stop-color:#FC3328"/>
		<stop  offset="0.9895" style="stop-color:#FB0D27"/>
		<stop  offset="0.9949" style="stop-color:#FB0927"/>
	</linearGradient>
	<path class="st5" d="M1044.5,344.8c69.7-0.9,371.3-4.1,458.9,6.5c7.5,0.9,13.7,6.4,15.3,13.8c5.2,23.4,15.6,77.8,14.4,131.7
		c-0.2,7.3-5.5,13.5-12.8,14.9l-200,37.8h-71l-213.1-42.4c-7.5-1.5-13-7.9-13.4-15.5c-1.4-27.1-3.5-90.7,3.8-131.7
		C1028.2,351.3,1035.7,344.9,1044.5,344.8z"/>
	<path class="st4" d="M1318.7,532.7h-2.8c-0.3,0-0.5-0.2-0.5-0.5c0-0.3,0.2-0.5,0.5-0.5h2.8c0.3,0,0.5,0.2,0.5,0.5
		C1319.2,532.5,1319,532.7,1318.7,532.7z M1309.2,532.7h-2.8c-0.3,0-0.5-0.2-0.5-0.5c0-0.3,0.2-0.5,0.5-0.5h2.8
		c0.3,0,0.5,0.2,0.5,0.5C1309.7,532.5,1309.5,532.7,1309.2,532.7z M1299.7,532.7h-2.8c-0.3,0-0.5-0.2-0.5-0.5c0-0.3,0.2-0.5,0.5-0.5
		h2.8c0.3,0,0.5,0.2,0.5,0.5C1300.2,532.5,1300,532.7,1299.7,532.7z M1290.3,532.7h-2.8c-0.3,0-0.5-0.2-0.5-0.5
		c0-0.3,0.2-0.5,0.5-0.5h2.8c0.3,0,0.5,0.2,0.5,0.5C1290.7,532.5,1290.5,532.7,1290.3,532.7z M1280.8,532.7h-2.8
		c-0.3,0-0.5-0.2-0.5-0.5c0-0.3,0.2-0.5,0.5-0.5h2.8c0.3,0,0.5,0.2,0.5,0.5C1281.2,532.5,1281,532.7,1280.8,532.7z M1271.3,532.7
		h-2.8c-0.3,0-0.5-0.2-0.5-0.5c0-0.3,0.2-0.5,0.5-0.5h2.8c0.3,0,0.5,0.2,0.5,0.5C1271.7,532.5,1271.5,532.7,1271.3,532.7z
		 M1261.8,532.7h-2.8c-0.3,0-0.5-0.2-0.5-0.5c0-0.3,0.2-0.5,0.5-0.5h2.8c0.3,0,0.5,0.2,0.5,0.5
		C1262.2,532.5,1262,532.7,1261.8,532.7z M1252.3,532.7h-1.2l-2.9-0.6c-0.3-0.1-0.4-0.3-0.4-0.6c0.1-0.3,0.3-0.4,0.6-0.4l2.8,0.6
		l1.1,0c0.3,0,0.5,0.2,0.5,0.5C1252.8,532.5,1252.5,532.7,1252.3,532.7z M1325.3,531.5c-0.2,0-0.4-0.2-0.5-0.4
		c0-0.3,0.1-0.5,0.4-0.6l2.8-0.5c0.3,0,0.5,0.1,0.6,0.4c0,0.3-0.1,0.5-0.4,0.6L1325.3,531.5C1325.3,531.5,1325.3,531.5,1325.3,531.5
		z M1241.7,530.9C1241.7,530.9,1241.7,530.9,1241.7,530.9l-2.9-0.6c-0.3-0.1-0.4-0.3-0.4-0.6c0.1-0.3,0.3-0.4,0.6-0.4l2.8,0.6
		c0.3,0.1,0.4,0.3,0.4,0.6C1242.1,530.7,1241.9,530.9,1241.7,530.9z M1334.6,529.7c-0.2,0-0.4-0.2-0.5-0.4c0-0.3,0.1-0.5,0.4-0.6
		l2.8-0.5c0.3,0,0.5,0.1,0.6,0.4c0,0.3-0.1,0.5-0.4,0.6L1334.6,529.7C1334.6,529.7,1334.6,529.7,1334.6,529.7z M1232.4,529
		C1232.4,529,1232.4,529,1232.4,529l-2.9-0.6c-0.3-0.1-0.4-0.3-0.4-0.6c0.1-0.3,0.3-0.4,0.6-0.4l2.8,0.6c0.3,0.1,0.4,0.3,0.4,0.6
		C1232.8,528.9,1232.6,529,1232.4,529z M1343.9,528c-0.2,0-0.4-0.2-0.5-0.4c0-0.3,0.1-0.5,0.4-0.6l2.8-0.5c0.3,0,0.5,0.1,0.6,0.4
		c0,0.3-0.1,0.5-0.4,0.6L1343.9,528C1344,528,1343.9,528,1343.9,528z M1223.1,527.2C1223.1,527.2,1223,527.2,1223.1,527.2l-2.9-0.6
		c-0.3-0.1-0.4-0.3-0.4-0.6c0.1-0.3,0.3-0.4,0.6-0.4l2.8,0.6c0.3,0.1,0.4,0.3,0.4,0.6C1223.5,527,1223.3,527.2,1223.1,527.2z
		 M1353.2,526.2c-0.2,0-0.4-0.2-0.5-0.4c0-0.3,0.1-0.5,0.4-0.6l2.8-0.5c0.3,0,0.5,0.1,0.6,0.4s-0.1,0.5-0.4,0.6L1353.2,526.2
		C1353.3,526.2,1353.3,526.2,1353.2,526.2z M1213.8,525.3C1213.8,525.3,1213.7,525.3,1213.8,525.3l-2.9-0.6
		c-0.3-0.1-0.4-0.3-0.4-0.6c0.1-0.3,0.3-0.4,0.6-0.4l2.8,0.6c0.3,0.1,0.4,0.3,0.4,0.6C1214.2,525.2,1214,525.3,1213.8,525.3z
		 M1362.6,524.4c-0.2,0-0.4-0.2-0.5-0.4c0-0.3,0.1-0.5,0.4-0.6l2.8-0.5c0.3,0,0.5,0.1,0.6,0.4c0,0.3-0.1,0.5-0.4,0.6L1362.6,524.4
		C1362.6,524.4,1362.6,524.4,1362.6,524.4z M1204.5,523.5C1204.5,523.5,1204.4,523.5,1204.5,523.5l-2.9-0.6
		c-0.3-0.1-0.4-0.3-0.4-0.6c0.1-0.3,0.3-0.4,0.6-0.4l2.8,0.6c0.3,0.1,0.4,0.3,0.4,0.6C1204.9,523.3,1204.7,523.5,1204.5,523.5z
		 M1371.9,522.7c-0.2,0-0.4-0.2-0.5-0.4c0-0.3,0.1-0.5,0.4-0.6l2.8-0.5c0.3,0,0.5,0.1,0.6,0.4c0,0.3-0.1,0.5-0.4,0.6L1371.9,522.7
		C1372,522.7,1371.9,522.7,1371.9,522.7z M1195.2,521.6C1195.1,521.6,1195.1,521.6,1195.2,521.6l-2.9-0.6c-0.3-0.1-0.4-0.3-0.4-0.6
		c0.1-0.3,0.3-0.4,0.6-0.4l2.8,0.6c0.3,0.1,0.4,0.3,0.4,0.6C1195.6,521.5,1195.4,521.6,1195.2,521.6z M1381.2,520.9
		c-0.2,0-0.4-0.2-0.5-0.4c0-0.3,0.1-0.5,0.4-0.6l2.8-0.5c0.3,0,0.5,0.1,0.6,0.4c0,0.3-0.1,0.5-0.4,0.6L1381.2,520.9
		C1381.3,520.9,1381.3,520.9,1381.2,520.9z M1185.9,519.8C1185.8,519.8,1185.8,519.8,1185.9,519.8l-2.9-0.6
		c-0.3-0.1-0.4-0.3-0.4-0.6c0.1-0.3,0.3-0.4,0.6-0.4l2.8,0.6c0.3,0.1,0.4,0.3,0.4,0.6C1186.3,519.6,1186.1,519.8,1185.9,519.8z
		 M1390.6,519.2c-0.2,0-0.4-0.2-0.5-0.4c0-0.3,0.1-0.5,0.4-0.6l2.8-0.5c0.3,0,0.5,0.1,0.6,0.4c0,0.3-0.1,0.5-0.4,0.6L1390.6,519.2
		C1390.6,519.2,1390.6,519.2,1390.6,519.2z M1176.5,517.9C1176.5,517.9,1176.5,517.9,1176.5,517.9l-2.9-0.6
		c-0.3-0.1-0.4-0.3-0.4-0.6c0.1-0.3,0.3-0.4,0.6-0.4l2.8,0.6c0.3,0.1,0.4,0.3,0.4,0.6C1177,517.8,1176.8,517.9,1176.5,517.9z
		 M1399.9,517.4c-0.2,0-0.4-0.2-0.5-0.4c0-0.3,0.1-0.5,0.4-0.6l2.8-0.5c0.3,0,0.5,0.1,0.6,0.4c0,0.3-0.1,0.5-0.4,0.6L1399.9,517.4
		C1399.9,517.4,1399.9,517.4,1399.9,517.4z M1167.2,516.1C1167.2,516.1,1167.2,516.1,1167.2,516.1l-2.9-0.6
		c-0.3-0.1-0.4-0.3-0.4-0.6c0.1-0.3,0.3-0.4,0.6-0.4l2.8,0.6c0.3,0.1,0.4,0.3,0.4,0.6C1167.7,515.9,1167.5,516.1,1167.2,516.1z
		 M1409.2,515.6c-0.2,0-0.4-0.2-0.5-0.4c0-0.3,0.1-0.5,0.4-0.6l2.8-0.5c0.3,0,0.5,0.1,0.6,0.4c0,0.3-0.1,0.5-0.4,0.6L1409.2,515.6
		C1409.3,515.6,1409.2,515.6,1409.2,515.6z M1157.9,514.2C1157.9,514.2,1157.9,514.2,1157.9,514.2l-2.9-0.6
		c-0.3-0.1-0.4-0.3-0.4-0.6c0.1-0.3,0.3-0.4,0.6-0.4l2.8,0.6c0.3,0.1,0.4,0.3,0.4,0.6C1158.3,514.1,1158.1,514.2,1157.9,514.2z
		 M1418.5,513.9c-0.2,0-0.4-0.2-0.5-0.4c0-0.3,0.1-0.5,0.4-0.6l2.8-0.5c0.3,0,0.5,0.1,0.6,0.4c0,0.3-0.1,0.5-0.4,0.6L1418.5,513.9
		C1418.6,513.9,1418.6,513.9,1418.5,513.9z M1148.6,512.4C1148.6,512.4,1148.6,512.4,1148.6,512.4l-2.9-0.6
		c-0.3-0.1-0.4-0.3-0.4-0.6c0.1-0.3,0.3-0.4,0.6-0.4l2.8,0.6c0.3,0.1,0.4,0.3,0.4,0.6C1149,512.2,1148.8,512.4,1148.6,512.4z
		 M1427.9,512.1c-0.2,0-0.4-0.2-0.5-0.4c0-0.3,0.1-0.5,0.4-0.6l2.8-0.5c0.3,0,0.5,0.1,0.6,0.4c0,0.3-0.1,0.5-0.4,0.6L1427.9,512.1
		C1427.9,512.1,1427.9,512.1,1427.9,512.1z M1139.3,510.5C1139.3,510.5,1139.2,510.5,1139.3,510.5l-2.9-0.6
		c-0.3-0.1-0.4-0.3-0.4-0.6c0.1-0.3,0.3-0.4,0.6-0.4l2.8,0.6c0.3,0.1,0.4,0.3,0.4,0.6C1139.7,510.4,1139.5,510.5,1139.3,510.5z
		 M1437.2,510.3c-0.2,0-0.4-0.2-0.5-0.4c0-0.3,0.1-0.5,0.4-0.6l2.8-0.5c0.3,0,0.5,0.1,0.6,0.4c0,0.3-0.1,0.5-0.4,0.6L1437.2,510.3
		C1437.3,510.3,1437.2,510.3,1437.2,510.3z M1130,508.7C1130,508.7,1129.9,508.7,1130,508.7l-2.9-0.6c-0.3-0.1-0.4-0.3-0.4-0.6
		c0.1-0.3,0.3-0.4,0.6-0.4l2.8,0.6c0.3,0.1,0.4,0.3,0.4,0.6C1130.4,508.5,1130.2,508.7,1130,508.7z M1446.5,508.6
		c-0.2,0-0.4-0.2-0.5-0.4c0-0.3,0.1-0.5,0.4-0.6l2.8-0.5c0.3,0,0.5,0.1,0.6,0.4c0,0.3-0.1,0.5-0.4,0.6L1446.5,508.6
		C1446.6,508.6,1446.6,508.6,1446.5,508.6z M1120.7,506.8C1120.7,506.8,1120.6,506.8,1120.7,506.8l-2.9-0.6
		c-0.3-0.1-0.4-0.3-0.4-0.6c0.1-0.3,0.3-0.4,0.6-0.4l2.8,0.6c0.3,0.1,0.4,0.3,0.4,0.6C1121.1,506.7,1120.9,506.8,1120.7,506.8z
		 M1455.8,506.8c-0.2,0-0.4-0.2-0.5-0.4c0-0.3,0.1-0.5,0.4-0.6l2.8-0.5c0.3,0,0.5,0.1,0.6,0.4c0,0.3-0.1,0.5-0.4,0.6L1455.8,506.8
		C1455.9,506.8,1455.9,506.8,1455.8,506.8z M1465.2,505c-0.2,0-0.4-0.2-0.5-0.4c0-0.3,0.1-0.5,0.4-0.6l2.8-0.5
		c0.3,0,0.5,0.1,0.6,0.4c0,0.3-0.1,0.5-0.4,0.6L1465.2,505C1465.2,505,1465.2,505,1465.2,505z M1111.4,505
		C1111.3,505,1111.3,505,1111.4,505l-2.9-0.6c-0.3-0.1-0.4-0.3-0.4-0.6c0.1-0.3,0.3-0.4,0.6-0.4l2.8,0.6c0.3,0.1,0.4,0.3,0.4,0.6
		C1111.8,504.8,1111.6,505,1111.4,505z M1474.5,503.3c-0.2,0-0.4-0.2-0.5-0.4c0-0.3,0.1-0.5,0.4-0.6l2.8-0.5c0.3,0,0.5,0.1,0.6,0.4
		c0,0.3-0.1,0.5-0.4,0.6L1474.5,503.3C1474.6,503.3,1474.5,503.3,1474.5,503.3z M1102.1,503.1C1102,503.1,1102,503.1,1102.1,503.1
		l-2.9-0.6c-0.3-0.1-0.4-0.3-0.4-0.6c0.1-0.3,0.3-0.4,0.6-0.4l2.8,0.6c0.3,0.1,0.4,0.3,0.4,0.6
		C1102.5,503,1102.3,503.1,1102.1,503.1z M1483.8,501.5c-0.2,0-0.4-0.2-0.5-0.4c0-0.3,0.1-0.5,0.4-0.6l2.8-0.5
		c0.3,0,0.5,0.1,0.6,0.4c0,0.3-0.1,0.5-0.4,0.6L1483.8,501.5C1483.9,501.5,1483.9,501.5,1483.8,501.5z M1092.7,501.3
		C1092.7,501.3,1092.7,501.3,1092.7,501.3l-2.9-0.6c-0.3-0.1-0.4-0.3-0.4-0.6c0.1-0.3,0.3-0.4,0.6-0.4l2.8,0.6
		c0.3,0.1,0.4,0.3,0.4,0.6C1093.2,501.1,1093,501.3,1092.7,501.3z M1493.2,499.7c-0.2,0-0.4-0.2-0.5-0.4c0-0.3,0.1-0.5,0.4-0.6
		l2.8-0.5c0.3,0,0.5,0.1,0.6,0.4s-0.1,0.5-0.4,0.6L1493.2,499.7C1493.2,499.7,1493.2,499.7,1493.2,499.7z M1083.4,499.4
		C1083.4,499.4,1083.4,499.4,1083.4,499.4l-2.9-0.6c-0.3-0.1-0.4-0.3-0.4-0.6c0.1-0.3,0.3-0.4,0.6-0.4l2.8,0.6
		c0.3,0.1,0.4,0.3,0.4,0.6C1083.9,499.3,1083.7,499.4,1083.4,499.4z M1502.5,498c-0.2,0-0.4-0.2-0.5-0.4c0-0.3,0.1-0.5,0.4-0.6
		l2.8-0.5c0.3,0,0.5,0.1,0.6,0.4c0,0.3-0.1,0.5-0.4,0.6L1502.5,498C1502.5,498,1502.5,498,1502.5,498z M1074.1,497.6
		C1074.1,497.6,1074.1,497.6,1074.1,497.6l-2.9-0.6c-0.3-0.1-0.4-0.3-0.4-0.6c0.1-0.3,0.3-0.4,0.6-0.4l2.8,0.6
		c0.3,0.1,0.4,0.3,0.4,0.6C1074.5,497.4,1074.3,497.6,1074.1,497.6z M1511.8,496.2c-0.2,0-0.4-0.2-0.5-0.4c0-0.3,0.1-0.5,0.4-0.6
		l2.8-0.5c0.3,0,0.5,0.1,0.6,0.4c0,0.3-0.1,0.5-0.4,0.6L1511.8,496.2C1511.9,496.2,1511.8,496.2,1511.8,496.2z M1064.8,495.7
		C1064.8,495.7,1064.8,495.7,1064.8,495.7l-2.9-0.6c-0.3-0.1-0.4-0.3-0.4-0.6c0.1-0.3,0.3-0.4,0.6-0.4l2.8,0.6
		c0.3,0.1,0.4,0.3,0.4,0.6C1065.2,495.6,1065,495.7,1064.8,495.7z M1055.5,493.9C1055.5,493.9,1055.4,493.9,1055.5,493.9l-2.9-0.6
		c-0.3-0.1-0.4-0.3-0.4-0.6c0.1-0.3,0.3-0.4,0.6-0.4l2.8,0.6c0.3,0.1,0.4,0.3,0.4,0.6C1055.9,493.7,1055.7,493.9,1055.5,493.9z
		 M1046.2,492C1046.2,492,1046.1,492,1046.2,492l-2.9-0.6c-0.3-0.1-0.4-0.3-0.4-0.6c0.1-0.3,0.3-0.4,0.6-0.4l2.8,0.6
		c0.3,0.1,0.4,0.3,0.4,0.6C1046.6,491.9,1046.4,492,1046.2,492z M1516,490.1C1516,490.1,1516,490.1,1516,490.1
		c-0.3,0-0.5-0.2-0.5-0.5l0-1.7l0-1.1c0-0.3,0.2-0.5,0.5-0.5c0,0,0,0,0,0c0.3,0,0.5,0.2,0.5,0.5l0,1.1l0,1.7
		C1516.5,489.9,1516.3,490.1,1516,490.1z M1039.9,487.6c-0.3,0-0.5-0.2-0.5-0.5c0-0.9-0.1-1.9-0.1-2.8c0-0.3,0.2-0.5,0.5-0.5
		c0.3,0,0.5,0.2,0.5,0.5c0,1,0.1,1.9,0.1,2.8C1040.3,487.4,1040.1,487.6,1039.9,487.6C1039.9,487.6,1039.9,487.6,1039.9,487.6z
		 M1515.9,480.6c-0.3,0-0.5-0.2-0.5-0.5c0-0.9,0-1.9-0.1-2.8c0-0.3,0.2-0.5,0.5-0.5c0.3,0,0.5,0.2,0.5,0.5c0,0.9,0,1.9,0.1,2.8
		C1516.4,480.4,1516.2,480.6,1515.9,480.6C1515.9,480.6,1515.9,480.6,1515.9,480.6z M1039.5,478.1c-0.3,0-0.5-0.2-0.5-0.5l-0.1-2.8
		c0-0.3,0.2-0.5,0.5-0.5c0.2,0,0.5,0.2,0.5,0.5l0.1,2.8C1039.9,477.9,1039.7,478.1,1039.5,478.1
		C1039.5,478.1,1039.5,478.1,1039.5,478.1z M1515.6,471.2c-0.3,0-0.5-0.2-0.5-0.5c0-0.9-0.1-1.9-0.1-2.8c0-0.3,0.2-0.5,0.5-0.5
		c0.3,0,0.5,0.2,0.5,0.5c0,0.9,0.1,1.9,0.1,2.8C1516.1,470.9,1515.9,471.1,1515.6,471.2C1515.6,471.2,1515.6,471.2,1515.6,471.2z
		 M1039.1,468.6c-0.3,0-0.5-0.2-0.5-0.5l-0.1-2.8c0-0.3,0.2-0.5,0.5-0.5c0.3,0,0.5,0.2,0.5,0.5l0.1,2.8
		C1039.6,468.4,1039.4,468.6,1039.1,468.6C1039.1,468.6,1039.1,468.6,1039.1,468.6z M1515.1,461.7c-0.2,0-0.5-0.2-0.5-0.4
		c-0.1-0.9-0.1-1.9-0.2-2.8c0-0.3,0.2-0.5,0.4-0.5c0.3,0,0.5,0.2,0.5,0.4c0.1,0.9,0.1,1.9,0.2,2.8
		C1515.6,461.4,1515.4,461.7,1515.1,461.7C1515.2,461.7,1515.2,461.7,1515.1,461.7z M1038.9,459.1c-0.3,0-0.5-0.2-0.5-0.5l-0.1-2.8
		c0-0.3,0.2-0.5,0.5-0.5c0.3,0,0.5,0.2,0.5,0.5l0.1,2.8C1039.4,458.9,1039.2,459.1,1038.9,459.1
		C1038.9,459.1,1038.9,459.1,1038.9,459.1z M1514.5,452.2c-0.2,0-0.5-0.2-0.5-0.4c-0.1-0.9-0.2-1.9-0.2-2.8c0-0.3,0.2-0.5,0.4-0.5
		c0.3,0,0.5,0.2,0.5,0.4c0.1,0.9,0.2,1.9,0.2,2.8C1515,452,1514.8,452.2,1514.5,452.2C1514.5,452.2,1514.5,452.2,1514.5,452.2z
		 M1038.7,449.6c-0.3,0-0.5-0.2-0.5-0.5l0-2.8c0-0.3,0.2-0.5,0.5-0.5c0,0,0,0,0,0c0.3,0,0.5,0.2,0.5,0.5l0,2.8
		C1039.2,449.4,1039,449.6,1038.7,449.6C1038.7,449.6,1038.7,449.6,1038.7,449.6z M1513.6,442.7c-0.2,0-0.4-0.2-0.5-0.4
		c-0.1-0.9-0.2-1.9-0.3-2.8c0-0.3,0.2-0.5,0.4-0.5c0.3,0,0.5,0.2,0.5,0.4c0.1,0.9,0.2,1.9,0.3,2.8
		C1514.1,442.5,1513.9,442.7,1513.6,442.7C1513.7,442.7,1513.6,442.7,1513.6,442.7z M1038.7,440.1c-0.3,0-0.5-0.2-0.5-0.5l0-1.6
		l0-1.2c0-0.3,0.2-0.5,0.5-0.5h0c0.3,0,0.5,0.2,0.5,0.5l0,1.2l0,1.6C1039.1,439.9,1038.9,440.1,1038.7,440.1
		C1038.7,440.1,1038.7,440.1,1038.7,440.1z M1512.6,433.3c-0.2,0-0.4-0.2-0.5-0.4c-0.1-0.9-0.2-1.9-0.3-2.8c0-0.3,0.2-0.5,0.4-0.5
		c0.3,0,0.5,0.2,0.5,0.4c0.1,0.9,0.2,1.9,0.3,2.8C1513.1,433,1512.9,433.3,1512.6,433.3C1512.7,433.3,1512.6,433.3,1512.6,433.3z
		 M1038.7,430.6C1038.7,430.6,1038.7,430.6,1038.7,430.6c-0.3,0-0.5-0.2-0.5-0.5c0-0.9,0-1.9,0-2.8c0-0.3,0.2-0.5,0.5-0.5
		c0,0,0,0,0,0c0.3,0,0.5,0.2,0.5,0.5c0,0.9,0,1.9,0,2.8C1039.2,430.4,1039,430.6,1038.7,430.6z M1511.5,423.9
		c-0.2,0-0.4-0.2-0.5-0.4c-0.1-0.9-0.2-1.9-0.4-2.8c0-0.3,0.1-0.5,0.4-0.5c0.3,0,0.5,0.1,0.5,0.4c0.1,0.9,0.3,1.9,0.4,2.8
		C1512,423.6,1511.8,423.8,1511.5,423.9C1511.5,423.9,1511.5,423.9,1511.5,423.9z M1038.8,421.2
		C1038.8,421.2,1038.8,421.2,1038.8,421.2c-0.3,0-0.5-0.2-0.5-0.5c0-0.9,0-1.9,0.1-2.8c0-0.3,0.2-0.5,0.5-0.5c0.3,0,0.5,0.2,0.5,0.5
		c0,0.9,0,1.9-0.1,2.8C1039.3,421,1039.1,421.2,1038.8,421.2z M1510.2,414.5c-0.2,0-0.4-0.2-0.5-0.4c-0.1-0.9-0.3-1.9-0.4-2.8
		c0-0.3,0.1-0.5,0.4-0.5c0.3,0,0.5,0.1,0.5,0.4c0.1,0.9,0.3,1.9,0.4,2.8C1510.7,414.2,1510.5,414.4,1510.2,414.5
		C1510.2,414.5,1510.2,414.5,1510.2,414.5z M1039.1,411.7C1039.1,411.7,1039.1,411.7,1039.1,411.7c-0.3,0-0.5-0.2-0.5-0.5
		c0-1,0.1-1.9,0.1-2.9c0-0.3,0.3-0.5,0.5-0.5c0.3,0,0.5,0.2,0.5,0.5c0,0.9-0.1,1.9-0.1,2.8C1039.6,411.5,1039.4,411.7,1039.1,411.7z
		 M1508.7,405.1c-0.2,0-0.4-0.2-0.5-0.4c-0.2-0.9-0.3-1.9-0.5-2.8c0-0.3,0.1-0.5,0.4-0.5c0.3,0,0.5,0.1,0.5,0.4
		c0.2,0.9,0.3,1.9,0.5,2.8C1509.2,404.8,1509.1,405,1508.7,405.1C1508.8,405.1,1508.8,405.1,1508.7,405.1z M1039.5,402.2
		C1039.5,402.2,1039.5,402.2,1039.5,402.2c-0.3,0-0.5-0.2-0.5-0.5c0.1-1,0.1-1.9,0.2-2.9c0-0.3,0.2-0.5,0.5-0.4
		c0.3,0,0.5,0.2,0.4,0.5c-0.1,0.9-0.1,1.9-0.2,2.8C1040,402,1039.8,402.2,1039.5,402.2z M1507.2,395.7c-0.2,0-0.4-0.2-0.5-0.4
		c-0.2-0.9-0.3-1.9-0.5-2.8c0-0.3,0.1-0.5,0.4-0.6c0.3,0,0.5,0.1,0.6,0.4c0.2,0.9,0.3,1.9,0.5,2.8
		C1507.7,395.4,1507.5,395.7,1507.2,395.7C1507.2,395.7,1507.2,395.7,1507.2,395.7z M1040.1,392.7
		C1040.1,392.7,1040.1,392.7,1040.1,392.7c-0.3,0-0.5-0.2-0.5-0.5c0.1-1,0.1-1.9,0.2-2.8c0-0.3,0.2-0.4,0.5-0.4
		c0.3,0,0.5,0.2,0.4,0.5c-0.1,0.9-0.1,1.9-0.2,2.8C1040.6,392.5,1040.4,392.7,1040.1,392.7z M1505.4,386.4c-0.2,0-0.4-0.2-0.5-0.4
		c-0.2-1-0.4-1.9-0.5-2.8c-0.1-0.3,0.1-0.5,0.4-0.6c0.3-0.1,0.5,0.1,0.6,0.4c0.2,0.9,0.4,1.8,0.5,2.8
		C1506,386.1,1505.8,386.3,1505.4,386.4C1505.5,386.4,1505.5,386.4,1505.4,386.4z M1040.9,383.2
		C1040.9,383.2,1040.9,383.2,1040.9,383.2c-0.3,0-0.5-0.3-0.5-0.5c0.1-1,0.2-1.9,0.3-2.8c0-0.3,0.3-0.4,0.5-0.4
		c0.3,0,0.4,0.3,0.4,0.5c-0.1,0.9-0.2,1.9-0.3,2.8C1041.4,383,1041.2,383.2,1040.9,383.2z M1503.6,377.1c-0.2,0-0.4-0.2-0.5-0.4
		c-0.2-1-0.4-1.9-0.6-2.8c-0.1-0.3,0.1-0.5,0.4-0.6c0.3-0.1,0.5,0.1,0.6,0.4c0.2,0.9,0.4,1.8,0.6,2.8
		C1504.1,376.7,1504,377,1503.6,377.1C1503.7,377,1503.6,377.1,1503.6,377.1z M1042,373.8C1042,373.8,1042,373.8,1042,373.8
		c-0.3,0-0.5-0.3-0.5-0.5c0.1-1,0.3-1.9,0.4-2.8c0-0.3,0.3-0.4,0.5-0.4c0.3,0,0.4,0.3,0.4,0.5c-0.1,0.9-0.3,1.9-0.4,2.8
		C1042.4,373.6,1042.2,373.8,1042,373.8z M1500.6,368.8C1500.5,368.8,1500.5,368.8,1500.6,368.8c-1-0.1-1.9-0.2-2.9-0.3
		c-0.3,0-0.4-0.3-0.4-0.5c0-0.3,0.3-0.4,0.5-0.4c1,0.1,1.9,0.2,2.8,0.3c0.3,0,0.4,0.3,0.4,0.5C1501,368.6,1500.8,368.8,1500.6,368.8
		z M1491.1,367.8C1491.1,367.8,1491.1,367.8,1491.1,367.8c-1-0.1-1.9-0.2-2.9-0.3c-0.3,0-0.5-0.3-0.4-0.5c0-0.3,0.3-0.5,0.5-0.4
		c1,0.1,1.9,0.2,2.8,0.3c0.3,0,0.5,0.3,0.4,0.5C1491.6,367.6,1491.4,367.8,1491.1,367.8z M1481.7,367
		C1481.6,367,1481.6,367,1481.7,367c-1-0.1-1.9-0.1-2.9-0.2c-0.3,0-0.5-0.2-0.4-0.5c0-0.3,0.3-0.5,0.5-0.4c1,0.1,1.9,0.1,2.8,0.2
		c0.3,0,0.5,0.2,0.4,0.5C1482.1,366.8,1481.9,367,1481.7,367z M1472.2,366.3C1472.2,366.3,1472.2,366.3,1472.2,366.3l-2.9-0.2
		c-0.3,0-0.5-0.2-0.4-0.5c0-0.3,0.2-0.5,0.5-0.4l2.8,0.2c0.3,0,0.5,0.2,0.4,0.5C1472.6,366.1,1472.4,366.3,1472.2,366.3z
		 M1462.7,365.8C1462.7,365.8,1462.7,365.8,1462.7,365.8l-2.9-0.2c-0.3,0-0.5-0.2-0.4-0.5c0-0.3,0.2-0.5,0.5-0.4l2.8,0.2
		c0.3,0,0.5,0.2,0.4,0.5C1463.2,365.6,1463,365.8,1462.7,365.8z M1453.2,365.3C1453.2,365.3,1453.2,365.3,1453.2,365.3l-2.9-0.1
		c-0.3,0-0.5-0.2-0.5-0.5c0-0.3,0.2-0.5,0.5-0.5l2.8,0.1c0.3,0,0.5,0.2,0.5,0.5C1453.7,365.1,1453.5,365.3,1453.2,365.3z
		 M1443.7,364.8C1443.7,364.8,1443.7,364.8,1443.7,364.8l-2.9-0.1c-0.3,0-0.5-0.2-0.5-0.5s0.2-0.5,0.5-0.5l2.8,0.1
		c0.3,0,0.5,0.2,0.5,0.5C1444.2,364.6,1444,364.8,1443.7,364.8z M1434.3,364.4C1434.3,364.4,1434.2,364.4,1434.3,364.4l-2.9-0.1
		c-0.3,0-0.5-0.2-0.5-0.5c0-0.3,0.2-0.5,0.5-0.5l2.8,0.1c0.3,0,0.5,0.2,0.5,0.5C1434.7,364.2,1434.5,364.4,1434.3,364.4z
		 M1043.4,364.4C1043.4,364.4,1043.4,364.4,1043.4,364.4c-0.3-0.1-0.5-0.3-0.5-0.6l0.2-0.9c0.1-0.8,0.8-1.4,1.6-1.4l0.2,0
		c0.3,0,0.5,0.2,0.5,0.5c0,0.3-0.2,0.5-0.5,0.5l-0.2,0c-0.4,0-0.7,0.3-0.7,0.6l-0.2,0.9C1043.8,364.2,1043.6,364.4,1043.4,364.4z
		 M1424.8,364.1C1424.8,364.1,1424.8,364.1,1424.8,364.1l-2.9-0.1c-0.3,0-0.5-0.2-0.5-0.5c0-0.3,0.2-0.5,0.5-0.5l2.8,0.1
		c0.3,0,0.5,0.2,0.5,0.5C1425.2,363.9,1425,364.1,1424.8,364.1z M1415.3,363.7C1415.3,363.7,1415.3,363.7,1415.3,363.7l-2.9-0.1
		c-0.3,0-0.5-0.2-0.5-0.5c0-0.3,0.2-0.5,0.5-0.5l2.8,0.1c0.3,0,0.5,0.2,0.5,0.5C1415.7,363.5,1415.5,363.7,1415.3,363.7z
		 M1405.8,363.5C1405.8,363.5,1405.8,363.5,1405.8,363.5l-2.9-0.1c-0.3,0-0.5-0.2-0.5-0.5c0-0.3,0.2-0.5,0.5-0.5l2.8,0.1
		c0.3,0,0.5,0.2,0.5,0.5C1406.3,363.3,1406,363.5,1405.8,363.5z M1396.3,363.2C1396.3,363.2,1396.3,363.2,1396.3,363.2l-2.9-0.1
		c-0.3,0-0.5-0.2-0.5-0.5c0-0.3,0.2-0.5,0.5-0.5l2.8,0.1c0.3,0,0.5,0.2,0.5,0.5C1396.8,363,1396.6,363.2,1396.3,363.2z M1386.8,363
		C1386.8,363,1386.8,363,1386.8,363l-2.9-0.1c-0.3,0-0.5-0.2-0.5-0.5c0-0.3,0.2-0.5,0.5-0.5l2.8,0.1c0.3,0,0.5,0.2,0.5,0.5
		C1387.3,362.8,1387.1,363,1386.8,363z M1377.3,362.7C1377.3,362.7,1377.3,362.7,1377.3,362.7l-2.9-0.1c-0.3,0-0.5-0.2-0.5-0.5
		c0-0.3,0.2-0.5,0.5-0.5l2.8,0.1c0.3,0,0.5,0.2,0.5,0.5C1377.8,362.5,1377.6,362.7,1377.3,362.7z M1367.8,362.6
		C1367.8,362.6,1367.8,362.6,1367.8,362.6l-2.9-0.1c-0.3,0-0.5-0.2-0.5-0.5c0-0.3,0.2-0.5,0.5-0.5l2.8,0.1c0.3,0,0.5,0.2,0.5,0.5
		C1368.3,362.4,1368.1,362.6,1367.8,362.6z M1051.7,362.4c-0.3,0-0.5-0.2-0.5-0.5c0-0.3,0.2-0.5,0.5-0.5l2.8,0
		c0.2,0,0.5,0.2,0.5,0.5c0,0.3-0.2,0.5-0.5,0.5L1051.7,362.4C1051.7,362.4,1051.7,362.4,1051.7,362.4z M1358.3,362.4
		C1358.3,362.4,1358.3,362.4,1358.3,362.4l-2.9,0c-0.3,0-0.5-0.2-0.5-0.5c0-0.3,0.2-0.5,0.5-0.5c0,0,0,0,0,0l2.8,0
		c0.3,0,0.5,0.2,0.5,0.5C1358.8,362.2,1358.6,362.4,1358.3,362.4z M1061.2,362.3c-0.3,0-0.5-0.2-0.5-0.5c0-0.3,0.2-0.5,0.5-0.5
		l2.8,0c0.3,0,0.5,0.2,0.5,0.5c0,0.3-0.2,0.5-0.5,0.5L1061.2,362.3C1061.2,362.3,1061.2,362.3,1061.2,362.3z M1348.8,362.2
		C1348.8,362.2,1348.8,362.2,1348.8,362.2l-2.9,0c-0.3,0-0.5-0.2-0.5-0.5c0-0.3,0.2-0.5,0.5-0.5l2.8,0c0.3,0,0.5,0.2,0.5,0.5
		C1349.3,362,1349.1,362.2,1348.8,362.2z M1070.7,362.2c-0.3,0-0.5-0.2-0.5-0.5c0-0.3,0.2-0.5,0.5-0.5l2.8,0c0.3,0,0.5,0.2,0.5,0.5
		c0,0.3-0.2,0.5-0.5,0.5L1070.7,362.2C1070.7,362.2,1070.7,362.2,1070.7,362.2z M1080.2,362.1c-0.3,0-0.5-0.2-0.5-0.5
		c0-0.3,0.2-0.5,0.5-0.5l2.8,0c0.3,0,0.5,0.2,0.5,0.5c0,0.3-0.2,0.5-0.5,0.5L1080.2,362.1C1080.2,362.1,1080.2,362.1,1080.2,362.1z
		 M1339.4,362.1C1339.3,362.1,1339.3,362.1,1339.4,362.1l-2.9,0c-0.3,0-0.5-0.2-0.5-0.5c0-0.3,0.2-0.5,0.5-0.5c0,0,0,0,0,0l2.8,0
		c0.3,0,0.5,0.2,0.5,0.5C1339.8,361.9,1339.6,362.1,1339.4,362.1z M1089.6,362c-0.3,0-0.5-0.2-0.5-0.5c0-0.3,0.2-0.5,0.5-0.5l2.8,0
		c0.3,0,0.5,0.2,0.5,0.5c0,0.3-0.2,0.5-0.5,0.5L1089.6,362C1089.7,362,1089.6,362,1089.6,362z M1329.9,362
		C1329.9,362,1329.9,362,1329.9,362l-2.9,0c-0.3,0-0.5-0.2-0.5-0.5c0-0.3,0.2-0.5,0.5-0.5l2.8,0c0.3,0,0.5,0.2,0.5,0.5
		C1330.3,361.8,1330.1,362,1329.9,362z M1099.1,361.9c-0.3,0-0.5-0.2-0.5-0.5c0-0.3,0.2-0.5,0.5-0.5l2.8,0c0,0,0,0,0,0
		c0.3,0,0.5,0.2,0.5,0.5c0,0.3-0.2,0.5-0.5,0.5L1099.1,361.9C1099.1,361.9,1099.1,361.9,1099.1,361.9z M1320.4,361.9
		C1320.4,361.9,1320.4,361.9,1320.4,361.9l-2.9,0c-0.3,0-0.5-0.2-0.5-0.5c0-0.3,0.2-0.5,0.5-0.5l2.8,0c0.3,0,0.5,0.2,0.5,0.5
		C1320.8,361.6,1320.6,361.9,1320.4,361.9z M1108.6,361.8c-0.3,0-0.5-0.2-0.5-0.5c0-0.3,0.2-0.5,0.5-0.5l2.8,0c0,0,0,0,0,0
		c0.3,0,0.5,0.2,0.5,0.5c0,0.3-0.2,0.5-0.5,0.5L1108.6,361.8C1108.6,361.8,1108.6,361.8,1108.6,361.8z M1118.1,361.8
		c-0.3,0-0.5-0.2-0.5-0.5c0-0.3,0.2-0.5,0.5-0.5l2.8,0c0,0,0,0,0,0c0.3,0,0.5,0.2,0.5,0.5c0,0.3-0.2,0.5-0.5,0.5L1118.1,361.8
		C1118.1,361.8,1118.1,361.8,1118.1,361.8z M1310.9,361.8C1310.9,361.8,1310.9,361.8,1310.9,361.8l-2.9,0c-0.3,0-0.5-0.2-0.5-0.5
		c0-0.3,0.2-0.5,0.5-0.5c0,0,0,0,0,0l2.8,0c0.3,0,0.5,0.2,0.5,0.5C1311.3,361.5,1311.1,361.8,1310.9,361.8z M1127.6,361.7
		c-0.3,0-0.5-0.2-0.5-0.5c0-0.3,0.2-0.5,0.5-0.5l2.8,0c0.3,0,0.5,0.2,0.5,0.5c0,0.3-0.2,0.5-0.5,0.5L1127.6,361.7
		C1127.6,361.7,1127.6,361.7,1127.6,361.7z M1301.4,361.7C1301.4,361.7,1301.4,361.7,1301.4,361.7l-2.9,0c-0.3,0-0.5-0.2-0.5-0.5
		c0-0.3,0.2-0.5,0.5-0.5c0,0,0,0,0,0l2.8,0c0.3,0,0.5,0.2,0.5,0.5C1301.9,361.5,1301.6,361.7,1301.4,361.7z M1137.1,361.6
		c-0.3,0-0.5-0.2-0.5-0.5c0-0.3,0.2-0.5,0.5-0.5l2.8,0c0,0,0,0,0,0c0.3,0,0.5,0.2,0.5,0.5c0,0.3-0.2,0.5-0.5,0.5L1137.1,361.6
		C1137.1,361.6,1137.1,361.6,1137.1,361.6z M1291.9,361.6C1291.9,361.6,1291.9,361.6,1291.9,361.6l-2.9,0c-0.3,0-0.5-0.2-0.5-0.5
		c0-0.3,0.2-0.5,0.5-0.5l2.8,0c0.3,0,0.5,0.2,0.5,0.5C1292.4,361.4,1292.1,361.6,1291.9,361.6z M1146.6,361.6
		c-0.3,0-0.5-0.2-0.5-0.5c0-0.3,0.2-0.5,0.5-0.5l2.8,0c0,0,0,0,0,0c0.3,0,0.5,0.2,0.5,0.5c0,0.3-0.2,0.5-0.5,0.5L1146.6,361.6
		C1146.6,361.6,1146.6,361.6,1146.6,361.6z M1282.4,361.5C1282.4,361.5,1282.4,361.5,1282.4,361.5l-2.9,0c-0.3,0-0.5-0.2-0.5-0.5
		c0-0.3,0.2-0.5,0.5-0.5l2.8,0c0.3,0,0.5,0.2,0.5,0.5C1282.9,361.3,1282.7,361.5,1282.4,361.5z M1156.1,361.5
		c-0.3,0-0.5-0.2-0.5-0.5c0-0.3,0.2-0.5,0.5-0.5l2.8,0c0,0,0,0,0,0c0.3,0,0.5,0.2,0.5,0.5c0,0.3-0.2,0.5-0.5,0.5L1156.1,361.5
		C1156.1,361.5,1156.1,361.5,1156.1,361.5z M1272.9,361.5C1272.9,361.5,1272.9,361.5,1272.9,361.5l-2.9,0c-0.3,0-0.5-0.2-0.5-0.5
		c0-0.3,0.2-0.5,0.5-0.5c0,0,0,0,0,0l2.8,0c0.3,0,0.5,0.2,0.5,0.5C1273.4,361.3,1273.2,361.5,1272.9,361.5z M1165.6,361.5
		c-0.3,0-0.5-0.2-0.5-0.5c0-0.3,0.2-0.5,0.5-0.5l2.8,0c0,0,0,0,0,0c0.3,0,0.5,0.2,0.5,0.5c0,0.3-0.2,0.5-0.5,0.5L1165.6,361.5
		C1165.6,361.5,1165.6,361.5,1165.6,361.5z M1175.1,361.4c-0.3,0-0.5-0.2-0.5-0.5c0-0.3,0.2-0.5,0.5-0.5l2.8,0c0,0,0,0,0,0
		c0.3,0,0.5,0.2,0.5,0.5c0,0.3-0.2,0.5-0.5,0.5L1175.1,361.4C1175.1,361.4,1175.1,361.4,1175.1,361.4z M1263.4,361.4
		C1263.4,361.4,1263.4,361.4,1263.4,361.4l-2.8,0c-0.3,0-0.5-0.2-0.5-0.5c0-0.3,0.2-0.5,0.5-0.5c0,0,0,0,0,0l2.8,0
		c0.3,0,0.5,0.2,0.5,0.5C1263.9,361.2,1263.7,361.4,1263.4,361.4z M1184.6,361.4c-0.3,0-0.5-0.2-0.5-0.5c0-0.3,0.2-0.5,0.5-0.5
		l2.8,0h0c0.3,0,0.5,0.2,0.5,0.5c0,0.3-0.2,0.5-0.5,0.5L1184.6,361.4C1184.6,361.4,1184.6,361.4,1184.6,361.4z M1253.9,361.4
		C1253.9,361.4,1253.9,361.4,1253.9,361.4l-2.8,0c-0.3,0-0.5-0.2-0.5-0.5c0-0.3,0.2-0.5,0.5-0.5h0l2.8,0c0.3,0,0.5,0.2,0.5,0.5
		C1254.4,361.2,1254.2,361.4,1253.9,361.4z M1194.1,361.4c-0.3,0-0.5-0.2-0.5-0.5c0-0.3,0.2-0.5,0.5-0.5l2.8,0c0,0,0,0,0,0
		c0.3,0,0.5,0.2,0.5,0.5c0,0.3-0.2,0.5-0.5,0.5L1194.1,361.4C1194.1,361.4,1194.1,361.4,1194.1,361.4z M1244.4,361.4
		C1244.4,361.4,1244.4,361.4,1244.4,361.4l-2.8,0c-0.3,0-0.5-0.2-0.5-0.5c0-0.3,0.2-0.5,0.5-0.5c0,0,0,0,0,0l2.8,0
		c0.3,0,0.5,0.2,0.5,0.5C1244.9,361.2,1244.7,361.4,1244.4,361.4z M1203.6,361.4c-0.3,0-0.5-0.2-0.5-0.5c0-0.3,0.2-0.5,0.5-0.5
		l2.8,0c0.3,0,0.5,0.2,0.5,0.5c0,0.3-0.2,0.5-0.5,0.5L1203.6,361.4L1203.6,361.4z M1234.9,361.4
		C1234.9,361.4,1234.9,361.4,1234.9,361.4l-2.8,0c-0.3,0-0.5-0.2-0.5-0.5c0-0.3,0.2-0.5,0.5-0.5h0l2.8,0c0.3,0,0.5,0.2,0.5,0.5
		C1235.4,361.2,1235.2,361.4,1234.9,361.4z M1213.1,361.4c-0.3,0-0.5-0.2-0.5-0.5c0-0.3,0.2-0.5,0.5-0.5l2.8,0
		c0.3,0,0.5,0.2,0.5,0.5c0,0.3-0.2,0.5-0.5,0.5L1213.1,361.4z M1225.4,361.4C1225.4,361.4,1225.4,361.4,1225.4,361.4l-2.8,0
		c-0.3,0-0.5-0.2-0.5-0.5c0-0.3,0.2-0.5,0.5-0.5l2.8,0c0.3,0,0.5,0.2,0.5,0.5C1225.9,361.1,1225.7,361.4,1225.4,361.4z"/>
	<path class="st6" d="M1294.7,573.5h-32c-4.2,0-7.7-3.1-8.2-7.3l-3.7-30.8c-0.6-4.9,3.3-9.2,8.2-9.2h38.5c4.9,0,8.7,4.2,8.3,9
		l-2.7,30.8C1302.6,570.2,1299,573.5,1294.7,573.5z"/>
	<g>
		<path class="st7" d="M1225.2,1064.1c0,0-13.6-35.8-29.5-32.5c-15.9,3.3-33.2,15.5-33.2,15.5l-25.5,34.5c0,0,71.6,28.2,96.8,12
			c0,0,73.1,12.6,165.5-2.5c-13.4-28.2-21.3-56.5-26-78.4C1326.5,1039.1,1276.1,1058.9,1225.2,1064.1z"/>
		<path class="st7" d="M1612.5,804.6c0,0-104.7,131.9-239.3,208.1c4.7,21.9,12.6,50.2,26,78.4c69.8-11.5,150.7-38.8,219.2-99.6
			L1612.5,804.6z"/>
	</g>
	<path class="st8" d="M1174.2,819.1c-7.7,10.8-67.9,92.7-172.9,97.1c-66.2,2.8-114.6-26.7-132.3-38.8c-4.3,12.7-9.8,34.5-7.6,61.6
		c3,35.4,17.8,60.8,25.8,72.6c254,56,313.9-177.5,313.9-177.5L1174.2,819.1z"/>
	<path class="st9" d="M1193.4,808.2c0,0,11-11.8,31.2-8.1c20.3,3.7,38.3,10.7,51,0c12.6-10.7,17.1,3.7,17.1,3.7l-37.8,28.8
		L1193.4,808.2z"/>
	<linearGradient id="SVGID_3_" gradientUnits="userSpaceOnUse" x1="1276.5535" y1="803.7559" x2="1142.4766" y2="1035.9839">
		<stop  offset="1.117318e-02" style="stop-color:#146072"/>
		<stop  offset="0.1213" style="stop-color:#3C7E8B"/>
		<stop  offset="0.2095" style="stop-color:#56919B"/>
		<stop  offset="0.2626" style="stop-color:#5F98A1"/>
		<stop  offset="1" style="stop-color:#83B3B7"/>
	</linearGradient>
	<path class="st10" d="M1170.8,828.3c0,0,7.5-31.4,30.1-27.1s74,32.2,87.2,27.1s62.9-16.8,69.7-2.8l-65.4,36.8
		C1292.4,862.3,1196.7,852.7,1170.8,828.3z"/>
	<path class="st9" d="M498.6,1349.3c0,0-32.5-415.4,204.2-559.5c9.5-4.8,24.6-10.9,43.4-11.3c51.1-1.1,86.9,40.3,104.5,60.7
		c12.8,14.8,73.2,84.8,50.5,132.4c-21.7,45.7-103.2,35.4-106.7,62c-3.5,26.8,79.4,33.6,119.5,96.5c44,69,22.5,186.5-40.3,228.8
		c-10.8,7.3-20.3,10.3-38.9,16c-18.6,5.7-91.9,26.4-247.7-4.3C565,1366.2,534.6,1359.5,498.6,1349.3z"/>
	<linearGradient id="SVGID_4_" gradientUnits="userSpaceOnUse" x1="779.5101" y1="688.1457" x2="852.9238" y2="815.3018">
		<stop  offset="0" style="stop-color:#146072"/>
		<stop  offset="0.1163" style="stop-color:#196475"/>
		<stop  offset="0.2579" style="stop-color:#286F7E"/>
		<stop  offset="0.4127" style="stop-color:#41818E"/>
		<stop  offset="0.5758" style="stop-color:#639BA3"/>
		<stop  offset="0.7035" style="stop-color:#83B3B7"/>
	</linearGradient>
	<path class="st11" d="M822,663.6c-0.1,5.5-78.9,117.4-78.9,117.4s14.1,27.9,81.7,50.5c-0.7-12.8-0.7-42.9,17-74.5
		c13.4-23.9,31-38.2,41.3-45.3C862.7,695.7,842.4,679.6,822,663.6z"/>
	<linearGradient id="SVGID_5_" gradientUnits="userSpaceOnUse" x1="791.0276" y1="1051.8036" x2="1246.6379" y2="1051.8036">
		<stop  offset="1.117318e-02" style="stop-color:#146072"/>
		<stop  offset="0.3446" style="stop-color:#176274"/>
		<stop  offset="0.5451" style="stop-color:#1F6879"/>
		<stop  offset="0.7104" style="stop-color:#2D7382"/>
		<stop  offset="0.8556" style="stop-color:#41828E"/>
		<stop  offset="0.9881" style="stop-color:#5B959E"/>
		<stop  offset="1" style="stop-color:#5E97A0"/>
	</linearGradient>
	<path class="st12" d="M791,1047.9c0,0,149.5,125.2,310.9,70.6c10-3.4,21-2.7,30.3,2.3l46.4,24.5c19.5,10.3,43.6,3.5,54.9-15.4
		c6.4-10.8,12-23.1,13-34.9l-90.8-36.8l6.7-11.1c0,0-44.3-3.8-55.9,28c0,0-84.5,35.1-226.9-121.5
		C879.7,953.6,815.1,1008.5,791,1047.9z"/>
	<linearGradient id="SVGID_6_" gradientUnits="userSpaceOnUse" x1="838.2591" y1="765.0788" x2="838.2591" y2="595.5101">
		<stop  offset="0" style="stop-color:#146072"/>
		<stop  offset="0.4063" style="stop-color:#4C8A95"/>
		<stop  offset="0.7381" style="stop-color:#74A8AE"/>
		<stop  offset="0.9102" style="stop-color:#83B3B7"/>
	</linearGradient>
	<path class="st13" d="M884.1,599.5c16.9,42.2,20.2,77.2,20.5,99.4c0.5,38.4-8,50.3-15.1,56.2c-6.3,5.2-17.1,10.3-29.5,10.1
		c-10.8-0.2-18.6-4.4-22.3-6.5c-28.7-15.6-37.9-57.1-39.2-63.4c-4.1-3.7-30.9-28.9-25.9-54.5C778.3,611.6,824.7,585.3,884.1,599.5z"
		/>
	<linearGradient id="SVGID_7_" gradientUnits="userSpaceOnUse" x1="678.6802" y1="625.8744" x2="868.4677" y2="870.2254">
		<stop  offset="1.117318e-02" style="stop-color:#063040"/>
		<stop  offset="0.3288" style="stop-color:#093645"/>
		<stop  offset="0.7492" style="stop-color:#134753"/>
		<stop  offset="1" style="stop-color:#1B545E"/>
	</linearGradient>
	<path class="st14" d="M804,695.6c1.6-0.1,3.2-0.1,4.9-0.2c0.1-3.1,0.1-7.7-0.2-13.3c-0.4-8.6-1.2-12.6-1.5-17.4
		c0,0,0.7-11.9,2.8-24.1c4.3-24.4,71.5-22,74-41.1c1.6-11.8-22.5-24.9-34.4-29.5c-14.7-5.7-27.6-5.2-36-4.8
		c-6.9,0.3-20.5,1-36.1,8.1c-12.4,5.7-20,13.1-27,19c-16.8,14.2-23.6,28.1-25.2,31.5c-11,23.2-8,45-7.6,52.8
		c4.3,69.5-115.6,140.9-106.9,157.7c10.7,20.7,124.4,4.6,146.1-42.6c0,0,27.3-59.3,42.2-66.2c0.2-0.1,1.9-0.7,2.2-2.1
		c0.1-0.4,0.1-0.7,0-1.1l-6.5-29.3c-0.4-1.7,0.9-3.2,2.6-3.2C799.7,691.7,801.8,693.6,804,695.6z"/>
	<linearGradient id="SVGID_8_" gradientUnits="userSpaceOnUse" x1="870.9489" y1="629.4948" x2="709.0343" y2="753.3841">
		<stop  offset="1.117318e-02" style="stop-color:#146072"/>
		<stop  offset="0.1038" style="stop-color:#2F7483"/>
		<stop  offset="0.2338" style="stop-color:#4D8B95"/>
		<stop  offset="0.3708" style="stop-color:#659CA4"/>
		<stop  offset="0.5157" style="stop-color:#76A9AF"/>
		<stop  offset="0.6741" style="stop-color:#80B1B5"/>
		<stop  offset="0.8711" style="stop-color:#83B3B7"/>
	</linearGradient>
	<path class="st15" d="M802.4,679.2c-0.4-1-5.9-14.5-15.9-15c-0.6,0-4.4,0.5-6.9,2c-18.4,11.5,9.6,46.1,24.4,47.6
		C803.5,702.3,803,690.8,802.4,679.2z"/>
	<linearGradient id="SVGID_9_" gradientUnits="userSpaceOnUse" x1="1132.2729" y1="1121.933" x2="1196.8911" y2="1121.933">
		<stop  offset="0" style="stop-color:#FF5757"/>
		<stop  offset="0.2436" style="stop-color:#FF5E5E"/>
		<stop  offset="0.5989" style="stop-color:#FF7272"/>
		<stop  offset="0.9693" style="stop-color:#FF8D8D"/>
	</linearGradient>
	<path class="st16" d="M1132.3,1120.7c0,0,38,37.2,45.3,31.8c2.6-1.9,9.2-8.9,15.6-16.7c4.5-5.5,5-13.3,1.1-19.2l-9-13.8
		c-8.5-13.2-26.8-15.9-38.7-5.6C1140.7,1102.3,1135.3,1109.8,1132.3,1120.7z"/>
	<linearGradient id="SVGID_10_" gradientUnits="userSpaceOnUse" x1="1893.1943" y1="899.2099" x2="1576.8916" y2="1447.0624">
		<stop  offset="0" style="stop-color:#FB0927"/>
		<stop  offset="0.3575" style="stop-color:#FF5757"/>
		<stop  offset="0.4222" style="stop-color:#FF6060"/>
		<stop  offset="0.627" style="stop-color:#FF7979"/>
		<stop  offset="0.815" style="stop-color:#FF8888"/>
		<stop  offset="0.9693" style="stop-color:#FF8D8D"/>
	</linearGradient>
	<path class="st17" d="M1735.3,1361.8c0,0-4.7-138.3-101.7-310.7c-30.4-53.9-41.2-116.7-31.7-177.9l10.6-68.7
		c0,0,133.2-45.1,280.9-1.9c0,0,204.8,126.9,67.9,559.1c-21.2,9.8-60.5,24.5-111.6,24.8C1797.1,1386.9,1756.7,1371.7,1735.3,1361.8z
		"/>
	<linearGradient id="SVGID_11_" gradientUnits="userSpaceOnUse" x1="1721.6222" y1="720.972" x2="1681.1218" y2="842.7207">
		<stop  offset="0" style="stop-color:#FB0927"/>
		<stop  offset="0.1732" style="stop-color:#FF5757"/>
		<stop  offset="0.3088" style="stop-color:#FF6B6B"/>
		<stop  offset="0.4838" style="stop-color:#FF7E7E"/>
		<stop  offset="0.6643" style="stop-color:#FF8989"/>
		<stop  offset="0.8575" style="stop-color:#FF8D8D"/>
	</linearGradient>
	<path class="st18" d="M1635.2,716.9l34.5,83c2.2,5.2,6.9,9,12.5,9.9c19.9,3.4,68.1,8.8,99.7-12.1c3.8-2.5,4.7-7.6,2.2-11.3
		l-63.8-91.6L1635.2,716.9z"/>
	<path class="st19" d="M1720.4,1107c-4.8,1.3-7.1,6.6-4.8,11l99.9,191.6c1.7,3.2,5.4,4.8,8.9,3.8l326.9-94.4
		c4.1-1.2,6.4-5.4,5.2-9.5l-56.3-194.9c-1.2-4-5.3-6.4-9.3-5.3L1720.4,1107z"/>
	<path class="st20" d="M1741.5,1084.4c-4.7,1.1-7.3,6.1-5.7,10.6l80,217.3c1.5,4,5.7,6.1,9.8,4.9l325.9-94.1
		c4.1-1.2,6.5-5.3,5.6-9.4l-45.2-209.2c-0.9-4.4-5.3-7.2-9.7-6.1L1741.5,1084.4z"/>
	<path class="st21" d="M1769.9,1062.5c-5.7,0.9-9.5,6.4-8.2,12.1l54.3,234.6c1.3,5.5,7,8.9,12.4,7.3l321-92.7
		c5.2-1.5,8.2-6.8,6.9-12l-49.4-191.5c-1.3-4.9-6.1-8.1-11.1-7.3L1769.9,1062.5z"/>
	<linearGradient id="SVGID_12_" gradientUnits="userSpaceOnUse" x1="1846.1528" y1="1235.1566" x2="2029.7394" y2="1235.1566">
		<stop  offset="0" style="stop-color:#FB0927"/>
		<stop  offset="0.1614" style="stop-color:#FD3240"/>
		<stop  offset="0.2956" style="stop-color:#FE4D51"/>
		<stop  offset="0.3743" style="stop-color:#FF5757"/>
		<stop  offset="0.4372" style="stop-color:#FF6060"/>
		<stop  offset="0.6364" style="stop-color:#FF7979"/>
		<stop  offset="0.8192" style="stop-color:#FF8888"/>
		<stop  offset="0.9693" style="stop-color:#FF8D8D"/>
	</linearGradient>
	<path class="st22" d="M1934.2,1134.9c13.2,54.6,11.8,95.4,9.8,114.8c-0.8,7.3-6.7,13.1-14,13.6c-8.4,0.6-19.7,1.4-29.9,1.9
		c-11.2,0.6-23.6-6.4-31.9-12.3c-3.9-2.8-6.8,5.4-7.3,6.3c-5,9,2.6,21.9,8.8,28.2c8.1,8.3,18.3,10,22.7,10.5l-46.3,13.1
		c76.1,71.7,126.3-8.5,126.3-8.5c33.6-51.9,50.9-102.6,57.3-150.5C1998.5,1120.7,1953.1,1129.4,1934.2,1134.9z"/>
	<linearGradient id="SVGID_13_" gradientUnits="userSpaceOnUse" x1="1680.1947" y1="585.4502" x2="1680.1947" y2="741.4285">
		<stop  offset="0" style="stop-color:#FB0927"/>
		<stop  offset="3.522132e-02" style="stop-color:#FC1F34"/>
		<stop  offset="8.595083e-02" style="stop-color:#FD3844"/>
		<stop  offset="0.1392" style="stop-color:#FE494E"/>
		<stop  offset="0.196" style="stop-color:#FF5455"/>
		<stop  offset="0.2626" style="stop-color:#FF5757"/>
		<stop  offset="0.3373" style="stop-color:#FF6060"/>
		<stop  offset="0.5739" style="stop-color:#FF7979"/>
		<stop  offset="0.7911" style="stop-color:#FF8888"/>
		<stop  offset="0.9693" style="stop-color:#FF8D8D"/>
	</linearGradient>
	<path class="st23" d="M1671,590c-1.5,1.4-61.2,118.8-61.2,118.8l67.8,32.7l73.2-102.8C1750.7,638.6,1695.2,567.1,1671,590z"/>
	<path class="st6" d="M1719.9,650.9l-33.8,56.3c-0.5,0.9-1.1,1.6-1.9,2.3c-4,3.7-17.8,14.6-28.4-0.2c-9.1-12.6-17.6-24.1-26.7-28.9
		c-5.3-2.8-11.9-0.6-14.6,4.8c-5.6,11-16.4,33.5-23.1,54.9c-1.7,5.3,1.1,11.1,6.3,13.2c13.7,5.6,40.8,15.6,64.9,18.9
		c4,0.5,7.9-1.1,10.2-4.3c10.4-14.2,39.5-53.8,49.5-63.7c9.3-9.2,26.3-5.7,34-3.5c2.9,0.8,6,0.4,8.6-1.1c7.8-4.7,21.4-16.4,9-36.2
		c-3.1-4.9-1.5-11.5,3.3-14.7c8.7-5.7,18.2-16.5,9.2-33.9c-9.1-17.6-25.4-19.2-36.5-17.9c-4.9,0.6-9.9-2-11.8-6.5
		c-0.8-2-2.5-3.8-5.6-4.4c-5.8-1.2-9.6-6.5-8.5-12.3c2-10,0.5-23-15.5-31.7c-29.2-16.1-54.8,10.1-61.4,32.2
		c-6.5,22.1,26.2,37.7,46.7,40.3c15.1,1.9,23.4,18.4,26.7,27C1721.9,644.6,1721.6,648,1719.9,650.9z"/>
	
		<linearGradient id="SVGID_14_" gradientUnits="userSpaceOnUse" x1="3173.783" y1="3859.1895" x2="3295.0078" y2="3734.8159" gradientTransform="matrix(-0.6854 -0.7281 -0.7281 0.6854 6712.2632 547.595)">
		<stop  offset="8.938547e-02" style="stop-color:#FF5757"/>
		<stop  offset="0.1824" style="stop-color:#FF6060"/>
		<stop  offset="0.477" style="stop-color:#FF7979"/>
		<stop  offset="0.7474" style="stop-color:#FF8888"/>
		<stop  offset="0.9693" style="stop-color:#FF8D8D"/>
	</linearGradient>
	<path class="st24" d="M1709.6,724.9c0,0,13-38,29.6-36.6c16.6,1.4,29.7,18,9.1,36.6C1722.7,748,1709.6,724.9,1709.6,724.9z"/>
	<path class="st9" d="M1689.2,317l28.4,72.4c0.5,1.4,1.6,2.5,3,3.1c1.4,0.6,2.9,0.6,4.3,0l71.6-31.2c0.8-0.4,1.3-1.2,1.3-2.1
		c0-0.9-0.6-1.7-1.4-2L1689.2,317z"/>
	
		<linearGradient id="SVGID_15_" gradientUnits="userSpaceOnUse" x1="3131.6589" y1="-1137.2839" x2="3223.3645" y2="-1137.2839" gradientTransform="matrix(0.9713 0.238 -0.238 0.9713 -1628.9305 699.8142)">
		<stop  offset="1.117318e-02" style="stop-color:#146072"/>
		<stop  offset="5.614849e-02" style="stop-color:#2D7382"/>
		<stop  offset="0.1174" style="stop-color:#488792"/>
		<stop  offset="0.1878" style="stop-color:#5E97A0"/>
		<stop  offset="0.27" style="stop-color:#6FA4AA"/>
		<stop  offset="0.3716" style="stop-color:#7AADB2"/>
		<stop  offset="0.5143" style="stop-color:#81B2B6"/>
		<stop  offset="0.9102" style="stop-color:#83B3B7"/>
		<stop  offset="0.9575" style="stop-color:#83B1B5"/>
		<stop  offset="0.9581" style="stop-color:#83B1B5"/>
	</linearGradient>
	<polygon class="st25" points="1769.9,372.7 1689.2,317 1758.4,377.8 1755.9,383.3 	"/>
	<path class="st8" d="M1107.3,1072.1l12.1,41.5c-25.1,8.9-56.6,16.8-93.1,18.5c-117.5,5.5-204.5-56.1-235.4-80.5
		c-21.1-13.7-146.5-97.5-135.3-196.9c0.9-7.8,2.6-15.9,5.5-24.3c3.6-7.5,19.2-37.9,53.2-48.7c11.4-3.6,21.7-4.1,29.7-3.6
		c49.2,75.6,98.4,132.6,136.5,172.5c111.4,116.3,167.1,125.8,199.8,124.8C1091.7,1075.1,1101.1,1073.5,1107.3,1072.1z"/>
	<linearGradient id="SVGID_16_" gradientUnits="userSpaceOnUse" x1="854.024" y1="585.3748" x2="854.024" y2="663.9095">
		<stop  offset="1.117318e-02" style="stop-color:#063040"/>
		<stop  offset="0.3288" style="stop-color:#093645"/>
		<stop  offset="0.7492" style="stop-color:#134753"/>
		<stop  offset="1" style="stop-color:#1B545E"/>
	</linearGradient>
	<path class="st26" d="M902.4,638.2c0.1-24.1-8.7-44.2-24-50.6c-2.9-1.2-6.6-2.2-11.2-2.2c-20.5,5.9-41.1,11.8-61.6,17.7
		c4,7.7,9.5,21,10.1,38.2c0.3,8.9-0.8,16.7-2.2,22.7c16-3.9,32.6-8.3,49.7-13.3C876.8,646.6,889.9,642.4,902.4,638.2z"/>
	<path class="st6" d="M1246.6,1095l-21.4-30.9c57-9.4,99.4-26.4,127.4-40c120-58.6,226-178.4,245-204.4c0.5-0.7,1.4-1.9,2.6-3.4
		c0,0,5.3-6.5,12.3-11.7c35.6-26.6,136.8-29.3,136.8-29.3c92.6-2.5,120.1,7.2,141.5,21.6c5.7,3.8,10.1,7.4,13.1,9.9
		c33.7,33.9,88.4,99.1,115.2,195.8c10.4,37.6,26.9,99.9,9.4,177.1c-11.3,49.7-32.5,86.9-48.1,109.8c-14.9-10.5-29.8-20.9-44.7-31.4
		c2.3-35.9,1.4-84.3-11.8-139.2c-23.2-96.5-82.8-164.8-112.9-199.6c2.9,3.1,7.4,29.1-22.5,48.6c-13.5,8.8-32.6,14.6-68.2,7.6
		c-33-6.5-61.7-19.4-85-24.5c-9.7-2.1-19.4-3.2-19.4-3.2c-3.5-0.6-9-1.3-15.8-1.1c-42.7,1.3-69.2,37.9-108.1,75.4
		c-24.2,23.4-53.7,51.8-86.1,67.8C1375.6,1105,1326.1,1117.1,1246.6,1095z"/>
	<g>
		<path class="st4" d="M553.4,839.4l-5.4,2.1l-0.1,0c-0.9,0.4-2-0.1-2.3-1c-0.4-0.9,0.1-2,1-2.3l0,0l5.5-2.1c0.9-0.4,2,0.1,2.3,1
			C554.9,838,554.4,839.1,553.4,839.4L553.4,839.4z"/>
		<path class="st4" d="M532.3,849l-5.1,2.9l-0.1,0c-0.9,0.5-2,0.2-2.5-0.7c-0.5-0.9-0.2-2,0.7-2.5l0,0l5.2-2.9
			c0.9-0.5,2-0.2,2.5,0.7C533.5,847.4,533.2,848.5,532.3,849L532.3,849z"/>
		<path class="st4" d="M512.7,861.5L508,865l0,0c-0.8,0.6-2,0.5-2.6-0.4c-0.6-0.8-0.5-2,0.4-2.6l0,0l4.7-3.6c0.8-0.6,2-0.4,2.6,0.4
			C513.7,859.7,513.5,860.9,512.7,861.5L512.7,861.5z"/>
		<path class="st4" d="M494.8,876.4l-4.2,4.1l0,0c-0.7,0.7-1.9,0.7-2.6,0c-0.7-0.7-0.7-1.9,0-2.6l0,0l4.3-4.1c0.7-0.7,1.9-0.7,2.6,0
			C495.6,874.5,495.5,875.6,494.8,876.4L494.8,876.4z"/>
		<path class="st4" d="M478.8,893.3l-3.7,4.5l0,0c-0.7,0.8-1.9,0.9-2.7,0.3c-0.8-0.7-0.9-1.9-0.3-2.7l0,0l3.8-4.6
			c0.7-0.8,1.9-0.9,2.7-0.3C479.4,891.3,479.5,892.5,478.8,893.3L478.8,893.3z"/>
		<path class="st4" d="M464.7,911.9l-3.2,4.9l0,0c-0.6,0.9-1.8,1.1-2.7,0.5c-0.9-0.6-1.1-1.8-0.5-2.7l0,0l3.3-4.9
			c0.6-0.9,1.8-1.1,2.6-0.5C465.1,909.8,465.3,911,464.7,911.9L464.7,911.9z"/>
		<path class="st4" d="M452.7,931.8L450,937l0,0c-0.5,0.9-1.7,1.3-2.6,0.8c-1-0.5-1.3-1.7-0.8-2.6l0,0l2.7-5.2
			c0.5-0.9,1.7-1.3,2.6-0.8C452.8,929.7,453.2,930.9,452.7,931.8L452.7,931.8z"/>
		<path class="st4" d="M442.7,952.9l-2.2,5.4l0,0c-0.4,1-1.5,1.5-2.6,1.1c-1-0.4-1.5-1.5-1.1-2.6l0,0l2.2-5.5c0.4-1,1.5-1.5,2.5-1.1
			C442.6,950.7,443.1,951.9,442.7,952.9L442.7,952.9z"/>
		<path class="st4" d="M434.8,974.8l-1.6,5.6l0,0c-0.3,1.1-1.4,1.7-2.5,1.3c-1.1-0.3-1.7-1.4-1.3-2.5l0,0l1.7-5.7
			c0.3-1,1.4-1.6,2.5-1.3C434.5,972.6,435.1,973.7,434.8,974.8L434.8,974.8z"/>
		<path class="st4" d="M429,997.4l-1.1,5.7l0,0c-0.2,1.1-1.3,1.8-2.4,1.6c-1.1-0.2-1.8-1.3-1.6-2.4l0,0l1.1-5.8
			c0.2-1.1,1.3-1.8,2.4-1.6C428.5,995.2,429.2,996.3,429,997.4L429,997.4z"/>
		<path class="st4" d="M425.5,1020.4l-0.5,5.8l0,0.1c-0.1,1.1-1.1,1.9-2.2,1.8c-1.1-0.1-1.9-1.1-1.8-2.2l0,0l0.5-5.9
			c0.1-1.1,1.1-1.9,2.2-1.8C424.8,1018.3,425.6,1019.3,425.5,1020.4L425.5,1020.4z"/>
		<path class="st4" d="M424.3,1043.7l0.1,5.8l0,0.1c0,1.1-0.9,2.1-2,2.1c-1.1,0-2.1-0.9-2.1-2l0,0l-0.1-5.9c0-1.1,0.9-2.1,2-2.1
			C423.3,1041.6,424.3,1042.5,424.3,1043.7L424.3,1043.7z"/>
		<path class="st4" d="M425.5,1067l0.7,5.8l0,0c0.1,1.1-0.7,2.2-1.8,2.3c-1.1,0.1-2.2-0.7-2.3-1.8l0,0l-0.7-5.9
			c-0.1-1.1,0.7-2.2,1.8-2.3C424.3,1065,425.3,1065.8,425.5,1067L425.5,1067z"/>
		<path class="st4" d="M428.9,1090l1.2,5.7l0,0c0.2,1.1-0.5,2.3-1.6,2.5c-1.1,0.2-2.3-0.5-2.5-1.6l0,0l-1.2-5.8
			c-0.2-1.1,0.5-2.3,1.6-2.5C427.5,1088.1,428.7,1088.8,428.9,1090L428.9,1090z"/>
		<path class="st4" d="M434.5,1112.6l1.7,5.6l0,0c0.3,1.1-0.3,2.3-1.4,2.7c-1.1,0.3-2.3-0.3-2.7-1.4l0,0l-1.7-5.7
			c-0.3-1.1,0.3-2.3,1.4-2.7C432.9,1110.8,434.1,1111.5,434.5,1112.6L434.5,1112.6z"/>
		<path class="st4" d="M442.1,1134.7l2.2,5.4l0,0c0.5,1.1-0.1,2.4-1.2,2.8c-1.1,0.5-2.4-0.1-2.8-1.2l0,0l-2.2-5.5
			c-0.4-1.1,0.1-2.4,1.2-2.8C440.4,1133,441.7,1133.5,442.1,1134.7L442.1,1134.7z"/>
		<path class="st4" d="M451.7,1155.9l2.7,5.2l0,0c0.6,1.1,0.1,2.4-0.9,2.9c-1.1,0.6-2.4,0.1-2.9-0.9l0,0l-2.7-5.3
			c-0.5-1.1-0.1-2.4,0.9-2.9C449.8,1154.4,451.1,1154.8,451.7,1155.9L451.7,1155.9z"/>
		<path class="st4" d="M463.1,1176.3l3.1,4.9l0,0c0.7,1,0.3,2.4-0.7,3c-1,0.7-2.4,0.3-3-0.7l0,0l-3.2-5c-0.6-1-0.3-2.4,0.7-3
			C461,1174.9,462.4,1175.2,463.1,1176.3L463.1,1176.3z"/>
		<path class="st4" d="M476.2,1195.5l3.5,4.6l0,0c0.7,1,0.6,2.4-0.4,3.1c-1,0.7-2.4,0.6-3.1-0.4l0,0l-3.6-4.7
			c-0.7-1-0.6-2.4,0.4-3.1C474,1194.3,475.4,1194.5,476.2,1195.5L476.2,1195.5z"/>
		<path class="st4" d="M490.9,1213.6l3.9,4.3l0,0c0.8,0.9,0.8,2.3-0.1,3.2c-0.9,0.8-2.3,0.8-3.2-0.1l0,0l-4-4.4
			c-0.8-0.9-0.8-2.3,0.2-3.2C488.6,1212.6,490.1,1212.7,490.9,1213.6L490.9,1213.6z"/>
		<path class="st4" d="M507.2,1230.3l4.3,3.9l0,0c0.9,0.8,1,2.3,0.1,3.2c-0.8,0.9-2.3,1-3.2,0.1l0,0l-4.4-4c-0.9-0.8-1-2.3-0.1-3.2
			C504.8,1229.5,506.2,1229.4,507.2,1230.3L507.2,1230.3z"/>
		<path class="st4" d="M524.9,1245.4l4.6,3.5l0,0c1,0.8,1.2,2.2,0.4,3.2c-0.8,1-2.2,1.2-3.2,0.4l0,0l-4.7-3.6
			c-1-0.8-1.2-2.2-0.4-3.2C522.4,1244.8,523.9,1244.6,524.9,1245.4L524.9,1245.4z"/>
		<path class="st4" d="M544,1258.7l5,3l0,0c1.1,0.7,1.4,2.1,0.8,3.2c-0.7,1.1-2.1,1.4-3.2,0.8l0,0l-5.1-3.1
			c-1.1-0.7-1.4-2.1-0.8-3.2C541.4,1258.4,542.9,1258,544,1258.7L544,1258.7z"/>
		<path class="st4" d="M564.3,1270.1l5.2,2.5l0.1,0c1.2,0.6,1.7,2,1.1,3.1c-0.6,1.2-2,1.7-3.1,1.1l0,0l-5.3-2.6
			c-1.2-0.6-1.7-2-1.1-3.1C561.7,1270,563.1,1269.5,564.3,1270.1L564.3,1270.1z"/>
		<path class="st4" d="M585.6,1279.5l5.5,2l0.1,0c1.2,0.5,1.9,1.8,1.4,3.1c-0.5,1.2-1.8,1.9-3.1,1.4l0,0l-5.6-2.1
			c-1.2-0.5-1.9-1.8-1.4-3C583,1279.6,584.3,1279,585.6,1279.5L585.6,1279.5z"/>
		<path class="st4" d="M607.7,1286.8l5.6,1.5l0.1,0c1.3,0.3,2,1.7,1.7,2.9c-0.3,1.3-1.7,2-2.9,1.7l0,0l-5.7-1.5
			c-1.3-0.3-2-1.7-1.7-2.9C605.1,1287.2,606.4,1286.4,607.7,1286.8L607.7,1286.8z"/>
		<path class="st4" d="M630.4,1291.9l5.7,1l0.1,0c1.3,0.2,2.2,1.5,2,2.8c-0.2,1.3-1.5,2.2-2.8,2l0,0l-5.8-1c-1.3-0.2-2.2-1.5-2-2.8
			C627.8,1292.6,629,1291.7,630.4,1291.9L630.4,1291.9z"/>
		<path class="st4" d="M653.5,1295.1l5.8,0.5l0.1,0c1.3,0.1,2.4,1.3,2.2,2.6c-0.1,1.3-1.3,2.4-2.6,2.2l0,0l-5.9-0.5
			c-1.3-0.1-2.3-1.3-2.2-2.6C650.9,1296,652.1,1295,653.5,1295.1L653.5,1295.1z"/>
		<path class="st4" d="M676.7,1296.2l5.8,0l0.1,0c1.4,0,2.5,1.1,2.5,2.5c0,1.4-1.1,2.5-2.5,2.5h0l-5.9,0c-1.4,0-2.5-1.1-2.5-2.5
			C674.2,1297.3,675.3,1296.2,676.7,1296.2L676.7,1296.2z"/>
		<path class="st4" d="M700,1295.3l5.8-0.5l0.1,0c1.4-0.1,2.6,0.9,2.7,2.3c0.1,1.4-0.9,2.6-2.3,2.7h0l-5.9,0.5
			c-1.4,0.1-2.6-0.9-2.7-2.3C697.6,1296.6,698.6,1295.4,700,1295.3L700,1295.3z"/>
		<path class="st4" d="M723.1,1292.5l5.7-1l0.1,0c1.4-0.2,2.6,0.7,2.9,2c0.2,1.4-0.7,2.6-2,2.9l0,0l-5.8,1c-1.4,0.2-2.6-0.7-2.9-2
			C720.8,1294,721.7,1292.7,723.1,1292.5L723.1,1292.5z"/>
		<path class="st4" d="M746,1287.8l5.6-1.5l0,0c1.3-0.3,2.7,0.5,3,1.8c0.3,1.3-0.5,2.7-1.8,3l0,0l-5.7,1.5c-1.3,0.3-2.7-0.5-3-1.8
			C743.8,1289.5,744.6,1288.1,746,1287.8L746,1287.8z"/>
		<path class="st4" d="M768.3,1281.3l5.5-1.9l0,0c1.3-0.5,2.7,0.2,3.2,1.5c0.5,1.3-0.2,2.7-1.5,3.2l0,0l-5.6,1.9
			c-1.3,0.5-2.7-0.2-3.2-1.5C766.3,1283.1,767,1281.7,768.3,1281.3L768.3,1281.3z"/>
		<path class="st4" d="M790.1,1273l5.3-2.3l0,0c1.3-0.6,2.7,0,3.3,1.3c0.6,1.3,0,2.7-1.3,3.3l0,0l-5.4,2.4c-1.3,0.6-2.7,0-3.3-1.3
			C788.2,1275,788.8,1273.5,790.1,1273L790.1,1273z"/>
		<path class="st4" d="M811.2,1263l5.2-2.7l0,0c1.2-0.7,2.7-0.2,3.4,1c0.7,1.2,0.2,2.7-1,3.4l0,0l-5.2,2.8c-1.2,0.6-2.7,0.2-3.4-1
			C809.5,1265.2,809.9,1263.6,811.2,1263L811.2,1263z"/>
		<path class="st4" d="M831.5,1251.5l5-3.1l0,0c1.2-0.7,2.7-0.4,3.5,0.8c0.7,1.2,0.4,2.7-0.8,3.5l0,0l-5,3.1
			c-1.2,0.7-2.7,0.4-3.5-0.8C829.9,1253.8,830.3,1252.3,831.5,1251.5L831.5,1251.5z"/>
		<path class="st4" d="M851.1,1238.8l4.8-3.4l0,0c1.1-0.8,2.7-0.5,3.5,0.6c0.8,1.1,0.5,2.7-0.6,3.5l0,0l-4.8,3.4
			c-1.1,0.8-2.7,0.5-3.5-0.6C849.6,1241.2,849.9,1239.6,851.1,1238.8L851.1,1238.8z"/>
		<path class="st4" d="M869.8,1224.8l4.6-3.6l0,0c1.1-0.9,2.7-0.7,3.6,0.4c0.9,1.1,0.7,2.7-0.4,3.6l0,0l-4.6,3.7
			c-1.1,0.9-2.7,0.7-3.6-0.4C868.5,1227.3,868.7,1225.7,869.8,1224.8L869.8,1224.8z"/>
		<path class="st4" d="M887.9,1210l4.4-3.9l0,0c1.1-0.9,2.7-0.8,3.6,0.2c0.9,1.1,0.8,2.7-0.2,3.6l0,0l-4.4,3.9
			c-1.1,0.9-2.7,0.8-3.6-0.2C886.7,1212.5,886.8,1210.9,887.9,1210L887.9,1210z"/>
		<path class="st4" d="M905.2,1194.2l4.2-4l0,0c1-1,2.6-0.9,3.6,0.1c1,1,0.9,2.6-0.1,3.6l0,0l-4.3,4.1c-1,1-2.6,0.9-3.6-0.1
			C904.1,1196.8,904.2,1195.2,905.2,1194.2L905.2,1194.2z"/>
		<path class="st4" d="M921.9,1177.8l4.1-4.2l0,0c1-1,2.6-1,3.6,0c1,1,1,2.6,0,3.6l0,0l-4.1,4.2c-1,1-2.6,1-3.6,0
			C920.9,1180.5,920.9,1178.9,921.9,1177.8L921.9,1177.8z"/>
		<path class="st4" d="M938.1,1160.9l4-4.3l0,0c1-1,2.6-1.1,3.6-0.1s1.1,2.6,0.2,3.6l0,0l-4,4.3c-1,1-2.6,1.1-3.6,0.1
			S937.1,1161.9,938.1,1160.9L938.1,1160.9z"/>
		<path class="st4" d="M953.8,1143.5l3.9-4.4l0,0c0.9-1.1,2.5-1.2,3.6-0.2c1.1,0.9,1.2,2.5,0.2,3.6l0,0l-3.9,4.4
			c-0.9,1.1-2.5,1.2-3.6,0.2C953,1146.2,952.9,1144.6,953.8,1143.5L953.8,1143.5z"/>
		<path class="st4" d="M969.2,1125.7l3.8-4.5l0,0c0.9-1.1,2.5-1.2,3.6-0.3c1.1,0.9,1.2,2.5,0.3,3.6l0,0l-3.8,4.5
			c-0.9,1.1-2.5,1.2-3.6,0.3C968.4,1128.4,968.2,1126.8,969.2,1125.7L969.2,1125.7z"/>
		<path class="st4" d="M984.2,1107.7l3.7-4.5c0.9-1.1,2.5-1.3,3.6-0.4c1.1,0.9,1.3,2.5,0.4,3.6l0,0l-3.7,4.5
			c-0.9,1.1-2.5,1.3-3.6,0.3C983.5,1110.5,983.3,1108.8,984.2,1107.7z"/>
		<path class="st4" d="M999.1,1089.6l3.7-4.6c0.9-1.1,2.5-1.3,3.6-0.4c1.1,0.9,1.3,2.5,0.4,3.6l0,0l-3.7,4.6
			c-0.9,1.1-2.5,1.3-3.6,0.4C998.4,1092.3,998.2,1090.7,999.1,1089.6z"/>
		<path class="st4" d="M1013.9,1071.3l3.7-4.6c0.9-1.1,2.5-1.3,3.6-0.4c1.1,0.9,1.3,2.5,0.4,3.6l0,0l-3.7,4.6
			c-0.9,1.1-2.5,1.3-3.6,0.4C1013.1,1074,1013,1072.4,1013.9,1071.3z"/>
		<path class="st4" d="M1028.6,1053l3.7-4.6c0.9-1.1,2.5-1.3,3.6-0.4c1.1,0.9,1.3,2.5,0.4,3.6l0,0l-3.7,4.6
			c-0.9,1.1-2.5,1.3-3.6,0.4C1027.9,1055.7,1027.7,1054.1,1028.6,1053z"/>
		<path class="st4" d="M1043.4,1034.7l3.7-4.6c0.9-1.1,2.5-1.3,3.6-0.4c1.1,0.9,1.3,2.5,0.4,3.6l0,0l-3.7,4.5
			c-0.9,1.1-2.5,1.3-3.6,0.4C1042.7,1037.4,1042.5,1035.8,1043.4,1034.7z"/>
		<path class="st4" d="M1058.4,1016.5l3.8-4.5c0.9-1.1,2.6-1.2,3.7-0.3c1.1,0.9,1.2,2.6,0.3,3.7l0,0l-3.8,4.5
			c-0.9,1.1-2.6,1.3-3.7,0.3C1057.6,1019.3,1057.5,1017.6,1058.4,1016.5z"/>
		<path class="st4" d="M1073.6,998.5l3.9-4.5c0.9-1.1,2.6-1.2,3.7-0.3s1.2,2.6,0.3,3.7l0,0l0,0l-3.8,4.4l0,0
			c-0.9,1.1-2.6,1.2-3.7,0.3C1072.8,1001.3,1072.7,999.6,1073.6,998.5z"/>
		<path class="st4" d="M1089.1,980.8l3.9-4.4c1-1.1,2.6-1.2,3.7-0.2c1.1,1,1.2,2.6,0.2,3.7l0,0l0,0l-3.9,4.4l0,0
			c-1,1.1-2.6,1.2-3.7,0.2C1088.3,983.5,1088.2,981.9,1089.1,980.8z"/>
		<path class="st4" d="M1105.1,963.5l4.1-4.3c1-1,2.6-1.1,3.7-0.1c1,1,1.1,2.6,0.1,3.7l0,0l0,0l-4,4.2l0,0c-1,1-2.6,1.1-3.7,0.1
			C1104.1,966.2,1104.1,964.5,1105.1,963.5z"/>
		<path class="st4" d="M1121.5,946.6l4.2-4.1c1-1,2.7-1,3.7,0c1,1,1,2.7,0,3.7l0,0l0,0l-4.2,4.1l0,0c-1,1-2.7,1-3.7,0
			S1120.5,947.6,1121.5,946.6z"/>
		<path class="st4" d="M1138.6,930.2l4.4-4c1.1-1,2.7-0.9,3.7,0.2c1,1.1,0.9,2.7-0.2,3.7l0,0l0,0l-4.3,3.9l0,0
			c-1.1,1-2.7,0.9-3.7-0.2C1137.4,932.8,1137.5,931.2,1138.6,930.2z"/>
		<path class="st4" d="M1156.2,914.5l4.5-3.8c1.1-0.9,2.8-0.8,3.7,0.3c0.9,1.1,0.8,2.8-0.3,3.7l0,0l0,0l-4.5,3.8l0,0
			c-1.1,0.9-2.8,0.8-3.7-0.3S1155.1,915.5,1156.2,914.5z"/>
		<path class="st4" d="M1174.6,899.7l4.7-3.6c1.2-0.9,2.8-0.6,3.7,0.5c0.9,1.2,0.6,2.8-0.5,3.7l0,0l0,0l-4.7,3.5l0,0
			c-1.2,0.9-2.8,0.6-3.7-0.5C1173.2,902.2,1173.5,900.6,1174.6,899.7z"/>
		<path class="st4" d="M1193.8,885.8l4.9-3.3c1.2-0.8,2.9-0.5,3.7,0.7c0.8,1.2,0.5,2.9-0.7,3.7l0,0l0,0l-4.9,3.2l0,0
			c-1.2,0.8-2.8,0.5-3.7-0.7C1192.3,888.3,1192.6,886.7,1193.8,885.8z"/>
		<path class="st4" d="M1213.7,873.1l5.1-3c1.3-0.7,2.9-0.3,3.6,0.9c0.7,1.3,0.3,2.9-0.9,3.6l0,0l0,0l-5,3l0,0
			c-1.3,0.7-2.9,0.3-3.6-0.9C1212.1,875.5,1212.5,873.8,1213.7,873.1z"/>
		<path class="st4" d="M1234.4,861.5l5.3-2.7c1.3-0.7,2.9-0.2,3.6,1.1c0.7,1.3,0.2,2.9-1.1,3.6l0,0l0,0l-5.2,2.7l0,0
			c-1.3,0.7-2.9,0.2-3.6-1.1S1233.1,862.2,1234.4,861.5z"/>
		<path class="st4" d="M1255.6,851.1l5.4-2.4c1.3-0.6,2.9,0,3.5,1.3c0.6,1.3,0,2.9-1.3,3.5l0,0l0,0l-5.3,2.4l0,0
			c-1.3,0.6-2.9,0-3.5-1.3C1253.7,853.2,1254.3,851.7,1255.6,851.1z"/>
		<path class="st4" d="M1277.4,841.8l5.5-2.1c1.4-0.5,2.9,0.2,3.4,1.5c0.5,1.4-0.2,2.9-1.5,3.4l0,0l0,0l-5.5,2.1l0,0
			c-1.4,0.5-2.9-0.2-3.4-1.5C1275.3,843.9,1276,842.3,1277.4,841.8z"/>
		<path class="st4" d="M1299.6,833.8l5.6-1.8c1.4-0.5,2.9,0.3,3.4,1.7c0.5,1.4-0.3,2.9-1.7,3.4l0,0l0,0l-5.6,1.8l0,0
			c-1.4,0.5-2.9-0.3-3.4-1.7C1297.4,835.7,1298.2,834.2,1299.6,833.8z"/>
		<path class="st4" d="M1322.3,827l5.7-1.5c1.4-0.4,2.9,0.5,3.3,1.9c0.4,1.4-0.5,2.9-1.9,3.3l0,0l0,0l-5.6,1.5l0,0
			c-1.4,0.4-2.9-0.5-3.3-1.9C1320,828.8,1320.8,827.4,1322.3,827z"/>
		<path class="st4" d="M1345.2,821.4l5.8-1.2c1.4-0.3,2.9,0.6,3.2,2.1c0.3,1.4-0.6,2.9-2.1,3.2l0,0l0,0l-5.7,1.2l0,0
			c-1.4,0.3-2.9-0.6-3.2-2.1C1342.9,823.1,1343.8,821.7,1345.2,821.4z"/>
		<path class="st4" d="M1368.5,817.1l5.8-0.9c1.5-0.2,2.8,0.8,3.1,2.3c0.2,1.5-0.8,2.8-2.3,3.1l0,0l0,0l-5.8,0.9l0,0
			c-1.5,0.2-2.8-0.8-3.1-2.3C1366,818.7,1367,817.3,1368.5,817.1z"/>
		<path class="st4" d="M1391.9,814l5.9-0.6c1.5-0.1,2.8,0.9,2.9,2.4c0.1,1.5-0.9,2.8-2.4,2.9h0l0,0l-5.8,0.6l0,0
			c-1.5,0.1-2.8-0.9-2.9-2.4C1389.4,815.5,1390.5,814.1,1391.9,814z"/>
		<path class="st4" d="M1415.5,812.2l5.9-0.3c1.5-0.1,2.7,1.1,2.8,2.6c0.1,1.5-1.1,2.7-2.6,2.8h0l0,0l-5.8,0.3l0,0
			c-1.5,0.1-2.7-1.1-2.8-2.6C1412.9,813.5,1414,812.2,1415.5,812.2z"/>
		<path class="st4" d="M1439.2,811.6l5.9,0.1c1.5,0,2.7,1.2,2.7,2.7c0,1.5-1.2,2.7-2.7,2.7h0l0,0l-5.8-0.1l0,0
			c-1.5,0-2.7-1.2-2.7-2.7C1436.5,812.8,1437.7,811.6,1439.2,811.6z"/>
		<path class="st4" d="M1462.8,812.3l5.9,0.4c1.5,0.1,2.6,1.4,2.5,2.9c-0.1,1.5-1.4,2.6-2.9,2.5l0,0l0,0l-5.8-0.4l0,0
			c-1.5-0.1-2.6-1.4-2.5-2.9C1460,813.4,1461.3,812.2,1462.8,812.3z"/>
		<path class="st4" d="M1486.4,814.3l5.9,0.7c1.5,0.2,2.6,1.5,2.4,3c-0.2,1.5-1.5,2.6-3,2.4h0l0,0l-5.8-0.7l0,0
			c-1.5-0.2-2.5-1.5-2.4-3C1483.5,815.2,1484.9,814.1,1486.4,814.3z"/>
		<path class="st4" d="M1509.8,817.5l5.8,1c1.5,0.3,2.5,1.7,2.2,3.1c-0.3,1.5-1.7,2.5-3.1,2.2l0,0l0,0l-5.8-1l0,0
			c-1.5-0.3-2.5-1.7-2.2-3.1C1506.9,818.3,1508.3,817.3,1509.8,817.5z"/>
		<path class="st4" d="M1533,822l5.8,1.3c1.5,0.3,2.4,1.8,2,3.3c-0.3,1.5-1.8,2.4-3.3,2l0,0l0,0l-5.7-1.3l0,0
			c-1.5-0.3-2.4-1.8-2-3.3C1530.1,822.6,1531.6,821.7,1533,822z"/>
		<path class="st4" d="M1556,827.8l5.7,1.6c1.4,0.4,2.3,1.9,1.9,3.4c-0.4,1.4-1.9,2.3-3.4,1.9l0,0l0,0l-5.6-1.6l0,0
			c-1.4-0.4-2.3-1.9-1.9-3.4C1553,828.2,1554.5,827.4,1556,827.8z"/>
		<path class="st4" d="M1578.6,834.8l5.6,1.9c1.4,0.5,2.2,2.1,1.7,3.5c-0.5,1.4-2.1,2.2-3.5,1.7l0,0l0,0l-5.5-1.9l0,0
			c-1.4-0.5-2.2-2.1-1.7-3.5C1575.6,835,1577.1,834.3,1578.6,834.8z"/>
		<path class="st4" d="M1600.7,843.1l5.5,2.3c1.4,0.6,2.1,2.2,1.5,3.6c-0.6,1.4-2.2,2.1-3.6,1.5l0,0l0,0l-5.4-2.2l0,0
			c-1.4-0.6-2.1-2.2-1.5-3.6C1597.7,843.1,1599.3,842.5,1600.7,843.1z"/>
		<path class="st4" d="M1622.4,852.5l5.3,2.6c1.4,0.7,1.9,2.3,1.3,3.7c-0.7,1.4-2.3,1.9-3.7,1.3l0,0l0,0l-5.3-2.5l0,0
			c-1.4-0.7-1.9-2.3-1.3-3.7C1619.4,852.5,1621,851.9,1622.4,852.5z"/>
		<path class="st4" d="M1643.5,863.2l5.2,2.9c1.3,0.7,1.8,2.4,1.1,3.7s-2.4,1.8-3.7,1.1l0,0l0,0l-5.1-2.8l0,0
			c-1.3-0.7-1.8-2.4-1.1-3.7C1640.5,863,1642.2,862.5,1643.5,863.2z"/>
		<path class="st4" d="M1664,875.1l5,3.2c1.3,0.8,1.7,2.5,0.9,3.8c-0.8,1.3-2.5,1.7-3.8,0.9l0,0l0,0l-4.9-3.1l0,0
			c-1.3-0.8-1.7-2.5-0.9-3.8C1661,874.7,1662.7,874.3,1664,875.1z"/>
		<path class="st4" d="M1683.7,888.2l4.8,3.4c1.2,0.9,1.5,2.6,0.7,3.8c-0.9,1.2-2.6,1.5-3.8,0.7l0,0l0,0l-4.8-3.4l0,0
			c-1.2-0.9-1.5-2.6-0.7-3.8C1680.8,887.6,1682.5,887.3,1683.7,888.2z"/>
		<path class="st4" d="M1702.8,902.1l4.7,3.6c1.2,0.9,1.5,2.7,0.5,3.9c-0.9,1.2-2.7,1.5-3.9,0.5l0,0l0,0l-4.7-3.5l0,0
			c-1.2-0.9-1.5-2.7-0.5-3.9C1699.8,901.4,1701.6,901.1,1702.8,902.1z"/>
		<path class="st4" d="M1721.5,916.4l4.6,3.6c1.2,0.9,1.4,2.7,0.5,3.9c-0.9,1.2-2.7,1.4-3.9,0.5l0,0l-4.6-3.6
			c-1.2-0.9-1.4-2.7-0.5-3.9C1718.5,915.7,1720.3,915.5,1721.5,916.4z"/>
		<path class="st4" d="M1740,931l4.6,3.6c1.2,0.9,1.4,2.7,0.5,3.9s-2.7,1.4-3.9,0.5l0,0l-4.6-3.6c-1.2-0.9-1.4-2.7-0.5-3.9
			C1737,930.2,1738.8,930,1740,931z"/>
		<path class="st4" d="M1758.5,945.3l4.7,3.5l0,0c1.2,0.9,1.5,2.7,0.5,3.9c-0.9,1.2-2.7,1.5-3.9,0.5l0,0l-4.7-3.6
			c-1.2-0.9-1.5-2.7-0.5-3.9C1755.5,944.6,1757.3,944.4,1758.5,945.3L1758.5,945.3z"/>
		<path class="st4" d="M1777.4,959.2l4.8,3.4l0,0c1.3,0.9,1.6,2.6,0.7,3.9c-0.9,1.3-2.6,1.6-3.9,0.7l0,0l-4.8-3.4
			c-1.3-0.9-1.6-2.6-0.7-3.9C1774.3,958.6,1776.1,958.3,1777.4,959.2L1777.4,959.2z"/>
		<path class="st4" d="M1796.7,972.3l4.9,3.1l0,0c1.3,0.8,1.7,2.5,0.9,3.8c-0.8,1.3-2.5,1.7-3.8,0.9l0,0l-5-3.1
			c-1.3-0.8-1.7-2.5-0.9-3.8C1793.7,971.9,1795.4,971.5,1796.7,972.3L1796.7,972.3z"/>
		<path class="st4" d="M1816.8,984.2l5.1,2.7l0.1,0c1.4,0.7,1.9,2.4,1.2,3.8c-0.7,1.4-2.4,1.9-3.8,1.2l0,0l-5.3-2.8
			c-1.4-0.7-1.9-2.4-1.2-3.8C1813.7,983.9,1815.4,983.4,1816.8,984.2L1816.8,984.2z"/>
		<path class="st4" d="M1837.7,994.2l5.4,2.2l0.1,0c1.4,0.6,2.1,2.2,1.5,3.7c-0.6,1.4-2.2,2.1-3.7,1.5l0,0l-5.5-2.2
			c-1.4-0.6-2.1-2.2-1.5-3.6C1834.6,994.3,1836.2,993.6,1837.7,994.2L1837.7,994.2z"/>
		<path class="st4" d="M1859.6,1001.9l5.6,1.5l0.1,0c1.5,0.4,2.4,1.9,2,3.4c-0.4,1.5-1.9,2.4-3.4,2l0,0l-5.8-1.5
			c-1.5-0.4-2.4-1.9-2-3.4C1856.4,1002.4,1858,1001.5,1859.6,1001.9L1859.6,1001.9z"/>
		<path class="st4" d="M1882.2,1006.7l5.7,0.7l0.1,0c1.5,0.2,2.7,1.6,2.5,3.1c-0.2,1.5-1.6,2.7-3.1,2.5l0,0l-5.9-0.7
			c-1.5-0.2-2.6-1.6-2.5-3.1c0.2-1.5,1.6-2.6,3.1-2.5L1882.2,1006.7z"/>
		<path class="st4" d="M1905.2,1007.9l5.8-0.3l0.1,0c1.6-0.1,2.9,1.1,3,2.7c0.1,1.6-1.1,2.9-2.7,3h0l-6,0.3c-1.6,0.1-2.9-1.1-3-2.7
			c-0.1-1.6,1.1-2.9,2.7-3L1905.2,1007.9z"/>
		<path class="st4" d="M1928,1005.4l5.6-1.2l0.1,0c1.5-0.3,3,0.6,3.4,2.2c0.3,1.5-0.6,3-2.2,3.4l0,0l-5.9,1.3
			c-1.5,0.3-3-0.6-3.4-2.2c-0.3-1.5,0.6-3,2.2-3.4L1928,1005.4z"/>
		<path class="st4" d="M1950.2,999.2l5.4-2.1l0.1,0c1.5-0.6,3.1,0.2,3.7,1.6c0.6,1.5-0.2,3.1-1.6,3.7l0,0l-5.6,2.1
			c-1.5,0.6-3.1-0.2-3.7-1.6S1948.7,999.8,1950.2,999.2L1950.2,999.2z"/>
		<path class="st4" d="M1971.4,989.9l5.1-2.8l0.1,0c1.4-0.8,3.1-0.3,3.9,1.1c0.8,1.4,0.3,3.1-1.1,3.9l0,0l-5.2,2.9
			c-1.4,0.8-3.1,0.3-3.8-1.1C1969.4,992.4,1969.9,990.6,1971.4,989.9L1971.4,989.9z"/>
		<path class="st4" d="M1991.1,977.8l4.7-3.4l0.1-0.1c1.3-0.9,3-0.6,4,0.6c0.9,1.3,0.6,3-0.6,4l0,0l-4.8,3.5c-1.3,0.9-3,0.6-4-0.6
			C1989.5,980.5,1989.7,978.7,1991.1,977.8L1991.1,977.8z"/>
		<path class="st4" d="M2009.2,963.3l4.3-3.9l0.1-0.1c1.2-1.1,3-1,4,0.2c1.1,1.2,1,3-0.2,4l0,0l-4.4,4c-1.2,1.1-3,1-4-0.2
			C2007.9,966.2,2008,964.4,2009.2,963.3L2009.2,963.3z"/>
		<path class="st4" d="M2025.6,946.9l3.8-4.4l0.1-0.1c1-1.2,2.8-1.3,4-0.3c1.2,1,1.3,2.8,0.3,4l0,0l-3.9,4.5c-1,1.2-2.8,1.3-4,0.3
			C2024.6,950,2024.5,948.2,2025.6,946.9L2025.6,946.9z"/>
		<path class="st4" d="M2040.1,928.8l3.3-4.8l0-0.1c0.9-1.3,2.7-1.6,4-0.7c1.3,0.9,1.6,2.7,0.7,4l0,0l-3.4,4.9
			c-0.9,1.3-2.7,1.6-4,0.7C2039.5,932,2039.1,930.2,2040.1,928.8L2040.1,928.8z"/>
		<path class="st4" d="M2052.6,909.3l2.8-5.1l0-0.1c0.8-1.4,2.5-1.9,3.9-1.1c1.4,0.8,1.9,2.5,1.1,3.9l0,0l-2.9,5.2
			c-0.8,1.4-2.5,1.9-3.9,1.1S2051.8,910.7,2052.6,909.3L2052.6,909.3z"/>
		<path class="st4" d="M2063.1,888.6l2.3-5.3l0-0.1c0.6-1.5,2.3-2.1,3.8-1.5s2.1,2.3,1.5,3.8l0,0l-2.3,5.5c-0.6,1.5-2.3,2.1-3.8,1.5
			C2063.1,891.8,2062.4,890.1,2063.1,888.6L2063.1,888.6z"/>
		<path class="st4" d="M2071.3,866.9l1.7-5.5l0-0.1c0.5-1.5,2.1-2.4,3.6-1.9c1.5,0.5,2.4,2.1,1.9,3.6l0,0l-1.7,5.7
			c-0.5,1.5-2.1,2.4-3.6,1.9C2071.7,870.1,2070.8,868.5,2071.3,866.9L2071.3,866.9z"/>
		<path class="st4" d="M2077.2,844.4l1.1-5.7l0-0.1c0.3-1.6,1.8-2.6,3.4-2.3s2.6,1.8,2.3,3.4l0,0l-1.2,5.8c-0.3,1.6-1.8,2.6-3.4,2.3
			C2077.9,847.6,2076.8,846.1,2077.2,844.4L2077.2,844.4z"/>
		<path class="st4" d="M2080.9,821.5l0.6-5.8l0-0.1c0.2-1.6,1.6-2.7,3.2-2.6c1.6,0.2,2.7,1.6,2.6,3.2l0,0l-0.6,5.9
			c-0.2,1.6-1.6,2.7-3.2,2.6C2081.9,824.6,2080.8,823.1,2080.9,821.5L2080.9,821.5z"/>
		<path class="st4" d="M2082.7,798.3l0.1-5.8l0-0.1c0-1.6,1.4-2.9,3-2.8c1.6,0,2.9,1.4,2.8,3v0l-0.1,5.9c0,1.6-1.4,2.9-3,2.8
			C2083.9,801.3,2082.7,800,2082.7,798.3L2082.7,798.3z"/>
		<path class="st4" d="M2082.5,775l-0.3-5.8l0-0.1c-0.1-1.6,1.1-3,2.7-3.1s3,1.1,3.1,2.7v0l0.3,5.9c0.1,1.6-1.1,3-2.7,3.1
			C2084,777.9,2082.6,776.7,2082.5,775L2082.5,775z"/>
		<path class="st4" d="M2080.5,751.9l-0.8-5.8l0-0.1c-0.2-1.6,0.9-3.1,2.5-3.3c1.6-0.2,3.1,0.9,3.3,2.5l0,0l0.8,5.9
			c0.2,1.6-0.9,3-2.5,3.3C2082.1,754.6,2080.7,753.5,2080.5,751.9L2080.5,751.9z"/>
		<path class="st4" d="M2076.7,728.9l-1.2-5.7l0-0.1c-0.3-1.6,0.7-3.1,2.2-3.4c1.6-0.3,3.1,0.7,3.4,2.2l0,0l1.2,5.8
			c0.3,1.6-0.7,3.1-2.2,3.4S2077,730.5,2076.7,728.9L2076.7,728.9z"/>
		<path class="st4" d="M2071.2,706.2l-1.6-5.6l0,0c-0.4-1.5,0.5-3.2,2-3.6c1.5-0.4,3.2,0.5,3.6,2l0,0l1.6,5.7c0.4,1.5-0.5,3.2-2,3.6
			S2071.7,707.8,2071.2,706.2L2071.2,706.2z"/>
		<path class="st4" d="M2064.2,684l-2-5.5l0,0c-0.5-1.5,0.2-3.2,1.7-3.7c1.5-0.5,3.2,0.2,3.7,1.7l0,0l2,5.6c0.5,1.5-0.2,3.2-1.8,3.7
			S2064.8,685.5,2064.2,684L2064.2,684z"/>
		<path class="st4" d="M2055.7,662.3l-2.4-5.3l0,0c-0.7-1.5,0-3.2,1.5-3.9c1.5-0.7,3.2,0,3.9,1.5l0,0l2.4,5.4c0.7,1.5,0,3.2-1.5,3.9
			C2058.1,664.5,2056.4,663.8,2055.7,662.3L2055.7,662.3z"/>
		<path class="st4" d="M2045.8,641.2l-2.7-5.2l0,0c-0.7-1.4-0.2-3.2,1.2-4c1.4-0.8,3.2-0.2,4,1.2l0,0l2.7,5.3c0.7,1.4,0.2,3.2-1.2,4
			C2048.3,643.2,2046.6,642.7,2045.8,641.2L2045.8,641.2z"/>
		<path class="st4" d="M2034.5,620.8l-3-5l0,0c-0.8-1.4-0.4-3.2,1-4c1.4-0.8,3.2-0.4,4,1l0,0l3.1,5.1c0.8,1.4,0.4,3.2-1,4
			C2037.2,622.7,2035.3,622.2,2034.5,620.8L2034.5,620.8z"/>
		<path class="st4" d="M2021.8,601.3l-3.4-4.7l0-0.1c-0.9-1.3-0.6-3.1,0.7-4.1c1.3-0.9,3.1-0.7,4.1,0.7l3.5,4.8
			c1,1.3,0.7,3.1-0.7,4.1C2024.6,602.9,2022.8,602.6,2021.8,601.3L2021.8,601.3L2021.8,601.3z"/>
		<path class="st4" d="M2007.7,582.8l-3.7-4.5l0,0c-1-1.2-0.9-3,0.4-4.1c1.2-1,3-0.9,4,0.4l3.8,4.5c1,1.2,0.9,3-0.3,4.1
			C2010.5,584.2,2008.7,584,2007.7,582.8L2007.7,582.8L2007.7,582.8z"/>
		<path class="st4" d="M1992.3,565.2l-4-4.3l0,0c-1.1-1.1-1-2.9,0.2-4c1.1-1.1,2.9-1,4,0.1l4,4.3c1.1,1.1,1,2.9-0.1,4
			C1995.2,566.4,1993.4,566.4,1992.3,565.2L1992.3,565.2L1992.3,565.2z"/>
		<path class="st4" d="M1976.2,548.3l-4.1-4.1l0,0c-1.1-1.1-1.1-2.9,0-3.9c1.1-1.1,2.8-1.1,3.9,0l4.2,4.2c1.1,1.1,1.1,2.9,0,4
			C1979,549.4,1977.3,549.4,1976.2,548.3L1976.2,548.3L1976.2,548.3z"/>
		<path class="st4" d="M1959.4,531.9l-4.3-4l0,0c-1.1-1-1.2-2.8-0.1-3.9c1-1.1,2.8-1.2,3.9-0.1l4.3,4c1.1,1,1.2,2.8,0.1,3.9
			C1962.3,532.9,1960.5,533,1959.4,531.9L1959.4,531.9L1959.4,531.9z"/>
		<path class="st4" d="M1942.1,516.1l-4.4-3.9l0,0c-1.1-1-1.2-2.7-0.2-3.8c1-1.1,2.7-1.2,3.8-0.2l4.4,3.9c1.1,1,1.2,2.7,0.2,3.8
			C1945,517,1943.3,517.1,1942.1,516.1L1942.1,516.1L1942.1,516.1z"/>
		<path class="st4" d="M1924.5,500.7l-4.5-3.8l0,0c-1.1-0.9-1.2-2.6-0.3-3.7c0.9-1.1,2.6-1.2,3.7-0.3l4.5,3.8
			c1.1,0.9,1.3,2.6,0.3,3.7C1927.3,501.5,1925.6,501.6,1924.5,500.7L1924.5,500.7L1924.5,500.7z"/>
		<path class="st4" d="M1906.5,485.6l-4.5-3.7l0,0c-1.1-0.9-1.2-2.5-0.4-3.5c0.9-1.1,2.4-1.2,3.5-0.4l4.6,3.7
			c1.1,0.9,1.3,2.5,0.4,3.6C1909.2,486.3,1907.6,486.5,1906.5,485.6C1906.5,485.6,1906.5,485.6,1906.5,485.6L1906.5,485.6z"/>
		<path class="st4" d="M1888.2,470.9l-4.6-3.6l0,0c-1-0.8-1.2-2.3-0.4-3.3c0.8-1,2.3-1.2,3.3-0.4l4.7,3.6c1.1,0.8,1.3,2.3,0.5,3.4
			C1890.8,471.6,1889.3,471.8,1888.2,470.9C1888.2,471,1888.2,470.9,1888.2,470.9L1888.2,470.9z"/>
		<path class="st4" d="M1869.6,456.7l-4.7-3.5l0,0c-1-0.7-1.2-2.1-0.5-3.1c0.7-1,2.1-1.2,3.1-0.5l4.8,3.5c1,0.7,1.2,2.2,0.5,3.2
			C1872,457.2,1870.6,457.4,1869.6,456.7C1869.6,456.7,1869.6,456.7,1869.6,456.7L1869.6,456.7z"/>
		<path class="st4" d="M1850.6,442.8l-4.8-3.4l0,0c-1-0.7-1.2-2-0.5-3c0.7-0.9,2-1.2,2.9-0.5l4.8,3.4c1,0.7,1.2,2,0.5,3
			C1853,443.3,1851.6,443.5,1850.6,442.8C1850.6,442.8,1850.6,442.8,1850.6,442.8L1850.6,442.8z"/>
		<path class="st4" d="M1831.4,429.4l-4.9-3.3l0,0c-0.9-0.6-1.1-1.8-0.5-2.7c0.6-0.9,1.8-1.1,2.7-0.5l4.9,3.2
			c0.9,0.6,1.2,1.8,0.6,2.7C1833.6,429.7,1832.3,430,1831.4,429.4C1831.4,429.4,1831.4,429.4,1831.4,429.4L1831.4,429.4z"/>
		<path class="st4" d="M1811.8,416.4l-5-3.1l0,0c-0.8-0.5-1-1.6-0.5-2.4c0.5-0.8,1.5-1,2.3-0.5l5,3.1c0.8,0.5,1.1,1.6,0.6,2.4
			C1813.8,416.7,1812.7,417,1811.8,416.4C1811.9,416.5,1811.8,416.5,1811.8,416.4L1811.8,416.4z"/>
		<path class="st4" d="M1791.8,404.2l-5.1-2.9l0,0c-0.7-0.4-1-1.3-0.5-2.1c0.4-0.7,1.3-1,2-0.6l5.1,2.9c0.8,0.4,1,1.4,0.6,2.1
			C1793.6,404.3,1792.6,404.6,1791.8,404.2C1791.9,404.2,1791.9,404.2,1791.8,404.2L1791.8,404.2z"/>
		<path class="st4" d="M1771.4,392.7l-4.3-2.2l0,0c-0.6-0.3-0.9-1.1-0.5-1.7c0.3-0.6,1-0.8,1.7-0.6l4.4,2.1c0.6,0.3,0.9,1.1,0.6,1.7
			C1772.9,392.8,1772.1,393.1,1771.4,392.7C1771.4,392.7,1771.4,392.7,1771.4,392.7L1771.4,392.7z"/>
	</g>
	<path class="st27" d="M1549.6,364.4c16.9-10.4,24.4-23.2,21.2-29.4c-3.3-6.4-17.8-5.1-19.8-4.9
		C1550.6,341.5,1550.1,353,1549.6,364.4z"/>
	<path class="st28" d="M1501.3,279.7c-0.4,6.9,1.4,11.2,2.9,13.8c9.4,16,34.6,8,50.1,26.4c1.6,2,5.9,7.1,7.2,14.9
		c3.1,18.1-12.8,33-15.3,35.2c2.7-22.2-2.8-34.4-8.4-41.4c-13.5-16.9-37.6-16-41.3-30.7C1494.8,291,1498.3,284.2,1501.3,279.7z"/>
	<path class="st27" d="M1044.1,297.3c-14.5-13.6-28.8-17.5-33.9-12.8c-5.3,4.8-0.3,18.5,0.4,20.4
		C1021.7,302.3,1032.9,299.8,1044.1,297.3z"/>
	<path class="st28" d="M974.9,366c6.7-1.4,10.5-4.3,12.5-6.4c13-13.3-1.3-35.5,12.5-55.3c1.5-2.1,5.4-7.6,12.5-10.9
		c16.6-7.7,35.2,3.8,37.9,5.6c-22.1,3.2-32.5,11.6-37.8,18.9c-12.8,17.5-5.6,40.4-18.9,47.9C987.4,369.3,979.9,367.7,974.9,366z"/>
</g>
</svg>
