<svg width="1163" height="404" viewBox="0 0 1163 404" fill="none" xmlns="http://www.w3.org/2000/svg">
<g clip-path="url(#clip0)">
<path d="M153.554 178.87V160.951H194.834V135.671H153.554V119.671H201.874V92.4696H122.354V206.07H203.314V178.87H153.554Z" stroke="#1F3341" stroke-width="4" stroke-miterlimit="10"/>
<path d="M250.99 194.698C253.55 198.732 257.07 201.904 261.55 204.211C266.03 206.515 271.042 207.67 276.59 207.67C282.134 207.67 287.362 206.415 292.27 203.91C297.175 201.404 301.494 197.75 305.23 192.95L305.87 195.991C306.722 199.831 308.562 202.738 311.39 204.711C314.214 206.682 318.35 207.67 323.79 207.67C325.494 207.67 327.442 207.535 329.63 207.271C331.815 207.003 334.134 206.603 336.59 206.07V180.47C334.455 180.263 332.962 179.614 332.11 178.518C331.255 177.426 330.83 175.472 330.83 172.663V156.732C330.83 145.178 327.175 136.458 319.87 130.575C312.562 124.692 302.242 121.75 288.91 121.75C281.762 121.75 275.07 122.63 268.83 124.391C262.59 126.15 256.642 128.844 250.99 132.47L259.79 151.35C264.27 148.366 268.562 146.098 272.67 144.551C276.774 143.004 281.175 142.23 285.87 142.23C290.99 142.23 294.695 143.15 296.99 144.986C299.282 146.823 300.43 149.638 300.43 153.43V155.991C298.295 154.926 295.762 154.124 292.83 153.59C289.895 153.058 286.774 152.79 283.47 152.79C276.43 152.79 270.162 153.998 264.67 156.407C259.175 158.818 254.882 162.148 251.79 166.392C248.695 170.638 247.15 175.54 247.15 181.095C247.15 186.127 248.43 190.663 250.99 194.698ZM291.39 185.078C289.414 185.632 287.522 185.91 285.71 185.91C283.79 185.91 282.082 185.583 280.59 184.928C279.095 184.274 277.922 183.366 277.07 182.206C276.214 181.046 275.79 179.76 275.79 178.347C275.79 175.726 277.042 173.558 279.55 171.842C282.055 170.127 285.122 169.271 288.75 169.271C290.455 169.271 292.402 169.472 294.59 169.875C296.774 170.28 298.722 170.782 300.43 171.388V177.287C300.43 178.298 300.055 179.28 299.31 180.238C298.562 181.198 297.602 182.08 296.43 182.886C295.042 183.792 293.362 184.523 291.39 185.078Z" stroke="#1F3341" stroke-width="4" stroke-miterlimit="10"/>
<path d="M378.03 123.03H347.63V206.07H378.03V123.03ZM388.27 89.2709H361.23L353.23 111.991L372.429 117.111L388.27 89.2709Z" stroke="#1F3341" stroke-width="4" stroke-miterlimit="10"/>
<path d="M489.147 204.711C494.427 202.739 499.011 200.045 502.907 196.629C506.799 193.217 509.867 189.271 512.107 184.791L482.507 175.831C481.653 177.111 480.613 178.231 479.387 179.189C478.159 180.149 476.853 180.869 475.467 181.349C474.079 181.831 472.533 182.071 470.827 182.071C468.053 182.071 465.547 181.38 463.307 179.997C461.067 178.616 459.279 176.617 457.947 174.005C456.613 171.396 455.947 168.295 455.947 164.711C455.947 161.024 456.613 157.9 457.947 155.34C459.279 152.78 461.067 150.807 463.307 149.425C465.547 148.043 468.053 147.349 470.827 147.349C473.279 147.349 475.493 147.885 477.467 148.951C479.439 150.017 481.119 151.565 482.507 153.589L512.107 144.629C508.693 137.909 503.519 132.417 496.587 128.149C489.653 123.885 481.119 121.749 470.987 121.749C461.067 121.749 452.667 123.744 445.787 127.731C438.907 131.717 433.679 136.991 430.107 143.545C426.533 150.103 424.747 157.157 424.747 164.711C424.747 170.375 425.759 175.78 427.787 180.92C429.813 186.06 432.799 190.649 436.747 194.687C440.693 198.728 445.519 201.9 451.227 204.208C456.933 206.516 463.519 207.671 470.987 207.671C477.813 207.671 483.867 206.683 489.147 204.711V204.711Z" stroke="#1F3341" stroke-width="4" stroke-miterlimit="10"/>
<path d="M527.706 199.932C532.238 205.092 538.72 207.671 547.146 207.671C554.08 207.671 560.292 206.537 565.786 204.275C571.28 202.013 576 198.303 579.946 193.143L580.586 196.137C581.44 200.027 583.36 202.92 586.346 204.82C589.332 206.72 593.386 207.671 598.506 207.671C600.106 207.671 601.972 207.535 604.106 207.271C606.238 207.003 608.64 206.603 611.306 206.071V180.469C609.172 180.26 607.678 179.608 606.826 178.508C605.972 177.409 605.546 175.448 605.546 172.623V123.029H575.146V173.877C573.546 176.103 571.92 177.823 570.266 179.037C568.612 180.252 566.986 181.06 565.386 181.464C563.786 181.869 562.186 182.071 560.586 182.071C557.706 182.071 555.44 181.051 553.786 179.008C552.132 176.967 551.306 174.168 551.306 170.608V123.029H520.906V177.668C520.906 187.352 523.172 194.775 527.706 199.932Z" stroke="#1F3341" stroke-width="4" stroke-miterlimit="10"/>
<path d="M680.904 120.47C680.476 120.366 680.024 120.31 679.544 120.31H677.064C672.05 120.31 667.304 121.831 662.824 124.87C658.344 127.91 654.61 132.258 651.624 137.91V123.03H623.784V206.07H654.184V156.15C656.53 153.164 660.104 151.03 664.904 149.75C669.704 148.47 675.036 147.831 680.904 147.831V120.47Z" stroke="#1F3341" stroke-width="4" stroke-miterlimit="10"/>
<path d="M747.942 177.271C746.022 178.019 744.102 178.657 742.182 179.189C740.262 179.725 738.554 179.991 737.062 179.991C735.034 179.991 733.435 179.453 732.262 178.372C731.087 177.293 730.502 175.417 730.502 172.743V145.909H746.982V123.029H730.502V96.6307H700.102V123.029H689.702V145.909H700.102V183.687C700.102 189.645 701.247 194.375 703.542 197.875C705.834 201.375 708.902 203.883 712.742 205.399C716.582 206.912 720.795 207.671 725.382 207.671C728.474 207.671 731.647 207.403 734.902 206.869C738.154 206.336 741.355 205.565 744.502 204.551C747.647 203.537 750.607 202.445 753.382 201.271L747.942 177.271Z" stroke="#1F3341" stroke-width="4" stroke-miterlimit="10"/>
<path d="M796.421 121.91H766.021V206.07H796.421V121.91ZM796.421 89.2709H766.021V114.87H796.421V89.2709Z" stroke="#1F3341" stroke-width="4" stroke-miterlimit="10"/>
<path d="M817.779 199.932C822.311 205.092 828.793 207.671 837.219 207.671C844.153 207.671 850.365 206.537 855.859 204.275C861.353 202.013 866.073 198.303 870.019 193.143L870.659 196.137C871.513 200.027 873.433 202.92 876.419 204.82C879.405 206.72 883.459 207.671 888.579 207.671C890.179 207.671 892.045 207.535 894.179 207.271C896.311 207.003 898.713 206.603 901.379 206.071V180.469C899.245 180.26 897.751 179.608 896.899 178.508C896.045 177.409 895.619 175.448 895.619 172.623V123.029H865.219V173.877C863.619 176.103 861.993 177.823 860.339 179.037C858.685 180.252 857.059 181.06 855.459 181.464C853.859 181.869 852.259 182.071 850.659 182.071C847.779 182.071 845.513 181.051 843.859 179.008C842.205 176.967 841.379 174.168 841.379 170.608V123.029H810.979V177.668C810.979 187.352 813.245 194.775 817.779 199.932Z" stroke="#1F3341" stroke-width="4" stroke-miterlimit="10"/>
<path d="M946.177 164.63C946.177 162.305 947.297 160.375 949.537 158.839C951.777 157.307 954.523 155.801 957.777 154.321C961.029 152.839 964.203 151.043 967.297 148.929C969.643 147.342 971.643 145.622 973.297 143.773C974.951 141.923 976.283 139.967 977.297 137.905C978.311 135.845 979.029 133.65 979.457 131.323C979.883 128.997 980.097 126.565 980.097 124.025C980.097 118.105 979.057 113.086 976.977 108.961C974.897 104.835 972.149 101.505 968.737 98.9673C965.323 96.4299 961.563 94.5806 957.457 93.4153C953.349 92.2526 949.269 91.6699 945.217 91.6699C940.097 91.6699 935.323 92.4966 930.897 94.1499C926.469 95.8046 922.603 98.1499 919.297 101.19C915.989 104.23 913.429 107.937 911.617 112.31L930.977 126.07C931.829 125.005 932.763 123.698 933.777 122.15C934.789 120.605 936.123 119.217 937.777 117.991C939.429 116.766 941.537 116.15 944.097 116.15C945.803 116.15 947.377 116.467 948.817 117.098C950.257 117.73 951.429 118.653 952.337 119.863C953.243 121.073 953.697 122.467 953.697 124.046C953.697 126.258 952.923 128.285 951.377 130.127C949.829 131.97 947.937 133.627 945.697 135.101C943.457 136.575 941.243 137.837 939.057 138.89C936.871 139.945 935.189 140.787 934.017 141.418C930.177 143.418 927.349 145.655 925.537 148.13C923.723 150.605 922.577 153.211 922.097 155.945C921.617 158.682 921.377 161.578 921.377 164.63H946.177ZM946.657 179.83H921.857V206.07H946.657V179.83Z" stroke="#1F3341" stroke-width="4" stroke-miterlimit="10"/>
<path d="M113.358 236.149H143.592L174.53 322.243L205.389 236.149H235.623L192.42 352.79H156.561L113.358 236.149Z" fill="#1F3341"/>
<path d="M309.838 308.806V316.775H244.447C245.124 323.337 247.494 328.259 251.557 331.54C255.619 334.821 261.296 336.462 268.588 336.462C274.473 336.462 280.489 335.602 286.635 333.884C292.833 332.113 299.187 329.457 305.697 325.915V347.477C299.083 349.978 292.468 351.853 285.853 353.103C279.239 354.405 272.624 355.055 266.01 355.055C250.176 355.055 237.859 351.045 229.057 343.025C220.307 334.952 215.932 323.649 215.932 309.118C215.932 294.847 220.229 283.624 228.822 275.446C237.468 267.269 249.343 263.181 264.447 263.181C278.197 263.181 289.187 267.322 297.416 275.603C305.697 283.884 309.838 294.952 309.838 308.806V308.806ZM281.088 299.509C281.088 294.197 279.525 289.926 276.4 286.696C273.327 283.415 269.291 281.775 264.291 281.775C258.874 281.775 254.473 283.311 251.088 286.384C247.702 289.405 245.593 293.78 244.76 299.509H281.088Z" fill="#1F3341"/>
<path d="M401.028 279.822C404.569 274.405 408.762 270.29 413.606 267.478C418.502 264.613 423.866 263.181 429.7 263.181C439.752 263.181 447.408 266.28 452.668 272.478C457.929 278.676 460.559 287.686 460.559 299.509V352.79H432.434V307.165C432.486 306.488 432.512 305.785 432.512 305.056C432.564 304.327 432.59 303.285 432.59 301.931C432.59 295.733 431.679 291.254 429.856 288.493C428.033 285.681 425.09 284.275 421.028 284.275C415.715 284.275 411.601 286.462 408.684 290.837C405.819 295.212 404.335 301.54 404.231 309.822V352.79H376.106V307.165C376.106 297.478 375.273 291.254 373.606 288.493C371.939 285.681 368.971 284.275 364.7 284.275C359.335 284.275 355.194 286.488 352.278 290.915C349.361 295.29 347.903 301.566 347.903 309.743V352.79H319.778V265.29H347.903V278.102C351.34 273.155 355.273 269.431 359.7 266.931C364.179 264.431 369.101 263.181 374.465 263.181C380.507 263.181 385.845 264.639 390.481 267.556C395.116 270.473 398.632 274.561 401.028 279.822V279.822Z" fill="#1F3341"/>
<path d="M534.303 340.134V386.071H506.334V265.29H534.303V278.102C538.157 272.998 542.428 269.248 547.115 266.853C551.803 264.405 557.194 263.181 563.287 263.181C574.069 263.181 582.923 267.478 589.85 276.072C596.777 284.613 600.24 295.629 600.24 309.118C600.24 322.608 596.777 333.649 589.85 342.243C582.923 350.785 574.069 355.055 563.287 355.055C557.194 355.055 551.803 353.858 547.115 351.462C542.428 349.014 538.157 345.238 534.303 340.134V340.134ZM552.897 283.493C546.907 283.493 542.298 285.707 539.069 290.134C535.891 294.509 534.303 300.837 534.303 309.118C534.303 317.399 535.891 323.754 539.069 328.181C542.298 332.556 546.907 334.743 552.897 334.743C558.886 334.743 563.444 332.556 566.569 328.181C569.746 323.806 571.334 317.451 571.334 309.118C571.334 300.785 569.746 294.431 566.569 290.056C563.444 285.681 558.886 283.493 552.897 283.493Z" fill="#1F3341"/>
<path d="M674.854 289.119C672.406 287.973 669.958 287.139 667.51 286.618C665.115 286.045 662.693 285.759 660.245 285.759C653.057 285.759 647.51 288.077 643.604 292.712C639.75 297.295 637.823 303.884 637.823 312.478V352.79H609.854V265.29H637.823V279.665C641.417 273.936 645.531 269.769 650.167 267.165C654.854 264.509 660.453 263.181 666.964 263.181C667.901 263.181 668.917 263.233 670.01 263.336C671.104 263.389 672.693 263.545 674.776 263.805L674.854 289.119Z" fill="#1F3341"/>
<path d="M714.673 313.415C708.84 313.415 704.438 314.405 701.47 316.384C698.553 318.363 697.095 321.28 697.095 325.134C697.095 328.676 698.267 331.462 700.61 333.493C703.006 335.472 706.313 336.462 710.532 336.462C715.793 336.462 720.22 334.587 723.813 330.837C727.407 327.035 729.204 322.296 729.204 316.618V313.415H714.673ZM757.407 302.868V352.79H729.204V339.822C725.454 345.134 721.235 349.014 716.548 351.462C711.86 353.858 706.157 355.055 699.438 355.055C690.376 355.055 683.006 352.425 677.329 347.165C671.704 341.853 668.892 334.978 668.892 326.54C668.892 316.28 672.407 308.754 679.438 303.962C686.522 299.17 697.616 296.775 712.72 296.775H729.204V294.587C729.204 290.16 727.459 286.931 723.97 284.9C720.48 282.817 715.037 281.775 707.642 281.775C701.652 281.775 696.079 282.374 690.923 283.572C685.767 284.769 680.975 286.566 676.548 288.962V267.634C682.537 266.176 688.553 265.082 694.595 264.353C700.636 263.571 706.678 263.181 712.72 263.181C728.501 263.181 739.881 266.306 746.86 272.556C753.892 278.754 757.407 288.858 757.407 302.868Z" fill="#1F3341"/>
<path d="M877.997 268.024V290.837C874.195 288.233 870.367 286.306 866.513 285.056C862.711 283.806 858.752 283.181 854.638 283.181C846.825 283.181 840.732 285.472 836.357 290.056C832.034 294.587 829.872 300.941 829.872 309.118C829.872 317.295 832.034 323.675 836.357 328.259C840.732 332.79 846.825 335.056 854.638 335.056C859.013 335.056 863.154 334.405 867.06 333.103C871.018 331.8 874.664 329.873 877.997 327.321V350.212C873.622 351.826 869.169 353.024 864.638 353.806C860.159 354.639 855.654 355.055 851.122 355.055C835.341 355.055 822.997 351.019 814.091 342.946C805.185 334.821 800.732 323.545 800.732 309.118C800.732 294.691 805.185 283.441 814.091 275.368C822.997 267.243 835.341 263.181 851.122 263.181C855.706 263.181 860.211 263.598 864.638 264.431C869.117 265.212 873.57 266.41 877.997 268.024V268.024Z" fill="#1F3341"/>
<path d="M938.833 313.415C933 313.415 928.599 314.405 925.63 316.384C922.713 318.363 921.255 321.28 921.255 325.134C921.255 328.675 922.427 331.462 924.77 333.493C927.166 335.472 930.474 336.462 934.692 336.462C939.953 336.462 944.38 334.587 947.974 330.837C951.567 327.035 953.364 322.295 953.364 316.618V313.415H938.833ZM981.567 302.868V352.79H953.364V339.821C949.614 345.134 945.395 349.014 940.708 351.462C936.02 353.857 930.317 355.055 923.599 355.055C914.536 355.055 907.166 352.425 901.489 347.165C895.864 341.853 893.052 334.977 893.052 326.54C893.052 316.28 896.567 308.754 903.599 303.962C910.682 299.17 921.776 296.774 936.88 296.774H953.364V294.587C953.364 290.16 951.619 286.931 948.13 284.9C944.64 282.816 939.198 281.775 931.802 281.775C925.812 281.775 920.239 282.374 915.083 283.571C909.927 284.769 905.135 286.566 900.708 288.962V267.634C906.698 266.176 912.713 265.082 918.755 264.352C924.797 263.571 930.838 263.181 936.88 263.181C952.661 263.181 964.041 266.306 971.02 272.556C978.052 278.754 981.567 288.858 981.567 302.868ZM951.255 224.821H973.364L944.536 254.196H929.224L951.255 224.821Z" fill="#1F3341"/>
<path d="M1004.44 236.149H1032.56V280.915L1028.58 313.572H1008.42L1004.44 280.915V236.149ZM1004.44 324.978H1032.56V352.79H1004.44V324.978Z" fill="#1F3341"/>
<path d="M5.23805 19.311C4.06205 19.9776 -1.22996 25.747 0.263376 30.947C0.842043 32.9617 2.25272 34.175 2.67805 34.5336C6.51538 37.7523 13.6394 37.0004 20.6634 33.0657C21.118 32.783 21.8007 32.3751 22.6514 31.9311C31.9127 27.1018 41.2314 28.2858 43.878 28.6604C52.1647 29.8284 58.0687 33.531 61.0634 35.735C59.57 32.843 53.3754 21.6658 39.6634 16.4524C34.8447 14.6204 30.198 13.943 25.9527 13.943C15.0114 13.943 6.75671 18.4496 5.23805 19.311" fill="url(#paint0_linear)"/>
<path d="M69.0921 57.8621C67.5414 52.4007 63.5374 41.1674 53.2081 31.0967C39.8441 18.0674 24.3641 15.2421 18.9334 14.5061C17.9921 14.5274 4.5241 14.6847 1.50143 7.73539C1.27343 7.21006 0.392097 5.18606 1.2241 3.33406C2.4001 0.712726 6.5801 -0.623272 11.7468 0.283395C13.5348 0.338061 49.4921 1.99673 63.8561 29.9834C69.4574 40.8954 69.6014 51.5741 69.0921 57.8621Z" fill="#0D5060"/>
<path d="M33.4994 359.429C26.9461 376.669 35.1634 391.747 36.3581 393.855C37.0287 395.034 42.7941 400.323 47.9954 398.83C50.0101 398.251 51.2247 396.84 51.5807 396.415C54.8007 392.578 54.0501 385.454 50.1141 378.43C49.8341 377.975 49.4261 377.292 48.9794 376.442C44.1501 367.18 45.3341 357.862 45.7074 355.216C46.8794 346.928 50.5781 341.024 52.7834 338.032C49.8927 339.523 38.7127 345.717 33.4994 359.429Z" fill="url(#paint1_linear)"/>
<path d="M74.9097 330.002C69.4484 331.552 58.2151 335.555 48.1444 345.886C35.1164 359.25 32.2911 374.73 31.5551 380.159C31.5764 381.1 31.7337 394.57 24.7831 397.591C24.2591 397.82 22.2351 398.7 20.3817 397.868C17.7604 396.694 16.4244 392.514 17.3324 387.347C17.3857 385.559 19.0457 349.602 47.0311 335.238C57.9444 329.636 68.6217 329.492 74.9097 330.002Z" fill="#0D5060"/>
<path d="M1122.84 20.4961C1109.13 25.7108 1102.93 36.8908 1101.44 39.7801C1104.43 37.5761 1110.34 33.8761 1118.63 32.7054C1121.27 32.3308 1130.59 31.1467 1139.85 35.9787C1140.7 36.4227 1141.38 36.8307 1141.84 37.1107C1148.86 41.044 1155.99 41.7975 1159.83 38.5788C1160.25 38.2228 1161.66 37.0067 1162.24 34.992C1163.73 29.792 1158.44 24.0228 1157.26 23.3561C1155.75 22.4948 1147.49 17.9881 1136.55 17.9881C1132.3 17.9881 1127.66 18.6654 1122.84 20.4961" fill="url(#paint2_linear)"/>
<path d="M1093.41 61.9077C1094.96 56.4464 1098.97 45.213 1109.3 35.141C1122.66 22.113 1138.14 19.2877 1143.57 18.5517C1144.51 18.573 1157.98 18.7304 1161 11.7797C1161.23 11.2557 1162.11 9.23171 1161.28 7.37838C1160.1 4.75705 1155.92 3.42238 1150.76 4.32905C1148.97 4.38372 1113.01 6.04238 1098.65 34.029C1093.05 44.941 1092.9 55.6197 1093.41 61.9077Z" fill="#0D5060"/>
<path d="M1116.8 359.26C1117.17 361.907 1118.35 371.225 1113.52 380.487C1113.08 381.337 1112.67 382.02 1112.39 382.475C1108.45 389.499 1107.7 396.623 1110.92 400.46C1111.28 400.885 1112.49 402.296 1114.51 402.875C1119.71 404.368 1125.48 399.079 1126.14 397.9C1127.34 395.795 1135.56 380.715 1129 363.475C1123.79 349.765 1112.61 343.568 1109.72 342.077C1111.92 345.069 1115.62 350.973 1116.8 359.26" fill="url(#paint3_linear)"/>
<path d="M1087.59 334.047C1093.05 335.598 1104.29 339.6 1114.36 349.931C1127.39 363.295 1130.21 378.775 1130.95 384.205C1130.93 385.146 1130.77 398.615 1137.72 401.637C1138.24 401.866 1140.27 402.746 1142.12 401.914C1144.74 400.738 1146.08 396.559 1145.17 391.393C1145.12 389.605 1143.46 353.647 1115.47 339.282C1104.56 333.682 1093.88 333.537 1087.59 334.047Z" fill="#0D5060"/>
</g>
<defs>
<linearGradient id="paint0_linear" x1="57.8289" y1="42.6695" x2="4.32782" y2="17.7244" gradientUnits="userSpaceOnUse">
<stop stop-color="#146072"/>
<stop offset="0.0111732" stop-color="#146072"/>
<stop offset="0.191802" stop-color="#83B3B7"/>
<stop offset="0.910217" stop-color="#83B3B7"/>
<stop offset="0.981961" stop-color="#83B3B7"/>
<stop offset="1" stop-color="#7F7F7E"/>
</linearGradient>
<linearGradient id="paint1_linear" x1="59.7177" y1="341.264" x2="34.7726" y2="394.765" gradientUnits="userSpaceOnUse">
<stop stop-color="#146072"/>
<stop offset="0.0111732" stop-color="#146072"/>
<stop offset="0.191802" stop-color="#83B3B7"/>
<stop offset="0.910217" stop-color="#83B3B7"/>
<stop offset="0.981961" stop-color="#83B3B7"/>
<stop offset="1" stop-color="#7F7F7E"/>
</linearGradient>
<linearGradient id="paint2_linear" x1="1104.67" y1="46.7149" x2="1158.18" y2="21.7697" gradientUnits="userSpaceOnUse">
<stop stop-color="#146072"/>
<stop offset="0.0111732" stop-color="#146072"/>
<stop offset="0.191802" stop-color="#83B3B7"/>
<stop offset="0.910217" stop-color="#83B3B7"/>
<stop offset="0.981961" stop-color="#83B3B7"/>
<stop offset="1" stop-color="#7F7F7E"/>
</linearGradient>
<linearGradient id="paint3_linear" x1="1102.79" y1="345.31" x2="1127.73" y2="398.811" gradientUnits="userSpaceOnUse">
<stop stop-color="#146072"/>
<stop offset="0.0111732" stop-color="#146072"/>
<stop offset="0.191802" stop-color="#83B3B7"/>
<stop offset="0.910217" stop-color="#83B3B7"/>
<stop offset="0.981961" stop-color="#83B3B7"/>
<stop offset="1" stop-color="#7F7F7E"/>
</linearGradient>
<clipPath id="clip0">
<rect width="1162.5" height="403.138" fill="white"/>
</clipPath>
</defs>
</svg>
