<svg width="1603" height="1220" viewBox="0 0 1603 1220" fill="none" xmlns="http://www.w3.org/2000/svg">
<path d="M736.67 1074.72C1001.22 1077.16 1204.4 877.794 1185.95 853.364C1170.32 832.674 1003.42 947.714 736.67 945.594C475.41 943.524 314.73 830.634 298.91 851.054C280.16 875.254 476.09 1072.31 736.67 1074.72Z" fill="#99B876"/>
<path d="M997.73 910.284C1016.87 904.584 1046.34 895.514 1081.93 883.304C1150.36 859.814 1178.17 846.384 1185.95 853.364C1195.75 862.154 1165.42 895.844 1156.43 905.824C1134.46 930.224 1110.49 946.384 1093.85 956.124C1073.2 968.604 1045.06 969.414 1023.95 958.284C1004.41 947.974 994.12 929.154 997.73 910.284Z" fill="#7B9650"/>
<path d="M369.55 939.304C429.16 958.244 507.05 976.214 599.08 980.434C764.37 988.024 896.71 947.674 975.79 916.124C987.28 946.154 998.77 976.173 1010.27 1006.2C961.04 1032.51 866.57 1074.14 742.55 1074.71C545.96 1075.63 410.25 972.764 369.55 939.304Z" fill="#B0C98F"/>
<path d="M889.43 1054.24C956.17 1016.04 970.12 987.153 969.95 967.493C969.84 955.323 964.1 920.794 980.52 914.904C980.53 914.904 980.54 914.894 980.54 914.894C982.67 914.134 985.69 913.134 989.39 912.144C992.55 911.304 996.18 910.344 997.73 910.274C1007.36 909.814 1010.56 939.894 1027.55 952.504C1037.02 959.534 1055.31 964.503 1093.85 956.103C1076.11 968.613 1055.93 981.483 1033.15 994.083C981.53 1022.67 931.57 1041.55 889.43 1054.24Z" fill="#88A562"/>
<path d="M742.39 1209.58C977.326 1209.58 1167.78 1190.35 1167.78 1166.62C1167.78 1142.9 977.326 1123.66 742.39 1123.66C507.453 1123.66 317 1142.9 317 1166.62C317 1190.35 507.453 1209.58 742.39 1209.58Z" fill="url(#paint0_radial)"/>
<path d="M544.59 753.224L658.02 781.314C672.83 781.514 687.65 781.714 702.46 781.914C703.34 776.004 704.74 767.244 706.84 756.614C709.23 744.504 709.74 744.054 709.35 742.084C706.6 728.154 675.89 725.264 644.04 716.704C628.79 712.604 606.73 705.454 580.8 692.334C568.73 712.624 556.66 732.924 544.59 753.224Z" fill="#FF5757"/>
<path d="M855.07 950.834C855.41 954.894 856.41 960.824 859.43 967.304C861.38 971.494 863.66 974.804 865.65 977.274C874.24 978.564 883.85 979.524 894.34 979.824C909.64 980.264 923.31 979.174 934.91 977.524C947 975.824 955.1 972.144 955.31 968.044C955.36 967.054 955 965.214 951.63 962.774C931.08 956.104 910.53 949.434 889.98 942.774C878.34 945.454 866.7 948.144 855.07 950.834Z" fill="#FF5757"/>
<path d="M673.98 930.214C687.43 955.834 700.88 981.454 714.33 1007.06C716.96 1009.96 717.02 1014.22 714.76 1016.84C712.97 1018.91 709.93 1019.69 707.09 1018.82C697.16 1014.26 682.69 1006.2 668.34 992.404C654.39 978.984 645.9 965.264 640.95 955.684C640.7 952.644 640.64 946.874 643.27 940.364C645.45 934.974 648.57 931.314 650.62 929.264C658.41 929.574 666.2 929.894 673.98 930.214Z" fill="#F70D29"/>
<path d="M485.85 792.184C608.78 850.504 847.2 961.944 876.01 960.234C876.86 960.184 894.62 959.134 895.71 953.404C895.71 953.404 895.99 951.964 889.98 942.754L515.49 730.354L485.85 792.184Z" fill="#D8252C"/>
<path d="M709.34 742.084C698.02 807.514 686.69 872.944 675.37 938.374C674.27 946.264 667.82 952.034 660.68 952.164C654.96 952.264 649.52 948.744 646.85 943.224C647.52 880.394 648.19 817.574 648.86 754.744C669.02 750.524 689.18 746.304 709.34 742.084Z" fill="#FF5757"/>
<path d="M358.32 609.054C377.58 655.234 404.86 709.204 443.84 765.404C465.84 797.114 488.25 824.754 509.69 848.594C516.42 843.784 526.39 835.724 535.81 823.634C556.18 797.494 556.28 775.224 565.91 754.494C574.28 736.484 592.8 713.314 638.74 695.324C610.51 690.574 575.99 679.584 549.34 652.254C500.91 602.584 507.09 528.284 472.83 521.544C464.93 519.984 453.32 521.724 437.04 536.084C410.81 560.404 384.57 584.724 358.32 609.054Z" fill="url(#paint1_linear)"/>
<path d="M353.65 443.804C353.26 441.874 351.32 441.054 346.18 436.824C340.87 432.454 336.94 428.394 334.41 425.594C332.21 416.624 330 407.644 327.8 398.674C318.71 405.024 305.93 415.594 294.59 431.854C278.85 454.424 273.82 476.604 271.97 488.954C279.02 488.614 286.08 488.264 293.13 487.924C297.49 495.174 310.45 514.484 334.72 522.044C341.8 524.244 348.37 524.994 353.88 525.084C353.64 523.704 351.87 514.574 343.15 509.324C335.52 504.724 327.87 506.274 326.23 506.644C325.32 500.964 325.77 497.604 327.57 496.554C330.94 494.584 339.08 500.784 351.99 515.144C343.53 498.124 335.07 481.094 326.62 464.074C349.86 453.214 354.36 447.274 353.65 443.804Z" fill="#D8252C"/>
<path d="M153.11 662.384C151.17 663.354 146.21 665.504 139.77 664.704C131.6 663.684 126.65 658.594 125.34 657.154C124.68 656.324 123.89 655.034 123.81 653.414C123.44 645.714 139.87 639.614 148.64 635.304C159.74 629.854 174.4 619.494 188.59 597.784C188.64 597.714 189.34 596.834 190.45 596.924C191.23 596.984 191.71 597.484 191.82 597.614C194.69 603.834 197.56 610.044 200.44 616.264L185.64 632.694L168.17 651.084C163.16 654.854 158.13 658.624 153.11 662.384Z" fill="url(#paint2_linear)"/>
<path d="M148.71 664.044C156.65 657.964 164.98 650.904 173.37 642.704C176.97 639.184 180.35 635.694 183.52 632.244C185.38 630.454 196.21 619.664 194.35 605.704C193.94 602.604 192.97 599.894 191.83 597.624C202.78 604.944 213.73 612.264 224.68 619.584L216.06 637.224C215.63 636.894 215.2 636.564 214.77 636.244C203 629.914 195.36 630.244 190.31 632.364C189.07 632.884 188.2 633.434 178.35 642.824C167.97 652.724 165.52 655.384 160.64 658.454C158.1 660.054 154.13 662.244 148.71 664.044Z" fill="#FF5757"/>
<path d="M643.06 535.224C647.2 525.804 651.33 516.394 655.47 506.974C656.63 512.544 657.8 518.114 658.96 523.694C668.06 521.264 714.31 509.244 720.55 520.384C722.3 523.504 721.93 530.254 718.85 535.554C716.41 539.744 712.86 542.024 710.87 543.094C696.91 545.244 682.95 547.404 668.99 549.554L647.61 543.844L643.06 535.224Z" fill="url(#paint3_linear)"/>
<path d="M622.88 546.164C627.46 543.224 635.1 537.484 641.26 527.804C647.08 518.654 649.04 509.984 649.78 504.794C650.83 500.824 651.69 499.964 652.31 499.984C654.34 500.064 657.07 509.804 655.7 518.594C654.51 526.244 650.47 531.604 647.97 534.384C655.95 540.614 662.9 542.684 667.87 543.384C675.05 544.404 679.13 542.714 689.33 542.144C698.15 541.654 705.58 542.324 710.86 543.084C701.17 547.454 688.94 551.944 674.37 555.104C665.21 557.094 656.7 558.214 649.11 558.804C640.38 554.594 631.63 550.374 622.88 546.164Z" fill="#FC4949"/>
<path d="M212.43 638.224L221.95 614.954C281.36 638.014 311.38 630.974 327.86 618.864C348.62 603.614 343.59 583.484 371.98 554.024C378.97 546.774 404.68 520.734 442.64 513.164C473.13 507.084 488.39 517.524 541.04 527.214C568.95 532.344 598.28 535.594 629.06 536.484C636.68 545.254 644.3 554.014 651.92 562.784C633.12 566.354 603.86 570.424 568.02 568.894C527.46 567.164 522.27 560.124 495.09 562.834C447.68 567.554 412.79 593.994 397.65 605.754C368.79 628.164 370.54 638.094 352.36 649.494C329.55 663.784 289.18 671.754 212.43 638.224Z" fill="#D8252C"/>
<path d="M378.74 545.634L364.27 562.754C363.62 563.884 361.19 568.314 363.01 571.754C364.69 574.924 369.07 575.504 370.86 575.734C385.21 577.614 415.36 549.354 437.06 536.074C449.55 528.434 469.09 519.724 498.29 517.754C488.03 514.244 467 508.634 441.01 513.144C407.47 518.974 386.3 538.084 378.74 545.634Z" fill="#FF5757"/>
<path d="M407.29 537.754C407.25 539.884 406.82 545.374 402.62 549.454C397.48 554.454 388.76 555.354 380.1 551.934C367.35 538.654 354.59 525.384 341.84 512.104L374.65 506.854L388.2 509.444L407.29 537.754Z" fill="url(#paint4_linear)"/>
<path d="M334.41 425.594C342.7 430.334 350.98 435.084 359.27 439.824C394.61 457.694 407.6 487.454 399.79 502.074C391.94 516.764 363.33 515.724 360.91 515.604C357.43 515.424 353.95 515.244 350.48 515.064C341.46 500.534 332.45 486.004 323.43 471.474C321.47 468.264 319.18 463.374 318.71 457.174C317.33 439.144 332.73 426.894 334.41 425.594Z" fill="url(#paint5_linear)"/>
<path d="M324.87 491.664C321.01 497.974 321.07 505.324 324.96 510.004C330.14 516.234 341.55 517.104 350.19 510.504C341.75 504.224 333.31 497.944 324.87 491.664Z" fill="url(#paint6_linear)"/>
<path d="M36.5798 564.634C36.2898 564.244 35.2798 562.794 35.3798 560.724C35.4798 558.724 36.5398 557.424 36.8698 557.044C60.9598 540.104 85.0498 523.174 109.14 506.234C110.09 505.564 112.15 504.464 114.53 504.804C116.8 505.134 118.51 506.684 119.68 508.154C132.73 525.944 145.79 543.734 158.84 561.534C159.05 561.734 160.74 563.404 160.45 565.794C160.28 567.184 159.53 568.124 159.19 568.494C134.53 586.454 109.88 604.424 85.2198 622.384C84.9398 622.684 83.5098 624.174 81.1298 624.294C78.7598 624.414 77.1798 623.074 76.8698 622.804C63.4498 603.404 50.0198 584.014 36.5798 564.634Z" fill="#0D5060"/>
<path d="M46.4398 567.414C46.1498 567.024 45.1398 565.574 45.2398 563.504C45.3398 561.504 46.3998 560.204 46.7298 559.824C70.8198 542.884 94.9098 525.954 119 509.014C119.95 508.344 122.01 507.244 124.39 507.584C126.66 507.914 128.37 509.464 129.54 510.934C142.59 528.724 155.65 546.514 168.7 564.314C168.91 564.514 170.6 566.184 170.31 568.574C170.14 569.964 169.39 570.904 169.05 571.274C144.39 589.234 119.74 607.204 95.0798 625.164C94.7998 625.464 93.3698 626.954 90.9898 627.074C88.6198 627.194 87.0398 625.854 86.7298 625.584C73.2998 606.184 59.8698 586.794 46.4398 567.414Z" fill="#063040"/>
<path d="M85.2798 588.724L80.9898 588.114L83.5898 569.814L87.8798 570.424L85.2798 588.724Z" fill="url(#paint7_linear)"/>
<path d="M81.0398 588.154L81.6498 583.864L99.9498 586.464L99.3398 590.754L81.0398 588.154Z" fill="url(#paint8_linear)"/>
<path d="M137.19 551.364L137.96 547.104L119.76 543.834L119 548.094L137.19 551.364Z" fill="url(#paint9_linear)"/>
<path d="M137.98 547.154L133.72 546.394L130.45 564.584L134.71 565.354L137.98 547.154Z" fill="url(#paint10_linear)"/>
<path d="M134.23 579.044L96.1298 553.094L98.7198 549.284L136.83 575.234L134.23 579.044Z" fill="url(#paint11_linear)"/>
<path d="M107.16 583.004C108.828 583.004 110.18 581.652 110.18 579.984C110.18 578.316 108.828 576.964 107.16 576.964C105.492 576.964 104.14 578.316 104.14 579.984C104.14 581.652 105.492 583.004 107.16 583.004Z" fill="url(#paint12_linear)"/>
<path d="M115.05 577.834C116.718 577.834 118.07 576.482 118.07 574.814C118.07 573.146 116.718 571.794 115.05 571.794C113.382 571.794 112.03 573.146 112.03 574.814C112.03 576.482 113.382 577.834 115.05 577.834Z" fill="url(#paint13_linear)"/>
<path d="M186.62 581.964C188.09 579.024 190.41 573.314 190.17 565.924C190.09 563.564 189.71 555.274 184.09 547.934C183.57 547.264 183.11 546.724 182.8 546.374C178.31 540.854 176.57 534.764 178.79 530.934C179.04 530.514 179.88 529.094 181.55 528.284C185.85 526.194 191.68 529.924 192.44 530.844C193.8 532.494 203.25 544.384 200.16 560.394C197.71 573.124 188.91 580.224 186.62 581.964Z" fill="url(#paint14_linear)"/>
<path d="M168.57 592.314C173.09 590.134 182.27 584.944 189.47 574.414C198.79 560.794 198.89 546.884 198.71 542.044C198.55 541.224 196.36 529.524 201.96 525.834C202.38 525.554 204.01 524.484 205.75 524.924C208.21 525.554 210.01 528.984 210 533.624C210.22 535.194 214.24 566.754 192.05 583.524C183.4 590.054 174.12 591.804 168.57 592.314Z" fill="#0D5060"/>
<path d="M23.7998 546.854C22.3298 549.794 20.0098 555.504 20.2498 562.894C20.3298 565.254 20.7098 573.544 26.3298 580.884C26.8498 581.554 27.3098 582.094 27.6198 582.444C32.1098 587.964 33.8498 594.054 31.6298 597.884C31.3798 598.304 30.5398 599.724 28.8698 600.534C24.5698 602.624 18.7398 598.894 17.9798 597.974C16.6198 596.324 7.16978 584.434 10.2598 568.424C12.7098 555.694 21.5098 548.594 23.7998 546.854Z" fill="url(#paint15_linear)"/>
<path d="M41.8498 536.504C37.3298 538.684 28.1498 543.874 20.9498 554.404C11.6298 568.024 11.5298 581.934 11.7098 586.774C11.8698 587.594 14.0598 599.294 8.45978 602.984C8.03978 603.264 6.40978 604.334 4.66978 603.894C2.20978 603.264 0.409783 599.834 0.419783 595.194C0.199783 593.624 -3.82021 562.064 18.3698 545.294C27.0198 538.764 36.2998 537.014 41.8498 536.504Z" fill="#0D5060"/>
<path d="M1410.59 545.954C1410.15 545.774 1408.58 545.084 1407.67 543.304C1406.79 541.594 1407.07 539.974 1407.18 539.494C1419.79 513.244 1432.4 486.994 1445.02 460.744C1445.52 459.704 1446.76 457.754 1448.98 456.834C1451.1 455.954 1453.32 456.384 1455.04 457.014C1474.89 465.204 1494.74 473.394 1514.58 481.584C1514.86 481.644 1517.12 482.174 1518.02 484.314C1518.55 485.554 1518.35 486.714 1518.23 487.194C1505.62 514.584 1493.02 541.984 1480.41 569.374C1480.31 569.764 1479.79 571.724 1477.81 573.024C1475.82 574.324 1473.81 574.004 1473.42 573.934C1452.47 564.604 1431.53 555.284 1410.59 545.954Z" fill="#0D5060"/>
<path d="M574.99 1050.75C574.9 1056.26 574.1 1064.16 570.82 1072.97C568.8 1078.38 566.34 1082.81 564.09 1086.23C550.45 1093.52 533.55 1101.07 513.57 1107.01C502.28 1110.37 491.64 1112.72 481.92 1114.38C480.76 1114.41 475.47 1114.43 472.31 1110.76C468.42 1106.24 469.05 1097.61 475.35 1091.35C484.61 1085.02 493.87 1078.69 503.13 1072.36C517.61 1062.97 532.08 1053.59 546.56 1044.2C556.03 1046.38 565.51 1048.56 574.99 1050.75Z" fill="#E29320"/>
<path d="M747.31 1048.62C738.14 1068.53 729.16 1091.62 721.74 1117.74C718.2 1130.2 715.35 1142.18 713.06 1153.57C711.85 1155.96 711.75 1158.7 713.05 1160.46C714.98 1163.08 720.1 1163.65 723.92 1160.21C731.71 1151.44 739.91 1141.28 748.02 1129.67C758.65 1114.46 766.95 1099.88 773.43 1086.82C771.45 1073.73 769.47 1060.65 767.49 1047.56L747.31 1048.62Z" fill="url(#paint16_linear)"/>
<path d="M744.19 1081.33L767.88 1068.83C775.79 1045.18 783.3 1018.16 789.16 988.084C797.47 945.414 800.47 906.774 800.9 874.054C862.21 844.144 923.53 814.224 984.84 784.314L943.34 734.544L751.68 815.974C738.56 857.884 725.3 919.324 730.1 993.124C732.27 1026.53 737.73 1056.17 744.19 1081.33Z" fill="#E29320"/>
<path d="M1245.02 654.004C1209.33 639.704 1178.75 629.234 1155.81 621.904C1086.78 599.854 1071.57 601.344 1059.33 607.004C1043.31 614.414 1041.54 624.734 1013.09 659.934C993.94 683.644 976.43 701.644 964.26 713.444C982.44 734.174 1001.22 758.494 1019.1 786.704C1025.55 796.884 1031.46 806.894 1036.88 816.684C1060.53 810.094 1078.73 800.104 1092.88 789.274C1144.08 750.074 1143.23 699.114 1192.77 670.014C1210.92 659.364 1229.51 655.344 1245.02 654.004Z" fill="url(#paint17_linear)"/>
<path d="M1438.22 620.804C1440.51 621.154 1446.27 621.724 1452.55 618.794C1460.53 615.074 1463.89 608.284 1464.75 606.384C1465.14 605.324 1465.53 603.744 1465.08 602.074C1462.93 594.114 1444.22 593.304 1433.89 591.794C1420.82 589.884 1402.5 584.154 1380.96 566.734C1380.89 566.684 1379.88 566.014 1378.78 566.464C1378.01 566.784 1377.69 567.454 1377.61 567.614C1376.73 574.874 1375.84 582.144 1374.96 589.404L1395.4 601.274L1419.19 614.254C1425.53 616.434 1431.87 618.624 1438.22 620.804Z" fill="url(#paint18_linear)"/>
<path d="M1443.24 621.054C1433.17 617.474 1422.38 613.014 1411.16 607.424C1406.35 605.024 1401.76 602.574 1397.41 600.104C1394.93 598.894 1380.38 591.474 1377.69 576.664C1377.09 573.374 1377.19 570.304 1377.61 567.614C1368.87 578.644 1360.13 589.684 1351.39 600.714L1365.94 615.824C1366.27 615.354 1366.6 614.874 1366.93 614.404C1376.83 604.104 1384.7 601.934 1390.53 602.444C1391.96 602.574 1393.03 602.834 1406.12 609.164C1419.92 615.834 1423.29 617.734 1429.25 619.264C1432.38 620.074 1437.13 620.994 1443.24 621.054Z" fill="#FFC255"/>
<path d="M898.19 652.054C890.9 643.834 883.6 635.614 876.31 627.384C876.95 633.434 877.6 639.484 878.24 645.534C868.18 646.044 817.21 648.974 814.51 662.354C813.76 666.094 816.34 672.844 821.21 677.224C825.06 680.694 829.42 681.844 831.8 682.274C846.71 679.884 861.61 677.504 876.52 675.114L896.39 662.304L898.19 652.054Z" fill="url(#paint19_linear)"/>
<path d="M922.3 656.564C916.67 655.084 907.02 651.744 897.59 643.914C888.67 636.514 883.84 628.334 881.38 623.304C879.01 619.614 877.86 619.014 877.23 619.244C875.19 619.984 875.61 630.794 879.88 639.284C883.59 646.674 889.46 650.804 892.92 652.814C886.84 661.774 880.46 666.144 875.63 668.494C868.66 671.884 863.96 671.504 853.39 674.264C844.26 676.654 836.92 679.774 831.79 682.274C843.07 683.544 856.99 684.104 872.84 682.544C882.81 681.564 891.83 679.914 899.75 678.024C907.28 670.874 914.79 663.724 922.3 656.564Z" fill="#FFC255"/>
<path d="M1232.53 640.964C1223.22 649.474 1208.57 660.994 1188.41 669.604C1163.41 680.274 1153.17 676.544 1123.09 682.154C1059.08 694.084 1042.42 722.724 991.54 718.584C979.43 717.594 969.81 715.114 964.25 713.454C974.02 704.494 984.32 694.004 994.56 681.784C1015.09 657.314 1029.33 633.214 1039.23 612.924C1103.67 622.264 1168.1 631.614 1232.53 640.964Z" fill="#FCB94C"/>
<path d="M1369.96 615.674L1352.65 595.124C1299.78 638.054 1266.94 640.734 1246.21 633.814C1220.1 625.104 1218.61 602.984 1180.08 582.324C1170.59 577.234 1135.91 559.184 1094.82 563.924C1061.81 567.734 1049.71 583.354 999.34 610.464C972.64 624.834 943.87 637.754 912.85 648.744C907.97 660.164 903.1 671.574 898.22 682.994C918.51 680.464 949.61 675.014 985.56 661.714C1026.24 646.654 1029.22 637.804 1057.76 631.644C1107.53 620.904 1151.68 636.364 1170.93 643.354C1207.63 656.694 1209.1 667.364 1231.34 672.994C1259.21 680.054 1302.88 674.934 1369.96 615.674Z" fill="#E9AB3B"/>
<path d="M1170.45 576.004L1190.78 588.684C1191.81 589.614 1195.74 593.334 1195.01 597.424C1194.34 601.204 1190.07 603.224 1188.33 604.044C1174.35 610.664 1134.42 591.794 1108 585.404C1092.79 581.724 1070.07 579.274 1039.71 586.834C1049 579.904 1068.55 567.304 1096.46 563.374C1132.49 558.304 1160.29 570.804 1170.45 576.004Z" fill="#FFC255"/>
<path d="M1160.99 595.704C1159.23 596.624 1151.12 600.624 1142.91 597.414C1133.16 593.604 1126.99 581.104 1129.96 567.534C1132.84 562.184 1135.93 555.094 1137.96 546.434C1141.84 529.844 1139.88 515.724 1138.02 507.434C1150.35 516.504 1162.68 525.574 1175.02 534.644L1182.18 544.084C1175.12 561.304 1168.06 578.504 1160.99 595.704Z" fill="url(#paint20_linear)"/>
<path d="M1203.22 449.004C1204.41 452.244 1206.1 456.994 1207.89 462.794C1210.74 472.004 1215.87 488.624 1216.83 502.204C1218.04 519.424 1213.8 549.854 1198.63 554.344C1198.63 554.344 1183.77 558.974 1159.66 534.234C1158.24 532.784 1156.66 531.104 1154.95 528.944C1154.95 528.944 1153.97 527.694 1153.05 526.404C1150.87 523.314 1126.66 477.334 1147.5 457.704C1153 452.524 1157.38 456.664 1187.47 451.894C1194.16 450.834 1199.62 449.754 1203.22 449.004Z" fill="url(#paint21_linear)"/>
<path d="M1152.13 473.914C1151.31 478.524 1150.87 484.304 1151.78 490.804C1154.74 511.814 1169.65 524.684 1174.55 528.584C1175.6 529.134 1188.93 535.894 1202.4 528.574C1214.19 522.164 1216.77 510.014 1217.1 508.334C1219.69 513.814 1222.68 521.924 1223.58 532.084C1225.26 551.074 1218.62 565.734 1215.2 572.144C1207.1 581.684 1199.07 583.444 1196.04 583.884C1179.19 586.344 1159.18 571.214 1150.86 545.124C1149.2 534.444 1147.54 523.764 1145.89 513.074C1144.26 513.314 1142.64 513.564 1141.01 513.804C1140.52 515.654 1140.07 518.384 1140.79 521.434C1141.88 526.074 1144.77 527.684 1144.64 531.034C1144.58 532.704 1143.75 535.074 1140.13 537.854C1136.17 533.564 1131.51 527.484 1127.86 519.404C1119.08 499.994 1121.83 481.754 1123.44 474.184C1131.16 449.664 1141.01 441.834 1149.08 439.574C1158.54 436.934 1167.31 441.454 1181.42 436.244C1188.21 433.734 1193.2 430.094 1196.41 427.354C1206.29 432.834 1210.87 441.874 1208.63 448.214C1208.21 449.414 1206.98 452.114 1203.02 454.424C1199.2 456.714 1193.61 459.444 1186.45 460.994C1174.23 463.634 1164.05 461.404 1158.82 459.834C1155.81 458.344 1152.41 457.944 1150.41 459.464C1147.5 461.684 1147.11 468.354 1152.13 473.914Z" fill="url(#paint22_linear)"/>
<path d="M1143.13 491.724C1137.85 493.934 1134.37 498.784 1134.4 503.804C1134.45 510.484 1140.71 516.764 1148.92 516.754C1146.99 508.414 1145.06 500.074 1143.13 491.724Z" fill="url(#paint23_linear)"/>
<path d="M1160.62 523.264C1161.23 521.324 1164.06 513.134 1172.53 508.554C1184.88 501.874 1197.53 509.224 1198.16 509.604C1199.15 508.214 1203.09 503.014 1210.15 501.634C1217.38 500.214 1225.03 503.354 1229.9 509.654C1224.69 508.244 1218.38 507.594 1212.32 510.114C1205.47 512.964 1204.6 517.524 1198.31 518.784C1191.71 520.104 1188.91 515.824 1181.49 515.224C1176.82 514.834 1169.79 515.874 1160.62 523.264Z" fill="#FFC255"/>
<path d="M537.68 1050.6C529.95 1054.9 526.36 1058.26 526.91 1060.68C527.86 1064.86 541.16 1066.23 566.82 1064.8C592.44 1041.67 618.48 1017.29 644.81 991.624C676.24 960.984 705.84 930.684 733.68 900.974C789.56 894.114 854.98 881.774 926.28 859.674C976.2 844.204 1020.68 826.524 1059.43 808.764C1031.73 775.594 1004.03 742.424 976.33 709.254C945.73 717.494 913.34 727.314 879.51 739.094C848.18 750.004 818.86 761.444 791.61 773.024C784.1 776.014 767.04 784.114 757.02 802.444C754.42 807.204 752.75 811.824 751.65 815.964C773.48 807.674 796.52 799.564 820.76 791.824C852.78 781.584 883.54 773.054 912.73 765.924C921.06 759.684 929.38 753.444 937.71 747.204C932.24 754.114 926.77 761.024 921.3 767.934C935.97 772.174 950.65 776.404 965.32 780.644C949.43 778.604 933.53 776.554 917.64 774.514C884.83 781.254 849.3 790.004 811.69 801.424C773.95 812.884 739.45 825.414 708.34 838.104C681.18 863.444 651.94 893.694 622.59 929.344C587.32 972.224 559.5 1013.65 537.68 1050.6Z" fill="url(#paint24_linear)"/>
<path d="M1445.9 442.314C1446.21 441.764 1447.26 440.084 1449.42 439.204C1452.21 438.074 1454.7 439.154 1455.14 439.354C1473.51 448.384 1491.88 457.414 1510.25 466.444C1510.7 466.714 1514.15 468.914 1514.57 473.084C1514.83 475.594 1513.85 477.524 1513.41 478.274C1500.71 505.284 1488.01 532.304 1475.32 559.314C1475.01 559.904 1472.78 564.034 1468.25 564.794C1466.5 565.094 1465 564.774 1464.04 564.474C1444.86 554.954 1425.68 545.434 1406.5 535.924C1405.87 535.594 1404.97 535.014 1404.33 534.014C1401.92 530.254 1405.37 524.114 1406.42 522.164C1412.62 510.654 1434.83 461.794 1445.9 442.314Z" fill="#063040"/>
<path d="M1432.79 538.974C1438.97 539.164 1447.66 538.654 1457.36 535.434C1476.75 529.004 1488.08 515.804 1492.61 509.824C1484.08 525.124 1475.55 540.424 1467.02 555.724C1455.61 550.134 1444.2 544.554 1432.79 538.974Z" fill="#0D5060"/>
<path d="M1503.97 479.085L1451.11 452.732L1448.15 458.675L1501 485.027L1503.97 479.085Z" fill="#0D5060"/>
<path d="M1488.38 484.859L1445.57 463.513L1442.6 469.455L1485.42 490.801L1488.38 484.859Z" fill="#0D5060"/>
<path d="M1475.19 491.351L1440.35 473.976L1437.38 479.918L1472.23 497.294L1475.19 491.351Z" fill="#D8252C"/>
<path d="M1421.43 462.534C1409.95 445.234 1400.05 433.184 1393.31 425.554C1393.31 425.554 1389.17 420.874 1382.47 414.704C1375.13 407.954 1362.68 396.494 1358.07 399.524C1357.54 399.874 1357.28 400.304 1357.03 400.734C1353.49 406.744 1362.85 417.764 1364.32 419.454C1368.99 424.684 1374.41 430.164 1380.67 435.614C1395.06 448.164 1409.42 456.704 1421.43 462.534Z" fill="#D8252C"/>
<path d="M1409.36 437.544C1407.59 432.994 1405.82 428.434 1404.05 423.884C1402.12 418.294 1402.79 413.634 1405.17 412.304C1406.52 411.544 1408.02 412.094 1408.09 412.124C1410.79 413.154 1412.22 417.864 1411.21 423.864C1410.59 428.424 1409.98 432.984 1409.36 437.544Z" fill="#FF7878"/>
<path d="M1513.22 507.114C1533.57 503.004 1549.09 501.474 1559.25 500.844C1559.25 500.844 1565.49 500.464 1574.59 500.844C1584.55 501.264 1601.46 501.964 1602.57 507.364C1602.7 507.984 1602.58 508.474 1602.45 508.954C1600.7 515.704 1586.29 516.874 1584.06 517.034C1577.06 517.434 1569.36 517.474 1561.07 516.904C1542.03 515.594 1525.84 511.484 1513.22 507.114Z" fill="#D8252C"/>
<path d="M1539.42 497.974C1543.89 496.004 1548.37 494.034 1552.84 492.064C1558.15 489.474 1560.98 485.704 1560.24 483.084C1559.82 481.594 1558.38 480.924 1558.3 480.884C1555.66 479.704 1551.32 482.024 1547.79 486.984C1545.01 490.654 1542.21 494.314 1539.42 497.974Z" fill="#FF7878"/>
<path d="M474.15 1151.47C472.69 1157.07 469.91 1165.18 464.26 1173.66C460.21 1179.74 455.82 1183.88 447.22 1191.91C435.56 1202.79 429.73 1208.23 421.04 1212.39C412.46 1216.5 404.36 1218.06 398.21 1218.66C388.34 1220.25 379.95 1217.92 378.17 1213.38C375.76 1207.26 385.84 1198.28 389.4 1195.12C395.21 1189.95 400.69 1187.42 401.42 1187.08C409.7 1183.2 423.81 1171.51 449.23 1136.48C457.53 1141.48 465.84 1146.47 474.15 1151.47Z" fill="url(#paint25_linear)"/>
<path d="M728.54 1105.33C722.75 1131.68 716.97 1158.04 711.18 1184.39C710.78 1188.16 711.33 1191.62 713.02 1192.32C715.2 1193.23 718.93 1188.56 721.99 1184.33C735.06 1166.28 739.56 1152.92 739.56 1152.92C744.21 1139.1 751.43 1121.06 763.4 1095.52C763.35 1093.45 762.69 1074.93 751.5 1069.98C750.41 1069.5 749.15 1069.11 747.69 1068.92C741.3 1081.06 734.92 1093.19 728.54 1105.33Z" fill="url(#paint26_linear)"/>
<path d="M728.54 1105.33C731.87 1103.49 736.73 1100.21 740.94 1094.68C749.35 1083.64 749.23 1071.43 749.02 1067.51L693.67 841.964L842.34 625.974L752.35 613.984L603.09 820.394L728.54 1105.33Z" fill="url(#paint27_linear)"/>
<path d="M859.3 581.434C872.44 597.214 895.27 629.654 890.12 667.034C885.14 703.194 856.18 724.804 824.72 749.994C757.75 803.604 699.6 848.624 652.73 884.304C632.04 927.174 605.98 974.744 573.12 1024.61C537.73 1078.34 501.63 1123.86 468.19 1161.65C465.76 1163.5 462.03 1165.9 457.04 1167.62C451.08 1169.67 445.85 1169.88 442.54 1169.76C438.27 1169.89 434.54 1167.32 433.42 1163.67C432.15 1159.54 434.84 1156.03 435.1 1155.7C530.69 982.334 598.18 859.394 608.13 839.244C611.64 832.134 616.22 824.094 622.21 815.684C629.65 805.244 637.33 796.944 644.08 790.564C663.29 767.914 683.52 744.874 704.8 721.534C725.12 699.254 745.27 677.964 765.14 657.624C776.62 650.914 788.09 644.204 799.57 637.494C788.16 641.674 776.76 645.854 765.35 650.034C760.03 642.664 754.71 635.294 749.39 627.934C753.29 637.084 757.2 646.234 761.1 655.384C755.01 661.634 692.84 725.474 663.54 757.554C654.88 767.044 650.54 771.784 648.58 774.164C633.6 792.334 629.33 802.674 615.41 812.944C610.31 816.704 605.76 819.094 603.08 820.394C600.4 813.934 597.72 807.464 595.04 801.004C593.82 797.034 592.86 792.394 592.62 787.194C591.75 768.224 606.3 746.884 608.51 743.844C623.8 722.694 667.78 674.964 730.91 616.044C732.23 614.814 734.63 612.054 736.79 607.924C742.25 597.454 741.33 585.974 739.33 577.234C779.33 578.634 819.31 580.034 859.3 581.434Z" fill="url(#paint28_linear)"/>
<path d="M727.48 403.724C717.08 414.374 704.95 430.524 705.21 450.094C705.43 466.634 714.38 477.304 721.52 489.874C731.49 507.444 741.52 535.064 739.33 577.934C746.36 584.594 759.07 594.634 777.43 599.514C819.31 610.644 854.18 585.284 859.3 581.434C855.59 543.184 851.88 504.944 848.17 466.694L727.48 403.724Z" fill="#0D5060"/>
<path d="M709.46 424.374C723.07 462.584 741.35 480.534 755.86 489.854C765 495.724 777.59 501.354 787.22 516.254C795.23 528.644 794.27 536.754 799.04 548.934C803.85 561.194 814.43 577.494 840.55 592.564C831.96 596.174 795.92 610.184 760.98 593.244C751.89 588.834 744.77 583.254 739.33 577.934C740.31 535.754 730.52 510.194 721.07 494.464C716.26 486.454 705.73 471.354 705.21 450.094C704.93 439.224 707.37 430.244 709.46 424.374Z" fill="url(#paint29_linear)"/>
<path d="M518.56 211.804C516.28 210.304 510.8 206.254 507.62 198.734C503.58 189.194 506 180.594 506.74 178.254C507.23 177.014 508.13 175.334 509.85 174.224C518.01 168.964 535 183.014 545.22 189.854C558.15 198.504 578.68 207.944 611.27 209.714C611.37 209.724 612.78 209.934 613.38 211.204C613.8 212.094 613.56 212.924 613.49 213.134C608.53 220.184 603.57 227.224 598.62 234.274L571.39 228.524L540.35 221.094C533.1 217.994 525.83 214.894 518.56 211.804Z" fill="url(#paint30_linear)"/>
<path d="M513.98 208.054C525.6 212.874 538.55 217.484 552.77 221.454C558.87 223.154 564.81 224.634 570.56 225.904C573.68 226.794 592.26 231.804 606.29 220.964C609.41 218.554 611.75 215.794 613.5 213.124C612.43 229.664 611.36 246.204 610.3 262.744L585.65 264.474C585.73 263.794 585.82 263.124 585.91 262.444C585.38 245.634 580.21 237.524 574.71 233.364C573.36 232.344 572.22 231.734 555.78 226.934C538.45 221.874 534.01 220.884 527.59 217.504C524.24 215.764 519.36 212.824 513.98 208.054Z" fill="#0D5060"/>
<path d="M965.95 665.194C978.81 663.764 991.67 662.324 1004.54 660.894C999.21 665.674 993.87 670.454 988.54 675.234C996.93 683.614 1039.17 726.394 1030.97 740.214C1028.68 744.084 1021.09 747.944 1013.38 747.934C1007.28 747.924 1002.56 745.484 1000.14 743.994C988.99 730.144 977.85 716.304 966.7 702.454L959.44 675.574L965.95 665.194Z" fill="url(#paint31_linear)"/>
<path d="M941.31 650.114C947.4 653.254 958.47 657.954 972.89 658.564C986.52 659.134 997.2 655.794 1003.33 653.334C1008.31 651.974 1009.79 652.364 1010.16 653.054C1011.36 655.304 1002.46 664.424 992.03 668.484C982.95 672.014 974.57 670.994 969.95 670.024C968.2 682.644 970.32 691.514 972.69 697.364C976.11 705.834 980.52 709.204 987.57 719.954C993.67 729.254 997.62 737.764 1000.13 743.994C989.27 736.194 976.66 725.714 964.03 711.834C956.09 703.114 949.5 694.554 944.08 686.654C943.16 674.474 942.23 662.294 941.31 650.114Z" fill="#0D5060"/>
<path d="M582.28 261.164L613.63 256.864C625.97 336.104 652.56 364.354 676.15 374.664C705.85 387.654 724.59 369.494 774.58 381.834C786.89 384.874 831.45 396.464 863.62 433.014C889.47 462.384 887.71 485.584 910.36 549.024C922.36 582.654 937.32 616.644 955.75 650.724C951.01 664.554 946.26 678.374 941.52 692.204C925.78 673.984 902.9 644.684 881.97 604.694C858.29 559.434 862.68 549.344 842.59 521.444C807.56 472.794 756.77 451.464 734.42 442.384C691.82 425.084 682.11 433.254 658.23 420.634C628.29 404.824 594.15 365.884 582.28 261.164Z" fill="#1F3341"/>
<path d="M787.97 383.904L760.2 378.944C758.56 378.944 752.2 379.094 749.6 383.254C747.21 387.084 749.34 392.224 750.21 394.314C757.21 411.134 806.99 426.144 835.13 441.404C851.33 450.184 873.12 465.974 893.69 496.534C891.04 483.154 883.89 456.704 862.6 431.254C835.11 398.384 800.96 387.384 787.97 383.904Z" fill="#0D5060"/>
<path d="M787 396.654C788.71 398.484 793.41 402.994 800.7 404.054C809.62 405.354 818.84 400.954 824.61 392.834C826.68 373.714 828.74 354.604 830.81 335.484L794.7 350.404L783.51 360.704L787 396.654Z" fill="url(#paint32_linear)"/>
<path d="M779.75 251.124L758.86 275.684C736.64 320.294 745.91 360.084 764.79 368.954C783.75 377.874 811.84 355.304 814.2 353.364C817.57 350.564 820.95 347.774 824.32 344.974L810.81 265.944L779.75 251.124Z" fill="url(#paint33_linear)"/>
<path d="M758.62 275.704C760.63 274.334 783.25 259.384 801.77 269.074C804.27 270.384 807.19 272.394 810.03 275.594C808.51 281.264 806.93 289.684 807.79 299.684C809.38 318.144 817.33 319.354 819.41 334.824C822.15 355.184 809.6 362.014 813.09 387.974C813.48 390.894 813.71 395.294 815.92 400.504C819.35 408.614 826.02 420.934 838.75 431.134C870.58 456.664 911.48 445.894 916.61 444.454C920.11 443.564 945.98 436.554 955.22 412.784C961.39 396.904 959.75 374.584 949.71 369.284C943.09 365.784 935.75 371.244 926.96 365.904C922.4 363.134 919.85 358.924 918.4 355.774C916.53 350.274 912.78 342.094 904.86 337.234C892.24 329.494 881.22 337.644 873.87 330.834C865.86 323.414 875.79 310.784 871.03 285.264C869.57 277.454 867.14 265.204 857.69 254.294C847.78 242.854 833.68 236.744 821.77 235.714C797.52 233.594 772.75 249.504 758.62 275.704Z" fill="url(#paint34_linear)"/>
<path d="M555.97 127.354L554.53 152.704C558.45 155.484 565.53 159.764 575.39 161.884C585.46 164.054 593.84 162.974 598.58 162.014C601.24 154.024 603.9 146.034 606.56 138.044L555.97 127.354Z" fill="url(#paint35_linear)"/>
<path d="M556.04 128.874C559.24 131.964 566.33 137.974 577.25 140.814C590.67 144.304 601.72 140.894 605.84 139.394C608.26 134.824 610.67 130.254 613.09 125.694C616.09 124.794 649.84 114.054 659.2 82.5836C669 49.6436 647.87 8.15364 610.21 1.03364C576.44 -5.35636 544.39 18.7436 536.54 49.5136C527.65 84.3336 553.79 111.904 555.35 113.494C555.58 118.624 555.81 123.744 556.04 128.874Z" fill="url(#paint36_linear)"/>
<path d="M577.23 15.8337C584.06 11.5537 595.63 6.07375 608.7 8.16375C632.01 11.8937 651.99 38.3537 653.03 73.5137C648.15 63.3737 634.54 38.7537 605.83 24.6737C595.25 19.4837 585.25 17.0137 577.23 15.8337Z" fill="#F7C47F"/>
<path d="M577.42 110.074C579.89 110.044 583.02 110.234 586.56 110.974C590.19 111.734 593.19 112.854 595.48 113.894C594.29 119.514 593.1 125.134 591.92 130.754C589.93 131.124 586.6 131.474 582.61 130.654C578.52 129.804 575.54 128.084 573.86 126.944C575.05 121.314 576.23 115.694 577.42 110.074Z" fill="#E27144"/>
<path d="M593.04 65.6138L583.29 111.724L589.24 112.984L598.99 66.8738C603.53 66.2638 607.19 63.0738 608.15 58.9738C609.39 53.6838 605.91 47.9338 600.35 46.6038C594.93 45.3038 589.23 48.6238 587.85 53.9138C586.69 58.3138 588.78 63.1738 593.04 65.6138Z" fill="url(#paint37_linear)"/>
<path d="M556.66 150.454C560.78 152.984 567.48 156.404 576.38 158.144C584.38 159.704 591.18 159.324 595.74 158.714C597.34 154.404 598.94 150.094 600.54 145.794C597.48 147.594 593.75 149.384 589.34 150.734C575.32 155.044 562.9 152.344 556.66 150.454Z" fill="#F4A64A"/>
<path d="M662.05 112.424C678.78 117.214 691.51 114.544 693.63 108.864C695.82 102.974 686.47 94.2937 685.15 93.0837C677.45 99.5337 669.75 105.984 662.05 112.424Z" fill="#FFDB94"/>
<path d="M688.52 31.0938C683.84 34.9137 682.08 38.6338 681.31 41.1138C676.48 56.6638 696.52 68.3238 693.72 89.2238C693.42 91.4438 692.57 97.2838 688.33 102.694C678.43 115.354 659.38 113.804 656.5 113.524C672.49 102.164 677.19 91.4638 678.44 83.6238C681.42 64.8638 666.64 49.8238 673.98 38.6938C677.38 33.5438 683.85 31.7937 688.52 31.0938Z" fill="#FCB454"/>
<path d="M534 18.8236C517.27 14.0336 504.54 16.7036 502.42 22.3836C500.23 28.2736 509.58 36.9536 510.9 38.1636C518.6 31.7136 526.3 25.2636 534 18.8236Z" fill="#FFDB94"/>
<path d="M507.53 100.154C512.21 96.3337 513.97 92.6137 514.74 90.1337C519.57 74.5837 499.53 62.9237 502.33 42.0237C502.63 39.8037 503.48 33.9637 507.72 28.5537C517.62 15.8937 536.67 17.4437 539.55 17.7237C523.56 29.0837 518.86 39.7837 517.61 47.6237C514.63 66.3837 529.41 81.4237 522.07 92.5537C518.67 97.7037 512.2 99.4537 507.53 100.154Z" fill="#FCB454"/>
<defs>
<radialGradient id="paint0_radial" cx="0" cy="0" r="1" gradientUnits="userSpaceOnUse" gradientTransform="translate(742.391 1166.66) scale(421.352 39.0593)">
<stop stop-color="#CCCCCC"/>
<stop offset="1" stop-color="#CECECE" stop-opacity="0"/>
</radialGradient>
<linearGradient id="paint1_linear" x1="374.431" y1="704.067" x2="632.71" y2="660.156" gradientUnits="userSpaceOnUse">
<stop stop-color="#FB0927"/>
<stop offset="0.1614" stop-color="#FD3240"/>
<stop offset="0.2956" stop-color="#FE4D51"/>
<stop offset="0.3743" stop-color="#FF5757"/>
<stop offset="0.4372" stop-color="#FF6060"/>
<stop offset="0.6364" stop-color="#FF7979"/>
<stop offset="0.8192" stop-color="#FF8888"/>
<stop offset="0.9693" stop-color="#FF8D8D"/>
</linearGradient>
<linearGradient id="paint2_linear" x1="195.946" y1="637.446" x2="130.002" y2="623.424" gradientUnits="userSpaceOnUse">
<stop stop-color="#FB0927"/>
<stop offset="0.1614" stop-color="#FD3240"/>
<stop offset="0.2956" stop-color="#FE4D51"/>
<stop offset="0.3743" stop-color="#FF5757"/>
<stop offset="0.4372" stop-color="#FF6060"/>
<stop offset="0.6364" stop-color="#FF7979"/>
<stop offset="0.8192" stop-color="#FF8888"/>
<stop offset="0.9693" stop-color="#FF8D8D"/>
</linearGradient>
<linearGradient id="paint3_linear" x1="675.394" y1="553.002" x2="690.054" y2="508.502" gradientUnits="userSpaceOnUse">
<stop offset="0.3743" stop-color="#FF5757"/>
<stop offset="0.4372" stop-color="#FF6060"/>
<stop offset="0.6364" stop-color="#FF7979"/>
<stop offset="0.8192" stop-color="#FF8888"/>
<stop offset="0.9693" stop-color="#FF8D8D"/>
</linearGradient>
<linearGradient id="paint4_linear" x1="392.887" y1="514.841" x2="365.299" y2="538.966" gradientUnits="userSpaceOnUse">
<stop stop-color="#FB0927"/>
<stop offset="0.00265193" stop-color="#FB0B28"/>
<stop offset="0.0414" stop-color="#FD2739"/>
<stop offset="0.0831" stop-color="#FE3C46"/>
<stop offset="0.1294" stop-color="#FE4B50"/>
<stop offset="0.1832" stop-color="#FF5455"/>
<stop offset="0.2626" stop-color="#FF5757"/>
<stop offset="0.3805" stop-color="#FF6B6B"/>
<stop offset="0.5326" stop-color="#FF7E7E"/>
<stop offset="0.6896" stop-color="#FF8989"/>
<stop offset="0.8575" stop-color="#FF8D8D"/>
</linearGradient>
<linearGradient id="paint5_linear" x1="403.534" y1="475.463" x2="317.428" y2="468.247" gradientUnits="userSpaceOnUse">
<stop stop-color="#FB0927"/>
<stop offset="0.1614" stop-color="#FD3240"/>
<stop offset="0.2956" stop-color="#FE4D51"/>
<stop offset="0.3743" stop-color="#FF5757"/>
<stop offset="0.4372" stop-color="#FF6060"/>
<stop offset="0.6364" stop-color="#FF7979"/>
<stop offset="0.8192" stop-color="#FF8888"/>
<stop offset="0.9693" stop-color="#FF8D8D"/>
</linearGradient>
<linearGradient id="paint6_linear" x1="332.383" y1="514.511" x2="337.498" y2="494.971" gradientUnits="userSpaceOnUse">
<stop offset="0.0894" stop-color="#FF5757"/>
<stop offset="0.1824" stop-color="#FF6060"/>
<stop offset="0.477" stop-color="#FF7979"/>
<stop offset="0.7474" stop-color="#FF8888"/>
<stop offset="0.9693" stop-color="#FF8D8D"/>
</linearGradient>
<linearGradient id="paint7_linear" x1="80.1161" y1="579.736" x2="88.7595" y2="578.832" gradientUnits="userSpaceOnUse">
<stop stop-color="#FEB12B"/>
<stop offset="0.8543" stop-color="#FEB12B"/>
<stop offset="0.9949" stop-color="#FEB12B"/>
</linearGradient>
<linearGradient id="paint8_linear" x1="81.0569" y1="588.312" x2="99.9393" y2="586.338" gradientUnits="userSpaceOnUse">
<stop stop-color="#FEB12B"/>
<stop offset="0.8543" stop-color="#FEB12B"/>
<stop offset="0.9949" stop-color="#FEB12B"/>
</linearGradient>
<linearGradient id="paint9_linear" x1="119.013" y1="548.476" x2="137.906" y2="546.738" gradientUnits="userSpaceOnUse">
<stop stop-color="#FEB12B"/>
<stop offset="0.8543" stop-color="#FEB12B"/>
<stop offset="0.9949" stop-color="#FEB12B"/>
</linearGradient>
<linearGradient id="paint10_linear" x1="129.664" y1="556.3" x2="138.725" y2="555.467" gradientUnits="userSpaceOnUse">
<stop stop-color="#FEB12B"/>
<stop offset="0.8543" stop-color="#FEB12B"/>
<stop offset="0.9949" stop-color="#FEB12B"/>
</linearGradient>
<linearGradient id="paint11_linear" x1="96.6656" y1="565.092" x2="136.239" y2="563.242" gradientUnits="userSpaceOnUse">
<stop stop-color="#FEB12B"/>
<stop offset="0.8543" stop-color="#FEB12B"/>
<stop offset="0.9949" stop-color="#FEB12B"/>
</linearGradient>
<linearGradient id="paint12_linear" x1="104.119" y1="580.127" x2="110.146" y2="579.845" gradientUnits="userSpaceOnUse">
<stop stop-color="#FEB12B"/>
<stop offset="0.8543" stop-color="#FEB12B"/>
<stop offset="0.9949" stop-color="#FEB12B"/>
</linearGradient>
<linearGradient id="paint13_linear" x1="112.008" y1="574.96" x2="118.035" y2="574.679" gradientUnits="userSpaceOnUse">
<stop stop-color="#FEB12B"/>
<stop offset="0.8543" stop-color="#FEB12B"/>
<stop offset="0.9949" stop-color="#FEB12B"/>
</linearGradient>
<linearGradient id="paint14_linear" x1="180.11" y1="580.211" x2="193.705" y2="529.823" gradientUnits="userSpaceOnUse">
<stop offset="0.0112" stop-color="#146072"/>
<stop offset="0.0561" stop-color="#2D7382"/>
<stop offset="0.1174" stop-color="#488792"/>
<stop offset="0.1878" stop-color="#5E97A0"/>
<stop offset="0.27" stop-color="#6FA4AA"/>
<stop offset="0.3716" stop-color="#7AADB2"/>
<stop offset="0.5143" stop-color="#81B2B6"/>
<stop offset="0.9102" stop-color="#83B3B7"/>
<stop offset="0.9514" stop-color="#82B1B5"/>
<stop offset="0.9662" stop-color="#7FABAE"/>
<stop offset="0.9768" stop-color="#7A9FA3"/>
<stop offset="0.9853" stop-color="#738F92"/>
<stop offset="0.9926" stop-color="#6A7A7C"/>
<stop offset="0.999" stop-color="#5E6161"/>
<stop offset="1" stop-color="#5C5C5C"/>
</linearGradient>
<linearGradient id="paint15_linear" x1="30.319" y1="548.609" x2="16.724" y2="598.996" gradientUnits="userSpaceOnUse">
<stop offset="0.0112" stop-color="#146072"/>
<stop offset="0.0561" stop-color="#2D7382"/>
<stop offset="0.1174" stop-color="#488792"/>
<stop offset="0.1878" stop-color="#5E97A0"/>
<stop offset="0.27" stop-color="#6FA4AA"/>
<stop offset="0.3716" stop-color="#7AADB2"/>
<stop offset="0.5143" stop-color="#81B2B6"/>
<stop offset="0.9102" stop-color="#83B3B7"/>
<stop offset="0.9514" stop-color="#82B1B5"/>
<stop offset="0.9662" stop-color="#7FABAE"/>
<stop offset="0.9768" stop-color="#7A9FA3"/>
<stop offset="0.9853" stop-color="#738F92"/>
<stop offset="0.9926" stop-color="#6A7A7C"/>
<stop offset="0.999" stop-color="#5E6161"/>
<stop offset="1" stop-color="#5C5C5C"/>
</linearGradient>
<linearGradient id="paint16_linear" x1="722.459" y1="1101.39" x2="769.009" y2="1110.14" gradientUnits="userSpaceOnUse">
<stop stop-color="#FEB12B"/>
<stop offset="0.8543" stop-color="#FEB12B"/>
<stop offset="0.9949" stop-color="#FEB12B"/>
</linearGradient>
<linearGradient id="paint17_linear" x1="1082.38" y1="600.359" x2="1133.04" y2="791.278" gradientUnits="userSpaceOnUse">
<stop offset="0.0112" stop-color="#FCB43F"/>
<stop offset="0.1434" stop-color="#FDB845"/>
<stop offset="0.5359" stop-color="#FFC255"/>
<stop offset="0.7308" stop-color="#FCD383"/>
<stop offset="0.9016" stop-color="#F9DFA4"/>
<stop offset="0.9944" stop-color="#F8E4B1"/>
</linearGradient>
<linearGradient id="paint18_linear" x1="1386.36" y1="609.595" x2="1448.84" y2="573.725" gradientUnits="userSpaceOnUse">
<stop offset="0.0112" stop-color="#FEB12B"/>
<stop offset="0.1304" stop-color="#FEC351"/>
<stop offset="0.2417" stop-color="#FFD16C"/>
<stop offset="0.3394" stop-color="#FFD97D"/>
<stop offset="0.413" stop-color="#FFDC83"/>
<stop offset="0.5081" stop-color="#FEDD88"/>
<stop offset="0.6171" stop-color="#FBDE96"/>
<stop offset="0.7331" stop-color="#F6E1AD"/>
<stop offset="0.8531" stop-color="#EEE5CD"/>
<stop offset="0.9385" stop-color="#E8E8E8"/>
</linearGradient>
<linearGradient id="paint19_linear" x1="871.15" y1="680.693" x2="841.654" y2="640.236" gradientUnits="userSpaceOnUse">
<stop offset="0.0112" stop-color="#FEB12B"/>
<stop offset="0.1304" stop-color="#FEC351"/>
<stop offset="0.2417" stop-color="#FFD16C"/>
<stop offset="0.3394" stop-color="#FFD97D"/>
<stop offset="0.413" stop-color="#FFDC83"/>
<stop offset="0.5081" stop-color="#FEDD88"/>
<stop offset="0.6171" stop-color="#FBDE96"/>
<stop offset="0.7331" stop-color="#F6E1AD"/>
<stop offset="0.8531" stop-color="#EEE5CD"/>
<stop offset="0.9385" stop-color="#E8E8E8"/>
</linearGradient>
<linearGradient id="paint20_linear" x1="1168.61" y1="529.086" x2="1123.31" y2="581.87" gradientUnits="userSpaceOnUse">
<stop offset="0.0112" stop-color="#FEB12B"/>
<stop offset="0.1304" stop-color="#FEC351"/>
<stop offset="0.2417" stop-color="#FFD16C"/>
<stop offset="0.3394" stop-color="#FFD97D"/>
<stop offset="0.413" stop-color="#FFDC83"/>
<stop offset="0.5081" stop-color="#FEDD88"/>
<stop offset="0.6171" stop-color="#FBDE96"/>
<stop offset="0.7331" stop-color="#F6E1AD"/>
<stop offset="0.8531" stop-color="#EEE5CD"/>
<stop offset="0.9385" stop-color="#E8E8E8"/>
</linearGradient>
<linearGradient id="paint21_linear" x1="1219.05" y1="539.517" x2="1151.74" y2="454.316" gradientUnits="userSpaceOnUse">
<stop offset="0.0112" stop-color="#FEB12B"/>
<stop offset="0.1304" stop-color="#FEC351"/>
<stop offset="0.2417" stop-color="#FFD16C"/>
<stop offset="0.3394" stop-color="#FFD97D"/>
<stop offset="0.413" stop-color="#FFDC83"/>
<stop offset="0.5081" stop-color="#FEDD88"/>
<stop offset="0.6171" stop-color="#FBDE96"/>
<stop offset="0.7331" stop-color="#F6E1AD"/>
<stop offset="0.8531" stop-color="#EEE5CD"/>
<stop offset="0.9385" stop-color="#E8E8E8"/>
</linearGradient>
<linearGradient id="paint22_linear" x1="1120.03" y1="492.042" x2="1229.83" y2="512.677" gradientUnits="userSpaceOnUse">
<stop stop-color="#FEB12B"/>
<stop offset="0.8543" stop-color="#FEB12B"/>
<stop offset="0.9949" stop-color="#FEB12B"/>
</linearGradient>
<linearGradient id="paint23_linear" x1="1136.58" y1="510.536" x2="1149.78" y2="501.516" gradientUnits="userSpaceOnUse">
<stop offset="0.413" stop-color="#FFDC83"/>
<stop offset="0.5081" stop-color="#FEDD88"/>
<stop offset="0.6171" stop-color="#FBDE96"/>
<stop offset="0.7331" stop-color="#F6E1AD"/>
<stop offset="0.8531" stop-color="#EEE5CD"/>
<stop offset="0.9385" stop-color="#E8E8E8"/>
</linearGradient>
<linearGradient id="paint24_linear" x1="566.027" y1="851.304" x2="1034.86" y2="939.414" gradientUnits="userSpaceOnUse">
<stop stop-color="#FEB12B"/>
<stop offset="0.8543" stop-color="#FEB12B"/>
<stop offset="0.9949" stop-color="#FEB12B"/>
</linearGradient>
<linearGradient id="paint25_linear" x1="386.187" y1="1170.9" x2="466.453" y2="1187.87" gradientUnits="userSpaceOnUse">
<stop offset="0.0112" stop-color="#146072"/>
<stop offset="0.2466" stop-color="#176274"/>
<stop offset="0.4094" stop-color="#206979"/>
<stop offset="0.5503" stop-color="#2F7483"/>
<stop offset="0.6787" stop-color="#458590"/>
<stop offset="0.7976" stop-color="#6199A2"/>
<stop offset="0.9102" stop-color="#83B3B7"/>
<stop offset="0.9514" stop-color="#82B1B5"/>
<stop offset="0.9662" stop-color="#7FABAE"/>
<stop offset="0.9768" stop-color="#7A9FA3"/>
<stop offset="0.9853" stop-color="#738F92"/>
<stop offset="0.9926" stop-color="#6A7A7C"/>
<stop offset="0.999" stop-color="#5E6161"/>
<stop offset="1" stop-color="#5C5C5C"/>
</linearGradient>
<linearGradient id="paint26_linear" x1="722.87" y1="1129.07" x2="754.872" y2="1135.83" gradientUnits="userSpaceOnUse">
<stop offset="0.0112" stop-color="#063040"/>
<stop offset="0.3288" stop-color="#093645"/>
<stop offset="0.7492" stop-color="#134753"/>
<stop offset="1" stop-color="#1B545E"/>
</linearGradient>
<linearGradient id="paint27_linear" x1="601.729" y1="826.855" x2="792.844" y2="867.25" gradientUnits="userSpaceOnUse">
<stop offset="0.0112" stop-color="#146072"/>
<stop offset="0.2466" stop-color="#176274"/>
<stop offset="0.4094" stop-color="#206979"/>
<stop offset="0.5503" stop-color="#2F7483"/>
<stop offset="0.6787" stop-color="#458590"/>
<stop offset="0.7976" stop-color="#6199A2"/>
<stop offset="0.9102" stop-color="#83B3B7"/>
<stop offset="0.9514" stop-color="#82B1B5"/>
<stop offset="0.9662" stop-color="#7FABAE"/>
<stop offset="0.9768" stop-color="#7A9FA3"/>
<stop offset="0.9853" stop-color="#738F92"/>
<stop offset="0.9926" stop-color="#6A7A7C"/>
<stop offset="0.999" stop-color="#5E6161"/>
<stop offset="1" stop-color="#5C5C5C"/>
</linearGradient>
<linearGradient id="paint28_linear" x1="500.01" y1="843.875" x2="837.851" y2="915.283" gradientUnits="userSpaceOnUse">
<stop offset="0.0112" stop-color="#063040"/>
<stop offset="0.3288" stop-color="#093645"/>
<stop offset="0.7492" stop-color="#134753"/>
<stop offset="1" stop-color="#1B545E"/>
</linearGradient>
<linearGradient id="paint29_linear" x1="782.59" y1="503.55" x2="718.184" y2="545.48" gradientUnits="userSpaceOnUse">
<stop offset="0.0112" stop-color="#146072"/>
<stop offset="0.2466" stop-color="#176274"/>
<stop offset="0.4094" stop-color="#206979"/>
<stop offset="0.5503" stop-color="#2F7483"/>
<stop offset="0.6787" stop-color="#458590"/>
<stop offset="0.7976" stop-color="#6199A2"/>
<stop offset="0.9102" stop-color="#83B3B7"/>
<stop offset="0.9514" stop-color="#82B1B5"/>
<stop offset="0.9662" stop-color="#7FABAE"/>
<stop offset="0.9768" stop-color="#7A9FA3"/>
<stop offset="0.9853" stop-color="#738F92"/>
<stop offset="0.9926" stop-color="#6A7A7C"/>
<stop offset="0.999" stop-color="#5E6161"/>
<stop offset="1" stop-color="#5C5C5C"/>
</linearGradient>
<linearGradient id="paint30_linear" x1="572.775" y1="242.718" x2="546.467" y2="162.065" gradientUnits="userSpaceOnUse">
<stop offset="0.0112" stop-color="#146072"/>
<stop offset="0.4686" stop-color="#4F8C96"/>
<stop offset="0.8172" stop-color="#75A8AE"/>
<stop offset="1" stop-color="#5C5C5C"/>
</linearGradient>
<linearGradient id="paint31_linear" x1="966.94" y1="711.554" x2="1024.64" y2="699.462" gradientUnits="userSpaceOnUse">
<stop offset="0.0112" stop-color="#146072"/>
<stop offset="0.4686" stop-color="#4F8C96"/>
<stop offset="0.8172" stop-color="#75A8AE"/>
<stop offset="1" stop-color="#5C5C5C"/>
</linearGradient>
<linearGradient id="paint32_linear" x1="782.87" y1="390.341" x2="841.573" y2="351.997" gradientUnits="userSpaceOnUse">
<stop offset="0.0112" stop-color="#146072"/>
<stop offset="0.0116" stop-color="#146072"/>
<stop offset="0.0833" stop-color="#367A87"/>
<stop offset="0.1592" stop-color="#528E99"/>
<stop offset="0.2412" stop-color="#689FA6"/>
<stop offset="0.3312" stop-color="#77AAB0"/>
<stop offset="0.4354" stop-color="#80B1B5"/>
<stop offset="0.5862" stop-color="#83B3B7"/>
<stop offset="0.7759" stop-color="#82B1B5"/>
<stop offset="0.8442" stop-color="#7FABAE"/>
<stop offset="0.8929" stop-color="#7A9FA3"/>
<stop offset="0.9322" stop-color="#738F92"/>
<stop offset="0.966" stop-color="#6A7A7C"/>
<stop offset="0.9953" stop-color="#5E6161"/>
<stop offset="1" stop-color="#5C5C5C"/>
</linearGradient>
<linearGradient id="paint33_linear" x1="744.547" y1="348.862" x2="822.867" y2="279.591" gradientUnits="userSpaceOnUse">
<stop offset="0.0112" stop-color="#146072"/>
<stop offset="0.2772" stop-color="#4F8C96"/>
<stop offset="0.4799" stop-color="#75A8AE"/>
<stop offset="0.5862" stop-color="#83B3B7"/>
<stop offset="0.7759" stop-color="#82B1B5"/>
<stop offset="0.8442" stop-color="#7FABAE"/>
<stop offset="0.8929" stop-color="#7A9FA3"/>
<stop offset="0.9322" stop-color="#738F92"/>
<stop offset="0.966" stop-color="#6A7A7C"/>
<stop offset="0.9953" stop-color="#5E6161"/>
<stop offset="1" stop-color="#5C5C5C"/>
</linearGradient>
<linearGradient id="paint34_linear" x1="800.922" y1="358.739" x2="927.226" y2="320.777" gradientUnits="userSpaceOnUse">
<stop offset="0.0112" stop-color="#063040"/>
<stop offset="0.3288" stop-color="#093645"/>
<stop offset="0.7492" stop-color="#134753"/>
<stop offset="1" stop-color="#1B545E"/>
</linearGradient>
<linearGradient id="paint35_linear" x1="575.109" y1="161.837" x2="581.265" y2="132.71" gradientUnits="userSpaceOnUse">
<stop stop-color="#FEB12B"/>
<stop offset="0.2132" stop-color="#FEB22F"/>
<stop offset="0.4325" stop-color="#FDB53B"/>
<stop offset="0.6546" stop-color="#FBB950"/>
<stop offset="0.8772" stop-color="#F9C06D"/>
<stop offset="0.9949" stop-color="#F7C47F"/>
</linearGradient>
<linearGradient id="paint36_linear" x1="611.62" y1="1.32953" x2="581.915" y2="141.869" gradientUnits="userSpaceOnUse">
<stop stop-color="#FEB12B"/>
<stop offset="0.3422" stop-color="#FEAF2B"/>
<stop offset="0.4933" stop-color="#FEA82B"/>
<stop offset="0.6069" stop-color="#FE9B2A"/>
<stop offset="0.7017" stop-color="#FD892A"/>
<stop offset="0.7847" stop-color="#FD7229"/>
<stop offset="0.8596" stop-color="#FC5529"/>
<stop offset="0.9273" stop-color="#FC3328"/>
<stop offset="0.9895" stop-color="#FB0D27"/>
<stop offset="0.9949" stop-color="#FB0927"/>
</linearGradient>
<linearGradient id="paint37_linear" x1="586.178" y1="112.352" x2="600.086" y2="46.5499" gradientUnits="userSpaceOnUse">
<stop stop-color="#E27144"/>
<stop offset="0.3363" stop-color="#E98F51"/>
<stop offset="0.7595" stop-color="#F1AE5F"/>
<stop offset="0.9949" stop-color="#F4BA64"/>
</linearGradient>
</defs>
</svg>
