<svg width="551" height="911" viewBox="0 0 551 911" fill="none" xmlns="http://www.w3.org/2000/svg">
<path d="M466.608 851.187C467.877 856.055 470.3 863.115 475.215 870.494C478.741 875.786 482.555 879.387 490.037 886.371C500.181 895.837 505.252 900.571 512.819 904.192C520.283 907.763 527.324 909.125 532.681 909.651C541.264 911.031 548.563 909.007 550.119 905.06C552.219 899.729 543.448 891.924 540.348 889.169C535.296 884.671 530.528 882.471 529.892 882.172C522.688 878.797 510.417 868.627 488.299 838.153C481.067 842.497 473.839 846.844 466.608 851.187" fill="url(#paint0_linear)"/>
<path d="M225.331 780.3C215.595 784.611 215.017 800.716 214.973 802.52C225.391 824.74 231.671 840.436 235.713 852.457C235.713 852.457 239.624 864.081 250.996 879.781C253.663 883.465 256.908 887.527 258.804 886.735C260.265 886.121 260.745 883.115 260.4 879.833C255.365 856.904 250.332 833.979 245.297 811.049C239.745 800.492 234.195 789.933 228.644 779.373C227.376 779.545 226.281 779.88 225.331 780.3Z" fill="url(#paint1_linear)"/>
<path d="M146.292 394.02L275.633 581.926L227.477 778.151C227.301 781.563 227.197 792.181 234.512 801.785C238.172 806.595 242.397 809.451 245.297 811.049L354.431 563.16L224.577 383.585L146.292 394.02Z" fill="url(#paint2_linear)"/>
<path d="M131.536 355.267C120.109 368.996 100.247 397.215 104.725 429.739C109.059 461.202 134.249 479.992 161.625 501.908C219.887 548.552 270.475 587.713 311.259 618.759C329.259 656.053 351.933 697.435 380.515 740.826C411.3 787.568 442.705 827.174 471.801 860.048C473.917 861.662 477.16 863.745 481.499 865.241C486.683 867.028 491.229 867.212 494.115 867.103C497.832 867.218 501.075 864.976 502.048 861.804C503.147 858.213 500.808 855.157 500.581 854.872C417.421 704.044 358.707 597.087 350.048 579.551C346.995 573.368 343.007 566.371 337.796 559.055C331.323 549.971 324.643 542.755 318.767 537.2C302.052 517.497 284.453 497.447 265.939 477.147C248.257 457.764 230.731 439.236 213.444 421.548L183.489 404.037L213.257 414.947L227.143 395.719L216.957 419.598C222.256 425.036 276.344 480.579 301.833 508.49C309.371 516.742 313.14 520.87 314.847 522.939C327.875 538.751 331.599 547.748 343.705 556.673C348.14 559.945 352.101 562.03 354.431 563.16C356.763 557.536 359.095 551.915 361.428 546.291C362.488 542.838 363.324 538.803 363.529 534.277C364.287 517.775 351.624 499.208 349.708 496.559C336.407 478.161 298.144 436.632 243.223 385.378C242.072 384.304 239.985 381.908 238.108 378.312C233.356 369.207 234.156 359.216 235.899 351.611C201.112 352.829 166.325 354.05 131.536 355.267" fill="url(#paint3_linear)"/>
<path d="M246.22 200.659C255.266 209.924 265.822 223.972 265.599 241C265.411 255.389 257.619 264.669 251.407 275.611C242.731 290.892 234.006 314.928 235.912 352.217C229.795 358.013 218.74 366.745 202.762 370.993C166.326 380.679 135.988 358.615 131.536 355.265C134.764 321.992 137.992 288.717 141.22 255.443L246.22 200.659Z" fill="#0D5060"/>
<path d="M221.527 275.588C213.575 280.699 202.62 285.589 194.241 298.556C187.276 309.339 188.107 316.396 183.955 326.987C179.775 337.651 170.568 351.833 147.844 364.945C155.313 368.083 186.673 380.275 217.072 365.535C224.977 361.703 231.177 356.846 235.911 352.219C235.061 315.527 243.579 293.283 251.799 279.603C255.987 272.635 265.141 259.493 265.599 240.999C265.832 231.541 263.716 223.731 261.893 218.621C250.051 251.865 234.148 267.48 221.527 275.588" fill="url(#paint4_linear)"/>
<path d="M404.769 14.6002C393.523 22.1242 375.656 30.3329 347.312 31.8729C347.221 31.8863 345.995 32.0625 345.473 33.1692C345.107 33.9398 345.317 34.6668 345.375 34.8495C349.688 40.9788 354.003 47.1095 358.315 53.2388L382.003 48.233L409.004 41.7707C415.327 39.0761 421.649 36.384 427.971 33.688C429.955 32.3827 434.716 28.8615 437.487 22.3215C441.003 14.0188 438.895 6.53974 438.248 4.50641C437.819 3.42907 437.035 1.96511 435.545 1.00511C434.465 0.307772 433.208 -0.000103312 431.82 -0.000103312C424.088 -0.000103312 412.312 9.55616 404.769 14.6002" fill="url(#paint5_linear)"/>
<path d="M431.957 30.4308C421.845 34.6214 410.581 38.6361 398.208 42.0908C392.901 43.5721 387.734 44.8548 382.732 45.9654C380.014 46.7401 363.853 51.0948 351.645 41.6708C348.93 39.5761 346.9 37.1748 345.374 34.8481C346.304 49.2374 347.233 63.6267 348.161 78.0174L369.604 79.5201C369.53 78.9321 369.456 78.3454 369.382 77.7574C369.841 63.1321 374.34 56.0748 379.124 52.4614C380.298 51.5748 381.292 51.0441 395.596 46.8668C410.673 42.4641 414.536 41.6041 420.118 38.6668C423.029 37.1348 427.277 34.5814 431.957 30.4308Z" fill="#0D5060"/>
<path d="M37.8266 426.252C30.5293 433.543 -6.22273 470.759 0.914609 482.785C2.90794 486.151 9.50526 489.511 16.2173 489.498C21.5266 489.484 25.6346 487.371 27.7373 486.071C37.4346 474.023 47.1333 461.977 56.8306 449.931L63.1466 426.548L57.4746 417.512C46.2839 416.267 35.0933 415.02 23.9053 413.774C28.5453 417.934 33.1879 422.092 37.8266 426.252Z" fill="url(#paint6_linear)"/>
<path d="M372.54 76.6376L345.268 72.8949C334.53 141.832 311.396 166.406 290.879 175.376C265.043 186.674 248.735 170.876 205.251 181.614C194.544 184.258 155.778 194.338 127.786 226.143C105.295 251.696 106.823 271.883 87.1245 327.072C76.6818 356.33 63.6752 385.898 47.6339 415.55C51.7605 427.579 55.8872 439.608 60.0125 451.636C73.7085 435.786 93.6152 410.296 111.822 375.502C132.427 336.127 128.606 327.351 146.082 303.078C176.557 260.748 220.745 242.194 240.186 234.3C277.249 219.251 285.699 226.358 306.472 215.379C332.514 201.618 362.207 167.743 372.54 76.6376Z" fill="#1F3341"/>
<path d="M193.595 183.414L217.755 179.101C219.18 179.1 224.716 179.233 226.972 182.848C229.056 186.185 227.198 190.648 226.44 192.466C220.35 207.098 177.039 220.158 152.562 233.43C138.472 241.07 119.508 254.806 101.616 281.39C103.923 269.749 110.14 246.744 128.666 224.6C152.578 196.016 182.292 186.441 193.595 183.414Z" fill="#0D5060"/>
<path d="M161.716 191.193C166.739 198.255 174.753 202.081 182.516 200.95C188.856 200.028 192.945 196.1 194.431 194.51L197.479 163.235L187.74 154.28L156.327 141.304C158.125 157.933 159.92 174.563 161.716 191.193Z" fill="url(#paint7_linear)"/>
<path d="M173.728 80.8001L161.971 149.557C164.908 151.991 167.841 154.423 170.776 156.856C172.827 158.539 197.267 178.172 213.761 170.415C230.179 162.695 238.245 128.075 218.915 89.2696L200.743 67.9017L173.728 80.8001Z" fill="url(#paint8_linear)"/>
<path d="M164.191 54.48C153.824 55.3813 141.559 60.6934 132.939 70.6454C124.713 80.1374 122.595 90.7987 121.327 97.5907C117.191 119.789 125.829 130.78 118.859 137.238C115.757 140.11 111.908 139.919 107.512 139.732C102.841 139.532 97.552 139.332 91.8973 142.802C85.0066 147.028 81.7426 154.14 80.1199 158.928C78.8586 161.669 76.636 165.335 72.6733 167.746C68.4906 170.287 64.6866 170.02 61.1586 169.752C58.2293 169.528 55.4906 169.306 52.8786 170.687C44.1493 175.304 42.7186 194.721 48.0853 208.532C56.1266 229.22 78.6346 235.316 81.6799 236.089C86.1439 237.341 121.727 246.72 149.42 224.504C160.491 215.623 166.295 204.907 169.277 197.854C171.196 193.318 171.396 189.489 171.736 186.953C174.773 164.367 163.856 158.43 166.237 140.718C168.044 127.263 174.961 126.203 176.343 110.147C177.089 101.445 175.716 94.1217 174.389 89.1897C176.867 86.411 179.403 84.6591 181.579 83.5191C197.692 75.0937 217.376 88.1013 219.12 89.2867C207.564 67.8427 187.801 54.3179 167.94 54.3192C166.689 54.3192 165.44 54.372 164.191 54.48" fill="url(#paint9_linear)"/>
<defs>
<linearGradient id="paint0_linear" x1="543.124" y1="868.068" x2="473.295" y2="882.827" gradientUnits="userSpaceOnUse">
<stop stop-color="#146072"/>
<stop offset="0.0111732" stop-color="#146072"/>
<stop offset="0.582605" stop-color="#146072"/>
<stop offset="0.910217" stop-color="#83B3B7"/>
<stop offset="0.981961" stop-color="#83B3B7"/>
<stop offset="1" stop-color="#7F7F7E"/>
</linearGradient>
<linearGradient id="paint1_linear" x1="250.221" y1="831.674" x2="222.38" y2="837.558" gradientUnits="userSpaceOnUse">
<stop stop-color="#063040"/>
<stop offset="0.0111732" stop-color="#063040"/>
<stop offset="0.37862" stop-color="#063040"/>
<stop offset="1" stop-color="#1B545E"/>
</linearGradient>
<linearGradient id="paint2_linear" x1="355.613" y1="568.756" x2="189.348" y2="603.896" gradientUnits="userSpaceOnUse">
<stop stop-color="#146072"/>
<stop offset="0.0111732" stop-color="#146072"/>
<stop offset="0.582605" stop-color="#146072"/>
<stop offset="0.910217" stop-color="#83B3B7"/>
<stop offset="0.981961" stop-color="#83B3B7"/>
<stop offset="1" stop-color="#7F7F7E"/>
</linearGradient>
<linearGradient id="paint3_linear" x1="444.106" y1="583.565" x2="150.193" y2="645.684" gradientUnits="userSpaceOnUse">
<stop stop-color="#063040"/>
<stop offset="0.0111732" stop-color="#063040"/>
<stop offset="0.37862" stop-color="#063040"/>
<stop offset="1" stop-color="#1B545E"/>
</linearGradient>
<linearGradient id="paint4_linear" x1="198.273" y1="287.489" x2="254.304" y2="323.968" gradientUnits="userSpaceOnUse">
<stop stop-color="#146072"/>
<stop offset="0.0111732" stop-color="#146072"/>
<stop offset="0.582605" stop-color="#146072"/>
<stop offset="0.910217" stop-color="#83B3B7"/>
<stop offset="0.981961" stop-color="#83B3B7"/>
<stop offset="1" stop-color="#7F7F7E"/>
</linearGradient>
<linearGradient id="paint5_linear" x1="380.809" y1="60.575" x2="403.697" y2="-9.59113" gradientUnits="userSpaceOnUse">
<stop stop-color="#146072"/>
<stop offset="0.0111732" stop-color="#146072"/>
<stop offset="0.829738" stop-color="#83B3B7"/>
<stop offset="1" stop-color="#83B3B7"/>
</linearGradient>
<linearGradient id="paint6_linear" x1="56.5831" y1="457.877" x2="6.3826" y2="447.357" gradientUnits="userSpaceOnUse">
<stop stop-color="#146072"/>
<stop offset="0.0111732" stop-color="#146072"/>
<stop offset="0.829738" stop-color="#83B3B7"/>
<stop offset="1" stop-color="#83B3B7"/>
</linearGradient>
<linearGradient id="paint7_linear" x1="198.03" y1="189" x2="146.961" y2="155.642" gradientUnits="userSpaceOnUse">
<stop stop-color="#146072"/>
<stop offset="0.0111732" stop-color="#146072"/>
<stop offset="0.22036" stop-color="#83B3B7"/>
<stop offset="0.586195" stop-color="#83B3B7"/>
<stop offset="0.916861" stop-color="#83B3B7"/>
<stop offset="1" stop-color="#7F7F7E"/>
</linearGradient>
<linearGradient id="paint8_linear" x1="231.357" y1="152.949" x2="163.217" y2="92.6835" gradientUnits="userSpaceOnUse">
<stop stop-color="#146072"/>
<stop offset="0.0111732" stop-color="#146072"/>
<stop offset="0.487185" stop-color="#83B3B7"/>
<stop offset="0.586195" stop-color="#83B3B7"/>
<stop offset="0.916861" stop-color="#83B3B7"/>
<stop offset="1" stop-color="#7F7F7E"/>
</linearGradient>
<linearGradient id="paint9_linear" x1="182.326" y1="161.507" x2="72.4461" y2="128.48" gradientUnits="userSpaceOnUse">
<stop stop-color="#063040"/>
<stop offset="0.0111732" stop-color="#063040"/>
<stop offset="0.37862" stop-color="#063040"/>
<stop offset="1" stop-color="#1B545E"/>
</linearGradient>
</defs>
</svg>
