<svg width="142" height="121" viewBox="0 0 142 121" fill="none" xmlns="http://www.w3.org/2000/svg">
<g clip-path="url(#clip0)">
<path d="M38.6624 112.54C41.5517 114.588 46.773 117.742 54.0356 119.305C61.453 120.9 67.633 120.111 71.125 119.4C73.085 113.511 75.0476 107.625 77.0076 101.736L39.7264 93.8557L38.6624 112.54Z" fill="url(#paint0_linear)"/>
<path d="M25.405 36.4887C18.857 62.1513 38.1196 82.4676 39.2689 83.6436C39.4409 87.4223 39.6076 91.1996 39.7782 94.977C42.1356 97.257 47.365 101.686 55.4063 103.781C65.2956 106.354 73.4464 103.841 76.481 102.735C78.2624 99.3674 80.041 96.0018 81.8223 92.6352C84.0343 91.9698 108.908 84.0623 115.804 60.8663C123.026 36.5876 107.453 6.00879 79.7009 0.762123C76.9769 0.246123 74.2676 0.000403775 71.5956 0.000403775C49.8569 0.000403775 30.5583 16.2927 25.405 36.4887" fill="url(#paint1_linear)"/>
<path d="M55.3997 11.6644C60.4357 8.50705 68.9584 4.47505 78.5931 6.01505C95.7704 8.76039 110.493 28.2644 111.261 54.175C107.666 46.699 97.6304 28.5564 76.4784 18.1817C68.6744 14.3551 61.3064 12.5391 55.3997 11.6644Z" fill="#F7C47F"/>
<path d="M55.5379 81.1217C57.3605 81.1017 59.6672 81.2364 62.2725 81.7817C64.9445 82.3391 67.1579 83.1657 68.8432 83.9337C67.9685 88.0764 67.0925 92.2204 66.2179 96.3631C64.7525 96.6324 62.2965 96.8964 59.3579 96.2884C56.3432 95.6644 54.1512 94.3977 52.9099 93.5511C53.7872 89.4071 54.6619 85.2644 55.5379 81.1217Z" fill="#E27144"/>
<path d="M63.2157 39.7262C62.3703 42.9742 63.9091 46.559 67.0464 48.3577L59.861 82.3433L64.249 83.2698L71.4317 49.2861C74.781 48.8341 77.4731 46.4845 78.1825 43.4618C79.0958 39.5645 76.5305 35.3221 72.4331 34.3407C71.8465 34.2007 71.2545 34.1324 70.6691 34.1324C67.2691 34.1324 64.085 36.4022 63.2157 39.7262" fill="url(#paint2_linear)"/>
<path d="M40.2343 110.884C43.269 112.745 48.2103 115.272 54.7703 116.552C60.665 117.704 65.6783 117.425 69.041 116.972C70.221 113.797 71.401 110.622 72.5823 107.448C70.3276 108.772 67.5756 110.09 64.3263 111.088C53.9916 114.26 44.8383 112.27 40.2343 110.884Z" fill="#F4A64A"/>
<path d="M117.905 82.8554C130.234 86.3861 139.62 84.4207 141.18 80.2314C142.796 75.8927 135.906 69.4927 134.932 68.6034C129.256 73.3541 123.58 78.1047 117.905 82.8554Z" fill="#FFDB94"/>
<path d="M137.413 22.915C133.963 25.731 132.666 28.4697 132.099 30.3003C128.538 41.7617 143.31 50.351 141.242 65.7563C141.023 67.3897 140.393 71.6937 137.271 75.687C129.974 85.0163 115.934 83.875 113.811 83.6723C125.594 75.303 129.061 67.4137 129.981 61.6337C132.178 47.8097 121.283 36.727 126.697 28.5217C129.206 24.719 133.971 23.427 137.413 22.915Z" fill="#FCB454"/>
<path d="M23.5377 13.8689C11.2084 10.3382 1.82305 12.3035 0.263048 16.4929C-1.35295 20.8315 5.53638 27.2315 6.51105 28.1208C12.187 23.3702 17.8617 18.6195 23.5377 13.8689Z" fill="#FFDB94"/>
<path d="M4.02995 73.8091C7.47928 70.9931 8.77528 68.2544 9.34328 66.4237C12.9033 54.9624 -1.86739 46.3731 0.199281 30.9677C0.417947 29.3344 1.04995 25.0304 4.17128 21.0371C11.4686 11.7077 25.5086 12.8491 27.6313 13.0517C15.8473 21.4211 12.3819 29.3104 11.4619 35.0904C9.26328 48.9144 20.1593 59.9971 14.7446 68.2024C12.2353 72.0051 7.47128 73.2971 4.02995 73.8091Z" fill="#FCB454"/>
</g>
<defs>
<linearGradient id="paint0_linear" x1="53.8312" y1="119.262" x2="58.3681" y2="97.7958" gradientUnits="userSpaceOnUse">
<stop stop-color="#FEB12B"/>
<stop offset="0.486131" stop-color="#FEB12B"/>
<stop offset="0.994924" stop-color="#F7C47F"/>
<stop offset="1" stop-color="#F7C47F"/>
</linearGradient>
<linearGradient id="paint1_linear" x1="80.7375" y1="0.969474" x2="58.8464" y2="104.545" gradientUnits="userSpaceOnUse">
<stop stop-color="#FEB12B"/>
<stop offset="0.753085" stop-color="#FEB12B"/>
<stop offset="0.994924" stop-color="#FB0927"/>
<stop offset="1" stop-color="#FB0927"/>
</linearGradient>
<linearGradient id="paint2_linear" x1="61.9888" y1="82.7912" x2="72.2383" y2="34.2962" gradientUnits="userSpaceOnUse">
<stop stop-color="#E27144"/>
<stop offset="0.791349" stop-color="#F4BA64"/>
<stop offset="0.994924" stop-color="#F4BA64"/>
<stop offset="1" stop-color="#F4BA64"/>
</linearGradient>
<clipPath id="clip0">
<rect width="141.442" height="120.235" fill="white"/>
</clipPath>
</defs>
</svg>
