<?xml version="1.0" encoding="utf-8"?>
<!-- Generator: Adobe Illustrator 24.0.1, SVG Export Plug-In . SVG Version: 6.00 Build 0)  -->
<svg version="1.1" id="Layer_1" xmlns="http://www.w3.org/2000/svg" xmlns:xlink="http://www.w3.org/1999/xlink" x="0px" y="0px"
	 viewBox="0 0 2480 1655" style="enable-background:new 0 0 2480 1655;" xml:space="preserve">
<style type="text/css">
	.st0{fill:#99B876;}
	.st1{fill:#7B9650;}
	.st2{fill:#B0C98F;}
	.st3{fill:#88A562;}
	.st4{opacity:0.5;fill:#CCCCCC;}
	.st5{fill:#FF5757;}
	.st6{fill:#F70D29;}
	.st7{fill:#D8252C;}
	.st8{fill:url(#SVGID_1_);}
	.st9{fill:url(#SVGID_2_);}
	.st10{fill:url(#SVGID_3_);}
	.st11{fill:#FC4949;}
	.st12{fill:url(#SVGID_4_);}
	.st13{fill:url(#SVGID_5_);}
	.st14{fill:url(#SVGID_6_);}
	.st15{fill:#0D5060;}
	.st16{fill:#E29320;}
	.st17{fill:url(#SVGID_7_);}
	.st18{fill:url(#SVGID_8_);}
	.st19{fill:url(#SVGID_9_);}
	.st20{fill:#FFC255;}
	.st21{fill:url(#SVGID_10_);}
	.st22{fill:#FCB94C;}
	.st23{fill:#E9AB3B;}
	.st24{fill:url(#SVGID_11_);}
	.st25{fill:url(#SVGID_12_);}
	.st26{fill:url(#SVGID_13_);}
	.st27{fill:url(#SVGID_14_);}
	.st28{fill:url(#SVGID_15_);}
	.st29{fill:#063040;}
	.st30{fill:#FF7878;}
	.st31{fill:url(#SVGID_16_);}
	.st32{fill:url(#SVGID_17_);}
	.st33{fill:url(#SVGID_18_);}
	.st34{fill:url(#SVGID_19_);}
	.st35{fill:url(#SVGID_20_);}
	.st36{fill:url(#SVGID_21_);}
	.st37{fill:url(#SVGID_22_);}
	.st38{fill:#1F3341;}
	.st39{fill:url(#SVGID_23_);}
	.st40{fill:url(#SVGID_24_);}
	.st41{fill:url(#SVGID_25_);}
	.st42{fill:#F4A64A;}
	.st43{fill:url(#SVGID_26_);}
	.st44{fill:url(#SVGID_27_);}
	.st45{fill:#F7C47F;}
	.st46{fill:#E27144;}
	.st47{fill:url(#SVGID_28_);}
	.st48{fill:#FFDB94;}
	.st49{fill:#FCB454;}
	.st50{fill:url(#SVGID_29_);}
	.st51{fill:url(#SVGID_30_);}
	.st52{fill:url(#SVGID_31_);}
	.st53{fill:url(#SVGID_32_);}
	.st54{fill:url(#SVGID_33_);}
	.st55{fill:url(#SVGID_34_);}
	.st56{fill:url(#SVGID_35_);}
	.st57{fill:url(#SVGID_36_);}
	.st58{fill:url(#SVGID_37_);}
</style>
<g id="landing_page">
	<path class="st0" d="M1174.3,1332.8c301.6,2.8,533.3-224.5,512.3-252.4c-17.8-23.6-208.1,107.6-512.3,105.2
		c-297.9-2.4-481.1-131.1-499.1-107.8C653.8,1105.4,877.2,1330.1,1174.3,1332.8z"/>
	<path class="st1" d="M1472,1145.3c21.8-6.5,55.4-16.8,96-30.8c78-26.8,109.7-42.1,118.6-34.1c11.2,10-23.4,48.4-33.7,59.8
		c-25,27.8-52.4,46.2-71.4,57.3c-23.6,14.2-55.6,15.2-79.7,2.5C1479.6,1188.3,1467.9,1166.9,1472,1145.3z"/>
	<path class="st2" d="M755.7,1178.4c68,21.6,156.8,42.1,261.7,46.9c188.5,8.7,339.4-37.4,429.5-73.3c13.1,34.2,26.2,68.5,39.3,102.7
		c-56.1,30-163.9,77.5-305.3,78.1C956.9,1333.9,802.2,1216.6,755.7,1178.4z"/>
	<path class="st3" d="M1348.5,1309.5c76.1-43.6,92-76.5,91.8-98.9c-0.1-13.9-6.7-53.2,12-60c0,0,0,0,0,0c2.4-0.9,5.9-2,10.1-3.1
		c3.6-1,7.7-2.1,9.5-2.1c11-0.5,14.6,33.8,34,48.1c10.8,8,31.7,13.7,75.6,4.1c-20.2,14.3-43.2,28.9-69.2,43.3
		C1453.5,1273.5,1396.6,1295,1348.5,1309.5z"/>
	<ellipse class="st4" cx="1180.9" cy="1437.6" rx="485" ry="49"/>
	<path class="st5" d="M955.3,966.3l129.3,32c16.9,0.2,33.8,0.5,50.7,0.7c1-6.7,2.6-16.7,5-28.8c2.7-13.8,3.3-14.3,2.9-16.6
		c-3.1-15.9-38.2-19.2-74.5-28.9c-17.4-4.7-42.5-12.8-72.1-27.8C982.8,920,969.1,943.1,955.3,966.3z"/>
	<path class="st5" d="M1309.3,1191.6c0.4,4.6,1.5,11.4,5,18.8c2.2,4.8,4.8,8.6,7.1,11.4c9.8,1.5,20.8,2.6,32.7,2.9
		c17.4,0.5,33-0.7,46.3-2.6c13.8-1.9,23-6.1,23.3-10.8c0.1-1.1-0.4-3.2-4.2-6c-23.4-7.6-46.9-15.2-70.3-22.8
		C1335.9,1185.4,1322.6,1188.5,1309.3,1191.6z"/>
	<path class="st6" d="M1102.9,1168.1c15.3,29.2,30.7,58.4,46,87.6c3,3.3,3.1,8.2,0.5,11.1c-2,2.4-5.5,3.3-8.7,2.3
		c-11.3-5.2-27.8-14.4-44.2-30.1c-15.9-15.3-25.6-30.9-31.2-41.9c-0.3-3.5-0.4-10.1,2.6-17.5c2.5-6.1,6-10.3,8.4-12.7
		C1085.1,1167.3,1094,1167.7,1102.9,1168.1z"/>
	<path class="st7" d="M888.3,1010.7c140.2,66.5,412,193.6,444.9,191.6c1-0.1,21.2-1.3,22.5-7.8c0,0,0.3-1.6-6.5-12.1l-427-242.2
		L888.3,1010.7z"/>
	<path class="st5" d="M1143.2,953.6c-12.9,74.6-25.8,149.2-38.7,223.8c-1.3,9-8.6,15.6-16.8,15.7c-6.5,0.1-12.7-3.9-15.8-10.2
		c0.8-71.6,1.5-143.3,2.3-214.9C1097.2,963.2,1120.2,958.4,1143.2,953.6z"/>
	
		<linearGradient id="SVGID_1_" gradientUnits="userSpaceOnUse" x1="759.5656" y1="889.0689" x2="1058.3019" y2="889.0689" gradientTransform="matrix(0.9858 -0.1676 0.1676 0.9858 -136.4921 161.0845)">
		<stop  offset="0" style="stop-color:#FB0927"/>
		<stop  offset="0.1614" style="stop-color:#FD3240"/>
		<stop  offset="0.2956" style="stop-color:#FE4D51"/>
		<stop  offset="0.3743" style="stop-color:#FF5757"/>
		<stop  offset="0.4372" style="stop-color:#FF6060"/>
		<stop  offset="0.6364" style="stop-color:#FF7979"/>
		<stop  offset="0.8192" style="stop-color:#FF8888"/>
		<stop  offset="0.9693" style="stop-color:#FF8D8D"/>
	</linearGradient>
	<path class="st8" d="M742.9,801.9c22,52.7,53.1,114.2,97.5,178.3c25.1,36.2,50.6,67.7,75.1,94.8c7.7-5.5,19-14.7,29.8-28.5
		c23.2-29.8,23.3-55.2,34.3-78.8c9.5-20.5,30.7-47,83-67.5c-32.2-5.4-71.6-18-101.9-49.1c-55.2-56.6-48.2-141.3-87.2-149
		c-9-1.8-22.2,0.2-40.8,16.6C802.8,746.4,772.9,774.1,742.9,801.9z"/>
	<path class="st7" d="M737.6,613.5c-0.4-2.2-2.7-3.1-8.5-8c-6.1-5-10.5-9.6-13.4-12.8c-2.5-10.2-5-20.5-7.5-30.7
		c-10.4,7.2-24.9,19.3-37.9,37.8c-17.9,25.7-23.7,51-25.8,65.1c8-0.4,16.1-0.8,24.1-1.2c5,8.3,19.8,30.3,47.4,38.9
		c8.1,2.5,15.6,3.4,21.8,3.5c-0.3-1.6-2.3-12-12.2-18c-8.7-5.2-17.4-3.5-19.3-3.1c-1-6.5-0.5-10.3,1.5-11.5
		c3.8-2.2,13.1,4.8,27.8,21.2c-9.6-19.4-19.3-38.8-28.9-58.2C733.3,624.2,738.4,617.4,737.6,613.5z"/>
	
		<linearGradient id="SVGID_2_" gradientUnits="userSpaceOnUse" x1="595.7447" y1="855.3847" x2="557.3096" y2="788.8131" gradientTransform="matrix(0.6692 -0.7431 0.7431 0.6692 -476.4984 704.5357)">
		<stop  offset="0" style="stop-color:#FB0927"/>
		<stop  offset="0.1614" style="stop-color:#FD3240"/>
		<stop  offset="0.2956" style="stop-color:#FE4D51"/>
		<stop  offset="0.3743" style="stop-color:#FF5757"/>
		<stop  offset="0.4372" style="stop-color:#FF6060"/>
		<stop  offset="0.6364" style="stop-color:#FF7979"/>
		<stop  offset="0.8192" style="stop-color:#FF8888"/>
		<stop  offset="0.9693" style="stop-color:#FF8D8D"/>
	</linearGradient>
	<path class="st9" d="M509,862.7c-2.2,1.1-7.9,3.6-15.2,2.6c-9.3-1.2-15-7-16.5-8.6c-0.7-0.9-1.7-2.4-1.7-4.3
		c-0.4-8.8,18.3-15.7,28.3-20.6c12.7-6.2,29.4-18,45.6-42.8c0.1-0.1,0.9-1.1,2.1-1c0.9,0.1,1.4,0.6,1.6,0.8
		c3.3,7.1,6.5,14.2,9.8,21.3l-16.9,18.7l-19.9,21C520.4,854.1,514.7,858.4,509,862.7"/>
	<path class="st5" d="M503.9,864.6c9.1-6.9,18.6-15,28.1-24.3c4.1-4,8-8,11.6-11.9c2.1-2,14.5-14.3,12.4-30.3
		c-0.5-3.5-1.6-6.6-2.9-9.2c12.5,8.3,25,16.7,37.5,25l-9.8,20.1c-0.5-0.4-1-0.7-1.5-1.1c-13.4-7.2-22.1-6.8-27.9-4.4
		c-1.4,0.6-2.4,1.2-13.6,11.9c-11.8,11.3-14.6,14.3-20.2,17.8C514.6,860,510.1,862.5,503.9,864.6z"/>
	
		<linearGradient id="SVGID_3_" gradientUnits="userSpaceOnUse" x1="973.6423" y1="948.8008" x2="1030.2086" y2="948.8008" gradientTransform="matrix(0.2955 -0.897 0.9498 0.3129 -84.4033 1314.446)">
		<stop  offset="0.3743" style="stop-color:#FF5757"/>
		<stop  offset="0.4372" style="stop-color:#FF6060"/>
		<stop  offset="0.6364" style="stop-color:#FF7979"/>
		<stop  offset="0.8192" style="stop-color:#FF8888"/>
		<stop  offset="0.9693" style="stop-color:#FF8D8D"/>
	</linearGradient>
	<path class="st10" d="M1067.6,717.7c4.7-10.7,9.4-21.5,14.1-32.2c1.3,6.4,2.7,12.7,4,19.1c10.4-2.8,63.1-16.5,70.2-3.8
		c2,3.6,1.6,11.3-1.9,17.3c-2.8,4.8-6.8,7.4-9.1,8.6c-15.9,2.5-31.8,4.9-47.8,7.4l-24.4-6.5L1067.6,717.7z"/>
	<path class="st11" d="M1044.6,730.2c5.2-3.3,13.9-9.9,21-20.9c6.6-10.4,8.9-20.3,9.7-26.2c1.2-4.5,2.2-5.5,2.9-5.5
		c2.3,0.1,5.4,11.2,3.9,21.2c-1.4,8.7-6,14.8-8.8,18c9.1,7.1,17,9.5,22.7,10.3c8.2,1.2,12.8-0.8,24.5-1.4
		c10.1-0.6,18.5,0.2,24.6,1.1c-11,5-25,10.1-41.6,13.7c-10.4,2.3-20.1,3.5-28.8,4.2C1064.5,739.8,1054.6,735,1044.6,730.2z"/>
	<path class="st7" d="M576.6,835.1l10.9-26.5c67.7,26.3,102,18.3,120.8,4.5c23.7-17.4,17.9-40.3,50.3-73.9c8-8.3,37.3-38,80.6-46.6
		c34.8-6.9,52.2,5,112.2,16c31.8,5.9,65.3,9.6,100.4,10.6c8.7,10,17.4,20,26.1,30c-21.4,4.1-54.8,8.7-95.7,7
		c-46.2-2-52.2-10-83.2-6.9c-54.1,5.4-93.8,35.5-111.1,48.9c-32.9,25.6-30.9,36.9-51.6,49.9C710.1,864.3,664.1,873.4,576.6,835.1z"
		/>
	<path class="st5" d="M766.2,729.6l-16.5,19.5c-0.7,1.3-3.5,6.3-1.4,10.3c1.9,3.6,6.9,4.3,8.9,4.5c16.4,2.1,50.7-30.1,75.5-45.2
		c14.2-8.7,36.5-18.6,69.8-20.9c-11.7-4-35.7-10.4-65.3-5.3C799,699.2,774.8,721,766.2,729.6z"/>
	
		<linearGradient id="SVGID_4_" gradientUnits="userSpaceOnUse" x1="955.027" y1="938.4208" x2="996.1434" y2="931.9222" gradientTransform="matrix(-0.6609 0.7505 0.9057 0.7976 563.6014 -770.7679)">
		<stop  offset="0" style="stop-color:#FB0927"/>
		<stop  offset="2.651926e-03" style="stop-color:#FB0B28"/>
		<stop  offset="4.139585e-02" style="stop-color:#FD2739"/>
		<stop  offset="8.312073e-02" style="stop-color:#FE3C46"/>
		<stop  offset="0.1294" style="stop-color:#FE4B50"/>
		<stop  offset="0.1832" style="stop-color:#FF5455"/>
		<stop  offset="0.2626" style="stop-color:#FF5757"/>
		<stop  offset="0.3805" style="stop-color:#FF6B6B"/>
		<stop  offset="0.5326" style="stop-color:#FF7E7E"/>
		<stop  offset="0.6896" style="stop-color:#FF8989"/>
		<stop  offset="0.8575" style="stop-color:#FF8D8D"/>
	</linearGradient>
	<path class="st12" d="M798.8,720.6c0,2.4-0.5,8.7-5.3,13.3c-5.9,5.7-15.8,6.7-25.7,2.8c-14.5-15.1-29.1-30.3-43.6-45.4l37.4-6
		l15.5,3L798.8,720.6z"/>
	
		<linearGradient id="SVGID_5_" gradientUnits="userSpaceOnUse" x1="868.3373" y1="872.3131" x2="938.0027" y2="802.6477" gradientTransform="matrix(-0.7637 0.6456 0.6456 0.7637 894.4821 -577.2126)">
		<stop  offset="0" style="stop-color:#FB0927"/>
		<stop  offset="0.1614" style="stop-color:#FD3240"/>
		<stop  offset="0.2956" style="stop-color:#FE4D51"/>
		<stop  offset="0.3743" style="stop-color:#FF5757"/>
		<stop  offset="0.4372" style="stop-color:#FF6060"/>
		<stop  offset="0.6364" style="stop-color:#FF7979"/>
		<stop  offset="0.8192" style="stop-color:#FF8888"/>
		<stop  offset="0.9693" style="stop-color:#FF8D8D"/>
	</linearGradient>
	<path class="st13" d="M715.7,592.7c9.4,5.4,18.9,10.8,28.3,16.2c40.3,20.4,55.1,54.3,46.2,71c-8.9,16.7-41.6,15.6-44.3,15.4
		c-4-0.2-7.9-0.4-11.9-0.6c-10.3-16.6-20.6-33.1-30.8-49.7c-2.2-3.7-4.8-9.2-5.4-16.3C696.2,608.1,713.8,594.2,715.7,592.7z"/>
	
		<linearGradient id="SVGID_6_" gradientUnits="userSpaceOnUse" x1="723.4252" y1="697.2308" x2="734.658" y2="685.9979" gradientTransform="matrix(1.3495 -0.7064 0.6427 1.2279 -711.0084 348.9781)">
		<stop  offset="8.938547e-02" style="stop-color:#FF5757"/>
		<stop  offset="0.1824" style="stop-color:#FF6060"/>
		<stop  offset="0.477" style="stop-color:#FF7979"/>
		<stop  offset="0.7474" style="stop-color:#FF8888"/>
		<stop  offset="0.9693" style="stop-color:#FF8D8D"/>
	</linearGradient>
	<path class="st14" d="M704.8,668c-4.4,7.2-4.3,15.6,0.1,20.9c5.9,7.1,18.9,8.1,28.8,0.6C724,682.3,714.4,675.2,704.8,668z"/>
	<path class="st15" d="M1942.8,729.9c-0.5-0.2-2.3-1-3.3-3c-1-1.9-0.7-3.8-0.6-4.3c14.4-29.9,28.8-59.9,43.1-89.8
		c0.6-1.2,2-3.4,4.5-4.5c2.4-1,5-0.5,6.9,0.2c22.6,9.3,45.3,18.7,67.9,28c0.3,0.1,2.9,0.7,3.9,3.1c0.6,1.4,0.4,2.7,0.2,3.3
		c-14.4,31.2-28.7,62.5-43.1,93.7c-0.1,0.4-0.7,2.7-3,4.2s-4.6,1.1-5,1C1990.5,751.2,1966.6,740.6,1942.8,729.9z"/>
	<path class="st16" d="M990,1305.5c-0.1,6.3-1,15.3-4.8,25.3c-2.3,6.2-5.1,11.2-7.7,15.1c-15.6,8.3-34.8,16.9-57.6,23.7
		c-12.9,3.8-25,6.5-36.1,8.4c-1.3,0-7.4,0.1-11-4.1c-4.4-5.2-3.7-15,3.5-22.1c10.6-7.2,21.1-14.4,31.7-21.7
		c16.5-10.7,33-21.4,49.5-32.1C968.4,1300.5,979.2,1303,990,1305.5z"/>
	
		<linearGradient id="SVGID_7_" gradientUnits="userSpaceOnUse" x1="1222.4554" y1="1327.7827" x2="1276.4612" y2="1327.7827" gradientTransform="matrix(0.9828 0.1847 -0.1847 0.9828 201.9477 -167.4661)">
		<stop  offset="0" style="stop-color:#FEB12B"/>
		<stop  offset="0.8543" style="stop-color:#FEB12B"/>
		<stop  offset="0.9949" style="stop-color:#FEB12B"/>
	</linearGradient>
	<path class="st17" d="M1186.5,1303.1c-10.5,22.7-20.7,49-29.2,78.8c-4,14.2-7.3,27.9-9.9,40.9c-1.4,2.7-1.5,5.8,0,7.9
		c2.2,3,8,3.6,12.4-0.3c8.9-10,18.2-21.6,27.5-34.8c12.1-17.3,21.6-34,29-48.9c-2.3-14.9-4.5-29.8-6.8-44.8L1186.5,1303.1z"/>
	<path class="st16" d="M1182.9,1340.4l27-14.3c9-27,17.6-57.8,24.3-92.1c9.5-48.7,12.9-92.7,13.4-130
		c69.9-34.1,139.8-68.2,209.7-102.3L1410,945l-218.5,92.8c-15,47.8-30.1,117.8-24.6,202C1169.3,1277.9,1175.5,1311.7,1182.9,1340.4z
		"/>
	
		<linearGradient id="SVGID_8_" gradientUnits="userSpaceOnUse" x1="-2750.5835" y1="-77.225" x2="-2909.8416" y2="82.0331" gradientTransform="matrix(-0.8648 -0.5021 -0.5021 0.8648 -848.9366 -522.3553)">
		<stop  offset="1.117318e-02" style="stop-color:#FCB43F"/>
		<stop  offset="0.1434" style="stop-color:#FDB845"/>
		<stop  offset="0.5359" style="stop-color:#FFC255"/>
		<stop  offset="0.7308" style="stop-color:#FCD383"/>
		<stop  offset="0.9016" style="stop-color:#F9DFA4"/>
		<stop  offset="0.9944" style="stop-color:#F8E4B1"/>
	</linearGradient>
	<path class="st18" d="M1754,853.1c-40.7-16.3-75.6-28.2-101.7-36.6c-78.7-25.1-96-23.4-110-17c-18.3,8.4-20.3,20.2-52.7,60.4
		c-21.8,27-41.8,47.6-55.7,61c20.7,23.6,42.1,51.4,62.5,83.5c7.4,11.6,14.1,23,20.3,34.2c27-7.5,47.7-18.9,63.9-31.3
		c58.4-44.7,57.4-102.8,113.9-136C1715.1,859.2,1736.3,854.7,1754,853.1z"/>
	
		<linearGradient id="SVGID_9_" gradientUnits="userSpaceOnUse" x1="-3055.6211" y1="-242.151" x2="-3096.6941" y2="-313.2918" gradientTransform="matrix(-0.8648 -0.5021 -0.5021 0.8648 -848.9366 -522.3553)">
		<stop  offset="1.117318e-02" style="stop-color:#FEB12B"/>
		<stop  offset="0.1304" style="stop-color:#FEC351"/>
		<stop  offset="0.2417" style="stop-color:#FFD16C"/>
		<stop  offset="0.3394" style="stop-color:#FFD97D"/>
		<stop  offset="0.413" style="stop-color:#FFDC83"/>
		<stop  offset="0.5157" style="stop-color:#FEDD88"/>
		<stop  offset="0.6335" style="stop-color:#FCDF96"/>
		<stop  offset="0.7514" style="stop-color:#F9E3AB"/>
	</linearGradient>
	<path class="st19" d="M1974.3,815.3c2.6,0.4,9.2,1,16.3-2.3c9.1-4.2,12.9-12,13.9-14.2c0.4-1.2,0.9-3,0.4-4.9
		c-2.4-9.1-23.8-10-35.6-11.7c-14.9-2.2-35.8-8.7-60.4-28.6c-0.1-0.1-1.2-0.8-2.5-0.3c-0.9,0.4-1.2,1.1-1.3,1.3
		c-1,8.3-2,16.6-3,24.8l23.3,13.5l27.1,14.8C1959.8,810.3,1967,812.8,1974.3,815.3"/>
	<path class="st20" d="M1980,815.6c-11.5-4.1-23.8-9.2-36.6-15.5c-5.5-2.7-10.7-5.5-15.7-8.3c-2.8-1.4-19.4-9.8-22.5-26.7
		c-0.7-3.8-0.6-7.3-0.1-10.3c-10,12.6-19.9,25.2-29.9,37.7l16.6,17.2c0.4-0.5,0.8-1.1,1.1-1.6c11.3-11.7,20.3-14.2,26.9-13.6
		c1.6,0.1,2.8,0.4,17.8,7.7c15.7,7.6,19.6,9.8,26.4,11.5C1967.6,814.4,1973,815.5,1980,815.6z"/>
	
		<linearGradient id="SVGID_10_" gradientUnits="userSpaceOnUse" x1="-2077.2297" y1="-1493.7678" x2="-2016.781" y2="-1493.7678" gradientTransform="matrix(-0.5564 -0.7631 -0.808 0.5891 -1035.061 178.4206)">
		<stop  offset="1.117318e-02" style="stop-color:#FEB12B"/>
		<stop  offset="0.1304" style="stop-color:#FEC351"/>
		<stop  offset="0.2417" style="stop-color:#FFD16C"/>
		<stop  offset="0.3394" style="stop-color:#FFD97D"/>
		<stop  offset="0.413" style="stop-color:#FFDC83"/>
		<stop  offset="0.5081" style="stop-color:#FEDD88"/>
		<stop  offset="0.6171" style="stop-color:#FBDE96"/>
		<stop  offset="0.7331" style="stop-color:#F6E1AD"/>
		<stop  offset="0.8531" style="stop-color:#EEE5CD"/>
		<stop  offset="0.9385" style="stop-color:#E8E8E8"/>
	</linearGradient>
	<path class="st21" d="M1358.5,850.9c-8.3-9.4-16.6-18.7-24.9-28.1c0.7,6.9,1.5,13.8,2.2,20.7c-11.5,0.6-69.6,3.9-72.7,19.2
		c-0.9,4.3,2.1,12,7.6,17c4.4,4,9.4,5.3,12.1,5.8c17-2.7,34-5.4,51-8.2l22.7-14.6L1358.5,850.9z"/>
	<path class="st20" d="M1386,856.1c-6.4-1.7-17.4-5.5-28.2-14.4c-10.2-8.4-15.7-17.8-18.5-23.5c-2.7-4.2-4-4.9-4.7-4.6
		c-2.3,0.8-1.8,13.2,3,22.9c4.2,8.4,10.9,13.1,14.9,15.4c-6.9,10.2-14.2,15.2-19.7,17.9c-8,3.9-13.3,3.4-25.4,6.6
		c-10.4,2.7-18.8,6.3-24.6,9.1c12.9,1.4,28.7,2.1,46.8,0.3c11.4-1.1,21.7-3,30.7-5.2C1368.9,872.4,1377.4,864.2,1386,856.1z"/>
	<path class="st22" d="M1739.7,838.3c-10.6,9.7-27.3,22.8-50.3,32.7c-28.5,12.2-40.2,7.9-74.5,14.3c-73,13.6-92,46.3-150,41.5
		c-13.8-1.1-24.8-4-31.1-5.8c11.1-10.2,22.9-22.2,34.6-36.1c23.4-27.9,39.6-55.4,50.9-78.5C1592.8,816.9,1666.3,827.6,1739.7,838.3z
		"/>
	<path class="st23" d="M1896.4,809.4l-19.7-23.4c-60.3,48.9-97.7,52-121.4,44.1c-29.8-9.9-31.5-35.1-75.4-58.7
		c-10.8-5.8-50.4-26.4-97.2-21c-37.6,4.3-51.4,22.2-108.9,53.1c-30.4,16.4-63.2,31.1-98.6,43.7c-5.6,13-11.1,26-16.7,39
		c23.1-2.9,58.6-9.1,99.6-24.3c46.4-17.2,49.8-27.3,82.3-34.3c56.7-12.2,107.1,5.4,129,13.4c41.8,15.2,43.5,27.4,68.9,33.8
		C1770.2,882.8,1820,877,1896.4,809.4z"/>
	<path class="st20" d="M1669,764.2l23.2,14.5c1.2,1.1,5.7,5.3,4.8,10c-0.8,4.3-5.6,6.6-7.6,7.6c-15.9,7.5-61.5-14-91.6-21.3
		c-17.3-4.2-43.3-7-77.9,1.6c10.6-7.9,32.9-22.3,64.7-26.8C1625.7,744,1657.4,758.3,1669,764.2z"/>
	
		<linearGradient id="SVGID_11_" gradientUnits="userSpaceOnUse" x1="-2501.1545" y1="1063.6514" x2="-2447.6963" y2="1122.2458" gradientTransform="matrix(-0.9995 3.026410e-02 3.026410e-02 0.9995 -865.2532 -276.6084)">
		<stop  offset="1.117318e-02" style="stop-color:#FEB12B"/>
		<stop  offset="0.1304" style="stop-color:#FEC351"/>
		<stop  offset="0.2417" style="stop-color:#FFD16C"/>
		<stop  offset="0.3394" style="stop-color:#FFD97D"/>
		<stop  offset="0.413" style="stop-color:#FFDC83"/>
		<stop  offset="0.5081" style="stop-color:#FEDD88"/>
		<stop  offset="0.6171" style="stop-color:#FBDE96"/>
		<stop  offset="0.7331" style="stop-color:#F6E1AD"/>
		<stop  offset="0.8531" style="stop-color:#EEE5CD"/>
		<stop  offset="0.9385" style="stop-color:#E8E8E8"/>
	</linearGradient>
	<path class="st24" d="M1658.2,786.7c-2,1.1-11.3,5.6-20.6,2c-11.1-4.3-18.1-18.6-14.8-34.1c3.3-6.1,6.8-14.2,9.1-24.1
		c4.4-18.9,2.2-35,0.1-44.5c14.1,10.3,28.1,20.7,42.2,31l8.2,10.8C1674.3,747.4,1666.2,767,1658.2,786.7z"/>
	
		<linearGradient id="SVGID_12_" gradientUnits="userSpaceOnUse" x1="-2587.9873" y1="514.1426" x2="-2500.4436" y2="426.5988" gradientTransform="matrix(-0.9932 -0.1165 -0.1165 0.9932 -786.1405 -89.549)">
		<stop  offset="1.117318e-02" style="stop-color:#FEB12B"/>
		<stop  offset="0.1304" style="stop-color:#FEC351"/>
		<stop  offset="0.2417" style="stop-color:#FFD16C"/>
		<stop  offset="0.3394" style="stop-color:#FFD97D"/>
		<stop  offset="0.413" style="stop-color:#FFDC83"/>
		<stop  offset="0.5081" style="stop-color:#FEDD88"/>
		<stop  offset="0.6171" style="stop-color:#FBDE96"/>
		<stop  offset="0.7331" style="stop-color:#F6E1AD"/>
		<stop  offset="0.8531" style="stop-color:#EEE5CD"/>
		<stop  offset="0.9385" style="stop-color:#E8E8E8"/>
	</linearGradient>
	<path class="st25" d="M1706.3,619.4c1.4,3.7,3.3,9.1,5.3,15.7c3.2,10.5,9.1,29.5,10.2,44.9c1.4,19.6-3.5,54.3-20.8,59.5
		c0,0-16.9,5.3-44.4-22.9c-1.6-1.7-3.4-3.6-5.4-6c0,0-1.1-1.4-2.2-2.9c-2.5-3.5-30.1-55.9-6.3-78.3c6.3-5.9,11.3-1.2,45.6-6.6
		C1696,621.5,1702.2,620.2,1706.3,619.4z"/>
	
		<linearGradient id="SVGID_13_" gradientUnits="userSpaceOnUse" x1="1539.6487" y1="561.2188" x2="1667.036" y2="561.2188" gradientTransform="matrix(0.9828 0.1847 -0.1847 0.9828 201.9477 -167.4661)">
		<stop  offset="0" style="stop-color:#FEB12B"/>
		<stop  offset="0.8543" style="stop-color:#FEB12B"/>
		<stop  offset="0.9949" style="stop-color:#FEB12B"/>
	</linearGradient>
	<path class="st26" d="M1648.1,647.8c-0.9,5.3-1.4,11.8-0.4,19.3c3.4,24,20.4,38.6,26,43.1c1.2,0.6,16.4,8.3,31.8,0
		c13.4-7.3,16.4-21.2,16.8-23.1c3,6.2,6.4,15.5,7.4,27.1c1.9,21.7-5.7,38.4-9.6,45.7c-9.2,10.9-18.4,12.9-21.8,13.4
		c-19.2,2.8-42-14.4-51.5-44.2c-1.9-12.2-3.8-24.4-5.7-36.5c-1.9,0.3-3.7,0.6-5.6,0.8c-0.6,2.1-1.1,5.2-0.3,8.7
		c1.2,5.3,4.5,7.1,4.4,10.9c-0.1,1.9-1,4.6-5.1,7.8c-4.5-4.9-9.8-11.8-14-21c-10-22.1-6.9-42.9-5-51.6c8.8-28,20-36.9,29.2-39.5
		c10.8-3,20.8,2.1,36.9-3.8c7.7-2.9,13.4-7,17.1-10.1c11.3,6.3,16.5,16.6,13.9,23.8c-0.5,1.4-1.9,4.5-6.4,7.1
		c-4.4,2.6-10.7,5.7-18.9,7.5c-13.9,3-25.5,0.5-31.5-1.3c-3.4-1.7-7.3-2.2-9.6-0.4C1642.8,633.8,1642.3,641.5,1648.1,647.8z"/>
	
		<linearGradient id="SVGID_14_" gradientUnits="userSpaceOnUse" x1="1562.0868" y1="578.4584" x2="1574.9728" y2="565.5724" gradientTransform="matrix(0.9828 0.1847 -0.1847 0.9828 201.9477 -167.4661)">
		<stop  offset="0.413" style="stop-color:#FFDC83"/>
		<stop  offset="0.5081" style="stop-color:#FEDD88"/>
		<stop  offset="0.6171" style="stop-color:#FBDE96"/>
		<stop  offset="0.7331" style="stop-color:#F6E1AD"/>
		<stop  offset="0.8531" style="stop-color:#EEE5CD"/>
		<stop  offset="0.9385" style="stop-color:#E8E8E8"/>
	</linearGradient>
	<path class="st27" d="M1637.8,668.1c-6,2.5-10,8.1-10,13.8c0.1,7.6,7.2,14.8,16.6,14.8C1642.2,687.1,1640,677.6,1637.8,668.1z"/>
	<path class="st20" d="M1657.7,704.1c0.7-2.2,3.9-11.6,13.6-16.8c14.1-7.6,28.5,0.8,29.2,1.2c1.1-1.6,5.6-7.5,13.7-9.1
		c8.2-1.6,17,2,22.5,9.1c-5.9-1.6-13.1-2.3-20,0.5c-7.8,3.3-8.8,8.5-16,9.9c-7.5,1.5-10.7-3.4-19.2-4.1
		C1676.2,694.4,1668.2,695.6,1657.7,704.1z"/>
	
		<linearGradient id="SVGID_15_" gradientUnits="userSpaceOnUse" x1="994.4904" y1="1080.4781" x2="1538.4231" y2="1080.4781" gradientTransform="matrix(0.9828 0.1847 -0.1847 0.9828 201.9477 -167.4661)">
		<stop  offset="0" style="stop-color:#FEB12B"/>
		<stop  offset="0.8543" style="stop-color:#FEB12B"/>
		<stop  offset="0.9949" style="stop-color:#FEB12B"/>
	</linearGradient>
	<path class="st28" d="M947.5,1305.3c-8.8,4.9-12.9,8.7-12.3,11.5c1.1,4.8,16.3,6.3,45.5,4.7c29.2-26.4,58.9-54.2,88.9-83.4
		c35.8-34.9,69.6-69.5,101.3-103.4c63.7-7.8,138.3-21.9,219.6-47.1c56.9-17.6,107.6-37.8,151.8-58c-31.6-37.8-63.2-75.6-94.8-113.5
		c-34.9,9.4-71.8,20.6-110.4,34c-35.7,12.4-69.2,25.5-100.2,38.7c-8.6,3.4-28,12.6-39.4,33.5c-3,5.4-4.9,10.7-6.1,15.4
		c24.9-9.4,51.2-18.7,78.8-27.5c36.5-11.7,71.6-21.4,104.9-29.5c9.5-7.1,19-14.2,28.5-21.3c-6.2,7.9-12.5,15.8-18.7,23.6
		c16.7,4.8,33.5,9.7,50.2,14.5c-18.1-2.3-36.2-4.7-54.4-7c-37.4,7.7-77.9,17.7-120.8,30.7c-43,13.1-82.4,27.4-117.8,41.8
		c-31,28.9-64.3,63.4-97.8,104C1004.1,1216,972.3,1263.2,947.5,1305.3z"/>
	<path class="st29" d="M1983,611.8c0.4-0.6,1.6-2.5,4-3.5c3.2-1.3,6-0.1,6.5,0.2c20.9,10.3,41.9,20.6,62.8,30.9
		c0.5,0.3,4.4,2.8,4.9,7.6c0.3,2.9-0.8,5.1-1.3,5.9c-14.5,30.8-29,61.6-43.4,92.4c-0.4,0.7-2.9,5.4-8.1,6.3c-2,0.3-3.7,0-4.8-0.4
		c-21.9-10.9-43.7-21.7-65.6-32.6c-0.7-0.4-1.7-1-2.5-2.2c-2.8-4.3,1.2-11.3,2.4-13.5C1945.1,689.7,1970.4,634,1983,611.8z"/>
	<path class="st15" d="M1968.1,722c7.1,0.2,17-0.4,28-4c22.1-7.3,35-22.4,40.2-29.2c-9.7,17.4-19.5,34.9-29.2,52.3
		C1994.1,734.7,1981.1,728.3,1968.1,722z"/>
	
		<rect x="1983.8" y="638.3" transform="matrix(0.8949 0.4462 -0.4462 0.8949 498.4431 -832.7231)" class="st15" width="67.3" height="7.6"/>
	
		<rect x="1978.2" y="647.7" transform="matrix(0.8949 0.4462 -0.4462 0.8949 501.3912 -826.3563)" class="st15" width="54.6" height="7.6"/>
	
		<rect x="1972.7" y="657.4" transform="matrix(0.8949 0.4462 -0.4462 0.8949 504.6003 -820.662)" class="st7" width="44.4" height="7.6"/>
	<path class="st7" d="M1955.1,634.8c-13.1-19.7-24.4-33.5-32.1-42.2c0,0-4.7-5.3-12.4-12.4c-8.4-7.7-22.6-20.8-27.8-17.3
		c-0.6,0.4-0.9,0.9-1.2,1.4c-4,6.9,6.6,19.4,8.3,21.3c5.3,6,11.5,12.2,18.6,18.4C1925.1,618.4,1941.4,628.2,1955.1,634.8z"/>
	<path class="st30" d="M1941.4,606.3c-2-5.2-4-10.4-6.1-15.6c-2.2-6.4-1.4-11.7,1.3-13.2c1.5-0.9,3.2-0.2,3.3-0.2
		c3.1,1.2,4.7,6.5,3.6,13.4C1942.8,595.9,1942.1,601.1,1941.4,606.3z"/>
	<path class="st7" d="M2059.8,685.6c23.2-4.7,40.9-6.4,52.5-7.1c0,0,7.1-0.4,17.5,0c11.4,0.5,30.6,1.3,31.9,7.4
		c0.1,0.7,0,1.3-0.1,1.8c-2,7.7-18.4,9-21,9.2c-8,0.5-16.8,0.5-26.2-0.2C2092.6,695.3,2074.2,690.6,2059.8,685.6z"/>
	<path class="st30" d="M2089.7,675.2c5.1-2.2,10.2-4.5,15.3-6.7c6.1-2.9,9.3-7.2,8.4-10.2c-0.5-1.7-2.1-2.5-2.2-2.5
		c-3-1.3-8,1.3-12,7C2096,666.9,2092.8,671.1,2089.7,675.2z"/>
	
		<linearGradient id="SVGID_16_" gradientUnits="userSpaceOnUse" x1="906.3198" y1="1597.9991" x2="999.8608" y2="1597.9991" gradientTransform="matrix(0.9784 0.2068 -0.2068 0.9784 218.4409 -308.3942)">
		<stop  offset="1.117318e-02" style="stop-color:#146072"/>
		<stop  offset="0.2466" style="stop-color:#176274"/>
		<stop  offset="0.4094" style="stop-color:#206979"/>
		<stop  offset="0.5503" style="stop-color:#2F7483"/>
		<stop  offset="0.6787" style="stop-color:#458590"/>
		<stop  offset="0.7976" style="stop-color:#6199A2"/>
		<stop  offset="0.9102" style="stop-color:#83B3B7"/>
	</linearGradient>
	<path class="st31" d="M875,1420.4c-1.7,6.4-4.8,15.6-11.3,25.3c-4.6,6.9-9.6,11.7-19.4,20.8c-13.3,12.4-19.9,18.6-29.9,23.4
		c-9.8,4.7-19,6.5-26,7.2c-11.2,1.8-20.8-0.8-22.9-6c-2.8-7,8.7-17.2,12.8-20.8c6.6-5.9,12.9-8.8,13.7-9.2
		c9.4-4.4,25.5-17.8,54.5-57.7C856.1,1409,865.5,1414.7,875,1420.4z"/>
	
		<linearGradient id="SVGID_17_" gradientUnits="userSpaceOnUse" x1="1272.0446" y1="1471.9496" x2="1309.3386" y2="1471.9496" gradientTransform="matrix(0.9784 0.2068 -0.2068 0.9784 218.4409 -308.3942)">
		<stop  offset="1.117318e-02" style="stop-color:#063040"/>
		<stop  offset="0.3288" style="stop-color:#093645"/>
		<stop  offset="0.7492" style="stop-color:#134753"/>
		<stop  offset="1" style="stop-color:#1B545E"/>
	</linearGradient>
	<path class="st32" d="M1165.1,1367.8c-6.6,30-13.2,60.1-19.8,90.1c-0.5,4.3,0.2,8.2,2.1,9c2.5,1,6.7-4.3,10.2-9.1
		c14.9-20.6,20-35.8,20-35.8c5.3-15.8,13.5-36.3,27.2-65.4c-0.1-2.4-0.8-23.5-13.6-29.1c-1.2-0.6-2.7-1-4.3-1.2
		C1179.6,1340.1,1172.3,1353.9,1165.1,1367.8z"/>
	
		<linearGradient id="SVGID_18_" gradientUnits="userSpaceOnUse" x1="1065.6454" y1="1163.3752" x2="1288.3696" y2="1163.3752" gradientTransform="matrix(0.9784 0.2068 -0.2068 0.9784 218.4409 -308.3942)">
		<stop  offset="1.117318e-02" style="stop-color:#146072"/>
		<stop  offset="0.2466" style="stop-color:#176274"/>
		<stop  offset="0.4094" style="stop-color:#206979"/>
		<stop  offset="0.5503" style="stop-color:#2F7483"/>
		<stop  offset="0.6787" style="stop-color:#458590"/>
		<stop  offset="0.7976" style="stop-color:#6199A2"/>
		<stop  offset="0.9102" style="stop-color:#83B3B7"/>
	</linearGradient>
	<path class="st33" d="M1165.1,1367.8c3.8-2.1,9.3-5.8,14.1-12.1c9.6-12.6,9.4-26.5,9.2-31l-63.1-257.2l169.5-246.3l-102.6-13.7
		L1022,1042.9L1165.1,1367.8z"/>
	
		<linearGradient id="SVGID_19_" gradientUnits="userSpaceOnUse" x1="956.1857" y1="1206.3468" x2="1349.9028" y2="1206.3468" gradientTransform="matrix(0.9784 0.2068 -0.2068 0.9784 218.4409 -308.3942)">
		<stop  offset="1.117318e-02" style="stop-color:#063040"/>
		<stop  offset="0.3288" style="stop-color:#093645"/>
		<stop  offset="0.7492" style="stop-color:#134753"/>
		<stop  offset="1" style="stop-color:#1B545E"/>
	</linearGradient>
	<path class="st34" d="M1314.2,770.4c15,18,41,55,35.1,97.6c-5.7,41.2-38.7,65.9-74.6,94.6c-76.4,61.1-142.7,112.5-196.1,153.1
		c-23.6,48.9-53.3,103.1-90.8,160c-40.3,61.3-81.5,113.2-119.6,156.3c-2.8,2.1-7,4.8-12.7,6.8c-6.8,2.3-12.8,2.6-16.5,2.4
		c-4.9,0.2-9.1-2.8-10.4-6.9c-1.4-4.7,1.6-8.7,1.9-9.1c109-197.7,185.9-337.9,197.3-360.8c4-8.1,9.2-17.3,16.1-26.9
		c8.5-11.9,17.2-21.4,24.9-28.6c21.9-25.8,45-52.1,69.2-78.7c23.2-25.4,46.1-49.7,68.8-72.9c13.1-7.6,26.2-15.3,39.3-22.9
		c-13,4.8-26,9.5-39,14.3c-6.1-8.4-12.1-16.8-18.2-25.2c4.4,10.4,8.9,20.9,13.3,31.3c-6.9,7.1-77.8,79.9-111.2,116.5
		c-9.9,10.8-14.8,16.2-17.1,18.9c-17.1,20.7-22,32.5-37.8,44.2c-5.8,4.3-11,7-14.1,8.5c-3.1-7.4-6.1-14.7-9.2-22.1
		c-1.4-4.5-2.5-9.8-2.8-15.7c-1-21.6,15.6-46,18.1-49.4c17.4-24.1,67.6-78.5,139.6-145.7c1.5-1.4,4.2-4.5,6.7-9.3
		c6.2-11.9,5.2-25,2.9-35C1223,767.2,1268.6,768.8,1314.2,770.4z"/>
	<path class="st15" d="M1163.9,567.8c-11.9,12.1-25.7,30.6-25.4,52.9c0.2,18.9,10.5,31,18.6,45.4c11.4,20,22.8,51.5,20.3,100.4
		c8,7.6,22.5,19,43.4,24.6c47.8,12.7,87.5-16.2,93.3-20.6c-4.2-43.6-8.5-87.2-12.7-130.8L1163.9,567.8z"/>
	
		<linearGradient id="SVGID_20_" gradientUnits="userSpaceOnUse" x1="1191.174" y1="760.0667" x2="1129.2123" y2="822.0283" gradientTransform="matrix(0.9784 0.2068 -0.2068 0.9784 218.4409 -308.3942)">
		<stop  offset="1.117318e-02" style="stop-color:#146072"/>
		<stop  offset="0.2466" style="stop-color:#176274"/>
		<stop  offset="0.4094" style="stop-color:#206979"/>
		<stop  offset="0.5503" style="stop-color:#2F7483"/>
		<stop  offset="0.6787" style="stop-color:#458590"/>
		<stop  offset="0.7976" style="stop-color:#6199A2"/>
		<stop  offset="0.9102" style="stop-color:#83B3B7"/>
	</linearGradient>
	<path class="st35" d="M1143.3,591.3c15.5,43.6,36.4,64,52.9,74.7c10.4,6.7,24.8,13.1,35.8,30.1c9.1,14.1,8,23.4,13.5,37.3
		c5.5,14,17.5,32.6,47.3,49.8c-9.8,4.1-50.9,20.1-90.7,0.8c-10.4-5-18.5-11.4-24.7-17.5c1.1-48.1-10-77.2-20.8-95.2
		c-5.5-9.1-17.5-26.4-18.1-50.6C1138.2,608.2,1140.9,598,1143.3,591.3z"/>
	
		<linearGradient id="SVGID_21_" gradientUnits="userSpaceOnUse" x1="895.6124" y1="518.5671" x2="847.2477" y2="434.7969" gradientTransform="matrix(0.9784 0.2068 -0.2068 0.9784 218.4409 -308.3942)">
		<stop  offset="1.117318e-02" style="stop-color:#146072"/>
		<stop  offset="0.3928" style="stop-color:#458591"/>
		<stop  offset="0.7714" style="stop-color:#70A5AC"/>
		<stop  offset="0.9637" style="stop-color:#81B1B6"/>
		<stop  offset="1" style="stop-color:#83B3B7"/>
	</linearGradient>
	<path class="st36" d="M925.7,348.9c-2.6-1.7-8.8-6.3-12.5-14.9c-4.6-10.9-1.8-20.7-1-23.3c0.6-1.4,1.6-3.3,3.5-4.6
		c9.3-6,28.7,10,40.3,17.8c14.7,9.9,38.2,20.6,75.3,22.6c0.1,0,1.7,0.2,2.4,1.7c0.5,1,0.2,2,0.1,2.2c-5.7,8-11.3,16.1-17,24.1
		l-31-6.6l-35.4-8.5C942.2,356,933.9,352.5,925.7,348.9"/>
	<path class="st15" d="M920.4,344.7c13.3,5.5,28,10.8,44.2,15.3c7,1.9,13.7,3.6,20.3,5.1c3.6,1,24.7,6.7,40.7-5.6
		c3.6-2.7,6.2-5.9,8.2-8.9c-1.2,18.9-2.4,37.7-3.7,56.6l-28.1,2c0.1-0.8,0.2-1.5,0.3-2.3c-0.6-19.2-6.5-28.4-12.8-33.2
		c-1.5-1.2-2.8-1.9-21.6-7.3c-19.8-5.8-24.8-6.9-32.1-10.7C932.1,353.4,926.6,350.1,920.4,344.7z"/>
	
		<linearGradient id="SVGID_22_" gradientUnits="userSpaceOnUse" x1="1479.7733" y1="887.7721" x2="1550.9534" y2="887.7721" gradientTransform="matrix(0.9243 -0.1937 0.2051 0.9787 -112.9429 336.5197)">
		<stop  offset="1.117318e-02" style="stop-color:#146072"/>
		<stop  offset="0.4686" style="stop-color:#4F8C96"/>
		<stop  offset="0.8172" style="stop-color:#75A8AE"/>
		<stop  offset="1" style="stop-color:#83B3B7"/>
	</linearGradient>
	<path class="st37" d="M1435.8,865.9c14.7-1.6,29.3-3.3,44-4.9c-6.1,5.5-12.2,10.9-18.2,16.4c9.6,9.6,57.7,58.3,48.4,74.1
		c-2.6,4.4-11.3,8.8-20.1,8.8c-7,0-12.3-2.8-15.1-4.5c-12.7-15.8-25.4-31.6-38.1-47.4l-8.3-30.6L1435.8,865.9z"/>
	<path class="st15" d="M1407.7,848.7c6.9,3.6,19.6,8.9,36,9.6c15.5,0.7,27.7-3.2,34.7-6c5.7-1.5,7.4-1.1,7.8-0.3
		c1.4,2.6-8.8,13-20.7,17.6c-10.3,4-19.9,2.9-25.2,1.8c-2,14.4,0.4,24.5,3.1,31.2c3.9,9.7,8.9,13.5,17,25.8
		c7,10.6,11.5,20.3,14.3,27.4c-12.4-8.9-26.8-20.8-41.2-36.7c-9.1-9.9-16.6-19.7-22.8-28.7C1409.8,876.5,1408.7,862.6,1407.7,848.7z
		"/>
	<path class="st38" d="M998.3,405.2l35.7-4.9c14.1,90.4,44.4,122.6,71.3,134.3c33.9,14.8,55.2-5.9,112.2,8.2
		c14,3.5,64.8,16.7,101.5,58.4c29.5,33.5,27.5,59.9,53.3,132.3c13.7,38.3,30.7,77.1,51.8,116c-5.4,15.8-10.8,31.5-16.2,47.3
		c-17.9-20.8-44-54.2-67.9-99.8c-27-51.6-22-63.1-44.9-94.9c-39.9-55.5-97.9-79.8-123.3-90.1c-48.6-19.7-59.6-10.4-86.9-24.8
		C1050.8,569,1011.8,524.6,998.3,405.2z"/>
	<path class="st15" d="M1232.8,545.2l-31.7-5.7c-1.9,0-9.1,0.2-12.1,4.9c-2.7,4.4-0.3,10.2,0.7,12.6c8,19.2,64.7,36.3,96.8,53.7
		c18.5,10,43.3,28,66.8,62.9c-3-15.3-11.2-45.4-35.5-74.4C1286.6,561.7,1247.6,549.1,1232.8,545.2z"/>
	
		<linearGradient id="SVGID_23_" gradientUnits="userSpaceOnUse" x1="1164.7926" y1="633.7092" x2="1221.2379" y2="577.0936" gradientTransform="matrix(0.9784 0.2068 -0.2068 0.9784 218.4409 -308.3942)">
		<stop  offset="1.117318e-02" style="stop-color:#146072"/>
		<stop  offset="1.162005e-02" style="stop-color:#146072"/>
		<stop  offset="8.331706e-02" style="stop-color:#367A87"/>
		<stop  offset="0.1592" style="stop-color:#528E99"/>
		<stop  offset="0.2412" style="stop-color:#689FA6"/>
		<stop  offset="0.3312" style="stop-color:#77AAB0"/>
		<stop  offset="0.4354" style="stop-color:#80B1B5"/>
		<stop  offset="0.5862" style="stop-color:#83B3B7"/>
	</linearGradient>
	<path class="st39" d="M1231.7,559.7c1.9,2.1,7.3,7.2,15.6,8.4c10.2,1.5,20.7-3.5,27.3-12.8c2.4-21.8,4.7-43.6,7.1-65.4l-41.2,17
		l-12.8,11.7L1231.7,559.7z"/>
	
		<linearGradient id="SVGID_24_" gradientUnits="userSpaceOnUse" x1="1113.2584" y1="576.4655" x2="1197.5615" y2="492.1624" gradientTransform="matrix(0.9981 6.121255e-02 -6.121255e-02 0.9981 107.454 -138.3003)">
		<stop  offset="1.117318e-02" style="stop-color:#146072"/>
		<stop  offset="0.3653" style="stop-color:#4F8C96"/>
		<stop  offset="0.635" style="stop-color:#75A8AE"/>
		<stop  offset="0.7765" style="stop-color:#83B3B7"/>
	</linearGradient>
	<path class="st40" d="M1223.5,393.8l-23.8,28c-25.3,50.9-14.8,96.2,6.8,106.4c21.6,10.2,53.6-15.6,56.3-17.8
		c3.8-3.2,7.7-6.4,11.5-9.6l-15.4-90.1L1223.5,393.8z"/>
	
		<linearGradient id="SVGID_25_" gradientUnits="userSpaceOnUse" x1="1177.4791" y1="594.1999" x2="1309.4268" y2="522.0698" gradientTransform="matrix(0.9784 0.2068 -0.2068 0.9784 218.4409 -308.3942)">
		<stop  offset="1.117318e-02" style="stop-color:#063040"/>
		<stop  offset="0.3288" style="stop-color:#093645"/>
		<stop  offset="0.7492" style="stop-color:#134753"/>
		<stop  offset="1" style="stop-color:#1B545E"/>
	</linearGradient>
	<path class="st41" d="M1199.4,421.8c2.3-1.6,28.1-18.6,49.2-7.6c2.9,1.5,6.2,3.8,9.4,7.4c-1.7,6.5-3.5,16.1-2.6,27.5
		c1.8,21,10.9,22.4,13.2,40.1c3.1,23.2-11.2,31-7.2,60.6c0.4,3.3,0.7,8.3,3.2,14.3c3.9,9.2,11.5,23.3,26,34.9
		c36.3,29.1,82.9,16.8,88.8,15.2c4-1,33.5-9,44-36.1c7-18.1,5.2-43.6-6.3-49.6c-7.6-4-15.9,2.2-25.9-3.9c-5.2-3.2-8.1-8-9.8-11.6
		c-2.1-6.3-6.4-15.6-15.4-21.1c-14.4-8.8-27,0.5-35.3-7.3c-9.1-8.5,2.2-22.9-3.2-52c-1.7-8.9-4.4-22.9-15.2-35.3
		c-11.3-13-27.4-20-41-21.2C1243.7,373.8,1215.5,391.9,1199.4,421.8z"/>
	<path class="st42" d="M969.1,279c4.7,2.9,12.3,6.8,22.5,8.8c9.1,1.8,16.9,1.3,22.1,0.6c1.8-4.9,3.7-9.8,5.5-14.7
		c-3.5,2-7.7,4.1-12.8,5.6C990.4,284.2,976.2,281.1,969.1,279z"/>
	
		<linearGradient id="SVGID_26_" gradientUnits="userSpaceOnUse" x1="879.1451" y1="427.7894" x2="879.1451" y2="393.845" gradientTransform="matrix(0.9784 0.2068 -0.2068 0.9784 218.4409 -308.3942)">
		<stop  offset="0" style="stop-color:#FEB12B"/>
		<stop  offset="0.2132" style="stop-color:#FEB22F"/>
		<stop  offset="0.4325" style="stop-color:#FDB53B"/>
		<stop  offset="0.6546" style="stop-color:#FBB950"/>
		<stop  offset="0.8772" style="stop-color:#F9C06D"/>
		<stop  offset="0.9949" style="stop-color:#F7C47F"/>
	</linearGradient>
	<path class="st43" d="M968.3,252.6l-1.6,28.9c4.5,3.2,12.5,8.1,23.8,10.5c11.5,2.5,21,1.2,26.4,0.1c3-9.1,6.1-18.2,9.1-27.3
		L968.3,252.6z"/>
	
		<linearGradient id="SVGID_27_" gradientUnits="userSpaceOnUse" x1="882.0291" y1="240.1254" x2="882.0291" y2="403.9091" gradientTransform="matrix(0.9784 0.2068 -0.2068 0.9784 218.4409 -308.3942)">
		<stop  offset="0" style="stop-color:#FEB12B"/>
		<stop  offset="0.3422" style="stop-color:#FEAF2B"/>
		<stop  offset="0.4933" style="stop-color:#FEA82B"/>
		<stop  offset="0.6069" style="stop-color:#FE9B2A"/>
		<stop  offset="0.7017" style="stop-color:#FD892A"/>
		<stop  offset="0.7847" style="stop-color:#FD7229"/>
		<stop  offset="0.8596" style="stop-color:#FC5529"/>
		<stop  offset="0.9273" style="stop-color:#FC3328"/>
		<stop  offset="0.9895" style="stop-color:#FB0D27"/>
		<stop  offset="0.9949" style="stop-color:#FB0927"/>
	</linearGradient>
	<path class="st44" d="M968.4,254.4c3.6,3.5,11.7,10.4,24.2,13.6c15.3,4,27.9,0.1,32.6-1.6c2.8-5.2,5.5-10.4,8.3-15.6
		c3.4-1,41.9-13.3,52.6-49.2c11.2-37.6-12.9-84.9-55.9-93c-38.5-7.3-75,20.2-84,55.3c-10.1,39.7,19.7,71.1,21.4,73
		C967.9,242.7,968.1,248.5,968.4,254.4z"/>
	<path class="st45" d="M992.6,125.5c7.8-4.9,21-11.1,35.9-8.7c26.6,4.2,49.4,34.4,50.5,74.5c-5.6-11.6-21.1-39.6-53.8-55.7
		C1013.1,129.6,1001.7,126.8,992.6,125.5z"/>
	<path class="st46" d="M992.8,232.9c2.8,0,6.4,0.2,10.4,1c4.1,0.9,7.6,2.1,10.2,3.3c-1.4,6.4-2.7,12.8-4.1,19.2
		c-2.3,0.4-6.1,0.8-10.6-0.1c-4.7-1-8.1-2.9-10-4.2C990.1,245.8,991.4,239.3,992.8,232.9z"/>
	
		<linearGradient id="SVGID_28_" gradientUnits="userSpaceOnUse" x1="879.8256" y1="369.9759" x2="879.8256" y2="293.2905" gradientTransform="matrix(0.9784 0.2068 -0.2068 0.9784 218.4409 -308.3942)">
		<stop  offset="0" style="stop-color:#E27144"/>
		<stop  offset="0.3363" style="stop-color:#E98F51"/>
		<stop  offset="0.7595" style="stop-color:#F1AE5F"/>
		<stop  offset="0.9949" style="stop-color:#F4BA64"/>
	</linearGradient>
	<path class="st47" d="M1010.6,182.2l-11.1,52.6l6.8,1.4l11.1-52.6c5.2-0.7,9.3-4.3,10.4-9c1.4-6-2.6-12.6-8.9-14.1
		c-6.2-1.5-12.7,2.3-14.3,8.3C1003.3,173.9,1005.7,179.5,1010.6,182.2z"/>
	<path class="st48" d="M1089.3,235.6c19.1,5.5,33.6,2.4,36-4.1c2.5-6.7-8.2-16.6-9.7-18C1106.8,220.9,1098,228.3,1089.3,235.6z"/>
	<path class="st49" d="M1119.4,142.9c-5.3,4.4-7.3,8.6-8.2,11.4c-5.5,17.7,17.3,31,14.1,54.9c-0.3,2.5-1.3,9.2-6.1,15.4
		c-11.3,14.4-33,12.7-36.3,12.4c18.2-12.9,23.6-25.2,25-34.1c3.4-21.4-13.5-38.5-5.1-51.2C1106.7,145.7,1114.1,143.7,1119.4,142.9z"
		/>
	<path class="st48" d="M943.3,128.9c-19.1-5.5-33.6-2.4-36,4.1c-2.5,6.7,8.2,16.6,9.7,18C925.7,143.6,934.5,136.2,943.3,128.9z"/>
	<path class="st49" d="M913.1,221.6c5.3-4.4,7.3-8.6,8.2-11.4c5.5-17.7-17.3-31-14.1-54.9c0.3-2.5,1.3-9.2,6.1-15.4
		c11.3-14.4,33-12.7,36.3-12.4c-18.2,12.9-23.6,25.2-25,34.1c-3.4,21.4,13.5,38.5,5.1,51.2C925.8,218.8,918.4,220.8,913.1,221.6z"/>
	<path class="st15" d="M370,755.3c-0.4-0.4-1.7-2-1.9-4.4c-0.1-2.3,0.9-4,1.2-4.5c25.7-22.8,51.4-45.6,77.2-68.4
		c1-0.9,3.3-2.4,6.1-2.4c2.7,0.1,4.9,1.7,6.4,3.2c17.5,18.9,34.9,37.8,52.4,56.8c0.3,0.2,2.4,1.9,2.4,4.7c0,1.6-0.8,2.8-1.1,3.3
		c-26.2,24.1-52.5,48.1-78.7,72.2c-0.3,0.4-1.8,2.3-4.5,2.7c-2.7,0.4-4.7-0.9-5.1-1.2C406.2,796.7,388.1,776,370,755.3z"/>
	<path class="st29" d="M381.8,757.2c-0.4-0.4-1.7-2-1.9-4.4c-0.1-2.3,0.9-4,1.2-4.5c25.7-22.8,51.4-45.6,77.2-68.4
		c1-0.9,3.3-2.4,6.1-2.4c2.7,0.1,4.9,1.7,6.4,3.2c17.5,18.9,34.9,37.8,52.4,56.8c0.3,0.2,2.4,1.9,2.4,4.7c0,1.6-0.8,2.8-1.1,3.3
		c-26.2,24.1-52.5,48.1-78.7,72.2c-0.3,0.4-1.8,2.3-4.5,2.7c-2.7,0.4-4.7-0.9-5.1-1.2C418,798.7,399.9,777.9,381.8,757.2z"/>
	
		<linearGradient id="SVGID_29_" gradientUnits="userSpaceOnUse" x1="-362.2729" y1="979.6725" x2="-352.1329" y2="979.6725" gradientTransform="matrix(0.9767 -0.2147 0.2147 0.9767 565.8801 -267.53)">
		<stop  offset="0" style="stop-color:#FEB12B"/>
		<stop  offset="0.8543" style="stop-color:#FEB12B"/>
		<stop  offset="0.9949" style="stop-color:#FEB12B"/>
	</linearGradient>
	<polygon class="st50" points="429.6,776.8 424.5,776.7 425.2,755.1 430.2,755.3 	"/>
	
		<linearGradient id="SVGID_30_" gradientUnits="userSpaceOnUse" x1="-362.2217" y1="989.7394" x2="-340.07" y2="989.7394" gradientTransform="matrix(0.9767 -0.2147 0.2147 0.9767 565.8801 -267.53)">
		<stop  offset="0" style="stop-color:#FEB12B"/>
		<stop  offset="0.8543" style="stop-color:#FEB12B"/>
		<stop  offset="0.9949" style="stop-color:#FEB12B"/>
	</linearGradient>
	<polygon class="st51" points="424.6,776.7 424.7,771.7 446.3,772.3 446.2,777.4 	"/>
	
		<linearGradient id="SVGID_31_" gradientUnits="userSpaceOnUse" x1="-315.3948" y1="948.5656" x2="-293.2579" y2="948.5656" gradientTransform="matrix(0.9793 -0.2026 0.2026 0.9793 580.1635 -267.0341)">
		<stop  offset="0" style="stop-color:#FEB12B"/>
		<stop  offset="0.8543" style="stop-color:#FEB12B"/>
		<stop  offset="0.9949" style="stop-color:#FEB12B"/>
	</linearGradient>
	<polygon class="st52" points="484.9,726.7 485.2,721.7 463.7,720.3 463.4,725.3 	"/>
	
		<linearGradient id="SVGID_32_" gradientUnits="userSpaceOnUse" x1="-303.8565" y1="958.7949" x2="-293.2386" y2="958.7949" gradientTransform="matrix(0.9793 -0.2026 0.2026 0.9793 580.1635 -267.0341)">
		<stop  offset="0" style="stop-color:#FEB12B"/>
		<stop  offset="0.8543" style="stop-color:#FEB12B"/>
		<stop  offset="0.9949" style="stop-color:#FEB12B"/>
	</linearGradient>
	<polygon class="st53" points="485.3,721.8 480.2,721.4 478.8,743 483.8,743.3 	"/>
	
		<linearGradient id="SVGID_33_" gradientUnits="userSpaceOnUse" x1="-336.7942" y1="992.4888" x2="-290.5682" y2="992.4888" gradientTransform="matrix(0.9874 -0.1583 0.1583 0.9874 615.1551 -285.3413)">
		<stop  offset="0" style="stop-color:#FEB12B"/>
		<stop  offset="0.8543" style="stop-color:#FEB12B"/>
		<stop  offset="0.9949" style="stop-color:#FEB12B"/>
	</linearGradient>
	<polygon class="st54" points="485.1,759.2 437.5,734.1 440,729.4 487.6,754.5 	"/>
	
		<linearGradient id="SVGID_34_" gradientUnits="userSpaceOnUse" x1="-328.9258" y1="1010.4187" x2="-321.8862" y2="1010.4187" gradientTransform="matrix(0.9874 -0.1583 0.1583 0.9874 615.1551 -285.3413)">
		<stop  offset="0" style="stop-color:#FEB12B"/>
		<stop  offset="0.8543" style="stop-color:#FEB12B"/>
		<stop  offset="0.9949" style="stop-color:#FEB12B"/>
	</linearGradient>
	<circle class="st55" cx="453.8" cy="763.9" r="3.5"/>
	
		<linearGradient id="SVGID_35_" gradientUnits="userSpaceOnUse" x1="-319.4494" y1="1004.8273" x2="-312.4098" y2="1004.8273" gradientTransform="matrix(0.9874 -0.1583 0.1583 0.9874 615.1551 -285.3413)">
		<stop  offset="0" style="stop-color:#FEB12B"/>
		<stop  offset="0.8543" style="stop-color:#FEB12B"/>
		<stop  offset="0.9949" style="stop-color:#FEB12B"/>
	</linearGradient>
	<circle class="st56" cx="462.3" cy="756.8" r="3.5"/>
	
		<linearGradient id="SVGID_36_" gradientUnits="userSpaceOnUse" x1="36.0529" y1="204.7796" x2="96.9462" y2="204.7796" gradientTransform="matrix(0.1507 -0.9886 0.9886 0.1507 330.5322 759.3491)">
		<stop  offset="1.117318e-02" style="stop-color:#146072"/>
		<stop  offset="5.614849e-02" style="stop-color:#2D7382"/>
		<stop  offset="0.1174" style="stop-color:#488792"/>
		<stop  offset="0.1878" style="stop-color:#5E97A0"/>
		<stop  offset="0.27" style="stop-color:#6FA4AA"/>
		<stop  offset="0.3716" style="stop-color:#7AADB2"/>
		<stop  offset="0.5143" style="stop-color:#81B2B6"/>
		<stop  offset="0.9102" style="stop-color:#83B3B7"/>
	</linearGradient>
	<path class="st57" d="M546.2,755.8c1.3-3.6,3.3-10.5,2-19.1c-0.4-2.7-1.9-12.3-9.4-20.1c-0.7-0.7-1.3-1.3-1.7-1.6
		c-5.9-5.8-8.7-12.6-6.7-17.4c0.2-0.5,1-2.3,2.8-3.4c4.7-3,12,0.6,13,1.6c1.8,1.7,14.3,14.3,12.8,33.2
		C557.9,744.1,548.6,753.4,546.2,755.8z"/>
	<path class="st15" d="M526.6,770.1c5-3.1,14.9-10.3,21.9-23.5c9-17,7.3-33.2,6.5-38.7c-0.3-0.9-4.4-14.2,1.6-19.2
		c0.5-0.4,2.2-1.8,4.3-1.6c2.9,0.4,5.5,4.2,6.1,9.5c0.5,1.8,9.3,37.9-14.3,60.2C543.5,765.6,533,768.8,526.6,770.1z"/>
	
		<linearGradient id="SVGID_37_" gradientUnits="userSpaceOnUse" x1="828.4469" y1="1465.6951" x2="889.3403" y2="1465.6951" gradientTransform="matrix(-0.1507 0.9886 -0.9886 -0.1507 1934.451 139.4486)">
		<stop  offset="1.117318e-02" style="stop-color:#146072"/>
		<stop  offset="5.614849e-02" style="stop-color:#2D7382"/>
		<stop  offset="0.1174" style="stop-color:#488792"/>
		<stop  offset="0.1878" style="stop-color:#5E97A0"/>
		<stop  offset="0.27" style="stop-color:#6FA4AA"/>
		<stop  offset="0.3716" style="stop-color:#7AADB2"/>
		<stop  offset="0.5143" style="stop-color:#81B2B6"/>
		<stop  offset="0.9102" style="stop-color:#83B3B7"/>
	</linearGradient>
	<path class="st58" d="M352.8,736.3c-1.3,3.6-3.3,10.5-2,19.1c0.4,2.7,1.9,12.3,9.4,20.1c0.7,0.7,1.3,1.3,1.7,1.6
		c5.9,5.8,8.7,12.6,6.7,17.4c-0.2,0.5-1,2.3-2.8,3.4c-4.7,3-12-0.6-13-1.6c-1.8-1.7-14.3-14.3-12.8-33.2
		C341.1,748,350.4,738.6,352.8,736.3z"/>
	<path class="st15" d="M372.4,722c-5,3.1-14.9,10.3-21.9,23.5c-9,17-7.3,33.2-6.5,38.7c0.3,0.9,4.4,14.2-1.6,19.2
		c-0.5,0.4-2.2,1.8-4.3,1.6c-2.9-0.4-5.5-4.2-6.1-9.5c-0.5-1.8-9.3-37.9,14.3-60.2C355.5,726.5,366,723.3,372.4,722z"/>
</g>
</svg>
