<svg width="1266" height="242" viewBox="0 0 1266 242" fill="none" xmlns="http://www.w3.org/2000/svg">
<path d="M98.1299 154.37C124.745 154.37 146.32 132.795 146.32 106.18C146.32 79.5656 124.745 57.9902 98.1299 57.9902C71.5153 57.9902 49.9399 79.5656 49.9399 106.18C49.9399 132.795 71.5153 154.37 98.1299 154.37Z" fill="#063040"/>
<path d="M98.1301 127.86C110.849 127.86 121.16 117.549 121.16 104.83C121.16 92.1107 110.849 81.7998 98.1301 81.7998C85.411 81.7998 75.1001 92.1107 75.1001 104.83C75.1001 117.549 85.411 127.86 98.1301 127.86Z" fill="white"/>
<path d="M269.33 144.18C255.65 144.18 243.97 139.51 234.29 130.17C224.61 120.83 219.77 109.56 219.77 96.3597C219.77 83.1897 224.61 71.9298 234.29 62.5898C243.97 53.2198 255.65 48.5298 269.33 48.5298H318.89V72.4398H269.33C262.49 72.4398 256.65 74.7897 251.81 79.4897C246.97 84.1597 244.55 89.7797 244.55 96.3497C244.55 102.95 246.97 108.59 251.81 113.26C256.65 117.93 262.49 120.27 269.33 120.27H318.89V144.18H269.33V144.18Z" fill="#063040"/>
<path d="M344.27 130.17C334.59 120.83 329.75 109.56 329.75 96.3597C329.75 83.1897 334.59 71.9298 344.27 62.5898C353.95 53.2198 365.63 48.5298 379.31 48.5298C392.96 48.5298 404.62 53.2198 414.3 62.5898C424.01 71.9298 428.87 83.1897 428.87 96.3597C428.87 109.56 424.01 120.83 414.3 130.17C404.62 139.51 392.96 144.18 379.31 144.18C365.63 144.18 353.95 139.51 344.27 130.17ZM396.79 113.26C401.66 108.59 404.1 102.95 404.1 96.3497C404.1 89.7797 401.66 84.1597 396.79 79.4897C391.95 74.7897 386.13 72.4398 379.32 72.4398C372.48 72.4398 366.64 74.7897 361.8 79.4897C356.96 84.1597 354.54 89.7797 354.54 96.3497C354.54 102.95 356.96 108.59 361.8 113.26C366.64 117.93 372.48 120.27 379.32 120.27C386.12 120.27 391.95 117.94 396.79 113.26Z" fill="#063040"/>
<path d="M439.74 144.18V96.3597C439.74 83.1897 444.58 71.9298 454.26 62.5898C463.94 53.2198 475.62 48.5298 489.3 48.5298C502.95 48.5298 514.61 53.2198 524.29 62.5898C534 71.9298 538.86 83.1897 538.86 96.3597V144.18H514.08V96.3597C514.08 89.7897 511.64 84.1698 506.77 79.4998C501.93 74.7998 496.11 72.4498 489.3 72.4498C482.46 72.4498 476.62 74.7998 471.78 79.4998C466.94 84.1698 464.52 89.7897 464.52 96.3597V144.18H439.74Z" fill="#063040"/>
<path d="M564.25 130.17C554.57 120.83 549.73 109.56 549.73 96.3597C549.73 83.1897 554.57 71.9298 564.25 62.5898C573.93 53.2198 585.61 48.5298 599.29 48.5298C612.94 48.5298 624.6 53.2198 634.28 62.5898C643.99 71.9298 648.85 83.1897 648.85 96.3597H624.07C624.07 89.7897 621.63 84.1698 616.76 79.4998C611.92 74.7998 606.1 72.4498 599.29 72.4498C592.45 72.4498 586.61 74.7998 581.77 79.4998C576.93 84.1698 574.51 89.7897 574.51 96.3597C574.51 102.96 576.93 108.6 581.77 113.27C586.61 117.94 592.45 120.28 599.29 120.28V144.19C585.61 144.18 573.93 139.51 564.25 130.17Z" fill="#063040"/>
<path d="M709.28 144.18C695.6 144.18 683.92 139.51 674.24 130.17C664.56 120.83 659.72 109.56 659.72 96.3597C659.72 83.1897 664.56 71.9298 674.24 62.5898C683.92 53.2198 695.6 48.5298 709.28 48.5298H758.84V72.4398H709.28C702.44 72.4398 696.6 74.7897 691.76 79.4897C686.92 84.1597 684.5 89.7797 684.5 96.3497C684.5 102.95 686.92 108.59 691.76 113.26C696.6 117.93 702.44 120.27 709.28 120.27H758.84V144.18H709.28V144.18Z" fill="#063040"/>
<path d="M784.23 130.17C774.55 120.83 769.71 109.56 769.71 96.3599V0.709961H794.49V48.53H819.27V72.4399H794.49V96.3499C794.49 102.95 796.91 108.59 801.75 113.26C806.59 117.93 812.43 120.27 819.27 120.27V144.18C805.59 144.18 793.91 139.51 784.23 130.17Z" fill="#063040"/>
<path d="M844.65 130.17C834.97 120.83 830.13 109.56 830.13 96.3597C830.13 83.1897 834.97 71.9298 844.65 62.5898C854.33 53.2198 866.01 48.5298 879.69 48.5298C893.34 48.5298 905 53.2198 914.68 62.5898C924.39 71.9298 929.25 83.1897 929.25 96.3597V144.18H904.47V96.3597C904.47 89.7897 902.03 84.1698 897.16 79.4998C892.32 74.7998 886.5 72.4498 879.69 72.4498C872.85 72.4498 867.01 74.7998 862.17 79.4998C857.33 84.1698 854.91 89.7897 854.91 96.3597C854.91 102.96 857.33 108.6 862.17 113.27C867.01 117.94 872.85 120.28 879.69 120.28V144.19C866.01 144.18 854.33 139.51 844.65 130.17Z" fill="#063040"/>
<path d="M940.12 144.18V96.3597C940.12 83.1897 944.96 71.9298 954.64 62.5898C964.32 53.2198 976 48.5298 989.68 48.5298C1003.33 48.5298 1014.99 53.2198 1024.67 62.5898C1034.38 71.9298 1039.24 83.1897 1039.24 96.3597H1014.46C1014.46 89.7897 1012.02 84.1698 1007.15 79.4998C1002.31 74.7998 996.49 72.4498 989.68 72.4498C982.84 72.4498 977 74.7998 972.16 79.4998C967.32 84.1698 964.9 89.7897 964.9 96.3597V144.18H940.12Z" fill="#063040"/>
<path d="M86 1.66986L111.76 1.6499C111.77 3.8099 111.98 7.33985 113.28 11.3499C118.91 28.7499 136.95 30.8899 154.22 46.4799C156.43 48.4699 171.48 62.3799 177.85 84.0499C184.19 105.6 178.97 124.71 175.79 133.75C165.28 135.88 154.78 138.01 144.27 140.14C147.48 134.65 152.41 124.51 153.34 111.04C153.63 106.84 154.07 94.4899 148.7 81.8399C135.72 51.2799 102.9 52.2099 90.24 21.9799C86.77 13.6499 86.11 6.07986 86 1.66986Z" fill="url(#paint0_linear)"/>
<path d="M195.25 149.01L182.8 171.56C180.9 170.52 177.72 169 173.58 168.2C155.63 164.7 145.02 179.45 123.03 187.02C120.22 187.99 100.76 194.43 78.7102 189.52C56.7802 184.64 42.5802 170.82 36.2202 163.67C39.4402 153.45 42.6602 143.22 45.8902 133C49.1402 138.47 55.6202 147.69 66.9602 155.02C70.4902 157.31 81.0902 163.67 94.7602 165.09C127.79 168.52 142.85 139.35 175.43 142.91C184.39 143.89 191.33 146.98 195.25 149.01Z" fill="url(#paint1_linear)"/>
<path d="M13.9998 169.49L0.799805 147.37C2.6598 146.26 5.56981 144.27 8.34981 141.1C20.4198 127.36 13.0298 110.76 17.5798 87.95C18.1598 85.04 22.4098 64.98 37.7598 48.42C53.0298 31.94 72.1198 26.65 81.5098 24.75C88.7098 32.69 95.9198 40.62 103.12 48.56C96.7598 48.61 85.5298 49.56 73.4798 55.66C69.7198 57.56 58.8898 63.5 50.7698 74.59C31.1598 101.38 48.7598 129.1 29.2598 155.45C23.8998 162.7 17.7298 167.14 13.9998 169.49Z" fill="url(#paint2_linear)"/>
<defs>
<linearGradient id="paint0_linear" x1="154.808" y1="26.7619" x2="102.772" y2="115.861" gradientUnits="userSpaceOnUse">
<stop stop-color="#FEB12B"/>
<stop offset="0.1976" stop-color="#FEAE2B"/>
<stop offset="0.3521" stop-color="#FEA42B"/>
<stop offset="0.4919" stop-color="#FD932A"/>
<stop offset="0.6231" stop-color="#FD7C2A"/>
<stop offset="0.7483" stop-color="#FD5E29"/>
<stop offset="0.8689" stop-color="#FC3928"/>
<stop offset="0.9839" stop-color="#FB0E27"/>
<stop offset="0.9949" stop-color="#FB0927"/>
</linearGradient>
<linearGradient id="paint1_linear" x1="139.949" y1="197.068" x2="87.1602" y2="108.413" gradientUnits="userSpaceOnUse">
<stop stop-color="#FEB12B"/>
<stop offset="0.1976" stop-color="#FEAE2B"/>
<stop offset="0.3521" stop-color="#FEA42B"/>
<stop offset="0.4919" stop-color="#FD932A"/>
<stop offset="0.6231" stop-color="#FD7C2A"/>
<stop offset="0.7483" stop-color="#FD5E29"/>
<stop offset="0.8689" stop-color="#FC3928"/>
<stop offset="0.9839" stop-color="#FB0E27"/>
<stop offset="0.9949" stop-color="#FB0927"/>
</linearGradient>
<linearGradient id="paint2_linear" x1="0.376642" y1="97.5527" x2="103.56" y2="96.6554" gradientUnits="userSpaceOnUse">
<stop stop-color="#FEB12B"/>
<stop offset="0.1976" stop-color="#FEAE2B"/>
<stop offset="0.3521" stop-color="#FEA42B"/>
<stop offset="0.4919" stop-color="#FD932A"/>
<stop offset="0.6231" stop-color="#FD7C2A"/>
<stop offset="0.7483" stop-color="#FD5E29"/>
<stop offset="0.8689" stop-color="#FC3928"/>
<stop offset="0.9839" stop-color="#FB0E27"/>
<stop offset="0.9949" stop-color="#FB0927"/>
</linearGradient>
</defs>
</svg>
