<?xml version="1.0" encoding="UTF-8" standalone="no"?>
<svg
   xmlns:dc="http://purl.org/dc/elements/1.1/"
   xmlns:cc="http://creativecommons.org/ns#"
   xmlns:rdf="http://www.w3.org/1999/02/22-rdf-syntax-ns#"
   xmlns:svg="http://www.w3.org/2000/svg"
   xmlns="http://www.w3.org/2000/svg"
   xmlns:sodipodi="http://sodipodi.sourceforge.net/DTD/sodipodi-0.dtd"
   xmlns:inkscape="http://www.inkscape.org/namespaces/inkscape"
   width="244"
   height="242"
   viewBox="0 2 244 244"
   fill="none"
   version="1.1"
   id="svg1380"
   sodipodi:docname="logo_fundoClaro.svg"
   inkscape:version="1.0.1 (3bc2e813f5, 2020-09-07)">
  <metadata
     id="metadata1384">
    <rdf:RDF>
      <cc:Work
         rdf:about="">
        <dc:format>image/svg+xml</dc:format>
        <dc:type
           rdf:resource="http://purl.org/dc/dcmitype/StillImage" />
      </cc:Work>
    </rdf:RDF>
  </metadata>
  <sodipodi:namedview
     pagecolor="#ffffff"
     bordercolor="#666666"
     borderopacity="1"
     objecttolerance="10"
     gridtolerance="10"
     guidetolerance="10"
     inkscape:pageopacity="0"
     inkscape:pageshadow="2"
     inkscape:window-width="600"
     inkscape:window-height="1016"
     id="namedview1382"
     showgrid="false"
     inkscape:zoom="0.73168237"
     inkscape:cx="590.90519"
     inkscape:cy="13.497174"
     inkscape:window-x="600"
     inkscape:window-y="27"
     inkscape:window-maximized="1"
     inkscape:current-layer="svg1380" />
  <g
     id="g1399"
     transform="translate(-6.697652,5.6504892)">
    <path
       d="m 132.18633,185.5319 c 32.01656,0 57.97014,-25.95357 57.97014,-57.97 0,-32.015714 -25.95358,-57.969775 -57.97014,-57.969775 -32.01594,0 -57.970004,25.954061 -57.970004,57.969775 0,32.01643 25.954064,57.97 57.970004,57.97 z"
       fill="#063040"
       id="path1295"
       style="stroke-width:1.20295" />
    <path
       d="m 132.18657,153.64179 c 15.30016,0 27.70376,-12.40359 27.70376,-27.70388 0,-15.30063 -12.4036,-27.704103 -27.70376,-27.704103 -15.3004,0 -27.70386,12.403473 -27.70386,27.704103 0,15.30029 12.40346,27.70388 27.70386,27.70388 z"
       fill="#ffffff"
       id="path1297"
       style="stroke-width:1.20295" />
    
    
    
    
    <path
       d="m 117.59471,1.8417437 30.98791,-0.024003 c 0.012,2.598365 0.26465,6.8447088 1.82848,11.6685843 6.77259,20.931278 28.47376,23.505583 49.24864,42.259527 2.65852,2.393864 20.76288,19.126857 28.42565,45.194718 7.62669,25.92361 1.3473,48.91193 -2.47808,59.78657 -12.64297,2.56228 -25.2739,5.12456 -37.91687,7.68684 3.86144,-6.60418 9.79198,-18.80207 10.91072,-35.00577 0.34885,-5.05237 0.87815,-19.90889 -5.58168,-35.126156 C 177.40523,61.519993 137.92451,62.638735 122.6952,26.273647 118.52097,16.2531 117.72703,7.146744 117.59471,1.8417469 Z"
       fill="url(#paint0_linear)"
       id="path1315"
       style="fill:url(#paint0_linear);stroke-width:1.20295" />
    <path
       d="m 249.01666,179.0841 -14.9767,27.12646 c -2.28558,-1.25106 -6.11095,-3.07954 -11.09116,-4.0419 -21.5929,-4.21031 -34.35617,13.53315 -60.80897,22.63946 -3.38027,1.16686 -26.78962,8.91384 -53.31437,3.00737 -26.380614,-5.87038 -43.462466,-22.49511 -51.113196,-31.09618 3.873481,-12.29412 7.746972,-24.60026 11.632487,-36.89438 3.90958,6.58012 11.704674,17.6713 25.346094,26.4889 4.246397,2.75474 16.997625,10.40548 33.441925,12.11367 39.73309,4.12611 57.84947,-30.96386 97.04148,-26.68136 10.7784,1.17889 19.12685,4.89599 23.84241,7.33796 z"
       fill="url(#paint1_linear)"
       id="path1317"
       style="fill:url(#paint1_linear);stroke-width:1.20295" />
    <path
       d="M 30.982298,203.72046 15.103404,177.11127 c 2.237475,-1.33526 5.738063,-3.72913 9.082256,-7.54248 14.519557,-16.52849 5.62978,-36.4974 11.103188,-63.93662 0.697708,-3.50056 5.810233,-27.631687 24.275471,-47.552488 18.368997,-19.824566 41.333251,-26.188154 52.628911,-28.473755 8.66123,9.551399 17.33447,19.090769 25.99593,28.642167 -7.65098,0.06014 -21.16008,1.202947 -35.65558,8.540924 -4.523082,2.285599 -17.551001,9.431104 -27.31893,22.771785 -23.589782,32.226957 -2.417926,65.572627 -25.875382,97.270287 -6.447795,8.72136 -13.869979,14.06244 -18.35697,16.88937 z"
       fill="url(#paint2_linear)"
       id="path1319"
       style="fill:url(#paint2_linear);stroke-width:1.20295" />
  </g>
  <defs
     id="defs1378">
    <linearGradient
       id="paint0_linear"
       x1="154.808"
       y1="26.7619"
       x2="102.772"
       y2="115.861"
       gradientUnits="userSpaceOnUse"
       gradientTransform="matrix(1.2029469,0,0,1.2029469,14.141274,-0.1670103)">
      <stop
         stop-color="#FEB12B"
         id="stop1321" />
      <stop
         offset="0.1976"
         stop-color="#FEAE2B"
         id="stop1323" />
      <stop
         offset="0.3521"
         stop-color="#FEA42B"
         id="stop1325" />
      <stop
         offset="0.4919"
         stop-color="#FD932A"
         id="stop1327" />
      <stop
         offset="0.6231"
         stop-color="#FD7C2A"
         id="stop1329" />
      <stop
         offset="0.7483"
         stop-color="#FD5E29"
         id="stop1331" />
      <stop
         offset="0.8689"
         stop-color="#FC3928"
         id="stop1333" />
      <stop
         offset="0.9839"
         stop-color="#FB0E27"
         id="stop1335" />
      <stop
         offset="0.9949"
         stop-color="#FB0927"
         id="stop1337" />
    </linearGradient>
    <linearGradient
       id="paint1_linear"
       x1="139.949"
       y1="197.068"
       x2="87.1602"
       y2="108.413"
       gradientUnits="userSpaceOnUse"
       gradientTransform="matrix(1.2029469,0,0,1.2029469,14.141274,-0.1670103)">
      <stop
         stop-color="#FEB12B"
         id="stop1340" />
      <stop
         offset="0.1976"
         stop-color="#FEAE2B"
         id="stop1342" />
      <stop
         offset="0.3521"
         stop-color="#FEA42B"
         id="stop1344" />
      <stop
         offset="0.4919"
         stop-color="#FD932A"
         id="stop1346" />
      <stop
         offset="0.6231"
         stop-color="#FD7C2A"
         id="stop1348" />
      <stop
         offset="0.7483"
         stop-color="#FD5E29"
         id="stop1350" />
      <stop
         offset="0.8689"
         stop-color="#FC3928"
         id="stop1352" />
      <stop
         offset="0.9839"
         stop-color="#FB0E27"
         id="stop1354" />
      <stop
         offset="0.9949"
         stop-color="#FB0927"
         id="stop1356" />
    </linearGradient>
    <linearGradient
       id="paint2_linear"
       x1="0.376642"
       y1="97.5527"
       x2="103.56"
       y2="96.6554"
       gradientUnits="userSpaceOnUse"
       gradientTransform="matrix(1.2029469,0,0,1.2029469,14.141274,-0.1670103)">
      <stop
         stop-color="#FEB12B"
         id="stop1359" />
      <stop
         offset="0.1976"
         stop-color="#FEAE2B"
         id="stop1361" />
      <stop
         offset="0.3521"
         stop-color="#FEA42B"
         id="stop1363" />
      <stop
         offset="0.4919"
         stop-color="#FD932A"
         id="stop1365" />
      <stop
         offset="0.6231"
         stop-color="#FD7C2A"
         id="stop1367" />
      <stop
         offset="0.7483"
         stop-color="#FD5E29"
         id="stop1369" />
      <stop
         offset="0.8689"
         stop-color="#FC3928"
         id="stop1371" />
      <stop
         offset="0.9839"
         stop-color="#FB0E27"
         id="stop1373" />
      <stop
         offset="0.9949"
         stop-color="#FB0927"
         id="stop1375" />
    </linearGradient>
  </defs>
</svg>
