<svg width="1425" height="96" viewBox="0 0 1425 96" fill="none" xmlns="http://www.w3.org/2000/svg">
<g clip-path="url(#clip0)">
<path d="M155.387 33.5503H167.733L180.365 68.7052L192.966 33.5503H205.312L187.671 81.1787H173.028L155.387 33.5503Z" fill="white"/>
<path d="M216.684 65.1013C214.302 65.1013 212.505 65.5052 211.293 66.3133C210.102 67.1213 209.506 68.3123 209.506 69.8861C209.506 71.3324 209.985 72.4703 210.942 73.2998C211.92 74.1078 213.271 74.5118 214.993 74.5118C217.141 74.5118 218.949 73.7459 220.416 72.2146C221.884 70.662 222.618 68.7269 222.618 66.4088V65.1013H216.684ZM234.134 60.7944V81.179H222.618V75.8834C221.086 78.0529 219.364 79.6374 217.45 80.6369C215.536 81.6151 213.207 82.1041 210.463 82.1041C206.763 82.1041 203.753 81.0301 201.435 78.8823C199.138 76.7129 197.99 73.9057 197.99 70.4605C197.99 66.2708 199.426 63.1975 202.297 61.241C205.189 59.2842 209.719 58.3058 215.886 58.3058H222.618V57.4126C222.618 55.6049 221.905 54.2867 220.48 53.4573C219.055 52.6066 216.833 52.1811 213.813 52.1811C211.367 52.1811 209.092 52.4256 206.986 52.9147C204.881 53.4038 202.924 54.1375 201.116 55.1159V46.4066C203.562 45.8112 206.018 45.3646 208.485 45.0668C210.952 44.7478 213.419 44.5884 215.886 44.5884C222.33 44.5884 226.977 45.8646 229.827 48.4168C232.698 50.9476 234.134 55.0735 234.134 60.7944V60.7944Z" fill="white"/>
<path d="M273.179 51.3834C274.625 49.1714 276.337 47.4916 278.315 46.3434C280.314 45.1735 282.505 44.5884 284.887 44.5884C288.991 44.5884 292.117 45.854 294.265 48.385C296.413 50.9157 297.487 54.595 297.487 59.4227V81.179H286.003V62.5485C286.024 62.2721 286.035 61.985 286.035 61.6871C286.056 61.3896 286.067 60.9645 286.067 60.4115C286.067 57.8807 285.694 56.0519 284.95 54.9249C284.206 53.7764 283.004 53.2021 281.345 53.2021C279.176 53.2021 277.496 54.0953 276.305 55.8817C275.135 57.6682 274.529 60.2522 274.486 63.6337V81.179H263.002V62.5485C263.002 58.5929 262.662 56.0519 261.981 54.9249C261.301 53.7764 260.088 53.2021 258.345 53.2021C256.154 53.2021 254.463 54.106 253.272 55.9136C252.081 57.7 251.486 60.2627 251.486 63.6018V81.179H240.001V45.4498H251.486V50.6817C252.889 48.6611 254.495 47.1404 256.303 46.1197C258.132 45.0987 260.142 44.5884 262.332 44.5884C264.799 44.5884 266.979 45.1837 268.872 46.3748C270.765 47.5659 272.2 49.2354 273.179 51.3834H273.179Z" fill="white"/>
<path d="M318.743 52.7551C316.213 52.7551 314.277 53.6698 312.937 55.4988C311.619 57.3064 310.96 59.9222 310.96 63.3462C310.96 66.7705 311.619 69.3971 312.937 71.2259C314.277 73.0338 316.213 73.9374 318.743 73.9374C321.232 73.9374 323.135 73.0338 324.454 71.2259C325.772 69.3971 326.432 66.7705 326.432 63.3462C326.432 59.9222 325.772 57.3064 324.454 55.4988C323.135 53.6698 321.232 52.7551 318.743 52.7551ZM318.743 44.5884C324.89 44.5884 329.686 46.2472 333.131 49.5652C336.597 52.8828 338.331 57.4766 338.331 63.3462C338.331 69.2161 336.597 73.8096 333.131 77.1273C329.686 80.445 324.89 82.1041 318.743 82.1041C312.576 82.1041 307.748 80.445 304.26 77.1273C300.794 73.8096 299.061 69.2161 299.061 63.3462C299.061 57.4766 300.794 52.8828 304.26 49.5652C307.748 46.2472 312.576 44.5884 318.743 44.5884Z" fill="white"/>
<path d="M370.03 46.5659V55.2433C367.584 54.2223 365.223 53.4566 362.948 52.9461C360.672 52.4359 358.524 52.1807 356.504 52.1807C354.334 52.1807 352.718 52.457 351.655 53.0098C350.613 53.5415 350.091 54.3711 350.091 55.4984C350.091 56.4128 350.485 57.1148 351.272 57.6041C352.08 58.0932 353.516 58.4545 355.578 58.6883L357.588 58.9758C363.437 59.7201 367.371 60.9428 369.392 62.6441C371.412 64.3456 372.422 67.0145 372.422 70.6511C372.422 74.4581 371.019 77.3186 368.211 79.2326C365.404 81.1465 361.214 82.1037 355.642 82.1037C353.282 82.1037 350.836 81.912 348.305 81.5293C345.795 81.1677 343.211 80.615 340.553 79.8707V71.1937C342.829 72.2996 345.157 73.1288 347.539 73.6819C349.943 74.2347 352.378 74.5114 354.845 74.5114C357.078 74.5114 358.758 74.2027 359.885 73.5859C361.012 72.9693 361.576 72.0553 361.576 70.8431C361.576 69.8221 361.182 69.0668 360.395 68.5778C359.63 68.0673 358.088 67.674 355.77 67.3976L353.76 67.1443C348.677 66.506 345.115 65.3257 343.073 63.6033C341.032 61.8806 340.011 59.2646 340.011 55.7554C340.011 51.9698 341.308 49.1626 343.903 47.3336C346.497 45.5046 350.474 44.5898 355.834 44.5898C357.939 44.5898 360.151 44.7493 362.469 45.0683C364.787 45.3875 367.307 45.8874 370.03 46.5677V46.5659Z" fill="white"/>
<path d="M417.984 46.5659V55.2433C415.538 54.2223 413.178 53.4566 410.902 52.9461C408.627 52.4359 406.479 52.1807 404.458 52.1807C402.289 52.1807 400.673 52.457 399.609 53.0098C398.567 53.5415 398.046 54.3711 398.046 55.4984C398.046 56.4128 398.439 57.1148 399.226 57.6041C400.035 58.0932 401.47 58.4545 403.533 58.6883L405.543 58.9758C411.391 59.7201 415.326 60.9428 417.346 62.6441C419.367 64.3456 420.377 67.0145 420.377 70.6511C420.377 74.4581 418.973 77.3186 416.166 79.2326C413.359 81.1465 409.169 82.1037 403.597 82.1037C401.236 82.1037 398.79 81.912 396.26 81.5293C393.75 81.1677 391.166 80.615 388.508 79.8707V71.1937C390.783 72.2996 393.112 73.1288 395.494 73.6819C397.897 74.2347 400.332 74.5114 402.799 74.5114C405.032 74.5114 406.712 74.2027 407.84 73.5859C408.967 72.9693 409.53 72.0553 409.53 70.8431C409.53 69.8221 409.137 69.0668 408.35 68.5778C407.584 68.0673 406.043 67.674 403.724 67.3976L401.715 67.1443C396.632 66.506 393.07 65.3257 391.028 63.6033C388.986 61.8806 387.965 59.2646 387.965 55.7554C387.965 51.9698 389.263 49.1626 391.857 47.3336C394.452 45.5046 398.429 44.5898 403.788 44.5898C405.894 44.5898 408.105 44.7493 410.424 45.0683C412.742 45.3875 415.262 45.8874 417.984 46.5677V46.5659Z" fill="white"/>
<path d="M458.73 63.2189V66.4725H432.028C432.305 69.1521 433.273 71.1621 434.931 72.5021C436.59 73.8418 438.908 74.5118 441.886 74.5118C444.289 74.5118 446.745 74.1607 449.255 73.4589C451.786 72.7358 454.38 71.6512 457.039 70.2049V79.0097C454.338 80.0306 451.637 80.7961 448.936 81.3064C446.235 81.838 443.534 82.1041 440.833 82.1041C434.368 82.1041 429.338 80.4665 425.744 77.1914C422.171 73.8949 420.385 69.2798 420.385 63.3462C420.385 57.5189 422.139 52.9358 425.648 49.597C429.179 46.2579 434.028 44.5884 440.195 44.5884C445.81 44.5884 450.297 46.2795 453.657 49.6611C457.039 53.0425 458.73 57.5617 458.73 63.2189ZM446.99 59.4227C446.99 57.2533 446.352 55.5094 445.076 54.1908C443.821 52.8511 442.173 52.1811 440.131 52.1811C437.919 52.1811 436.122 52.8087 434.74 54.0635C433.358 55.2969 432.496 57.0832 432.156 59.4227H446.99Z" fill="white"/>
<path d="M489.655 55.18C488.656 54.7121 487.656 54.3716 486.656 54.159C485.678 53.9246 484.689 53.8074 483.69 53.8074C480.755 53.8074 478.49 54.7539 476.895 56.6467C475.321 58.5183 474.534 61.2087 474.534 64.7178V81.1785H463.114V45.4493H474.534V51.3193C476.002 48.9797 477.682 47.2784 479.574 46.2151C481.489 45.1304 483.775 44.5879 486.433 44.5879C486.816 44.5879 487.231 44.6096 487.677 44.6525C488.124 44.6777 488.773 44.7416 489.623 44.8449L489.655 55.18Z" fill="white"/>
<path d="M537.322 51.3834C538.768 49.1714 540.48 47.4916 542.458 46.3434C544.457 45.1735 546.647 44.5884 549.029 44.5884C553.134 44.5884 556.26 45.854 558.408 48.385C560.556 50.9157 561.63 54.595 561.63 59.4227V81.179H550.146V62.5485C550.166 62.2721 550.176 61.985 550.176 61.6871C550.196 61.3896 550.206 60.9645 550.206 60.4115C550.206 57.8807 549.834 56.0519 549.09 54.9249C548.345 53.7764 547.144 53.2021 545.485 53.2021C543.316 53.2021 541.635 54.0953 540.444 55.8817C539.275 57.6682 538.669 60.2522 538.626 63.6337V81.179H527.142V62.5485C527.142 58.5929 526.801 56.0519 526.121 54.9249C525.44 53.7764 524.228 53.2021 522.484 53.2021C520.294 53.2021 518.603 54.106 517.412 55.9136C516.221 57.7 515.625 60.2627 515.625 63.6018V81.179H504.141V45.4498H515.625V50.6817C517.029 48.6611 518.635 47.1404 520.443 46.1197C522.272 45.0987 524.281 44.5884 526.472 44.5884C528.939 44.5884 531.119 45.1837 533.012 46.3748C534.904 47.5659 536.34 49.2354 537.318 51.3834H537.322Z" fill="white"/>
<path d="M565.883 45.4494H577.304V81.1787H565.883V45.4494ZM565.883 31.5405H577.304V40.8555H565.883V31.5405Z" fill="white"/>
<path d="M609.138 75.1179C607.564 77.2019 605.831 78.7329 603.938 79.7112C602.046 80.6896 599.855 81.1789 597.367 81.1789C593.007 81.1789 589.402 79.4667 586.552 76.0424C583.702 72.5973 582.278 68.2162 582.278 62.8995C582.278 57.5612 583.702 53.1911 586.552 49.7883C589.402 46.3643 593.007 44.6523 597.367 44.6523C599.855 44.6523 602.046 45.1411 603.938 46.1195C605.831 47.0976 607.564 48.6397 609.138 50.7452V45.4496H620.623V77.5742C620.623 83.3163 618.804 87.6971 615.168 90.7172C611.552 93.7584 606.299 95.2792 599.408 95.2792C597.175 95.2792 595.017 95.1089 592.933 94.7685C590.848 94.4283 588.753 93.9073 586.648 93.2053V84.3051C588.647 85.4536 590.604 86.3043 592.518 86.8574C594.432 87.4316 596.357 87.7188 598.292 87.7188C602.035 87.7188 604.778 86.8998 606.522 85.262C608.266 83.6244 609.138 81.0619 609.138 77.5742V75.1179ZM601.61 52.8827C599.249 52.8827 597.409 53.7548 596.091 55.4986C594.772 57.2425 594.113 59.7093 594.113 62.8995C594.113 66.1745 594.751 68.6631 596.027 70.3644C597.303 72.0445 599.164 72.8844 601.61 72.8844C603.992 72.8844 605.842 72.0123 607.16 70.2684C608.479 68.5246 609.138 66.0682 609.138 62.8995C609.138 59.7093 608.479 57.2425 607.16 55.4986C605.842 53.7548 603.992 52.8827 601.61 52.8827Z" fill="white"/>
<path d="M644.365 52.7551C641.834 52.7551 639.899 53.6698 638.559 55.4988C637.24 57.3064 636.581 59.9222 636.581 63.3462C636.581 66.7705 637.24 69.3971 638.559 71.2259C639.899 73.0338 641.834 73.9374 644.365 73.9374C646.853 73.9374 648.756 73.0338 650.075 71.2259C651.394 69.3971 652.053 66.7705 652.053 63.3462C652.053 59.9222 651.394 57.3064 650.075 55.4988C648.756 53.6698 646.853 52.7551 644.365 52.7551ZM644.365 44.5884C650.511 44.5884 655.307 46.2472 658.752 49.5652C662.219 52.8828 663.952 57.4766 663.952 63.3462C663.952 69.2161 662.219 73.8096 658.752 77.1273C655.307 80.445 650.511 82.1041 644.365 82.1041C638.197 82.1041 633.37 80.445 629.882 77.1273C626.415 73.8096 624.682 69.2161 624.682 63.3462C624.682 57.4766 626.415 52.8828 629.882 49.5652C633.37 46.2472 638.197 44.5884 644.365 44.5884Z" fill="white"/>
<path d="M695.651 46.5659V55.2433C693.205 54.2223 690.844 53.4566 688.569 52.9461C686.293 52.4359 684.145 52.1807 682.125 52.1807C679.956 52.1807 678.339 52.457 677.276 53.0098C676.234 53.5415 675.713 54.3711 675.713 55.4984C675.713 56.4128 676.106 57.1148 676.893 57.6041C677.701 58.0932 679.137 58.4545 681.2 58.6883L683.21 58.9758C689.058 59.7201 692.993 60.9428 695.013 62.6441C697.033 64.3456 698.043 67.0145 698.043 70.6511C698.043 74.4581 696.64 77.3186 693.833 79.2326C691.025 81.1465 686.836 82.1037 681.264 82.1037C678.903 82.1037 676.457 81.912 673.926 81.5293C671.417 81.1677 668.833 80.615 666.174 79.8707V71.1937C668.45 72.2996 670.779 73.1288 673.161 73.6819C675.564 74.2347 677.999 74.5114 680.466 74.5114C682.699 74.5114 684.379 74.2027 685.506 73.5859C686.634 72.9693 687.197 72.0553 687.197 70.8431C687.197 69.8221 686.804 69.0668 686.017 68.5778C685.251 68.0673 683.709 67.674 681.391 67.3976L679.381 67.1443C674.298 66.506 670.736 65.3257 668.695 63.6033C666.653 61.8806 665.632 59.2646 665.632 55.7554C665.632 51.9698 666.929 49.1626 669.524 47.3336C672.119 45.5046 676.096 44.5898 681.455 44.5898C683.56 44.5898 685.772 44.7493 688.09 45.0683C690.409 45.3875 692.929 45.8874 695.651 46.5677V46.5659Z" fill="white"/>
<path d="M751.613 59.4227V81.179H740.128V77.638V64.5264C740.128 61.4428 740.054 59.316 739.905 58.1461C739.778 56.9765 739.544 56.1153 739.203 55.5625C738.757 54.8179 738.15 54.2436 737.385 53.8397C736.619 53.4144 735.747 53.2021 734.769 53.2021C732.387 53.2021 730.515 54.127 729.154 55.9773C727.793 57.8063 727.113 60.3479 727.113 63.6018V81.179H715.692V45.4498H727.113V50.6817C728.835 48.5974 730.664 47.0662 732.6 46.0878C734.535 45.0883 736.672 44.5884 739.012 44.5884C743.138 44.5884 746.264 45.854 748.391 48.385C750.539 50.9157 751.613 54.595 751.613 59.4227V59.4227Z" fill="white"/>
<path d="M772.54 65.1013C770.158 65.1013 768.361 65.5052 767.149 66.3133C765.958 67.1213 765.362 68.3123 765.362 69.8861C765.362 71.3324 765.841 72.4703 766.798 73.2998C767.776 74.1078 769.127 74.5118 770.849 74.5118C772.997 74.5118 774.805 73.7459 776.272 72.2146C777.74 70.662 778.474 68.7269 778.474 66.4088V65.1013H772.54ZM789.99 60.7944V81.179H778.474V75.8834C776.942 78.0529 775.22 79.6374 773.306 80.6369C771.391 81.6151 769.063 82.1041 766.319 82.1041C762.619 82.1041 759.609 81.0301 757.291 78.8823C754.994 76.7129 753.846 73.9057 753.846 70.4605C753.846 66.2708 755.281 63.1975 758.153 61.241C761.045 59.2842 765.575 58.3058 771.742 58.3058H778.474V57.4126C778.474 55.6049 777.761 54.2867 776.336 53.4573C774.911 52.6066 772.689 52.1811 769.669 52.1811C767.223 52.1811 764.947 52.4256 762.842 52.9147C760.737 53.4038 758.78 54.1375 756.972 55.1159V46.4066C759.418 45.8112 761.874 45.3646 764.341 45.0668C766.808 44.7478 769.275 44.5884 771.742 44.5884C778.186 44.5884 782.833 45.8646 785.683 48.4168C788.554 50.9476 789.99 55.0735 789.99 60.7944V60.7944Z" fill="white"/>
<path d="M823.835 46.5659V55.2433C821.389 54.2223 819.029 53.4566 816.753 52.9461C814.477 52.4359 812.329 52.1807 810.309 52.1807C808.14 52.1807 806.523 52.457 805.46 53.0098C804.418 53.5415 803.897 54.3711 803.897 55.4984C803.897 56.4128 804.29 57.1148 805.077 57.6041C805.885 58.0932 807.321 58.4545 809.384 58.6883L811.394 58.9758C817.242 59.7201 821.177 60.9428 823.197 62.6441C825.217 64.3456 826.228 67.0145 826.228 70.6511C826.228 74.4581 824.824 77.3186 822.017 79.2326C819.209 81.1465 815.02 82.1037 809.448 82.1037C807.087 82.1037 804.641 81.912 802.11 81.5293C799.601 81.1677 797.017 80.615 794.359 79.8707V71.1937C796.634 72.2996 798.963 73.1288 801.345 73.6819C803.748 74.2347 806.183 74.5114 808.65 74.5114C810.883 74.5114 812.563 74.2027 813.691 73.5859C814.818 72.9693 815.381 72.0553 815.381 70.8431C815.381 69.8221 814.988 69.0668 814.201 68.5778C813.435 68.0673 811.893 67.674 809.575 67.3976L807.566 67.1443C802.483 66.506 798.92 65.3257 796.879 63.6033C794.837 61.8806 793.816 59.2646 793.816 55.7554C793.816 51.9698 795.113 49.1626 797.708 47.3336C800.303 45.5046 804.28 44.5898 809.639 44.5898C811.745 44.5898 813.956 44.7493 816.275 45.0683C818.593 45.3875 821.113 45.8874 823.835 46.5677V46.5659Z" fill="white"/>
<path d="M870.418 55.18C869.418 54.7121 868.419 54.3716 867.419 54.159C866.441 53.9246 865.452 53.8074 864.452 53.8074C861.517 53.8074 859.252 54.7539 857.657 56.6467C856.084 58.5183 855.297 61.2087 855.297 64.7178V81.1785H843.876V45.4493H855.297V51.3193C856.764 48.9797 858.444 47.2784 860.337 46.2151C862.251 45.1304 864.537 44.5879 867.196 44.5879C867.579 44.5879 867.993 44.6096 868.44 44.6525C868.887 44.6777 869.535 44.7416 870.386 44.8449L870.418 55.18Z" fill="white"/>
<path d="M906.981 63.2189V66.4725H880.28C880.557 69.1521 881.524 71.1621 883.183 72.5021C884.842 73.8418 887.16 74.5118 890.138 74.5118C892.541 74.5118 894.997 74.1607 897.507 73.4589C900.038 72.7358 902.632 71.6512 905.291 70.2049V79.0097C902.59 80.0306 899.889 80.7961 897.188 81.3064C894.487 81.838 891.786 82.1041 889.085 82.1041C882.62 82.1041 877.59 80.4665 873.996 77.1914C870.423 73.8949 868.636 69.2798 868.636 63.3462C868.636 57.5189 870.391 52.9358 873.9 49.597C877.43 46.2579 882.279 44.5884 888.447 44.5884C894.062 44.5884 898.549 46.2795 901.909 49.6611C905.291 53.0425 906.981 57.5617 906.981 63.2189ZM895.242 59.4227C895.242 57.2533 894.604 55.5094 893.328 54.1908C892.073 52.8511 890.425 52.1811 888.383 52.1811C886.171 52.1811 884.374 52.8087 882.992 54.0635C881.61 55.2969 880.748 57.0832 880.408 59.4227H895.242Z" fill="white"/>
<path d="M935.674 50.6813V31.5405H947.159V81.1787H935.674V76.0109C934.1 78.1163 932.367 79.6582 930.474 80.6366C928.581 81.6147 926.391 82.1037 923.903 82.1037C919.5 82.1037 915.885 80.3595 913.056 76.8718C910.228 73.3626 908.813 68.8541 908.813 63.3459C908.813 57.8378 910.228 53.3398 913.056 49.8518C915.885 46.3426 919.5 44.588 923.903 44.588C926.37 44.588 928.55 45.0879 930.442 46.0875C932.356 47.0659 934.1 48.597 935.674 50.6813V50.6813ZM928.145 73.8097C930.591 73.8097 932.452 72.9161 933.728 71.1296C935.025 69.3431 935.674 66.7487 935.674 63.3459C935.674 59.9433 935.025 57.3486 933.728 55.5621C932.452 53.7757 930.591 52.8825 928.145 52.8825C925.721 52.8825 923.86 53.7757 922.563 55.5621C921.287 57.3486 920.649 59.9433 920.649 63.3459C920.649 66.7487 921.287 69.3431 922.563 71.1296C923.86 72.9161 925.721 73.8097 928.145 73.8097Z" fill="white"/>
<path d="M990.739 63.2189V66.4725H964.038C964.314 69.1521 965.282 71.1621 966.941 72.5021C968.6 73.8418 970.918 74.5118 973.895 74.5118C976.298 74.5118 978.755 74.1607 981.264 73.4589C983.795 72.7358 986.39 71.6512 989.048 70.2049V79.0097C986.347 80.0306 983.646 80.7961 980.945 81.3064C978.244 81.838 975.543 82.1041 972.842 82.1041C966.377 82.1041 961.347 80.4665 957.753 77.1914C954.18 73.8949 952.394 69.2798 952.394 63.3462C952.394 57.5189 954.148 52.9358 957.657 49.597C961.188 46.2579 966.037 44.5884 972.204 44.5884C977.819 44.5884 982.306 46.2795 985.667 49.6611C989.048 53.0425 990.739 57.5617 990.739 63.2189ZM978.999 59.4227C978.999 57.2533 978.361 55.5094 977.085 54.1908C975.83 52.8511 974.182 52.1811 972.141 52.1811C969.929 52.1811 968.132 52.8087 966.749 54.0635C965.367 55.2969 964.506 57.0832 964.165 59.4227H978.999Z" fill="white"/>
<path d="M1023.04 46.5659V55.2433C1020.59 54.2223 1018.23 53.4566 1015.95 52.9461C1013.68 52.4359 1011.53 52.1807 1009.51 52.1807C1007.34 52.1807 1005.72 52.457 1004.66 53.0098C1003.62 53.5415 1003.1 54.3711 1003.1 55.4984C1003.1 56.4128 1003.49 57.1148 1004.28 57.6041C1005.09 58.0932 1006.52 58.4545 1008.59 58.6883L1010.6 58.9758C1016.44 59.7201 1020.38 60.9428 1022.4 62.6441C1024.42 64.3456 1025.43 67.0145 1025.43 70.6511C1025.43 74.4581 1024.03 77.3186 1021.22 79.2326C1018.41 81.1465 1014.22 82.1037 1008.65 82.1037C1006.29 82.1037 1003.84 81.912 1001.31 81.5293C998.802 81.1677 996.218 80.615 993.56 79.8707V71.1937C995.835 72.2996 998.164 73.1288 1000.55 73.6819C1002.95 74.2347 1005.38 74.5114 1007.85 74.5114C1010.08 74.5114 1011.76 74.2027 1012.89 73.5859C1014.02 72.9693 1014.58 72.0553 1014.58 70.8431C1014.58 69.8221 1014.19 69.0668 1013.4 68.5778C1012.64 68.0673 1011.09 67.674 1008.78 67.3976L1006.77 67.1443C1001.68 66.506 998.122 65.3257 996.08 63.6033C994.038 61.8806 993.018 59.2646 993.018 55.7554C993.018 51.9698 994.315 49.1626 996.91 47.3336C999.504 45.5046 1003.48 44.5898 1008.84 44.5898C1010.95 44.5898 1013.16 44.7493 1015.48 45.0683C1017.79 45.3875 1020.31 45.8874 1023.04 46.5677V46.5659Z" fill="white"/>
<path d="M1070.99 46.5659V55.2433C1068.55 54.2223 1066.18 53.4566 1063.91 52.9461C1061.63 52.4359 1059.49 52.1807 1057.47 52.1807C1055.3 52.1807 1053.68 52.457 1052.62 53.0098C1051.57 53.5415 1051.05 54.3711 1051.05 55.4984C1051.05 56.4128 1051.45 57.1148 1052.23 57.6041C1053.04 58.0932 1054.48 58.4545 1056.54 58.6883L1058.55 58.9758C1064.4 59.7201 1068.33 60.9428 1070.35 62.6441C1072.37 64.3456 1073.38 67.0145 1073.38 70.6511C1073.38 74.4581 1071.98 77.3186 1069.17 79.2326C1066.37 81.1465 1062.18 82.1037 1056.6 82.1037C1054.24 82.1037 1051.8 81.912 1049.27 81.5293C1046.76 81.1677 1044.17 80.615 1041.51 79.8707V71.1937C1043.79 72.2996 1046.12 73.1288 1048.5 73.6819C1050.9 74.2347 1053.34 74.5114 1055.81 74.5114C1058.04 74.5114 1059.72 74.2027 1060.85 73.5859C1061.97 72.9693 1062.54 72.0553 1062.54 70.8431C1062.54 69.8221 1062.14 69.0668 1061.36 68.5778C1060.59 68.0673 1059.05 67.674 1056.73 67.3976L1054.72 67.1443C1049.64 66.506 1046.08 65.3257 1044.03 63.6033C1041.99 61.8806 1040.97 59.2646 1040.97 55.7554C1040.97 51.9698 1042.27 49.1626 1044.86 47.3336C1047.46 45.5046 1051.44 44.5898 1056.8 44.5898C1058.9 44.5898 1061.11 44.7493 1063.43 45.0683C1065.75 45.3875 1068.27 45.8874 1070.99 46.5677V46.5659Z" fill="white"/>
<path d="M1093.07 52.7551C1090.54 52.7551 1088.61 53.6698 1087.27 55.4988C1085.95 57.3064 1085.29 59.9222 1085.29 63.3462C1085.29 66.7705 1085.95 69.3971 1087.27 71.2259C1088.61 73.0338 1090.54 73.9374 1093.07 73.9374C1095.56 73.9374 1097.47 73.0338 1098.78 71.2259C1100.1 69.3971 1100.76 66.7705 1100.76 63.3462C1100.76 59.9222 1100.1 57.3064 1098.78 55.4988C1097.47 53.6698 1095.56 52.7551 1093.07 52.7551ZM1093.07 44.5884C1099.22 44.5884 1104.02 46.2472 1107.46 49.5652C1110.93 52.8828 1112.66 57.4766 1112.66 63.3462C1112.66 69.2161 1110.93 73.8096 1107.46 77.1273C1104.02 80.445 1099.22 82.1041 1093.07 82.1041C1086.91 82.1041 1082.08 80.445 1078.59 77.1273C1075.12 73.8096 1073.39 69.2161 1073.39 63.3462C1073.39 57.4766 1075.12 52.8828 1078.59 49.5652C1082.08 46.2472 1086.91 44.5884 1093.07 44.5884Z" fill="white"/>
<path d="M1145.32 46.5663V55.8817C1143.76 54.8182 1142.2 54.0312 1140.63 53.5209C1139.08 53.0104 1137.46 52.7551 1135.78 52.7551C1132.59 52.7551 1130.1 53.6909 1128.31 55.5625C1126.55 57.4127 1125.67 60.0074 1125.67 63.3462C1125.67 66.6853 1126.55 69.2906 1128.31 71.1623C1130.1 73.0125 1132.59 73.9374 1135.78 73.9374C1137.57 73.9374 1139.26 73.6718 1140.85 73.1401C1142.47 72.6085 1143.96 71.8215 1145.32 70.7793V80.1262C1143.53 80.7856 1141.71 81.2748 1139.86 81.5938C1138.03 81.9339 1136.19 82.1041 1134.34 82.1041C1127.9 82.1041 1122.86 80.4558 1119.22 77.1596C1115.59 73.8419 1113.77 69.2375 1113.77 63.3462C1113.77 57.4552 1115.59 52.8614 1119.22 49.5652C1122.86 46.2472 1127.9 44.5884 1134.34 44.5884C1136.21 44.5884 1138.05 44.7587 1139.86 45.0991C1141.69 45.4181 1143.51 45.9071 1145.32 46.5663Z" fill="white"/>
<path d="M1154.41 45.4494H1165.83V81.1787H1154.41V45.4494ZM1154.41 31.5405H1165.83V40.8555H1154.41V31.5405Z" fill="white"/>
<path d="M1189.37 65.1013C1186.98 65.1013 1185.19 65.5052 1183.98 66.3133C1182.78 67.1213 1182.19 68.3123 1182.19 69.8861C1182.19 71.3324 1182.67 72.4703 1183.62 73.2998C1184.6 74.1078 1185.95 74.5118 1187.68 74.5118C1189.82 74.5118 1191.63 73.7459 1193.1 72.2146C1194.57 70.662 1195.3 68.7269 1195.3 66.4088V65.1013H1189.37ZM1206.82 60.7944V81.179H1195.3V75.8834C1193.77 78.0529 1192.05 79.6374 1190.13 80.6369C1188.22 81.6151 1185.89 82.1041 1183.15 82.1041C1179.45 82.1041 1176.44 81.0301 1174.12 78.8823C1171.82 76.7129 1170.67 73.9057 1170.67 70.4605C1170.67 66.2708 1172.11 63.1975 1174.98 61.241C1177.87 59.2842 1182.4 58.3058 1188.57 58.3058H1195.3V57.4126C1195.3 55.6049 1194.59 54.2867 1193.16 53.4573C1191.74 52.6066 1189.52 52.1811 1186.5 52.1811C1184.05 52.1811 1181.77 52.4256 1179.67 52.9147C1177.56 53.4038 1175.61 54.1375 1173.8 55.1159V46.4066C1176.24 45.8112 1178.7 45.3646 1181.17 45.0668C1183.64 44.7478 1186.1 44.5884 1188.57 44.5884C1195.01 44.5884 1199.66 45.8646 1202.51 48.4168C1205.38 50.9476 1206.82 55.0735 1206.82 60.7944V60.7944Z" fill="white"/>
<path d="M1212.75 45.4494H1224.17V81.1787H1212.75V45.4494ZM1212.75 31.5405H1224.17V40.8555H1212.75V31.5405Z" fill="white"/>
<path d="M1259.61 46.5659V55.2433C1257.16 54.2223 1254.8 53.4566 1252.53 52.9461C1250.25 52.4359 1248.1 52.1807 1246.08 52.1807C1243.91 52.1807 1242.3 52.457 1241.23 53.0098C1240.19 53.5415 1239.67 54.3711 1239.67 55.4984C1239.67 56.4128 1240.06 57.1148 1240.85 57.6041C1241.66 58.0932 1243.09 58.4545 1245.16 58.6883L1247.17 58.9758C1253.02 59.7201 1256.95 60.9428 1258.97 62.6441C1260.99 64.3456 1262 67.0145 1262 70.6511C1262 74.4581 1260.6 77.3186 1257.79 79.2326C1254.98 81.1465 1250.79 82.1037 1245.22 82.1037C1242.86 82.1037 1240.41 81.912 1237.88 81.5293C1235.37 81.1677 1232.79 80.615 1230.13 79.8707V71.1937C1232.41 72.2996 1234.74 73.1288 1237.12 73.6819C1239.52 74.2347 1241.96 74.5114 1244.42 74.5114C1246.66 74.5114 1248.34 74.2027 1249.46 73.5859C1250.59 72.9693 1251.15 72.0553 1251.15 70.8431C1251.15 69.8221 1250.76 69.0668 1249.97 68.5778C1249.21 68.0673 1247.67 67.674 1245.35 67.3976L1243.34 67.1443C1238.26 66.506 1234.69 65.3257 1232.65 63.6033C1230.61 61.8806 1229.59 59.2646 1229.59 55.7554C1229.59 51.9698 1230.89 49.1626 1233.48 47.3336C1236.08 45.5046 1240.05 44.5898 1245.41 44.5898C1247.52 44.5898 1249.73 44.7493 1252.05 45.0683C1254.37 45.3875 1256.89 45.8874 1259.61 46.5677V46.5659Z" fill="white"/>
<path d="M1266.51 45.4497H1278.02V57.7955H1266.51V45.4497ZM1266.51 68.8332H1278.02V81.179H1266.51V68.8332Z" fill="white"/>
<path d="M116.59 54.876C92.1069 40.124 72.6856 30.9586 59.8003 25.4413C59.8003 25.4413 51.8909 22.0546 39.9149 18.3346C26.8016 14.2613 4.55226 7.35065 0.613593 13.836C0.161593 14.5786 0.0909323 15.2666 0.0295989 15.9573C-0.830401 25.52 17.3136 33.7093 20.1376 34.952C29.0336 38.7106 39.0029 42.3253 50.0043 45.42C75.3149 52.5426 98.2109 54.7013 116.59 54.876Z" fill="#D8252C"/>
<path d="M86.8461 30.9033C81.9581 26.2793 77.0701 21.6553 72.1821 17.034C66.4887 11.2193 64.5687 5.02332 66.7447 1.96465C67.9794 0.228652 70.1634 0.0219863 70.2701 0.0139863C74.2367 -0.30068 78.7954 4.72199 81.0727 12.782L86.8461 30.9033Z" fill="#FF7878"/>
<path d="M1308.36 54.876C1332.84 40.124 1352.26 30.9586 1365.15 25.4413C1365.15 25.4413 1373.06 22.0546 1385.04 18.3346C1398.15 14.2613 1420.4 7.35065 1424.34 13.836C1424.79 14.5786 1424.86 15.2666 1424.92 15.9573C1425.78 25.52 1407.64 33.7093 1404.81 34.952C1395.92 38.7106 1385.95 42.3253 1374.95 45.42C1349.63 52.5426 1326.74 54.7013 1308.36 54.876Z" fill="#D8252C"/>
<path d="M1338.1 30.9033C1342.99 26.2793 1347.88 21.6553 1352.77 17.034C1358.46 11.2193 1360.38 5.02332 1358.21 1.96465C1356.97 0.228652 1354.79 0.0219863 1354.68 0.0139863C1350.71 -0.30068 1346.15 4.72199 1343.88 12.782L1338.1 30.9033Z" fill="#FF7878"/>
</g>
<defs>
<clipPath id="clip0">
<rect width="1424.95" height="95.2792" fill="white"/>
</clipPath>
</defs>
</svg>
