<svg width="1390" height="457" viewBox="0 0 1390 457" fill="none" xmlns="http://www.w3.org/2000/svg">
<g clip-path="url(#clip0)">
<path d="M0 209.483C0 227.883 15.3374 242.801 34.252 242.801C53.164 242.801 68.5014 227.883 68.5014 209.483C68.5014 191.087 53.164 176.168 34.252 176.168C15.3374 176.168 0 191.087 0 209.483Z" fill="url(#paint0_linear)"/>
<path d="M1320.52 209.426C1320.52 190.995 1335.88 176.05 1354.83 176.05C1373.78 176.05 1389.14 190.995 1389.14 209.426C1389.14 227.855 1373.78 242.801 1354.83 242.801C1335.88 242.801 1320.52 227.855 1320.52 209.426Z" fill="#E29320"/>
<path d="M474.425 204.303C466.581 204.451 459.764 210.08 458.107 217.853C456.396 328.461 366.361 418.347 257.785 420.301C146.487 422.308 51.8561 331.268 50.0667 217.853C48.3894 210.193 41.5868 204.679 33.7841 204.621C25.8974 204.565 18.9587 210.105 17.2614 217.853C17.1081 350.604 127.128 458.681 257.785 456.781C385.879 454.921 491.564 347.973 491.385 217.853C489.696 209.952 482.685 204.299 474.739 204.3C474.635 204.3 474.529 204.3 474.425 204.3" fill="url(#paint1_linear)"/>
<path d="M690.715 0.0237732C562.623 1.88512 456.939 108.831 457.116 238.955C458.827 246.959 466.003 252.655 474.075 252.504C481.919 252.356 488.738 246.725 490.396 238.955C492.104 128.345 582.141 38.4613 690.715 36.5039C802.017 34.4986 896.648 125.539 898.433 238.955C900.113 246.613 906.913 252.125 914.716 252.185C922.607 252.243 929.541 246.701 931.241 238.955C931.393 107.345 823.282 -0.0119781 694.104 1.52588e-05C692.983 1.52588e-05 691.84 0.0131073 690.715 0.0237732Z" fill="url(#paint2_linear)"/>
<path d="M897.462 217.852C899.16 210.105 906.098 204.565 913.988 204.623C921.788 204.679 928.59 210.193 930.268 217.852C932.056 331.268 1026.69 422.309 1137.99 420.303C1246.56 418.345 1336.6 328.461 1338.31 217.852C1339.97 210.08 1346.78 204.449 1354.63 204.303C1362.7 204.152 1369.88 209.848 1371.59 217.852C1371.77 347.975 1266.08 454.921 1137.99 456.781C1007.33 458.681 897.308 350.604 897.462 217.852Z" fill="#E29320"/>
</g>
<defs>
<linearGradient id="paint0_linear" x1="25.1419" y1="209.485" x2="1585.79" y2="209.485" gradientUnits="userSpaceOnUse">
<stop stop-color="#FFC255"/>
<stop offset="0.943164" stop-color="#FDCB6D"/>
<stop offset="0.997207" stop-color="#FDCB6D"/>
<stop offset="0.998604" stop-color="#FDCB6D"/>
<stop offset="1" stop-color="#FDCB6D"/>
</linearGradient>
<linearGradient id="paint1_linear" x1="17.2605" y1="330.553" x2="491.386" y2="330.553" gradientUnits="userSpaceOnUse">
<stop stop-color="#FFC255"/>
<stop offset="0.943164" stop-color="#FDCB6D"/>
<stop offset="0.997207" stop-color="#FDCB6D"/>
<stop offset="0.998604" stop-color="#FDCB6D"/>
<stop offset="1" stop-color="#FDCB6D"/>
</linearGradient>
<linearGradient id="paint2_linear" x1="549.918" y1="335.649" x2="838.305" y2="47.2615" gradientUnits="userSpaceOnUse">
<stop stop-color="#FEB12B"/>
<stop offset="0.795031" stop-color="#FEB12B"/>
<stop offset="0.994924" stop-color="#FEB12B"/>
<stop offset="1" stop-color="#FEB12B"/>
</linearGradient>
<clipPath id="clip0">
<rect width="1389.14" height="456.806" fill="white"/>
</clipPath>
</defs>
</svg>
