<svg width="1390" height="457" viewBox="0 0 1390 457" fill="none" xmlns="http://www.w3.org/2000/svg">
<g clip-path="url(#clip0)">
<path d="M0 209.486C0 227.883 15.3373 242.802 34.2493 242.802C53.1613 242.802 68.4973 227.883 68.4973 209.486C68.4973 191.087 53.1613 176.168 34.2493 176.168C15.3373 176.168 0 191.087 0 209.486Z" fill="url(#paint0_linear)"/>
<path d="M1320.52 209.426C1320.52 190.996 1335.88 176.05 1354.83 176.05C1373.78 176.05 1389.14 190.996 1389.14 209.426C1389.14 227.856 1373.78 242.801 1354.83 242.801C1335.88 242.801 1320.52 227.856 1320.52 209.426Z" fill="#D8252C"/>
<path d="M474.425 204.303C466.581 204.451 459.761 210.08 458.104 217.851C456.396 328.463 366.359 418.347 257.785 420.302C146.485 422.308 51.852 331.267 50.0667 217.851C48.3867 210.194 41.584 204.679 33.784 204.623C25.8934 204.566 18.956 210.106 17.2587 217.851C17.1054 350.604 127.124 458.682 257.785 456.782C385.876 454.922 491.561 347.974 491.385 217.851C489.696 209.952 482.683 204.299 474.737 204.3C474.635 204.3 474.529 204.3 474.425 204.3" fill="url(#paint1_linear)"/>
<path d="M690.715 0.0240019C562.621 1.88534 456.936 108.831 457.115 238.955C458.824 246.959 466 252.655 474.075 252.505C481.919 252.356 488.736 246.728 490.393 238.955C492.104 128.345 582.139 38.4615 690.715 36.5041C802.015 34.4988 896.645 125.539 898.433 238.955C900.111 246.613 906.913 252.128 914.716 252.183C922.604 252.243 929.541 246.701 931.239 238.955C931.393 107.345 823.279 -0.0117612 694.104 0.000238846C692.983 0.000238846 691.839 0.0133352 690.715 0.0240019Z" fill="url(#paint2_linear)"/>
<path d="M897.46 217.852C899.159 210.105 906.096 204.565 913.985 204.623C921.787 204.679 928.588 210.193 930.267 217.852C932.055 331.268 1026.69 422.309 1137.99 420.303C1246.56 418.345 1336.6 328.461 1338.31 217.852C1339.96 210.08 1346.78 204.449 1354.63 204.303C1362.7 204.152 1369.87 209.848 1371.59 217.852C1371.76 347.975 1266.08 454.921 1137.99 456.781C1007.33 458.681 897.307 350.604 897.46 217.852Z" fill="#D8252C"/>
</g>
<defs>
<linearGradient id="paint0_linear" x1="25.1403" y1="209.485" x2="1585.79" y2="209.485" gradientUnits="userSpaceOnUse">
<stop stop-color="#FF8D8D"/>
<stop offset="0.935754" stop-color="#FF8D8D"/>
<stop offset="0.969274" stop-color="#FF8D8D"/>
<stop offset="1" stop-color="#FF8D8D"/>
</linearGradient>
<linearGradient id="paint1_linear" x1="17.2589" y1="330.553" x2="491.384" y2="330.553" gradientUnits="userSpaceOnUse">
<stop stop-color="#FF8D8D"/>
<stop offset="0.935754" stop-color="#FF8D8D"/>
<stop offset="0.969274" stop-color="#FF8D8D"/>
<stop offset="1" stop-color="#FF8D8D"/>
</linearGradient>
<linearGradient id="paint2_linear" x1="457.114" y1="126.253" x2="931.24" y2="126.253" gradientUnits="userSpaceOnUse">
<stop stop-color="#FF5757"/>
<stop offset="0.573646" stop-color="#FF5757"/>
<stop offset="0.717877" stop-color="#FE484E"/>
<stop offset="0.824676" stop-color="#FE484E"/>
<stop offset="1" stop-color="#FE484E"/>
</linearGradient>
<clipPath id="clip0">
<rect width="1389.14" height="456.806" fill="white"/>
</clipPath>
</defs>
</svg>
