<svg width="1390" height="457" viewBox="0 0 1390 457" fill="none" xmlns="http://www.w3.org/2000/svg">
<g clip-path="url(#clip0)">
<path d="M0 209.485C0 227.884 15.3374 242.803 34.252 242.803C53.164 242.803 68.5014 227.884 68.5014 209.485C68.5014 191.088 53.164 176.171 34.252 176.171C15.3374 176.171 0 191.088 0 209.485Z" fill="url(#paint0_linear)"/>
<path d="M1320.52 209.428C1320.52 227.857 1335.88 242.803 1354.83 242.803C1373.78 242.803 1389.14 227.857 1389.14 209.428C1389.14 190.997 1373.78 176.052 1354.83 176.052C1335.88 176.052 1320.52 190.997 1320.52 209.428Z" fill="url(#paint1_linear)"/>
<path d="M474.425 204.304C466.581 204.451 459.764 210.083 458.107 217.854C456.396 328.463 366.361 418.347 257.785 420.304C146.487 422.31 51.8561 331.27 50.0667 217.854C48.3894 210.195 41.5868 204.68 33.7841 204.625C25.8974 204.565 18.9587 210.11 17.2614 217.854C17.1081 350.607 127.128 458.681 257.785 456.784C385.879 454.923 491.564 347.978 491.385 217.854C489.696 209.952 482.685 204.3 474.739 204.3C474.635 204.3 474.529 204.302 474.425 204.3" fill="url(#paint2_linear)"/>
<path d="M690.715 0.0251007C562.623 1.8891 456.939 108.834 457.116 238.957C458.827 246.959 466.003 252.656 474.075 252.505C481.919 252.36 488.738 246.727 490.396 238.957C492.104 128.345 582.141 38.4609 690.715 36.5062C802.017 34.4996 896.648 125.538 898.434 238.957C900.114 246.613 906.914 252.129 914.716 252.185C922.607 252.243 929.542 246.702 931.242 238.957C931.394 107.346 823.282 -0.0109558 694.104 -0.000289917C692.983 -0.000289917 691.84 0.0131073 690.715 0.0251007Z" fill="url(#paint3_linear)"/>
<path d="M1354.63 204.304C1346.78 204.451 1339.97 210.083 1338.31 217.854C1336.6 328.463 1246.56 418.347 1137.99 420.304C1026.69 422.31 932.057 331.27 930.268 217.854C928.588 210.195 921.788 204.68 913.987 204.625C906.096 204.565 899.161 210.11 897.46 217.854C897.307 350.607 1007.33 458.681 1137.99 456.784C1266.08 454.923 1371.77 347.978 1371.59 217.854C1369.9 209.952 1362.89 204.3 1354.94 204.3C1354.84 204.3 1354.73 204.302 1354.63 204.3" fill="url(#paint4_linear)"/>
</g>
<defs>
<linearGradient id="paint0_linear" x1="25.1419" y1="209.486" x2="1585.79" y2="209.486" gradientUnits="userSpaceOnUse">
<stop stop-color="#83B3B7"/>
<stop offset="0.226368" stop-color="#659CA4"/>
<stop offset="0.5199" stop-color="#246C7C"/>
<stop offset="0.781095" stop-color="#0D5060"/>
<stop offset="1" stop-color="#1F3341"/>
</linearGradient>
<linearGradient id="paint1_linear" x1="-199.451" y1="209.427" x2="1363.96" y2="209.427" gradientUnits="userSpaceOnUse">
<stop stop-color="#83B3B7"/>
<stop offset="0.226368" stop-color="#659CA4"/>
<stop offset="0.5199" stop-color="#246C7C"/>
<stop offset="0.781095" stop-color="#0D5060"/>
<stop offset="1" stop-color="#1F3341"/>
</linearGradient>
<linearGradient id="paint2_linear" x1="17.2605" y1="330.555" x2="491.386" y2="330.555" gradientUnits="userSpaceOnUse">
<stop stop-color="#83B3B7"/>
<stop offset="1" stop-color="#659CA4"/>
</linearGradient>
<linearGradient id="paint3_linear" x1="549.918" y1="335.65" x2="838.305" y2="47.2624" gradientUnits="userSpaceOnUse">
<stop stop-color="#246C7C"/>
<stop offset="0.23743" stop-color="#246C7C"/>
<stop offset="0.84679" stop-color="#246C7C"/>
<stop offset="1" stop-color="#0D5060"/>
</linearGradient>
<linearGradient id="paint4_linear" x1="897.462" y1="330.555" x2="1371.59" y2="330.555" gradientUnits="userSpaceOnUse">
<stop stop-color="#0D5060"/>
<stop offset="0.121877" stop-color="#0D5060"/>
<stop offset="1" stop-color="#1F3341"/>
</linearGradient>
<clipPath id="clip0">
<rect width="1389.14" height="456.809" fill="white"/>
</clipPath>
</defs>
</svg>
