<?xml version="1.0" encoding="utf-8"?>
<!-- Generator: Adobe Illustrator 24.0.1, SVG Export Plug-In . SVG Version: 6.00 Build 0)  -->
<svg version="1.1" id="Layer_1" xmlns="http://www.w3.org/2000/svg" xmlns:xlink="http://www.w3.org/1999/xlink" x="0px" y="0px"
	 viewBox="0 0 2480 1655" style="enable-background:new 0 0 2480 1655;" xml:space="preserve">
<style type="text/css">
	.st0{fill:#F5F5F5;}
	.st1{fill:#E1E1E1;}
	.st2{fill:none;stroke:#FFFFFF;stroke-miterlimit:10;}
	.st3{fill:url(#SVGID_1_);}
	.st4{fill:#E6E6E6;}
	.st5{fill:#99B876;}
	.st6{fill:#7B9650;}
	.st7{fill:#999999;}
	.st8{fill:#CECECE;}
	.st9{fill:#FFFFFF;}
	.st10{fill:url(#SVGID_2_);}
	.st11{fill:#FFC255;}
	.st12{fill:#E29320;}
	.st13{fill:url(#SVGID_3_);}
	.st14{fill:url(#SVGID_4_);}
	.st15{fill:url(#SVGID_5_);}
	.st16{fill:#E9AB3B;}
	.st17{fill:url(#SVGID_6_);}
	.st18{fill:url(#SVGID_7_);}
	.st19{fill:url(#SVGID_8_);}
	.st20{fill:url(#SVGID_9_);}
	.st21{fill:url(#SVGID_10_);}
	.st22{fill:url(#SVGID_11_);}
	.st23{fill:url(#SVGID_12_);}
	.st24{fill:url(#SVGID_13_);}
	.st25{opacity:0.5;fill:#CCCCCC;}
	.st26{fill:#D8252C;}
	.st27{fill:url(#SVGID_14_);}
	.st28{opacity:0.5;}
	.st29{fill:#0D5060;}
</style>
<g id="sem_projetos">
	<g>
		<g>
			
				<rect x="843.7" y="263.9" transform="matrix(0.8818 0.4716 -0.4716 0.8818 371.7961 -420.7623)" class="st0" width="363.3" height="534.9"/>
		</g>
		<g>
			<g>
				<polygon class="st1" points="1004.6,705.3 984.2,712.3 932.7,569.7 953,562.7 				"/>
			</g>
			<g>
				<polygon class="st1" points="1035.7,603 1043.1,623.5 901.5,672 894.1,651.5 				"/>
			</g>
		</g>
		<g>
			<g>
				<path class="st2" d="M1173.6,481.1"/>
			</g>
		</g>
		<g>
			<g>
				<path class="st1" d="M1136.4,392.6c-0.3,0.5-32.7-16.4-72.6-37.7c-39.8-21.3-71.9-38.9-71.7-39.4c0.3-0.5,32.7,16.4,72.6,37.7
					C1104.5,374.5,1136.6,392.2,1136.4,392.6z"/>
			</g>
		</g>
		<g>
			<g>
				<path class="st1" d="M1213.2,477.5c-0.3,0.5-54-27.8-120.1-63.1c-66.1-35.3-119.4-64.4-119.2-64.8c0.3-0.5,54,27.8,120.1,63.1
					C1160.1,448,1213.5,477,1213.2,477.5z"/>
			</g>
		</g>
		<g>
			<g>
				<path class="st1" d="M1194.3,512.8c-0.3,0.5-54-27.8-120.1-63.1c-66.1-35.3-119.4-64.4-119.2-64.8c0.3-0.5,54,27.8,120.1,63.1
					C1141.2,483.3,1194.6,512.3,1194.3,512.8z"/>
			</g>
		</g>
		<g>
			<g>
				<path class="st1" d="M1175.5,548.1c-0.3,0.5-54-27.8-120.1-63.1c-66.1-35.3-119.4-64.4-119.2-64.8c0.3-0.5,54,27.8,120.1,63.1
					C1122.3,518.6,1175.7,547.6,1175.5,548.1z"/>
			</g>
		</g>
		<g>
			<g>
				<path class="st1" d="M1156.6,583.4c-0.3,0.5-54-27.8-120.1-63.1c-66.1-35.3-119.4-64.4-119.2-64.8c0.3-0.5,54,27.8,120.1,63.1
					C1103.5,553.9,1156.8,582.9,1156.6,583.4z"/>
			</g>
		</g>
	</g>
	<g>
		
			<linearGradient id="SVGID_1_" gradientUnits="userSpaceOnUse" x1="1846.8115" y1="3141.4382" x2="1846.8115" y2="2852.9573" gradientTransform="matrix(0.8477 0.5304 -0.5304 0.8477 1761.1401 -2403.5266)">
			<stop  offset="0" style="stop-color:#CCCECE"/>
			<stop  offset="1" style="stop-color:#999999;stop-opacity:0"/>
		</linearGradient>
		<path class="st3" d="M1547.9,911.9c0.9-2.5,6.9-18.6,24.6-25.9c17.7-7.3,33.4-0.1,35.7,1.1c120.5,68.5,241,137,361.5,205.5
			c3.1,1.5,24.4,12.5,28.9,35.8c1.9,9.7,0.2,18-1.3,23c-26.1,61.1-52.2,122.3-78.4,183.4c-0.8,1.6-7.3,13.9-21.6,16.7
			c-9.2,1.8-17.1-1.7-20.4-3.2c-18.6-8.7-191.5-106.3-426.6-240.7c-2.1-2.1-4.2-4.9-5.6-8.4c-6-14.6,4.3-29.5,5.5-31.2
			C1482.7,1016,1515.3,964,1547.9,911.9z"/>
		<path class="st4" d="M1639.5,849.2c1.3-3.2,10.2-23.9,30.6-35.4c20.4-11.6,36.4-5,38.8-3.9c121.5,66.9,243,133.8,364.5,200.7
			c3.1,1.4,24.8,11.9,26.3,39.9c0.7,11.7-2.4,22.2-4.8,28.6c-37.4,79.1-74.8,158.3-112.1,237.4c-1.1,2.1-10,18.2-26,23.7
			c-10.3,3.5-18.4,0.4-21.8-1c-19-8.1-193.4-103.2-430.4-234.6c-2-2.3-3.9-5.4-4.9-9.6c-4.4-17.1,9-36.9,10.5-39.2
			C1553.3,986.9,1596.4,918.1,1639.5,849.2z"/>
		
			<rect x="1573.7" y="1110.4" transform="matrix(0.8647 0.5023 -0.5023 0.8647 806.6465 -741.5863)" class="st5" width="412.5" height="32.4"/>
		
			<rect x="1889.8" y="1002.3" transform="matrix(0.8647 0.5023 -0.5023 0.8647 777.7965 -850.6708)" class="st6" width="156.4" height="32.4"/>
		<g>
			<path class="st7" d="M1884.4,951.4c-24.1,43.4-48.3,86.8-72.4,130.1c-59-31.7-118.1-63.4-177.1-95.1l73-134.4
				C1766.6,885.2,1825.5,918.3,1884.4,951.4z"/>
		</g>
		
			<rect x="1554.2" y="1156.9" transform="matrix(0.8647 0.5023 -0.5023 0.8647 827.3605 -725.5021)" class="st5" width="412.5" height="32.4"/>
		<g>
			<polygon class="st8" points="2007.7,1097.8 1997,1115.6 1870.3,1042.2 1881,1024.4 			"/>
		</g>
		<g>
			<polygon class="st8" points="1987.1,1134.4 1976.4,1152.2 1849.7,1078.8 1860.4,1061 			"/>
		</g>
		<path class="st5" d="M1649.8,958.8c-5,9.2-10,18.4-15,27.7c0,0,71.2,38.1,77.3,41.5c6.9,3.8,99.9,53.6,99.9,53.6
			c15.5-27.5,7-12.8,18.4-33.1c-34.1-9.6-55.4-24.6-68.8-36.9c-22.7-20.8-27.7-38.5-50.1-49.4
			C1689.7,951.6,1666.3,954.6,1649.8,958.8z"/>
		<circle class="st9" cx="1740.5" cy="917.2" r="23.3"/>
	</g>
	
		<linearGradient id="SVGID_2_" gradientUnits="userSpaceOnUse" x1="1833.6228" y1="1380.0243" x2="1937.2382" y2="1380.0243" gradientTransform="matrix(1 6.395469e-03 -6.395469e-03 1 1.7853 -35.7673)">
		<stop  offset="0" style="stop-color:#FEB12B"/>
		<stop  offset="0.8543" style="stop-color:#FEB12B"/>
		<stop  offset="0.9949" style="stop-color:#FEB12B"/>
	</linearGradient>
	<path class="st10" d="M1920.9,1306.9c2.6,3.5,9.8,13.8,9.4,28.2c-0.2,7.1-2.2,12.8-3.9,16.5c-13.1,11.8-29.8,24.7-50.3,36.7
		c-11.6,6.8-22.7,12.3-33.1,16.7c-1.3,0.3-7.1,1.8-11.6-1.4c-5.5-4-7.2-13.7-1.9-22.3c8.5-9.5,17.1-19,25.6-28.6
		c13.5-14.3,27-28.6,40.5-43C1904.1,1308.8,1912.5,1307.9,1920.9,1306.9z"/>
	<path class="st11" d="M1689.5,582.4c-5.3,3.2-14.1,8.1-25.8,12c-22.8,7.6-36.7,4.4-41.1,12.7c-3.6,6.9,1.4,17.5,7.2,23.5
		c18,18.6,56.8,5.1,59.6,4.1c8.3-3,24.7-10.6,24.7-10.6l0,0L1689.5,582.4z"/>
	<path class="st12" d="M1894.8,1314l-8.3-83.9l50.8-7.4c-3.6,31.2-7.2,62.5-10.8,93.7c-2.6,3.6-6.9,8.4-13.6,11.5
		c-3.9,1.8-12.8,6-17.8,1.6c-2.6-2.3-4.3-6.5-3.3-10.6C1892.5,1316.4,1894,1314.8,1894.8,1314z"/>
	
		<linearGradient id="SVGID_3_" gradientUnits="userSpaceOnUse" x1="1884.0237" y1="976.8076" x2="2007.1272" y2="976.8076" gradientTransform="matrix(1 6.395469e-03 -6.395469e-03 1 1.7853 -35.7673)">
		<stop  offset="0" style="stop-color:#FEB12B"/>
		<stop  offset="0.8543" style="stop-color:#FEB12B"/>
		<stop  offset="0.9949" style="stop-color:#FEB12B"/>
	</linearGradient>
	<path class="st13" d="M1883,672.1c0,0-5.9,496.2-4.7,569l66.2-2.9c0,0,27.8-317.1,59.2-469.4C2007,752.3,1963.7,636.2,1883,672.1z"
		/>
	
		<linearGradient id="SVGID_4_" gradientUnits="userSpaceOnUse" x1="2140.3821" y1="1311.1403" x2="2212.0586" y2="1311.1403" gradientTransform="matrix(1 6.395469e-03 -6.395469e-03 1 1.7853 -35.7673)">
		<stop  offset="0" style="stop-color:#FEB12B"/>
		<stop  offset="0.8543" style="stop-color:#FEB12B"/>
		<stop  offset="0.9949" style="stop-color:#FEB12B"/>
	</linearGradient>
	<polygon class="st14" points="2178.2,1228.7 2186.5,1308.1 2205,1347.9 2164.2,1349.9 2159.9,1336.6 2162.3,1309.1 2134,1246 	"/>
	
		<linearGradient id="SVGID_5_" gradientUnits="userSpaceOnUse" x1="1888.6042" y1="468.3985" x2="2116.8413" y2="468.3985" gradientTransform="matrix(1 6.395469e-03 -6.395469e-03 1 1.7853 -35.7673)">
		<stop  offset="0" style="stop-color:#FEB12B"/>
		<stop  offset="0.8543" style="stop-color:#FEB12B"/>
		<stop  offset="0.9949" style="stop-color:#FEB12B"/>
	</linearGradient>
	<path class="st15" d="M2044.6,312.5c0,0,44.6,16.8,8,43.1c9.4,4.4,23.8,12.5,36.4,27.3c22.1,26,35.2,68.4,20.1,83.9
		c-12.5,12.9-31.2-6.5-58.1,2.6c-51.2,17.4-55.3,112.2-80.9,110.6c-3.8-0.2-6.9-2.9-12.3-8.8c-18-19.6-8-56-52.6-129.5
		c-8.6-14.2-23.4-36.6-15.1-51.1l36.7-21c0,0-16.5-13.3-6.4-36.4c10.1-23.1,41.5-22.9,41.5-22.9L2044.6,312.5z"/>
	<path class="st16" d="M1692.4,588l21.8,36.1l22.8-11.8c0,0,140.5-25.1,150.1-29.4c9.6-4.2,37.3-123.6,37.3-123.6
		c5.9-22.3,11.9-44.6,17.8-66.9c-6.9-1.6-21.3-3.8-35.2,3.3c-16.9,8.6-23,26-28.3,40.7c-7.4,21-4.8,30.8-9.8,59.8
		c-3.3,19.6-7.9,35-11.1,44.7c-47.9,12.9-95.9,25.8-143.8,38.6l-21.6-5.7c-8.1-0.4-16.2-0.7-24.3-1.1c-1.8,0.1-4.2,0.4-4.7,1.6
		c-1,2.5,5.5,7.7,10.6,10.3C1677,586.3,1683.2,588.8,1692.4,588z"/>
	
		<linearGradient id="SVGID_6_" gradientUnits="userSpaceOnUse" x1="1933.5498" y1="279.8255" x2="1993.7207" y2="279.8255" gradientTransform="matrix(1 6.395469e-03 -6.395469e-03 1 1.7853 -35.7673)">
		<stop  offset="0" style="stop-color:#FEB12B"/>
		<stop  offset="0.8543" style="stop-color:#FEB12B"/>
		<stop  offset="0.9949" style="stop-color:#FEB12B"/>
	</linearGradient>
	<path class="st17" d="M1957.5,229.3c0,0-44.7,9.6-11.9,54.5l48.3-49.3L1957.5,229.3z"/>
	
		<linearGradient id="SVGID_7_" gradientUnits="userSpaceOnUse" x1="1982.3633" y1="406.9132" x2="1982.3633" y2="692.2678" gradientTransform="matrix(1 6.395469e-03 -6.395469e-03 1 1.7853 -35.7673)">
		<stop  offset="0" style="stop-color:#FEBF50"/>
		<stop  offset="8.849382e-02" style="stop-color:#FDC867"/>
		<stop  offset="0.2176" style="stop-color:#FBD282"/>
		<stop  offset="0.3589" style="stop-color:#FADA97"/>
		<stop  offset="0.5165" style="stop-color:#F9E0A6"/>
		<stop  offset="0.7034" style="stop-color:#F8E3AE"/>
		<stop  offset="0.9944" style="stop-color:#F8E4B1"/>
	</linearGradient>
	<path class="st18" d="M1942.1,392.4c-44.7,21.6-56.7,43.6-59.7,59.3c-5.7,30.4,15.3,74.9,15.3,74.9l0,0
		c-4.1,39.7-8.2,79.3-12.3,119c13.9,7.5,33.2,15.9,57.3,20.3c49.9,9.2,90.7-3.7,110.1-11.3c-10-38-20-76-29.9-114l55.8-109.9
		c0,0,9-22-8.6-33.1c-17.6-11.1-70.5-13.7-70.5-13.7L1942.1,392.4z"/>
	
		<linearGradient id="SVGID_8_" gradientUnits="userSpaceOnUse" x1="1885.6549" y1="970.4012" x2="2196.6206" y2="970.4012" gradientTransform="matrix(1 6.395469e-03 -6.395469e-03 1 1.7853 -35.7673)">
		<stop  offset="0" style="stop-color:#FEB12B"/>
		<stop  offset="0.8543" style="stop-color:#FEB12B"/>
		<stop  offset="0.9949" style="stop-color:#FEB12B"/>
	</linearGradient>
	<path class="st19" d="M1883,672.1l2.4-26.5l166.5,5.5c0,0,110.8,439.6,138.5,585.3l-66.2,12.8L1966,789.5
		C1966,789.5,1909.9,771.5,1883,672.1z"/>
	
		<linearGradient id="SVGID_9_" gradientUnits="userSpaceOnUse" x1="2042.0411" y1="392.7775" x2="1935.5601" y2="286.2965" gradientTransform="matrix(1 6.395469e-03 -6.395469e-03 1 1.7853 -35.7673)">
		<stop  offset="0.413" style="stop-color:#FFDC83"/>
		<stop  offset="0.5081" style="stop-color:#FEDD88"/>
		<stop  offset="0.6171" style="stop-color:#FBDE96"/>
		<stop  offset="0.7331" style="stop-color:#F6E1AD"/>
		<stop  offset="0.8531" style="stop-color:#EEE5CD"/>
		<stop  offset="0.9385" style="stop-color:#E8E8E8"/>
	</linearGradient>
	<path class="st20" d="M2022.9,345.5l1.4,41.4c0,0-58.2,42.6-68,34.3c-9.9-8.3-8.1-26.5-8.1-26.5l23.5-47.8c0,0-29.8,8.1-33-5.2
		c-11.4-28.2,13.8-87.6,13.8-87.6s8.5-39.6,64.7-32.7c56.2,7,19.4,77.9,19.4,77.9s14.9-4.9,21.5,5.1s-13.4,26.4-29.9,23
		L2022.9,345.5z"/>
	
		<linearGradient id="SVGID_10_" gradientUnits="userSpaceOnUse" x1="1951.8179" y1="276.3974" x2="2073.1711" y2="276.3974" gradientTransform="matrix(1 6.395469e-03 -6.395469e-03 1 1.7853 -35.7673)">
		<stop  offset="0" style="stop-color:#FEB12B"/>
		<stop  offset="0.8543" style="stop-color:#FEB12B"/>
		<stop  offset="0.9949" style="stop-color:#FEB12B"/>
	</linearGradient>
	<path class="st21" d="M2057.9,304.4c0,0,16.1-17,15.1-34.6c-1-17.7-7.3-62.9-56.9-66.5c-49.6-3.6-64.1,28.3-64.1,28.3
		s4.1,53,84.5,67.8C2036.4,299.3,2049.6,300.4,2057.9,304.4z"/>
	<polygon class="st12" points="1944.4,1238.2 1966,789.5 1922.4,747.2 1961.7,774.8 1999.7,747.7 1974.8,792.2 1988.5,855 	"/>
	<path class="st12" d="M2163,1308.4c-2.7,3.4-10,13.7-9.7,28.1c0.1,7.1,2,12.9,3.6,16.6c13,11.9,29.5,25.1,49.8,37.3
		c11.5,6.9,22.6,12.6,32.8,17.2c1.3,0.4,7.1,1.9,11.6-1.3c5.6-3.9,7.3-13.6,2.2-22.3c-8.4-9.6-16.8-19.3-25.3-28.9
		c-13.3-14.5-26.6-29-39.9-43.5c-0.3,2-1.4,7-5.1,8.9C2178.1,1323.1,2168.6,1319.1,2163,1308.4z"/>
	
		<linearGradient id="SVGID_11_" gradientUnits="userSpaceOnUse" x1="7935.5869" y1="4816.1323" x2="7993.1733" y2="4816.1323" gradientTransform="matrix(-0.4337 -0.8389 -0.8883 0.4592 9599.543 4971.8169)">
		<stop  offset="1.117318e-02" style="stop-color:#FEB12B"/>
		<stop  offset="0.1304" style="stop-color:#FEC351"/>
		<stop  offset="0.2417" style="stop-color:#FFD16C"/>
		<stop  offset="0.3394" style="stop-color:#FFD97D"/>
		<stop  offset="0.413" style="stop-color:#FFDC83"/>
	</linearGradient>
	<path class="st22" d="M1913.4,499.7c-6.5-10-12.9-20.1-19.4-30.1c-0.3,6.6-0.6,13.2-0.9,19.8c-10.9-1.1-66.1-6.4-71.2,7.5
		c-1.4,3.9,0.2,11.6,4.7,17.1c3.6,4.4,8.1,6.3,10.5,7.2c16.4-0.1,32.8-0.2,49.2-0.3l23.5-10.5L1913.4,499.7z"/>
	
		<linearGradient id="SVGID_12_" gradientUnits="userSpaceOnUse" x1="1867.9353" y1="514.2671" x2="1919.272" y2="565.6037" gradientTransform="matrix(1 6.395469e-03 -6.395469e-03 1 1.7853 -35.7673)">
		<stop  offset="0" style="stop-color:#FEBF50"/>
		<stop  offset="0.4298" style="stop-color:#FFC255"/>
	</linearGradient>
	<path class="st23" d="M1938.6,508.6c-5.8-2.5-15.6-7.7-24.4-17.7c-8.3-9.4-12.2-19-14-24.8c-1.9-4.4-3.1-5.2-3.8-5
		c-2.3,0.5-3.6,12.1-0.5,22c2.8,8.5,8.4,13.9,11.8,16.7c-8,8.6-15.6,12.3-21.2,14c-8,2.5-13,1.3-24.8,2.5c-10.2,1.1-18.6,3.2-24.5,5
		c11.9,3.2,26.7,6.1,44,7.1c10.9,0.6,33.8,7.9,42.6,7.2C1933,529.1,1929.3,515,1938.6,508.6z"/>
	<path class="st16" d="M2061.2,393.1c0,0,26.4,11.2,39.4,44.4c13,33.2,32.1,148,23.2,167.8c-8.9,19.8-173.9-55.1-173.9-55.1
		l13.5-35.2l105.7,26l-30.1-119.3C2038.9,421.7,2036.9,397.4,2061.2,393.1z"/>
	<polygon class="st16" points="1963.4,514.9 1923.8,494.8 1913.6,538.9 1949.9,550.1 	"/>
	<g>
		
			<linearGradient id="SVGID_13_" gradientUnits="userSpaceOnUse" x1="808.9514" y1="-51.9411" x2="808.9514" y2="-340.4221" gradientTransform="matrix(0.9209 -0.3897 0.3897 0.9209 -146.1967 1217.5646)">
			<stop  offset="0" style="stop-color:#CCCECE"/>
			<stop  offset="1" style="stop-color:#999999;stop-opacity:0"/>
		</linearGradient>
		<path class="st24" d="M246,758.8c-1.5-2.2-11.2-16.3-7.1-35c4.2-18.7,19.1-27.4,21.4-28.7C385.5,635.8,510.8,576.5,636,517.1
			c3-1.6,24.2-12.8,45.9-3.1c9.1,4,14.9,10.2,18.1,14.3c35.1,56.5,70.2,113,105.2,169.5c0.8,1.6,7.2,14,1.2,27.3
			c-3.8,8.5-11.2,13-14.3,14.8c-17.8,10.2-197,95.7-441.9,211.1c-3,0.5-6.4,0.6-10.1-0.2c-15.4-3.5-21.7-20.4-22.4-22.4
			C293.8,871.9,269.9,815.4,246,758.8z"/>
		<path class="st4" d="M247.2,647.8c-1.9-2.9-13.7-22.1-11.5-45.4c2.2-23.4,16.8-32.7,19.1-34c124.5-61.1,249-122.2,373.6-183.3
			c3-1.7,23.9-13.5,47.8,1.4c10,6.2,16.8,14.7,20.6,20.4c43.3,76,86.7,152.1,130,228.1c1.1,2.1,9.1,18.7,4.5,34.9
			c-3,10.4-10.3,15.3-13.3,17.2c-17.5,10.9-195.5,99.1-439.2,217.7c-3.1,0.3-6.7,0.1-10.7-1.4c-16.5-6.2-25.1-28.5-26.1-31.1
			C310.5,797.4,278.8,722.6,247.2,647.8z"/>
		
			<rect x="348.7" y="675.8" transform="matrix(0.9076 -0.4198 0.4198 0.9076 -239.2355 296.9004)" class="st5" width="412.5" height="32.4"/>
		
			<rect x="496.2" y="459.7" transform="matrix(0.9076 -0.4198 0.4198 0.9076 -146.7409 285.0966)" class="st6" width="156.4" height="32.4"/>
		<g>
			<path class="st7" d="M471.4,505.9c21.7,44.7,43.3,89.3,65,134c-59.8,30.2-119.7,60.3-179.5,90.5l-68.2-136.9
				C349.6,564.3,410.5,535.1,471.4,505.9z"/>
		</g>
		
			<rect x="375.5" y="718.4" transform="matrix(0.9076 -0.4198 0.4198 0.9076 -254.6588 312.1255)" class="st5" width="412.5" height="32.4"/>
		<g>
			<polygon class="st8" points="662.1,489 670.5,507.9 537.7,569.6 529.3,550.6 			"/>
		</g>
		<g>
			<polygon class="st8" points="680.2,526.8 688.6,545.8 555.8,607.4 547.4,588.5 			"/>
		</g>
		<path class="st5" d="M342.9,702.2c4.7,9.4,9.4,18.8,14,28.2c0,0,72-36.5,78.3-39.5c7.1-3.4,101.2-51,101.2-51
			c-13.6-28.4-6.5-13-16.5-34c-27.4,22.4-52,31.3-69.7,35.2c-30.1,6.7-47.4,0.6-69.2,12.6C359.9,665.4,348.9,686.3,342.9,702.2z"/>
		<circle class="st9" cx="360.8" cy="604.1" r="23.3"/>
	</g>
	<ellipse class="st25" cx="1036.9" cy="1356.3" rx="659.8" ry="63.1"/>
	<g>
		<path class="st26" d="M853.6,712.1l-110.2,566.4l-14.4,74.1l735.5-3.6c33-0.2,62.3-29.5,72.9-73l130.4-534.7
			c8.1-33.1-9.6-67.4-34.7-67.4l-744.4,0.8C872.2,674.7,857.9,690,853.6,712.1z"/>
	</g>
	<g>
		<linearGradient id="SVGID_14_" gradientUnits="userSpaceOnUse" x1="984.3847" y1="1355.2449" x2="984.3847" y2="567.8437">
			<stop  offset="0" style="stop-color:#FB0927"/>
			<stop  offset="6.549818e-03" style="stop-color:#FB0C29"/>
			<stop  offset="6.926711e-02" style="stop-color:#FD273A"/>
			<stop  offset="0.1376" style="stop-color:#FE3D47"/>
			<stop  offset="0.2134" style="stop-color:#FE4C50"/>
			<stop  offset="0.3027" style="stop-color:#FF5455"/>
			<stop  offset="0.4385" style="stop-color:#FF5757"/>
			<stop  offset="0.7756" style="stop-color:#FF7D7D"/>
			<stop  offset="0.9693" style="stop-color:#FF8D8D"/>
		</linearGradient>
		<path class="st27" d="M1393.9,1240.2L1316,612.7c-3.2-25.7-23.7-44.9-47.9-44.8l-170.8,0.6c-12.6,0-24.8,5.4-33.7,15l-81.1,86.2
			L507.7,672c-29,0.2-51.3,27.6-47.5,58.5l72.3,580c3.2,25.7,23.6,44.8,47.8,44.8l827.6-1.6c92.2,1.9,101-25.3,101-25.3
			C1403.3,1351.7,1393.9,1240.2,1393.9,1240.2z"/>
	</g>
	<g class="st28">
		<g>
			<g>
				<path class="st9" d="M875.8,1123.8c-5.7-2.4-9.8-8-10.1-14.6l-3.6-82.6c-0.2-5.2,2-10.2,6-13.5c4-3.3,9.3-4.6,14.4-3.4
					c13.3,3.1,27.9,0.2,40.2-7.9c11.3-7.5,18.8-18.6,20.8-30.4c1.9-11.8-1.7-24.8-10-35.7c-8.9-11.7-21.9-19.6-35-21.1
					c-26.8-3.1-55.7,17.4-63.1,44.8c-2.4,8.8-11.5,14.1-20.4,11.7c-9-2.5-14.1-11.5-11.7-20.4c11.7-43,56.1-74,99-69.1
					c22.2,2.6,43.3,15,57.7,34.1c13.7,18.1,19.6,40.4,16.3,61.1c-3.4,20.9-16.2,40.1-35.1,52.7c-13.7,9.1-29.3,14.1-45,14.7
					l2.8,63.6c0.4,9.2-6.7,16.9-15.9,17.3C880.5,1125.2,878,1124.7,875.8,1123.8z"/>
			</g>
		</g>
		<g>
			<g>
				<path class="st9" d="M900.1,1157.5c0.5,7.5-5.1,14-12.6,14.5c-7.5,0.5-14-5.1-14.5-12.6c-0.5-7.5,5.1-14,12.6-14.5
					C893.1,1144.4,899.6,1150,900.1,1157.5z"/>
			</g>
		</g>
	</g>
	<path class="st29" d="M1504.7,621.1c16-17.4,29.3-29.2,38.3-36.6c0,0,5.5-4.5,14.2-10.3c9.5-6.3,25.6-16.9,30.2-12.7
		c0.5,0.5,0.7,1,1,1.6c2.9,7.4-9.6,18.1-11.6,19.8c-6.2,5.1-13.3,10.2-21.3,15.3C1537,609.7,1519.3,616.7,1504.7,621.1z"/>
	<path class="st29" d="M1445.3,593.3c1-23.7,3.5-41.3,5.5-52.7c0,0,1.3-7,4.2-17c3.2-10.9,8.5-29.5,14.8-29.2c0.7,0,1.2,0.3,1.7,0.6
		c7,3.8,4.4,20,4,22.6c-1.5,7.9-3.5,16.4-6.4,25.4C1462.5,563.7,1453.5,580.5,1445.3,593.3z"/>
	<path class="st29" d="M1375.8,580.7c-10.7-21.1-17.1-37.7-20.9-48.7c0,0-2.3-6.7-4.7-16.9c-2.6-11.1-6.9-29.9-1.3-32.7
		c0.6-0.3,1.2-0.3,1.8-0.4c8-0.1,13.6,15.3,14.5,17.8c2.6,7.6,5,16,6.8,25.3C1376.4,546.5,1376.8,565.5,1375.8,580.7z"/>
</g>
</svg>
