<?xml version="1.0" encoding="utf-8"?>
<!-- Generator: Adobe Illustrator 24.0.1, SVG Export Plug-In . SVG Version: 6.00 Build 0)  -->
<svg version="1.1" id="Layer_1" xmlns="http://www.w3.org/2000/svg" xmlns:xlink="http://www.w3.org/1999/xlink" x="0px" y="0px"
	 viewBox="0 0 2480 1655" style="enable-background:new 0 0 2480 1655;" xml:space="preserve">
<style type="text/css">
	.st0{opacity:0.5;fill:#CCCCCC;}
	.st1{fill:#0D5060;}
	.st2{fill:url(#SVGID_1_);}
	.st3{fill:#B0C98F;}
	.st4{fill:#FFFFFF;}
	.st5{fill:#FF0000;}
	.st6{fill:#00FF00;}
	.st7{fill:#FBB03B;}
	.st8{fill:#F5F5F5;}
	.st9{fill:#D8252C;}
	.st10{fill:#FF5757;}
	.st11{fill:url(#SVGID_2_);}
	.st12{fill:url(#SVGID_3_);}
	.st13{fill:#063040;}
	.st14{fill:#295E6B;}
	.st15{fill:none;}
	.st16{font-family:'Nano';}
	.st17{font-size:30.5384px;}
	.st18{fill:#FFC255;}
	.st19{fill:#E9AB3B;}
	.st20{fill:#E29320;}
	.st21{fill:url(#SVGID_4_);}
	.st22{fill:#1A2E35;}
	.st23{fill:url(#SVGID_5_);}
	.st24{fill:url(#SVGID_6_);}
	.st25{fill:#E1E1E1;}
	.st26{fill:url(#SVGID_7_);}
	.st27{fill:url(#SVGID_8_);}
	.st28{fill:url(#SVGID_9_);}
	.st29{fill:url(#SVGID_10_);}
	.st30{fill:url(#SVGID_11_);}
	.st31{fill:#99B876;}
	.st32{fill:#7B9650;}
	.st33{fill:#1F3341;}
</style>
<g>
	<path class="st0" d="M262.6,491.6c-13.1,297.2,123.1,515.4,399.7,736.7c237.6,190.2,511.2,254,820.1,258.1
		c174.8,2.3,372-48.8,505.7-138.2c133.7-89.4,231.9-237,230.1-393.7c-1.8-156.7-120-313.1-280.8-337.8
		c-162.5-25-324.5,78.6-486.8,52.5c-117.6-18.9-212.4-102.6-287-192.1c-74.6-89.5-137.9-189.5-229.2-263.2
		c-76.1-61.3-171.7-102.3-270.9-105.8c-99.2-3.5-201.2,32.9-266.9,104.5C396.7,212.6,269.7,330.1,262.6,491.6z"/>
	<g>
		<g>
			<path class="st1" d="M1875,251.2H457.8c-24.4,0-44.2,19.8-44.2,44.2v1001c0,24.4,19.8,44.2,44.2,44.2h543.9
				c0,0,34.6,107-72.7,162.3h508.6c0,0-121.1-41.5-90-162.3H1875c24.4,0,44.2-19.8,44.2-44.2v-1001
				C1919.3,271,1899.5,251.2,1875,251.2z"/>
		</g>
	</g>
	<g>
		<g>
			<linearGradient id="SVGID_1_" gradientUnits="userSpaceOnUse" x1="1138.4474" y1="1253.4723" x2="1191.4412" y2="1253.4723">
				<stop  offset="0.7765" style="stop-color:#83B3B7"/>
				<stop  offset="0.8845" style="stop-color:#83B3B7"/>
				<stop  offset="0.9022" style="stop-color:#83B3B7"/>
			</linearGradient>
			<path class="st2" d="M1185.3,1235.4c19.3,27.6-10.9,57.7-38.5,38.5c-0.9-0.6-1.7-1.5-2.4-2.4c-19.2-27.5,10.9-57.7,38.5-38.4
				C1183.9,1233.7,1184.7,1234.5,1185.3,1235.4z"/>
		</g>
	</g>
	<g>
		<g>
			<path class="st3" d="M1881.1,1164.6H448.8c-1.8,0-3.3-1.5-3.3-3.3V314.5c0-1.8,1.5-3.3,3.3-3.3h1432.2c1.8,0,3.3,1.5,3.3,3.3
				v846.9C1884.3,1163.2,1882.9,1164.6,1881.1,1164.6z"/>
		</g>
	</g>
	<g>
		<g>
			<rect x="445.6" y="373.8" class="st4" width="1438.8" height="790.9"/>
		</g>
	</g>
	<g>
		<g>
			<path class="st5" d="M563.6,344.2c0,6.3-5.1,11.5-11.5,11.5c-6.3,0-11.5-5.1-11.5-11.5c0-6.3,5.1-11.5,11.5-11.5
				C558.4,332.7,563.6,337.8,563.6,344.2z"/>
		</g>
	</g>
	<g>
		<g>
			<path class="st6" d="M493.9,344.2c0,6.3-5.1,11.5-11.5,11.5c-6.3,0-11.5-5.1-11.5-11.5c0-6.3,5.1-11.5,11.5-11.5
				C488.8,332.7,493.9,337.8,493.9,344.2z"/>
		</g>
	</g>
	<g>
		<g>
			<path class="st7" d="M527.4,344.2c0,6.3-5.1,11.5-11.5,11.5c-6.3,0-11.5-5.1-11.5-11.5c0-6.3,5.1-11.5,11.5-11.5
				C522.2,332.7,527.4,337.8,527.4,344.2z"/>
		</g>
	</g>
	<rect x="898.2" y="303.7" class="st8" width="540.1" height="902.3"/>
	<circle class="st4" cx="1163.3" cy="574.2" r="185.1"/>
	<path class="st9" d="M1252.4,628.3c-10.4-4.6-21.5-7-21.5-7c0,0-0.2,0-0.3-0.1c-57.9-12.3-103.6,0-103.6,0
		c-17,4.6-29,10.4-37.8,14.9c-16.4,8.2-24.6,12.3-24.8,16.4c-0.8,14.2,53.9,39.8,106.7,24.8l0,0c5.8-1.4,14.8-3.8,25.5-7.6
		c3.2-0.8,8.1-2,14.2-3.1c12.1-2.1,21.4-2.2,24.9-2.2c20.7-0.5,50.5-1.1,52.6-9.1C1290.5,646.3,1257.5,630.6,1252.4,628.3z"/>
	<path class="st10" d="M1181.7,646.3c-20.5,8.4-39.9,5-47.9,3.1c-6.2-1.5-16-4.6-26.6-11.8c3.1-3.2,7.8-7.5,14.4-11.3
		c3.9-2.2,7.9-4,13.6-5.7c16.4-5.1,31.4-5.5,33.6-5.5c29.7-0.5,67.5,6.4,67.2,11.1c-0.2,2.9-15.2,0.9-38,11.4
		C1188.2,642,1189.4,643.2,1181.7,646.3z"/>
	
		<linearGradient id="SVGID_2_" gradientUnits="userSpaceOnUse" x1="1150.2017" y1="935.1981" x2="1191.9379" y2="928.6015" gradientTransform="matrix(0.9993 -3.686944e-02 4.449339e-02 1.206 -39.4091 -484.791)">
		<stop  offset="0" style="stop-color:#FB0927"/>
		<stop  offset="2.651926e-03" style="stop-color:#FB0B28"/>
		<stop  offset="4.139585e-02" style="stop-color:#FD2739"/>
		<stop  offset="8.312073e-02" style="stop-color:#FE3C46"/>
		<stop  offset="0.1294" style="stop-color:#FE4B50"/>
		<stop  offset="0.1832" style="stop-color:#FF5455"/>
		<stop  offset="0.2626" style="stop-color:#FF5757"/>
		<stop  offset="0.3805" style="stop-color:#FF6B6B"/>
		<stop  offset="0.5326" style="stop-color:#FF7E7E"/>
		<stop  offset="0.6896" style="stop-color:#FF8989"/>
		<stop  offset="0.8575" style="stop-color:#FF8D8D"/>
	</linearGradient>
	<path class="st11" d="M1157.9,628.1c0.9,0.9,7.9,7.7,17.7,6.6c9-1,16.7-8.4,18.7-18.3c-2.6-21.1-5.1-42.2-7.7-63.4l-28.7,25.5
		l-7.6,14C1152.8,604.4,1155.4,616.2,1157.9,628.1z"/>
	
		<linearGradient id="SVGID_3_" gradientUnits="userSpaceOnUse" x1="1061.2837" y1="896.8627" x2="1133.1877" y2="824.9587" gradientTransform="matrix(0.9831 -0.1829 0.1829 0.9831 -98.9031 -106.1011)">
		<stop  offset="0" style="stop-color:#FB0927"/>
		<stop  offset="0.1614" style="stop-color:#FD3240"/>
		<stop  offset="0.2956" style="stop-color:#FE4D51"/>
		<stop  offset="0.3743" style="stop-color:#FF5757"/>
		<stop  offset="0.4372" style="stop-color:#FF6060"/>
		<stop  offset="0.6364" style="stop-color:#FF7979"/>
		<stop  offset="0.8192" style="stop-color:#FF8888"/>
		<stop  offset="0.9693" style="stop-color:#FF8D8D"/>
	</linearGradient>
	<path class="st12" d="M1114.5,483.1c-3.3,6.1-7.4,15.1-9.7,26.6c-7.5,37.9,8.5,84.8,30.4,87.8c17.2,2.4,38.6-22.1,40.6-24.9
		c2.4-3.2,4.8-6.5,7.2-9.7c1-1.9,15.3-29.3,3.6-47.3c-5.7-8.7-18.3-16.4-20.2-17.5c-1.8-1.1-5.8-3.4-12-6
		C1146.4,488.9,1133.1,484.5,1114.5,483.1z"/>
	<g>
		<g>
			<g>
				<path class="st13" d="M1065.7,837.3l-5.7,21.4c-0.3,0.8,0.4,1.8,1.1,2.2c1.1,0.6,2.2-0.1,2.2-0.1c1.9-1.1,3.7-2.3,5.6-3.4
					l4.7-17.8L1065.7,837.3z"/>
				<path class="st13" d="M1081.6,841.5l-5.8,21.4c-0.2,0.8-1.2,1.4-2.1,1.4c-1.2,0-1.8-1.1-1.9-1.2c-1.1-1.9-2.1-3.8-3.2-5.8
					l4.8-17.8L1081.6,841.5z"/>
			</g>
			<g>
				<path class="st13" d="M1098.8,837.3l5.7,21.4c0.3,0.8-0.4,1.8-1.1,2.2c-1.1,0.6-2.2-0.1-2.2-0.1c-1.9-1.1-3.7-2.3-5.6-3.4
					l-4.7-17.8L1098.8,837.3z"/>
				<path class="st13" d="M1082.9,841.5l5.8,21.4c0.2,0.8,1.2,1.4,2.1,1.4c1.2,0,1.8-1.1,1.9-1.2c1.1-1.9,2.1-3.8,3.2-5.8l-4.8-17.8
					L1082.9,841.5z"/>
			</g>
			<circle class="st14" cx="1082.5" cy="817.6" r="27.3"/>
			<circle class="st4" cx="1082.2" cy="817.6" r="21.2"/>
			<rect x="1072" y="805.1" class="st13" width="4.6" height="4.6"/>
			<path class="st13" d="M1082.5,825.7c-1.5-1.5-2.2-3.3-2.2-5.4c0-2.1,0.7-3.9,2.2-5.4c1.5-1.5,3.3-2.2,5.4-2.2v3.8
				c-1.1,0-2,0.4-2.7,1.1c-0.7,0.7-1.1,1.6-1.1,2.7c0,1.1,0.4,2,1.1,2.7c0.7,0.7,1.6,1.1,2.7,1.1c1,0,1.9-0.4,2.7-1.1
				c0.8-0.7,1.1-1.6,1.1-2.7v-15.3h3.8v15.3c0,2.1-0.7,3.9-2.2,5.4c-1.5,1.5-3.3,2.2-5.4,2.2C1085.8,828,1084,827.2,1082.5,825.7z"
				/>
			<rect x="1072.3" y="812.7" class="st13" width="4.1" height="15.3"/>
		</g>
		<g>
			<g>
				<g>
					<path class="st9" d="M1150.5,837.8l-5.7,21.4c-0.3,0.8,0.4,1.8,1.1,2.2c1.1,0.6,2.2-0.1,2.2-0.1c1.9-1.1,3.7-2.3,5.6-3.4
						l4.7-17.8L1150.5,837.8z"/>
					<path class="st9" d="M1166.4,842.1l-5.8,21.4c-0.2,0.8-1.2,1.4-2.1,1.4c-1.2,0-1.8-1.1-1.9-1.2c-1.1-1.9-2.1-3.8-3.2-5.8
						l4.8-17.8L1166.4,842.1z"/>
				</g>
			</g>
			<g>
				<path class="st9" d="M1183.6,837.8l5.7,21.4c0.3,0.8-0.4,1.8-1.1,2.2c-1.1,0.6-2.2-0.1-2.2-0.1c-1.9-1.1-3.7-2.3-5.6-3.4
					l-4.7-17.8L1183.6,837.8z"/>
				<path class="st9" d="M1167.7,842.1l5.8,21.4c0.2,0.8,1.2,1.4,2.1,1.4c1.2,0,1.8-1.1,1.9-1.2c1.1-1.9,2.1-3.8,3.2-5.8l-4.8-17.8
					L1167.7,842.1z"/>
			</g>
			<circle class="st10" cx="1167.2" cy="818.2" r="27.3"/>
			<circle class="st4" cx="1167" cy="818.2" r="21.2"/>
			<rect x="1151.6" y="803.9" class="st15" width="39.6" height="31.2"/>
			<text transform="matrix(1 0 0 1 1151.5725 826.7927)" class="st9 st16 st17">co</text>
		</g>
		<g>
			<g>
				<g>
					<path class="st18" d="M1234.9,836.9l-5.7,21.4c-0.3,0.8,0.4,1.8,1.1,2.2c1.1,0.6,2.2-0.1,2.2-0.1c1.9-1.1,3.7-2.3,5.6-3.4
						l4.7-17.8L1234.9,836.9z"/>
					<path class="st18" d="M1250.9,841.2l-5.8,21.4c-0.2,0.8-1.2,1.4-2.1,1.4c-1.2,0-1.8-1.1-1.9-1.2c-1.1-1.9-2.1-3.8-3.2-5.8
						l4.8-17.8L1250.9,841.2z"/>
				</g>
			</g>
			<g>
				<g>
					<path class="st18" d="M1268,836.9l5.7,21.4c0.3,0.8-0.4,1.8-1.1,2.2c-1.1,0.6-2.2-0.1-2.2-0.1c-1.9-1.1-3.7-2.3-5.6-3.4
						l-4.7-17.8L1268,836.9z"/>
					<path class="st18" d="M1252.1,841.2l5.8,21.4c0.2,0.8,1.2,1.4,2.1,1.4c1.2,0,1.8-1.1,1.9-1.2c1.1-1.9,2.1-3.8,3.2-5.8
						l-4.8-17.8L1252.1,841.2z"/>
				</g>
			</g>
			<circle class="st19" cx="1251.7" cy="817.3" r="27.3"/>
			<circle class="st4" cx="1251.5" cy="817.3" r="21.2"/>
			<rect x="1238.8" y="803" class="st15" width="39.6" height="31.2"/>
			<text transform="matrix(1 0 0 1 1238.7649 825.8743)" class="st20 st16 st17">al</text>
		</g>
	</g>
	<g>
		<path class="st9" d="M1104.8,509.7c0,0-17.2-5.6-11.2-19.8c6-14.3-5.2-15.8,1.7-26.7c6.2-9.8,18.6-0.3,24-8.3
			c5.4-8,19.4-13.4,26.4-4.8c6,7.4,6.9,1.8,23.4,3.6c13.2,1.4,19.8,0.8,22.8,6c2.1,3.6,1.8,8.5,1.8,9.1c-0.4,6-3.8,7.4-3.3,11.5
			c0.5,4.2,3.8,5.5,7.2,9.6c9.5,11.7,4.3,29.6,3.9,30.7c-2,6.6-6.9,15.3-10.1,14.6c-4.8-1,1.5-21.6-6.7-31.9
			C1177.7,494.2,1157.8,490.7,1104.8,509.7z"/>
		<g>
			<path class="st9" d="M1186.5,532.9l-6.7,2.1c0,0,2.1,14.1-0.3,24.8c-9.1-8.4-34.6,4.9-34.6,4.9s-27.1-2.4-30.7,7.4
				c-1.4-2.5-2.7-5.4-3.9-8.7c-3.3-9.2-4-17.5-3.9-23.7c-3.1-3.5-6.1-7.1-9.2-10.6c-0.6,6.5-0.7,17.4,3.6,29.8
				c2,5.8,12,34.9,38.2,40.9c4.6,1.1,17.6,3.4,30.2-4.2c13.7-8.2,18.9-24.9,21.1-38.5C1188.7,545.1,1186.5,532.9,1186.5,532.9z
				 M1169.9,569.7c2.6,3.9,1.4,9.1-2.4,11.9c-8.6,6.4-19.6,8-25.6,7.6c-3.5-0.2-6.8-1-10.3-2.3c-5.9-2.3-6.8-10.4-1.3-13.7
				c3.5-2.1,9-3.6,17.6-3.7C1161.4,563.7,1167.4,565.9,1169.9,569.7z"/>
		</g>
		<path class="st9" d="M1106.7,551.4c-0.1-3.3-0.3-8.7-0.4-15.5c-0.2-10.4-0.1-15.1,2.8-20.2c0.8-1.4,1.5-2.6,2.8-3.8
			c5.1-4.7,12.6-2.7,21.1-2.1c0,0,1.6,0.1,36.8-5.6l0,0c0,0,3.7,4.2,7.4,6.5c4.4,2.7,1.5,12.3,1.8,18.2c0.2,2.7,0.4,4,1,6.8l0.3,1.4
			l11.3-2c-0.3-9.1-1.3-19-2.4-27.3c-0.5-3.8-8-18.2-22.7-24.2c-9.4-3.8-22.1-1.4-47.5,3.6c-6.8,1.3-7.8,1.8-8.5,2.1
			c-17.5,9.1-13.3,48-11.3,62.1C1101.6,551.5,1104.1,551.4,1106.7,551.4z"/>
	</g>
	
		<linearGradient id="SVGID_4_" gradientUnits="userSpaceOnUse" x1="328.1546" y1="1023.6556" x2="340.2739" y2="1011.5363" gradientTransform="matrix(-1.0619 0.4533 0.4978 1.1662 1038.9507 -794.1996)">
		<stop  offset="0.2318" style="stop-color:#FF8D8D"/>
		<stop  offset="0.2631" style="stop-color:#FF8A8A"/>
		<stop  offset="0.5535" style="stop-color:#FF6E6E"/>
		<stop  offset="0.8088" style="stop-color:#FF5D5D"/>
		<stop  offset="1" style="stop-color:#FF5757"/>
	</linearGradient>
	<path class="st21" d="M1185.5,527.3c7.5,0.4,13.7,5.4,15.3,11.9c1.9,8-3.5,17.1-12.8,19.4C1187.2,548.2,1186.3,537.7,1185.5,527.3z
		"/>
	<rect x="1460.7" y="421.4" class="st8" width="378.9" height="633"/>
	<g>
		<path class="st22" d="M1796.2,896.3c0,0.5-64.2,0.8-143.3,0.8c-79.1,0-143.3-0.4-143.3-0.8c0-0.5,64.1-0.8,143.3-0.8
			C1732,895.5,1796.2,895.8,1796.2,896.3z"/>
	</g>
	<g>
		<path class="st22" d="M1796.2,944.2c0,0.5-64.2,0.8-143.3,0.8c-79.1,0-143.3-0.4-143.3-0.8c0-0.5,64.1-0.8,143.3-0.8
			C1732,943.4,1796.2,943.8,1796.2,944.2z"/>
	</g>
	<g>
		<g>
			<g>
				<path class="st13" d="M1542.9,834.8l-5.7,21.4c-0.3,0.8,0.4,1.8,1.1,2.2c1.1,0.6,2.2-0.1,2.2-0.1c1.9-1.1,3.7-2.3,5.6-3.4
					l4.7-17.8L1542.9,834.8z"/>
				<path class="st13" d="M1558.9,839.1l-5.8,21.4c-0.2,0.8-1.2,1.4-2.1,1.4c-1.2,0-1.8-1.1-1.9-1.2c-1.1-1.9-2.1-3.8-3.2-5.8
					l4.8-17.8L1558.9,839.1z"/>
			</g>
			<g>
				<path class="st13" d="M1576.1,834.8l5.7,21.4c0.3,0.8-0.4,1.8-1.1,2.2c-1.1,0.6-2.2-0.1-2.2-0.1c-1.9-1.1-3.7-2.3-5.6-3.4
					l-4.7-17.8L1576.1,834.8z"/>
				<path class="st13" d="M1560.1,839.1l5.8,21.4c0.2,0.8,1.2,1.4,2.1,1.4c1.2,0,1.8-1.1,1.9-1.2c1.1-1.9,2.1-3.8,3.2-5.8l-4.8-17.8
					L1560.1,839.1z"/>
			</g>
			<circle class="st14" cx="1559.7" cy="815.2" r="27.3"/>
			<circle class="st4" cx="1559.5" cy="815.2" r="21.2"/>
			<rect x="1549.3" y="802.6" class="st13" width="4.6" height="4.6"/>
			<path class="st13" d="M1559.8,823.3c-1.5-1.5-2.2-3.3-2.2-5.4c0-2.1,0.7-3.9,2.2-5.4c1.5-1.5,3.3-2.2,5.4-2.2v3.8
				c-1.1,0-2,0.4-2.7,1.1c-0.7,0.7-1.1,1.6-1.1,2.7c0,1.1,0.4,2,1.1,2.7c0.7,0.7,1.6,1.1,2.7,1.1c1,0,1.9-0.4,2.7-1.1
				c0.8-0.7,1.1-1.6,1.1-2.7v-15.3h3.8v15.3c0,2.1-0.7,3.9-2.2,5.4c-1.5,1.5-3.3,2.2-5.4,2.2
				C1563.1,825.5,1561.3,824.8,1559.8,823.3z"/>
			<rect x="1549.5" y="810.2" class="st13" width="4.1" height="15.3"/>
		</g>
		<g>
			<g>
				<g>
					<path class="st9" d="M1627.7,835.4l-5.7,21.4c-0.3,0.8,0.4,1.8,1.1,2.2c1.1,0.6,2.2-0.1,2.2-0.1c1.9-1.1,3.7-2.3,5.6-3.4
						l4.7-17.8L1627.7,835.4z"/>
					<path class="st9" d="M1643.7,839.7l-5.8,21.4c-0.2,0.8-1.2,1.4-2.1,1.4c-1.2,0-1.8-1.1-1.9-1.2c-1.1-1.9-2.1-3.8-3.2-5.8
						l4.8-17.8L1643.7,839.7z"/>
				</g>
			</g>
			<g>
				<path class="st9" d="M1660.9,835.4l5.7,21.4c0.3,0.8-0.4,1.8-1.1,2.2c-1.1,0.6-2.2-0.1-2.2-0.1c-1.9-1.1-3.7-2.3-5.6-3.4
					l-4.7-17.8L1660.9,835.4z"/>
				<path class="st9" d="M1644.9,839.7l5.8,21.4c0.2,0.8,1.2,1.4,2.1,1.4c1.2,0,1.8-1.1,1.9-1.2c1.1-1.9,2.1-3.8,3.2-5.8l-4.8-17.8
					L1644.9,839.7z"/>
			</g>
			<circle class="st10" cx="1644.5" cy="815.7" r="27.3"/>
			<circle class="st4" cx="1644.3" cy="815.7" r="21.2"/>
			<rect x="1628.8" y="801.4" class="st15" width="39.6" height="31.2"/>
			<text transform="matrix(1 0 0 1 1628.8279 824.332)" class="st9 st16 st17">co</text>
		</g>
		<g>
			<g>
				<g>
					<path class="st18" d="M1712.2,834.5l-5.7,21.4c-0.3,0.8,0.4,1.8,1.1,2.2c1.1,0.6,2.2-0.1,2.2-0.1c1.9-1.1,3.7-2.3,5.6-3.4
						l4.7-17.8L1712.2,834.5z"/>
					<path class="st18" d="M1728.1,838.7l-5.8,21.4c-0.2,0.8-1.2,1.4-2.1,1.4c-1.2,0-1.8-1.1-1.9-1.2c-1.1-1.9-2.1-3.8-3.2-5.8
						l4.8-17.8L1728.1,838.7z"/>
				</g>
			</g>
			<g>
				<g>
					<path class="st18" d="M1745.3,834.5l5.7,21.4c0.3,0.8-0.4,1.8-1.1,2.2c-1.1,0.6-2.2-0.1-2.2-0.1c-1.9-1.1-3.7-2.3-5.6-3.4
						l-4.7-17.8L1745.3,834.5z"/>
					<path class="st18" d="M1729.4,838.7l5.8,21.4c0.2,0.8,1.2,1.4,2.1,1.4c1.2,0,1.8-1.1,1.9-1.2c1.1-1.9,2.1-3.8,3.2-5.8
						l-4.8-17.8L1729.4,838.7z"/>
				</g>
			</g>
			<circle class="st19" cx="1728.9" cy="814.8" r="27.3"/>
			<circle class="st4" cx="1728.7" cy="814.8" r="21.2"/>
			<rect x="1716" y="800.5" class="st15" width="39.6" height="31.2"/>
			<text transform="matrix(1 0 0 1 1716.0203 823.4136)" class="st20 st16 st17">al</text>
		</g>
	</g>
	<circle class="st4" cx="1648.6" cy="607.1" r="157"/>
	<g>
		<path class="st18" d="M1722,651.1c-9.1-4.1-18.7-6.1-18.7-6.1c0,0-0.2,0-0.3-0.1c-50.4-10.7-90.2,0-90.2,0
			c-14.8,4-25.2,9.1-32.9,13c-14.3,7.2-21.4,10.7-21.6,14.3c-0.7,12.4,46.9,34.7,92.9,21.6l0,0c5.1-1.2,12.9-3.3,22.2-6.6
			c2.8-0.7,7.1-1.8,12.3-2.7c10.6-1.8,18.6-1.9,21.7-2c18-0.4,44-1,45.8-7.9C1755.2,666.7,1726.4,653.1,1722,651.1z"/>
		<linearGradient id="SVGID_5_" gradientUnits="userSpaceOnUse" x1="1582.0851" y1="591.8684" x2="1722.0428" y2="591.8684">
			<stop  offset="0" style="stop-color:#FEB12B"/>
			<stop  offset="0.8543" style="stop-color:#FEB12B"/>
			<stop  offset="0.9949" style="stop-color:#FEB12B"/>
		</linearGradient>
		<path class="st23" d="M1584.6,655.5c3.6-2.4,9.5-5.9,17.3-9.2c7.3-3.1,11.1-3.7,11.8-6.5c0.9-3.7-4.8-6.7-12.3-15.6
			c-4.6-5.5-7.7-10.5-9.6-14.3c-15.9-30.3-11.6-71.4,9.3-93.8c1.6-1.7,2.7-2.9,4.7-4.3c18-13.2,53.5-6.1,70.2,14
			c14.2,17.1,12.9,41.4,12,60.2c-1.3,25.9-9.4,41.1-0.7,48.9c4.6,4.1,10.5,3.2,27.9,12.3c3,1.5,5.4,2.9,7,3.9
			c-6.9,4.7-68.1,44.6-117.7,19C1598.2,666.9,1591.3,662.3,1584.6,655.5z"/>
		
			<linearGradient id="SVGID_6_" gradientUnits="userSpaceOnUse" x1="1539.8645" y1="1018.0248" x2="1602.4518" y2="955.4376" gradientTransform="matrix(0.9831 -0.1829 0.1829 0.9831 -98.9031 -106.1011)">
			<stop  offset="1.117318e-02" style="stop-color:#FFC255"/>
			<stop  offset="0.1559" style="stop-color:#FFCF6C"/>
			<stop  offset="0.3024" style="stop-color:#FFD97D"/>
			<stop  offset="0.413" style="stop-color:#FFDC83"/>
			<stop  offset="0.5081" style="stop-color:#FEDD88"/>
			<stop  offset="0.6171" style="stop-color:#FBDE96"/>
			<stop  offset="0.7331" style="stop-color:#F6E1AD"/>
			<stop  offset="0.8531" style="stop-color:#EEE5CD"/>
			<stop  offset="0.9385" style="stop-color:#E8E8E8"/>
		</linearGradient>
		<path class="st24" d="M1596.4,551.2c-1.8,7.2-3.5,18.1-1.4,31.1c0.8,4.9,6.7,38.9,25,41.9c14.8,2.5,31.3-16.1,35.4-21.7
			c2.1-2.8,4.2-5.7,6.2-8.5c0.9-1.6,13.4-25.6,3.1-41.2c-5-7.6-15.9-14.3-17.6-15.3c0,0-5.5-3.4-10.4-5.2
			C1632.2,530.6,1615.4,537,1596.4,551.2z"/>
		<path class="st18" d="M1596.4,551.2c0.7-3,2.3-7.4,5.7-11.4c9.6-11.3,27.1-11.9,39-8.2c12.4,3.9,24,14.1,26.9,26.8
			c0.5,2.2,0.6,4,0.7,5.3c-9-4.3-22.1-9.4-38.6-11.8C1616.8,550,1605.2,550.3,1596.4,551.2z"/>
		<path class="st18" d="M1596.4,653.1c4,2.9,13.3,8.7,26.3,9.3c1.9,0.1,17,0.5,30.3-9c5.7-4.1,5.9-6.3,12.3-10.6
			c7.7-5.2,15.3-7.3,20.6-8.3c-2.4-0.6-6.3-1.3-11-1c-18.1,1.2-25.1,16.4-40.4,22.5C1626.9,659,1614.9,660.7,1596.4,653.1z"/>
		<path class="st18" d="M1613.8,637.5c1.3,2.5,3.2,5.6,6.1,8c9.6,7.9,20.9,2.1,22.4,1.2c-3.3,0.5-8.4,0.8-14.4-1
			C1621.4,643.7,1616.6,640.1,1613.8,637.5z"/>
		<path class="st18" d="M1675.3,553.1c1.5,5.8,3.4,16.2,1.3,28.9c-2.3,13.7-8.1,23.5-11.6,28.6c3.2-7.2,6.6-16.8,8.6-28.6
			C1675.6,570.7,1675.7,560.7,1675.3,553.1z"/>
	</g>
	<rect x="493.9" y="421.4" class="st8" width="378.9" height="633"/>
	<g>
		<g>
			<g>
				<path class="st13" d="M576.2,834.8l-5.7,21.4c-0.3,0.8,0.4,1.8,1.1,2.2c1.1,0.6,2.2-0.1,2.2-0.1c1.9-1.1,3.7-2.3,5.6-3.4
					l4.7-17.8L576.2,834.8z"/>
				<path class="st13" d="M592.1,839.1l-5.8,21.4c-0.2,0.8-1.2,1.4-2.1,1.4c-1.2,0-1.8-1.1-1.9-1.2c-1.1-1.9-2.1-3.8-3.2-5.8
					l4.8-17.8L592.1,839.1z"/>
			</g>
			<g>
				<path class="st13" d="M609.3,834.8l5.7,21.4c0.3,0.8-0.4,1.8-1.1,2.2c-1.1,0.6-2.2-0.1-2.2-0.1c-1.9-1.1-3.7-2.3-5.6-3.4
					l-4.7-17.8L609.3,834.8z"/>
				<path class="st13" d="M593.3,839.1l5.8,21.4c0.2,0.8,1.2,1.4,2.1,1.4c1.2,0,1.8-1.1,1.9-1.2c1.1-1.9,2.1-3.8,3.2-5.8l-4.8-17.8
					L593.3,839.1z"/>
			</g>
			<circle class="st14" cx="592.9" cy="815.2" r="27.3"/>
			<circle class="st4" cx="592.7" cy="815.2" r="21.2"/>
			<rect x="582.5" y="802.6" class="st13" width="4.6" height="4.6"/>
			<path class="st13" d="M593,823.3c-1.5-1.5-2.2-3.3-2.2-5.4c0-2.1,0.7-3.9,2.2-5.4c1.5-1.5,3.3-2.2,5.4-2.2v3.8
				c-1.1,0-2,0.4-2.7,1.1c-0.7,0.7-1.1,1.6-1.1,2.7c0,1.1,0.4,2,1.1,2.7c0.7,0.7,1.6,1.1,2.7,1.1c1,0,1.9-0.4,2.7-1.1
				c0.8-0.7,1.1-1.6,1.1-2.7v-15.3h3.8v15.3c0,2.1-0.7,3.9-2.2,5.4c-1.5,1.5-3.3,2.2-5.4,2.2C596.3,825.5,594.5,824.8,593,823.3z"/>
			<rect x="582.7" y="810.2" class="st13" width="4.1" height="15.3"/>
		</g>
		<g>
			<g>
				<g>
					<path class="st9" d="M660.9,835.4l-5.7,21.4c-0.3,0.8,0.4,1.8,1.1,2.2c1.1,0.6,2.2-0.1,2.2-0.1c1.9-1.1,3.7-2.3,5.6-3.4
						l4.7-17.8L660.9,835.4z"/>
					<path class="st9" d="M676.9,839.7l-5.8,21.4c-0.2,0.8-1.2,1.4-2.1,1.4c-1.2,0-1.8-1.1-1.9-1.2c-1.1-1.9-2.1-3.8-3.2-5.8
						l4.8-17.8L676.9,839.7z"/>
				</g>
			</g>
			<g>
				<path class="st9" d="M694.1,835.4l5.7,21.4c0.3,0.8-0.4,1.8-1.1,2.2c-1.1,0.6-2.2-0.1-2.2-0.1c-1.9-1.1-3.7-2.3-5.6-3.4
					l-4.7-17.8L694.1,835.4z"/>
				<path class="st9" d="M678.1,839.7l5.8,21.4c0.2,0.8,1.2,1.4,2.1,1.4c1.2,0,1.8-1.1,1.9-1.2c1.1-1.9,2.1-3.8,3.2-5.8l-4.8-17.8
					L678.1,839.7z"/>
			</g>
			<circle class="st10" cx="677.7" cy="815.7" r="27.3"/>
			<circle class="st4" cx="677.5" cy="815.7" r="21.2"/>
			<rect x="662" y="801.4" class="st15" width="39.6" height="31.2"/>
			<text transform="matrix(1 0 0 1 662.0349 824.3323)" class="st9 st16 st17">co</text>
		</g>
		<g>
			<g>
				<g>
					<path class="st18" d="M745.4,834.5l-5.7,21.4c-0.3,0.8,0.4,1.8,1.1,2.2c1.1,0.6,2.2-0.1,2.2-0.1c1.9-1.1,3.7-2.3,5.6-3.4
						l4.7-17.8L745.4,834.5z"/>
					<path class="st18" d="M761.3,838.7l-5.8,21.4c-0.2,0.8-1.2,1.4-2.1,1.4c-1.2,0-1.8-1.1-1.9-1.2c-1.1-1.9-2.1-3.8-3.2-5.8
						l4.8-17.8L761.3,838.7z"/>
				</g>
			</g>
			<g>
				<g>
					<path class="st18" d="M778.5,834.5l5.7,21.4c0.3,0.8-0.4,1.8-1.1,2.2c-1.1,0.6-2.2-0.1-2.2-0.1c-1.9-1.1-3.7-2.3-5.6-3.4
						l-4.7-17.8L778.5,834.5z"/>
					<path class="st18" d="M762.6,838.7l5.8,21.4c0.2,0.8,1.2,1.4,2.1,1.4c1.2,0,1.8-1.1,1.9-1.2c1.1-1.9,2.1-3.8,3.2-5.8l-4.8-17.8
						L762.6,838.7z"/>
				</g>
			</g>
			<circle class="st19" cx="762.1" cy="814.8" r="27.3"/>
			<circle class="st4" cx="761.9" cy="814.8" r="21.2"/>
			<rect x="749.2" y="800.5" class="st15" width="39.6" height="31.2"/>
			<text transform="matrix(1 0 0 1 749.2273 823.4138)" class="st20 st16 st17">al</text>
		</g>
	</g>
	<circle class="st4" cx="681.8" cy="607.1" r="157"/>
	<g>
		<g>
			
				<ellipse transform="matrix(0.2312 -0.9729 0.9729 0.2312 679.4349 2411.8186)" class="st25" cx="1865.8" cy="776" rx="47.2" ry="47.2"/>
			<g>
				<path class="st22" d="M1858.6,796.1c-0.1-0.2,2.4-2.5,6.6-6.1c4.2-3.6,10.2-8.6,16.8-13.9l0,1.3c-0.1-0.1-0.2-0.2-0.3-0.3
					c-6.5-5.7-12.4-10.9-16.5-14.7c-4.2-3.8-6.7-6.3-6.5-6.5c0.2-0.2,2.9,2,7.3,5.6c4.4,3.6,10.3,8.7,16.9,14.3
					c0.1,0.1,0.2,0.2,0.3,0.3l0.8,0.7l-0.8,0.6c-6.6,5.4-12.7,10.2-17.1,13.6C1861.6,794.3,1858.8,796.3,1858.6,796.1z"/>
			</g>
		</g>
		<g>
			
				<ellipse transform="matrix(0.2298 -0.9732 0.9732 0.2298 -386.9806 1063.0297)" class="st25" cx="478.1" cy="776" rx="47.2" ry="47.2"/>
			<g>
				<path class="st22" d="M485.3,755.9c0.1,0.2-2.4,2.5-6.6,6.1c-4.2,3.6-10.2,8.6-16.8,13.9l0-1.3c0.1,0.1,0.2,0.2,0.3,0.3
					c6.5,5.7,12.4,10.9,16.5,14.7c4.2,3.8,6.7,6.3,6.5,6.5c-0.2,0.2-2.9-2-7.3-5.6c-4.4-3.6-10.3-8.7-16.9-14.3
					c-0.1-0.1-0.2-0.2-0.3-0.3l-0.8-0.7l0.8-0.6c6.6-5.4,12.7-10.2,17.1-13.6C482.3,757.7,485.1,755.7,485.3,755.9z"/>
			</g>
		</g>
	</g>
	<linearGradient id="SVGID_7_" gradientUnits="userSpaceOnUse" x1="576.0879" y1="668.7996" x2="772.633" y2="668.7996">
		<stop  offset="0" style="stop-color:#FEB12B"/>
		<stop  offset="0.8543" style="stop-color:#FEB12B"/>
		<stop  offset="0.9949" style="stop-color:#FEB12B"/>
	</linearGradient>
	<path class="st26" d="M607.6,650.9c9.2-4.1,18.9-6.2,18.9-6.2c0,0,0.2,0,0.3-0.1c50.8-10.8,90.9,0,90.9,0c14.9,4,25.4,9.2,33.2,13
		c14.4,7.2,21.6,10.8,21.8,14.4c0.7,12.5-47.3,35-93.7,21.7l0,0c-5.1-1.3-13-3.4-22.4-6.7c-2.8-0.7-7.1-1.8-12.4-2.7
		c-10.7-1.8-18.8-1.9-21.8-2c-18.2-0.4-44.3-1-46.1-8C574.1,666.6,603.2,652.8,607.6,650.9z"/>
	<path class="st18" d="M669.6,666.6c18,7.3,35,4.4,42,2.7c5.5-1.3,14.1-4.1,23.4-10.3c-2.7-2.8-6.8-6.6-12.7-9.9
		c-3.4-1.9-7-3.5-11.9-5c-14.4-4.5-27.5-4.8-29.5-4.8c-26.1-0.5-59.2,5.6-59,9.7c0.2,2.6,13.3,0.8,33.3,10
		C663.9,662.9,662.9,663.9,669.6,666.6z"/>
	
		<linearGradient id="SVGID_8_" gradientUnits="userSpaceOnUse" x1="-4912.7324" y1="771.3392" x2="-4876.1094" y2="765.5508" gradientTransform="matrix(-0.9993 -3.686944e-02 -4.449339e-02 1.206 -4179.0366 -484.791)">
		<stop  offset="0.413" style="stop-color:#FFDC83"/>
		<stop  offset="0.5081" style="stop-color:#FEDD88"/>
		<stop  offset="0.6171" style="stop-color:#FBDE96"/>
		<stop  offset="0.7331" style="stop-color:#F6E1AD"/>
		<stop  offset="0.8531" style="stop-color:#EEE5CD"/>
		<stop  offset="0.9385" style="stop-color:#E8E8E8"/>
	</linearGradient>
	<path class="st27" d="M687.2,652.6c-1.7,1.3-6.3,4.5-12.2,3.8c-7.2-0.8-13.6-7.1-16.4-16.1c2.2-18.5,4.5-37.1,6.7-55.6l25.2,22.4
		l6.7,12.3L687.2,652.6z"/>
	
		<linearGradient id="SVGID_9_" gradientUnits="userSpaceOnUse" x1="-4902.3447" y1="-183.8804" x2="-4839.3906" y2="-246.8346" gradientTransform="matrix(-0.9831 -0.1829 -0.1829 0.9831 -4119.543 -106.1011)">
		<stop  offset="1.117318e-02" style="stop-color:#FFC255"/>
		<stop  offset="0.1559" style="stop-color:#FFCF6C"/>
		<stop  offset="0.3024" style="stop-color:#FFD97D"/>
		<stop  offset="0.413" style="stop-color:#FFDC83"/>
		<stop  offset="0.5081" style="stop-color:#FEDD88"/>
		<stop  offset="0.6171" style="stop-color:#FBDE96"/>
		<stop  offset="0.7331" style="stop-color:#F6E1AD"/>
		<stop  offset="0.8531" style="stop-color:#EEE5CD"/>
		<stop  offset="0.9385" style="stop-color:#E8E8E8"/>
	</linearGradient>
	<path class="st28" d="M728.6,523.4c1.6,9.5,3.2,19.1,4.8,28.6c8.7,39.2-6.4,68.5-22.9,71.7c-16.6,3.3-34.2-19.9-35.6-21.8
		c-2.1-2.8-4.2-5.7-6.3-8.5c-0.9-1.6-13.5-25.7-3.2-41.5c5-7.6,16.1-14.4,17.8-15.4c1.6-1,5.1-3,10.5-5.2
		C700.6,528.5,712.3,524.6,728.6,523.4z"/>
	<linearGradient id="SVGID_10_" gradientUnits="userSpaceOnUse" x1="651.8983" y1="535.123" x2="762.406" y2="535.123">
		<stop  offset="0" style="stop-color:#FEB12B"/>
		<stop  offset="0.8543" style="stop-color:#FEB12B"/>
		<stop  offset="0.9949" style="stop-color:#FEB12B"/>
	</linearGradient>
	<path class="st29" d="M663.7,566c-2.3-0.6-4.6-1.2-6.9-1.8c-6.6-10.9-6.5-23.6,0.1-31.7c4.5-5.5,10.7-7.3,13.6-8
		c2.1-3.7,5.1-7.6,9.3-10.9c17-13.5,46.3-11.9,56.4,1c2.9,3.7,3.6,7.4,8.3,10c5.9,3.3,13,2,17.8,0.5c-0.2,3.8-1.1,13.1-8,19.4
		c-2.9,2.6-6.3,4.3-10.5,5.3c-23.8,6-49.4-15.5-66.2-6.7C673.2,545.6,667.1,551.1,663.7,566z"/>
	
		<linearGradient id="SVGID_11_" gradientUnits="userSpaceOnUse" x1="4273.5234" y1="-951.7586" x2="4283.5239" y2="-961.7587" gradientTransform="matrix(1.4009 0.598 -0.5441 1.2747 -5852.6357 -763.229)">
		<stop  offset="1.117318e-02" style="stop-color:#FFC255"/>
		<stop  offset="0.1559" style="stop-color:#FFCF6C"/>
		<stop  offset="0.3024" style="stop-color:#FFD97D"/>
		<stop  offset="0.413" style="stop-color:#FFDC83"/>
		<stop  offset="0.5081" style="stop-color:#FEDD88"/>
		<stop  offset="0.6171" style="stop-color:#FBDE96"/>
		<stop  offset="0.7331" style="stop-color:#F6E1AD"/>
		<stop  offset="0.8531" style="stop-color:#EEE5CD"/>
		<stop  offset="0.9385" style="stop-color:#E8E8E8"/>
	</linearGradient>
	<path class="st30" d="M665.2,558.5c-7.4,1-13.2,5.8-14.4,11.8c-1.6,8.1,5.1,17.6,15.8,20.1C666.1,579.8,665.7,569.2,665.2,558.5z"
		/>
	<rect x="974.1" y="958" class="st31" width="393.1" height="30.9"/>
	<rect x="974.8" y="1019.7" class="st32" width="393.1" height="30.9"/>
	<rect x="974.8" y="1081.4" class="st31" width="393.1" height="30.9"/>
	<rect x="1509.5" y="894.8" class="st31" width="286.2" height="22.5"/>
	<rect x="1510" y="939.7" class="st32" width="286.2" height="22.5"/>
	<rect x="535.2" y="888.9" class="st31" width="286.2" height="22.5"/>
	<rect x="535.7" y="933.8" class="st32" width="286.2" height="22.5"/>
	<rect x="535.7" y="978.7" class="st31" width="286.2" height="22.5"/>
	<rect x="1514.7" y="977.7" class="st31" width="286.2" height="22.5"/>
	<g>
		<path class="st33" d="M993.2,313.8C907.7,359.2,845,435.2,816.7,527.7c-58.5,191,49.3,394.1,240.4,452.6l0,0
			c117.2,35.9,238.9,9.1,329-61.1l305.4,382l46.7-37.3l-307.9-385.2c35.5-38.6,63.1-85.4,79.4-138.7c3.9-12.6,7-25.3,9.5-38.1
			c15.6-80.9,3.3-164.2-35.9-238c-45.4-85.5-121.4-148.2-213.9-176.5C1176.7,259,1078.7,268.4,993.2,313.8z M1251.8,344.5
			c77.3,23.7,140.7,76,178.6,147.4c37.9,71.4,45.8,153.2,22.1,230.5C1403.6,882,1234.1,972,1074.6,923.2
			C915.1,874.3,825,704.8,873.9,545.3c23.7-77.3,76-140.7,147.4-178.6C1092.6,328.7,1174.5,320.9,1251.8,344.5z"/>
	</g>
</g>
</svg>
