<svg width="1165" height="1172" viewBox="0 0 1165 1172" fill="none" xmlns="http://www.w3.org/2000/svg">
<path d="M933.24 165.79C933.24 187.85 915.35 205.74 893.29 205.74C871.22 205.74 853.34 187.85 853.34 165.79C853.34 143.72 871.23 125.84 893.29 125.84C915.35 125.84 933.24 143.72 933.24 165.79Z" stroke="#30886F" stroke-width="4" stroke-miterlimit="10"/>
<path d="M923.909 165.79C923.909 182.7 910.199 196.42 893.279 196.42C876.359 196.42 862.649 182.7 862.649 165.79C862.649 148.87 876.359 135.16 893.279 135.16C910.199 135.16 923.909 148.87 923.909 165.79Z" stroke="url(#paint0_linear)" stroke-width="3" stroke-miterlimit="10"/>
<path d="M914.31 165.42C914.31 177.2 904.77 186.74 892.99 186.74C881.21 186.74 871.66 177.19 871.66 165.42C871.66 153.64 881.21 144.1 892.99 144.1C904.77 144.1 914.31 153.64 914.31 165.42Z" fill="white"/>
<path d="M543.459 313.53C543.459 335.59 525.57 353.48 503.51 353.48C481.44 353.48 463.56 335.59 463.56 313.53C463.56 291.46 481.45 273.58 503.51 273.58C525.57 273.58 543.459 291.47 543.459 313.53Z" stroke="#30886F" stroke-width="4" stroke-miterlimit="10"/>
<path d="M534.13 313.53C534.13 330.44 520.42 344.16 503.5 344.16C486.58 344.16 472.87 330.44 472.87 313.53C472.87 296.61 486.58 282.9 503.5 282.9C520.42 282.9 534.13 296.62 534.13 313.53Z" stroke="url(#paint1_linear)" stroke-width="3" stroke-miterlimit="10"/>
<path d="M524.53 313.16C524.53 324.94 514.99 334.48 503.21 334.48C491.43 334.48 481.88 324.93 481.88 313.16C481.88 301.38 491.43 291.84 503.21 291.84C514.99 291.84 524.53 301.38 524.53 313.16Z" fill="white"/>
<path d="M524.53 488.64C524.53 510.7 506.64 528.59 484.58 528.59C462.51 528.59 444.63 510.7 444.63 488.64C444.63 466.57 462.52 448.69 484.58 448.69C506.64 448.69 524.53 466.58 524.53 488.64Z" stroke="#30886F" stroke-width="4" stroke-miterlimit="10"/>
<path d="M515.199 488.64C515.199 505.55 501.489 519.27 484.569 519.27C467.649 519.27 453.939 505.55 453.939 488.64C453.939 471.72 467.649 458.01 484.569 458.01C501.489 458.01 515.199 471.72 515.199 488.64Z" stroke="url(#paint2_linear)" stroke-width="3" stroke-miterlimit="10"/>
<path d="M505.6 488.27C505.6 500.05 496.06 509.59 484.28 509.59C472.5 509.59 462.95 500.04 462.95 488.27C462.95 476.5 472.5 466.95 484.28 466.95C496.06 466.95 505.6 476.49 505.6 488.27Z" fill="white"/>
<path d="M341.86 512.07C341.86 534.13 323.97 552.02 301.91 552.02C279.84 552.02 261.96 534.13 261.96 512.07C261.96 490 279.85 472.12 301.91 472.12C323.97 472.12 341.86 490.01 341.86 512.07Z" stroke="#30886F" stroke-width="4" stroke-miterlimit="10"/>
<path d="M332.54 512.07C332.54 528.98 318.83 542.7 301.91 542.7C284.99 542.7 271.28 528.98 271.28 512.07C271.28 495.15 284.99 481.44 301.91 481.44C318.82 481.44 332.54 495.16 332.54 512.07Z" stroke="url(#paint3_linear)" stroke-width="3" stroke-miterlimit="10"/>
<path d="M322.93 511.7C322.93 523.48 313.39 533.02 301.61 533.02C289.83 533.02 280.28 523.47 280.28 511.7C280.28 499.93 289.83 490.38 301.61 490.38C313.39 490.38 322.93 499.92 322.93 511.7Z" fill="white"/>
<path d="M196.49 901.95C196.49 924.01 178.6 941.9 156.54 941.9C134.47 941.9 116.59 924.01 116.59 901.95C116.59 879.88 134.48 862 156.54 862C178.6 862 196.49 879.89 196.49 901.95Z" stroke="#30886F" stroke-width="4" stroke-miterlimit="10"/>
<path d="M187.159 901.95C187.159 918.86 173.449 932.58 156.529 932.58C139.609 932.58 125.899 918.86 125.899 901.95C125.899 885.03 139.609 871.32 156.529 871.32C173.449 871.32 187.159 885.04 187.159 901.95Z" stroke="url(#paint4_linear)" stroke-width="3" stroke-miterlimit="10"/>
<path d="M177.549 901.58C177.549 913.36 168.009 922.9 156.229 922.9C144.449 922.9 134.899 913.35 134.899 901.58C134.899 889.8 144.449 880.26 156.229 880.26C168.009 880.26 177.549 889.8 177.549 901.58Z" fill="white"/>
<path d="M609.1 798.48C609.1 820.54 591.21 838.43 569.15 838.43C547.08 838.43 529.2 820.54 529.2 798.48C529.2 776.41 547.09 758.53 569.15 758.53C591.21 758.53 609.1 776.42 609.1 798.48Z" stroke="#30886F" stroke-width="4" stroke-miterlimit="10"/>
<path d="M599.77 798.48C599.77 815.39 586.06 829.11 569.14 829.11C552.22 829.11 538.51 815.39 538.51 798.48C538.51 781.56 552.22 767.85 569.14 767.85C586.06 767.85 599.77 781.57 599.77 798.48Z" stroke="url(#paint5_linear)" stroke-width="3" stroke-miterlimit="10"/>
<path d="M590.17 798.11C590.17 809.89 580.629 819.43 568.849 819.43C557.069 819.43 547.52 809.88 547.52 798.11C547.52 786.33 557.069 776.79 568.849 776.79C580.629 776.79 590.17 786.33 590.17 798.11Z" fill="white"/>
<path d="M814.66 1000.8C814.66 1022.86 796.77 1040.75 774.71 1040.75C752.64 1040.75 734.76 1022.86 734.76 1000.8C734.76 978.73 752.65 960.85 774.71 960.85C796.77 960.85 814.66 978.73 814.66 1000.8Z" stroke="#30886F" stroke-width="4" stroke-miterlimit="10"/>
<path d="M805.329 1000.8C805.329 1017.71 791.619 1031.43 774.699 1031.43C757.779 1031.43 744.069 1017.71 744.069 1000.8C744.069 983.88 757.779 970.17 774.699 970.17C791.619 970.17 805.329 983.88 805.329 1000.8Z" stroke="url(#paint6_linear)" stroke-width="3" stroke-miterlimit="10"/>
<path d="M795.73 1000.43C795.73 1012.21 786.19 1021.75 774.41 1021.75C762.63 1021.75 753.08 1012.2 753.08 1000.43C753.08 988.65 762.63 979.11 774.41 979.11C786.19 979.11 795.73 988.65 795.73 1000.43Z" fill="white"/>
<path d="M1033.98 779.73C1033.98 801.79 1016.09 819.68 994.03 819.68C971.96 819.68 954.08 801.79 954.08 779.73C954.08 757.66 971.97 739.78 994.03 739.78C1016.1 739.77 1033.98 757.66 1033.98 779.73Z" stroke="#30886F" stroke-width="4" stroke-miterlimit="10"/>
<path d="M1024.66 779.73C1024.66 796.64 1010.95 810.36 994.029 810.36C977.109 810.36 963.399 796.64 963.399 779.73C963.399 762.81 977.109 749.1 994.029 749.1C1010.95 749.1 1024.66 762.81 1024.66 779.73Z" stroke="url(#paint7_linear)" stroke-width="3" stroke-miterlimit="10"/>
<path d="M1015.05 779.35C1015.05 791.13 1005.51 800.67 993.729 800.67C981.949 800.67 972.399 791.12 972.399 779.35C972.399 767.57 981.949 758.03 993.729 758.03C1005.51 758.03 1015.05 767.57 1015.05 779.35Z" fill="white"/>
<path d="M838.18 578.16C838.18 600.22 820.29 618.11 798.23 618.11C776.16 618.11 758.28 600.22 758.28 578.16C758.28 556.09 776.17 538.21 798.23 538.21C820.29 538.21 838.18 556.1 838.18 578.16Z" stroke="#30886F" stroke-width="4" stroke-miterlimit="10"/>
<path d="M828.85 578.16C828.85 595.07 815.14 608.79 798.22 608.79C781.3 608.79 767.59 595.07 767.59 578.16C767.59 561.24 781.3 547.53 798.22 547.53C815.14 547.53 828.85 561.24 828.85 578.16Z" stroke="url(#paint8_linear)" stroke-width="3" stroke-miterlimit="10"/>
<path d="M819.25 577.79C819.25 589.57 809.71 599.11 797.93 599.11C786.15 599.11 776.6 589.56 776.6 577.79C776.6 566.01 786.15 556.47 797.93 556.47C809.71 556.47 819.25 566.01 819.25 577.79Z" fill="white"/>
<path d="M496.551 503.28L1163.27 1170" stroke="white" stroke-width="4" stroke-miterlimit="10"/>
<path d="M792.471 578.16L1099.19 884.88" stroke="white" stroke-width="4" stroke-miterlimit="10"/>
<path d="M563.51 798.48L870.23 1105.2" stroke="white" stroke-width="4" stroke-miterlimit="10"/>
<path d="M1098.47 882.36V1107" stroke="white" stroke-width="4" stroke-miterlimit="10"/>
<path d="M867.59 1105.2H1098.47" stroke="white" stroke-width="4" stroke-miterlimit="10"/>
<path d="M257.09 994.68H759.71" stroke="white" stroke-width="4" stroke-miterlimit="10"/>
<path d="M994.03 269.84V779.72" stroke="white" stroke-width="4" stroke-miterlimit="10"/>
<path d="M419.561 994.68V617.47" stroke="white" stroke-width="4" stroke-miterlimit="10"/>
<path d="M994.03 421.56H616.82" stroke="white" stroke-width="4" stroke-miterlimit="10"/>
<path d="M316.86 524.93L420.65 619.51" stroke="white" stroke-width="4" stroke-miterlimit="10"/>
<path d="M156.53 901.95L260.32 996.53" stroke="white" stroke-width="4" stroke-miterlimit="10"/>
<path d="M515.271 328.2L619.061 422.78" stroke="white" stroke-width="4" stroke-miterlimit="10"/>
<path d="M896.521 171.92L994.83 272.18" stroke="white" stroke-width="4" stroke-miterlimit="10"/>
<path d="M156.23 697.591C156.23 740.151 121.73 774.651 79.1703 774.651C36.6003 774.651 2.11035 740.151 2.11035 697.591C2.11035 655.021 36.6003 620.521 79.1703 620.521C121.73 620.531 156.23 655.031 156.23 697.591Z" stroke="url(#paint9_linear)" stroke-width="3" stroke-miterlimit="10"/>
<path d="M100.25 689.37C99.7399 688.1 98.78 687.91 97.89 688.07C98 686.42 98.0499 684.59 98.0599 682.4C98.0999 666.55 89.5699 661.96 78.3799 661.65H78.3699C67.1899 661.96 58.65 666.56 58.7 682.4C58.7 684.66 58.7599 686.53 58.8699 688.23C57.8599 687.89 56.5499 687.82 55.9199 689.38C55.9199 689.38 56.5799 699.03 60.5999 698.53C61.0699 700.44 61.6299 702.62 62.3199 705.29C64.2099 712.71 74.2899 716.62 78.1299 716.87C78.2099 716.86 78.3 716.86 78.39 716.85C78.47 716.86 78.56 716.86 78.64 716.87C82.48 716.61 92.56 712.7 94.45 705.29C95.13 702.62 95.6999 700.43 96.1599 698.52C99.6599 698.05 100.25 689.37 100.25 689.37Z" fill="#8CBA73"/>
<path d="M58.9607 688.96L60.7107 699.48L62.1606 700.42L60.7107 685.66L63.2007 679.77C76.9207 675.55 79.4007 669.41 79.4007 669.41C95.7507 669.74 93.5406 681.1 93.5406 681.1L95.9407 686.2L94.4906 700.97L95.9407 700.03L97.6907 689.51C100.331 683.72 98.7406 670.3 98.7406 670.3C98.7406 670.3 96.7507 664.83 92.5107 664.2C92.5107 664.2 91.8607 655.87 77.5207 655.23C77.5207 655.22 47.1107 655.38 58.9607 688.96Z" fill="#8CBA73"/>
<path d="M62.7303 724.3L45.9003 728.68C45.1303 728.72 43.8603 728.9 42.5603 729.69C39.6403 731.47 39.1403 734.8 39.0703 735.32C46.2703 739.93 53.4603 744.54 60.6603 749.15C65.7503 750.4 72.9703 751.59 81.5903 751.1C88.4403 750.72 94.2103 749.39 98.5903 748.04C104.95 743.48 111.31 738.92 117.68 734.36C117.27 733.4 115.39 729.26 111.91 728.74C111.6 728.69 111.27 728.67 110.91 728.69C105.04 727 99.1603 725.32 93.2903 723.63L78.3403 749.65L62.7303 724.3Z" fill="#8CBA73"/>
<path d="M69.4602 713.74C69.4602 713.74 69.3902 720.5 62.7302 724.3L52.9502 728.12L68.6002 749H86.8202L104.84 728.12L92.7102 723.63C92.7102 723.63 87.2702 719.61 87.2902 713.74" fill="#8CBA73"/>
<path d="M131.37 697.59C131.37 727.22 107.36 751.24 77.7303 751.24C48.1003 751.24 24.0703 727.22 24.0703 697.59C24.0703 667.96 48.1003 643.94 77.7303 643.94C107.36 643.94 131.37 667.96 131.37 697.59Z" stroke="#30886F" stroke-width="3" stroke-miterlimit="10"/>
<path d="M378.971 292.88C378.971 335.44 344.471 369.94 301.911 369.94C259.341 369.94 224.851 335.44 224.851 292.88C224.851 250.31 259.341 215.81 301.911 215.81C344.471 215.81 378.971 250.32 378.971 292.88Z" stroke="url(#paint10_linear)" stroke-width="3" stroke-miterlimit="10"/>
<path d="M322.99 284.66C322.48 283.39 321.52 283.2 320.63 283.36C320.74 281.71 320.79 279.88 320.8 277.69C320.84 261.84 312.31 257.25 301.12 256.94H301.11C289.93 257.25 281.39 261.85 281.44 277.69C281.44 279.95 281.5 281.82 281.61 283.52C280.6 283.18 279.29 283.11 278.66 284.67C278.66 284.67 279.32 294.32 283.34 293.82C283.81 295.73 284.37 297.91 285.06 300.58C286.95 308 297.03 311.91 300.87 312.16C300.95 312.15 301.04 312.15 301.13 312.14C301.21 312.15 301.3 312.15 301.38 312.16C305.22 311.9 315.3 307.99 317.19 300.58C317.87 297.91 318.44 295.72 318.9 293.81C322.39 293.34 322.99 284.66 322.99 284.66Z" fill="#8CBA73"/>
<path d="M281.69 284.25L283.44 294.77L284.89 295.71L283.44 280.95L285.93 275.06C299.65 270.84 302.13 264.7 302.13 264.7C318.48 265.03 316.27 276.39 316.27 276.39L318.67 281.49L317.22 296.26L318.67 295.32L320.42 284.8C323.06 279.01 321.47 265.59 321.47 265.59C321.47 265.59 319.48 260.12 315.24 259.49C315.24 259.49 314.59 251.16 300.25 250.52C300.26 250.5 269.84 250.67 281.69 284.25Z" fill="#8CBA73"/>
<path d="M285.471 319.59L268.641 323.97C267.871 324.01 266.601 324.19 265.301 324.98C262.381 326.76 261.881 330.09 261.811 330.61C269.011 335.22 276.201 339.83 283.401 344.44C288.491 345.69 295.711 346.88 304.331 346.39C311.181 346.01 316.951 344.68 321.331 343.33C327.691 338.77 334.051 334.21 340.421 329.65C340.011 328.69 338.131 324.55 334.651 324.03C334.341 323.98 334.011 323.96 333.651 323.98C327.781 322.29 321.901 320.61 316.031 318.92L301.081 344.94L285.471 319.59Z" fill="#8CBA73"/>
<path d="M292.2 309.03C292.2 309.03 292.13 315.79 285.47 319.59L275.69 323.41L291.34 344.29H309.56L327.58 323.41L315.45 318.92C315.45 318.92 310.01 314.9 310.03 309.03" fill="#8CBA73"/>
<path d="M354.101 292.88C354.101 322.51 330.091 346.53 300.461 346.53C270.831 346.53 246.801 322.51 246.801 292.88C246.801 263.25 270.831 239.23 300.461 239.23C330.091 239.23 354.101 263.25 354.101 292.88Z" stroke="#30886F" stroke-width="3" stroke-miterlimit="10"/>
<path d="M717.631 78.7902C717.631 121.35 683.131 155.85 640.571 155.85C598.001 155.85 563.511 121.35 563.511 78.7902C563.511 36.2202 598.001 1.72021 640.571 1.72021C683.131 1.72021 717.631 36.2202 717.631 78.7902Z" stroke="url(#paint11_linear)" stroke-width="3" stroke-miterlimit="10"/>
<path d="M661.65 70.5701C661.14 69.3001 660.18 69.1101 659.29 69.2701C659.4 67.6201 659.45 65.7901 659.46 63.6001C659.5 47.7501 650.97 43.1601 639.78 42.8501H639.77C628.59 43.1601 620.05 47.7601 620.1 63.6001C620.1 65.8601 620.16 67.7301 620.27 69.4301C619.26 69.0901 617.95 69.0201 617.32 70.5801C617.32 70.5801 617.98 80.2301 622 79.7301C622.47 81.6401 623.03 83.8201 623.72 86.4901C625.61 93.9101 635.69 97.8201 639.53 98.0701C639.61 98.0601 639.7 98.0601 639.79 98.0501C639.87 98.0601 639.96 98.0601 640.04 98.0701C643.88 97.8101 653.96 93.9001 655.85 86.4901C656.53 83.8201 657.1 81.6301 657.56 79.7201C661.05 79.2501 661.65 70.5701 661.65 70.5701Z" fill="#8CBA73"/>
<path d="M620.351 70.1501L622.101 80.6701L623.551 81.6101L622.101 66.8502L624.591 60.9602C638.311 56.7402 640.791 50.6002 640.791 50.6002C657.141 50.9302 654.931 62.2901 654.931 62.2901L657.331 67.3901L655.881 82.1602L657.331 81.2201L659.081 70.7001C661.721 64.9101 660.131 51.4902 660.131 51.4902C660.131 51.4902 658.141 46.0201 653.901 45.3901C653.901 45.3901 653.251 37.0601 638.911 36.4201C638.921 36.4101 608.501 36.5801 620.351 70.1501Z" fill="#8CBA73"/>
<path d="M624.131 105.5L607.301 109.88C606.531 109.92 605.261 110.1 603.961 110.89C601.041 112.67 600.541 116 600.471 116.52C607.671 121.13 614.861 125.74 622.061 130.35C627.151 131.6 634.371 132.79 642.991 132.3C649.841 131.92 655.611 130.59 659.991 129.24C666.351 124.68 672.711 120.12 679.081 115.56C678.671 114.6 676.791 110.46 673.311 109.94C673.001 109.89 672.671 109.87 672.311 109.89C666.441 108.2 660.561 106.52 654.691 104.83L639.741 130.85L624.131 105.5Z" fill="#8CBA73"/>
<path d="M630.861 94.9404C630.861 94.9404 630.791 101.7 624.131 105.5L614.351 109.32L630.001 130.2H648.221L666.241 109.32L654.111 104.83C654.111 104.83 648.671 100.81 648.691 94.9404" fill="#8CBA73"/>
<path d="M692.76 78.7901C692.76 108.42 668.75 132.44 639.12 132.44C609.49 132.44 585.46 108.42 585.46 78.7901C585.46 49.1601 609.49 25.1401 639.12 25.1401C668.75 25.1401 692.76 49.1501 692.76 78.7901Z" stroke="#30886F" stroke-width="3" stroke-miterlimit="10"/>
<defs>
<linearGradient id="paint0_linear" x1="861.158" y1="165.791" x2="925.413" y2="165.791" gradientUnits="userSpaceOnUse">
<stop stop-color="#FEB12B"/>
<stop offset="0.1976" stop-color="#FEAE2B"/>
<stop offset="0.3521" stop-color="#FEA42B"/>
<stop offset="0.4919" stop-color="#FD932A"/>
<stop offset="0.6231" stop-color="#FD7C2A"/>
<stop offset="0.7483" stop-color="#FD5E29"/>
<stop offset="0.8689" stop-color="#FC3928"/>
<stop offset="0.9839" stop-color="#FB0E27"/>
<stop offset="0.9949" stop-color="#FB0927"/>
</linearGradient>
<linearGradient id="paint1_linear" x1="471.379" y1="313.534" x2="535.635" y2="313.534" gradientUnits="userSpaceOnUse">
<stop stop-color="#FEB12B"/>
<stop offset="0.1976" stop-color="#FEAE2B"/>
<stop offset="0.3521" stop-color="#FEA42B"/>
<stop offset="0.4919" stop-color="#FD932A"/>
<stop offset="0.6231" stop-color="#FD7C2A"/>
<stop offset="0.7483" stop-color="#FD5E29"/>
<stop offset="0.8689" stop-color="#FC3928"/>
<stop offset="0.9839" stop-color="#FB0E27"/>
<stop offset="0.9949" stop-color="#FB0927"/>
</linearGradient>
<linearGradient id="paint2_linear" x1="452.448" y1="488.642" x2="516.703" y2="488.642" gradientUnits="userSpaceOnUse">
<stop stop-color="#FEB12B"/>
<stop offset="0.1976" stop-color="#FEAE2B"/>
<stop offset="0.3521" stop-color="#FEA42B"/>
<stop offset="0.4919" stop-color="#FD932A"/>
<stop offset="0.6231" stop-color="#FD7C2A"/>
<stop offset="0.7483" stop-color="#FD5E29"/>
<stop offset="0.8689" stop-color="#FC3928"/>
<stop offset="0.9839" stop-color="#FB0E27"/>
<stop offset="0.9949" stop-color="#FB0927"/>
</linearGradient>
<linearGradient id="paint3_linear" x1="269.781" y1="512.073" x2="334.037" y2="512.073" gradientUnits="userSpaceOnUse">
<stop stop-color="#FEB12B"/>
<stop offset="0.1976" stop-color="#FEAE2B"/>
<stop offset="0.3521" stop-color="#FEA42B"/>
<stop offset="0.4919" stop-color="#FD932A"/>
<stop offset="0.6231" stop-color="#FD7C2A"/>
<stop offset="0.7483" stop-color="#FD5E29"/>
<stop offset="0.8689" stop-color="#FC3928"/>
<stop offset="0.9839" stop-color="#FB0E27"/>
<stop offset="0.9949" stop-color="#FB0927"/>
</linearGradient>
<linearGradient id="paint4_linear" x1="124.404" y1="901.953" x2="188.66" y2="901.953" gradientUnits="userSpaceOnUse">
<stop stop-color="#FEB12B"/>
<stop offset="0.1976" stop-color="#FEAE2B"/>
<stop offset="0.3521" stop-color="#FEA42B"/>
<stop offset="0.4919" stop-color="#FD932A"/>
<stop offset="0.6231" stop-color="#FD7C2A"/>
<stop offset="0.7483" stop-color="#FD5E29"/>
<stop offset="0.8689" stop-color="#FC3928"/>
<stop offset="0.9839" stop-color="#FB0E27"/>
<stop offset="0.9949" stop-color="#FB0927"/>
</linearGradient>
<linearGradient id="paint5_linear" x1="537.019" y1="798.483" x2="601.275" y2="798.483" gradientUnits="userSpaceOnUse">
<stop stop-color="#FEB12B"/>
<stop offset="0.1976" stop-color="#FEAE2B"/>
<stop offset="0.3521" stop-color="#FEA42B"/>
<stop offset="0.4919" stop-color="#FD932A"/>
<stop offset="0.6231" stop-color="#FD7C2A"/>
<stop offset="0.7483" stop-color="#FD5E29"/>
<stop offset="0.8689" stop-color="#FC3928"/>
<stop offset="0.9839" stop-color="#FB0E27"/>
<stop offset="0.9949" stop-color="#FB0927"/>
</linearGradient>
<linearGradient id="paint6_linear" x1="742.579" y1="1000.8" x2="806.834" y2="1000.8" gradientUnits="userSpaceOnUse">
<stop stop-color="#FEB12B"/>
<stop offset="0.1976" stop-color="#FEAE2B"/>
<stop offset="0.3521" stop-color="#FEA42B"/>
<stop offset="0.4919" stop-color="#FD932A"/>
<stop offset="0.6231" stop-color="#FD7C2A"/>
<stop offset="0.7483" stop-color="#FD5E29"/>
<stop offset="0.8689" stop-color="#FC3928"/>
<stop offset="0.9839" stop-color="#FB0E27"/>
<stop offset="0.9949" stop-color="#FB0927"/>
</linearGradient>
<linearGradient id="paint7_linear" x1="961.902" y1="779.725" x2="1026.16" y2="779.725" gradientUnits="userSpaceOnUse">
<stop stop-color="#FEB12B"/>
<stop offset="0.1976" stop-color="#FEAE2B"/>
<stop offset="0.3521" stop-color="#FEA42B"/>
<stop offset="0.4919" stop-color="#FD932A"/>
<stop offset="0.6231" stop-color="#FD7C2A"/>
<stop offset="0.7483" stop-color="#FD5E29"/>
<stop offset="0.8689" stop-color="#FC3928"/>
<stop offset="0.9839" stop-color="#FB0E27"/>
<stop offset="0.9949" stop-color="#FB0927"/>
</linearGradient>
<linearGradient id="paint8_linear" x1="766.099" y1="578.162" x2="830.354" y2="578.162" gradientUnits="userSpaceOnUse">
<stop stop-color="#FEB12B"/>
<stop offset="0.1976" stop-color="#FEAE2B"/>
<stop offset="0.3521" stop-color="#FEA42B"/>
<stop offset="0.4919" stop-color="#FD932A"/>
<stop offset="0.6231" stop-color="#FD7C2A"/>
<stop offset="0.7483" stop-color="#FD5E29"/>
<stop offset="0.8689" stop-color="#FC3928"/>
<stop offset="0.9839" stop-color="#FB0E27"/>
<stop offset="0.9949" stop-color="#FB0927"/>
</linearGradient>
<linearGradient id="paint9_linear" x1="0.610752" y1="697.593" x2="157.732" y2="697.593" gradientUnits="userSpaceOnUse">
<stop stop-color="#FEB12B"/>
<stop offset="0.1976" stop-color="#FEAE2B"/>
<stop offset="0.3521" stop-color="#FEA42B"/>
<stop offset="0.4919" stop-color="#FD932A"/>
<stop offset="0.6231" stop-color="#FD7C2A"/>
<stop offset="0.7483" stop-color="#FD5E29"/>
<stop offset="0.8689" stop-color="#FC3928"/>
<stop offset="0.9839" stop-color="#FB0E27"/>
<stop offset="0.9949" stop-color="#FB0927"/>
</linearGradient>
<linearGradient id="paint10_linear" x1="223.347" y1="292.88" x2="380.468" y2="292.88" gradientUnits="userSpaceOnUse">
<stop stop-color="#FEB12B"/>
<stop offset="0.1976" stop-color="#FEAE2B"/>
<stop offset="0.3521" stop-color="#FEA42B"/>
<stop offset="0.4919" stop-color="#FD932A"/>
<stop offset="0.6231" stop-color="#FD7C2A"/>
<stop offset="0.7483" stop-color="#FD5E29"/>
<stop offset="0.8689" stop-color="#FC3928"/>
<stop offset="0.9839" stop-color="#FB0E27"/>
<stop offset="0.9949" stop-color="#FB0927"/>
</linearGradient>
<linearGradient id="paint11_linear" x1="562.006" y1="78.7874" x2="719.127" y2="78.7874" gradientUnits="userSpaceOnUse">
<stop stop-color="#FEB12B"/>
<stop offset="0.1976" stop-color="#FEAE2B"/>
<stop offset="0.3521" stop-color="#FEA42B"/>
<stop offset="0.4919" stop-color="#FD932A"/>
<stop offset="0.6231" stop-color="#FD7C2A"/>
<stop offset="0.7483" stop-color="#FD5E29"/>
<stop offset="0.8689" stop-color="#FC3928"/>
<stop offset="0.9839" stop-color="#FB0E27"/>
<stop offset="0.9949" stop-color="#FB0927"/>
</linearGradient>
</defs>
</svg>
