<svg width="1266" height="242" viewBox="0 0 1266 242" fill="none" xmlns="http://www.w3.org/2000/svg">
<path d="M98.1299 154.37C124.745 154.37 146.32 132.795 146.32 106.18C146.32 79.5656 124.745 57.9902 98.1299 57.9902C71.5153 57.9902 49.9399 79.5656 49.9399 106.18C49.9399 132.795 71.5153 154.37 98.1299 154.37Z" fill="#063040"/>
<path d="M98.1301 127.86C110.849 127.86 121.16 117.549 121.16 104.83C121.16 92.1107 110.849 81.7998 98.1301 81.7998C85.411 81.7998 75.1001 92.1107 75.1001 104.83C75.1001 117.549 85.411 127.86 98.1301 127.86Z" fill="white"/>
<path d="M269.33 144.18C255.65 144.18 243.97 139.51 234.29 130.17C224.61 120.83 219.77 109.56 219.77 96.3597C219.77 83.1897 224.61 71.9298 234.29 62.5898C243.97 53.2198 255.65 48.5298 269.33 48.5298H318.89V72.4398H269.33C262.49 72.4398 256.65 74.7897 251.81 79.4897C246.97 84.1597 244.55 89.7797 244.55 96.3497C244.55 102.95 246.97 108.59 251.81 113.26C256.65 117.93 262.49 120.27 269.33 120.27H318.89V144.18H269.33V144.18Z" fill="#063040"/>
<path d="M344.27 130.17C334.59 120.83 329.75 109.56 329.75 96.3597C329.75 83.1897 334.59 71.9298 344.27 62.5898C353.95 53.2198 365.63 48.5298 379.31 48.5298C392.96 48.5298 404.62 53.2198 414.3 62.5898C424.01 71.9298 428.87 83.1897 428.87 96.3597C428.87 109.56 424.01 120.83 414.3 130.17C404.62 139.51 392.96 144.18 379.31 144.18C365.63 144.18 353.95 139.51 344.27 130.17ZM396.79 113.26C401.66 108.59 404.1 102.95 404.1 96.3497C404.1 89.7797 401.66 84.1597 396.79 79.4897C391.95 74.7897 386.13 72.4398 379.32 72.4398C372.48 72.4398 366.64 74.7897 361.8 79.4897C356.96 84.1597 354.54 89.7797 354.54 96.3497C354.54 102.95 356.96 108.59 361.8 113.26C366.64 117.93 372.48 120.27 379.32 120.27C386.12 120.27 391.95 117.94 396.79 113.26Z" fill="#063040"/>
<path d="M439.74 144.18V96.3597C439.74 83.1897 444.58 71.9298 454.26 62.5898C463.94 53.2198 475.62 48.5298 489.3 48.5298C502.95 48.5298 514.61 53.2198 524.29 62.5898C534 71.9298 538.86 83.1897 538.86 96.3597V144.18H514.08V96.3597C514.08 89.7897 511.64 84.1698 506.77 79.4998C501.93 74.7998 496.11 72.4498 489.3 72.4498C482.46 72.4498 476.62 74.7998 471.78 79.4998C466.94 84.1698 464.52 89.7897 464.52 96.3597V144.18H439.74Z" fill="#063040"/>
<path d="M564.25 130.17C554.57 120.83 549.73 109.56 549.73 96.3597C549.73 83.1897 554.57 71.9298 564.25 62.5898C573.93 53.2198 585.61 48.5298 599.29 48.5298C612.94 48.5298 624.6 53.2198 634.28 62.5898C643.99 71.9298 648.85 83.1897 648.85 96.3597H624.07C624.07 89.7897 621.63 84.1698 616.76 79.4998C611.92 74.7998 606.1 72.4498 599.29 72.4498C592.45 72.4498 586.61 74.7998 581.77 79.4998C576.93 84.1698 574.51 89.7897 574.51 96.3597C574.51 102.96 576.93 108.6 581.77 113.27C586.61 117.94 592.45 120.28 599.29 120.28V144.19C585.61 144.18 573.93 139.51 564.25 130.17Z" fill="#063040"/>
<path d="M709.28 144.18C695.6 144.18 683.92 139.51 674.24 130.17C664.56 120.83 659.72 109.56 659.72 96.3597C659.72 83.1897 664.56 71.9298 674.24 62.5898C683.92 53.2198 695.6 48.5298 709.28 48.5298H758.84V72.4398H709.28C702.44 72.4398 696.6 74.7897 691.76 79.4897C686.92 84.1597 684.5 89.7797 684.5 96.3497C684.5 102.95 686.92 108.59 691.76 113.26C696.6 117.93 702.44 120.27 709.28 120.27H758.84V144.18H709.28V144.18Z" fill="#063040"/>
<path d="M784.23 130.17C774.55 120.83 769.71 109.56 769.71 96.3599V0.709961H794.49V48.53H819.27V72.4399H794.49V96.3499C794.49 102.95 796.91 108.59 801.75 113.26C806.59 117.93 812.43 120.27 819.27 120.27V144.18C805.59 144.18 793.91 139.51 784.23 130.17Z" fill="#063040"/>
<path d="M844.65 130.17C834.97 120.83 830.13 109.56 830.13 96.3597C830.13 83.1897 834.97 71.9298 844.65 62.5898C854.33 53.2198 866.01 48.5298 879.69 48.5298C893.34 48.5298 905 53.2198 914.68 62.5898C924.39 71.9298 929.25 83.1897 929.25 96.3597V144.18H904.47V96.3597C904.47 89.7897 902.03 84.1698 897.16 79.4998C892.32 74.7998 886.5 72.4498 879.69 72.4498C872.85 72.4498 867.01 74.7998 862.17 79.4998C857.33 84.1698 854.91 89.7897 854.91 96.3597C854.91 102.96 857.33 108.6 862.17 113.27C867.01 117.94 872.85 120.28 879.69 120.28V144.19C866.01 144.18 854.33 139.51 844.65 130.17Z" fill="#063040"/>
<path d="M940.12 144.18V96.3597C940.12 83.1897 944.96 71.9298 954.64 62.5898C964.32 53.2198 976 48.5298 989.68 48.5298C1003.33 48.5298 1014.99 53.2198 1024.67 62.5898C1034.38 71.9298 1039.24 83.1897 1039.24 96.3597H1014.46C1014.46 89.7897 1012.02 84.1698 1007.15 79.4998C1002.31 74.7998 996.49 72.4498 989.68 72.4498C982.84 72.4498 977 74.7998 972.16 79.4998C967.32 84.1698 964.9 89.7897 964.9 96.3597V144.18H940.12Z" fill="#063040"/>
<path d="M86 1.66986L111.76 1.6499C111.77 3.8099 111.98 7.33985 113.28 11.3499C118.91 28.7499 136.95 30.8899 154.22 46.4799C156.43 48.4699 171.48 62.3799 177.85 84.0499C184.19 105.6 178.97 124.71 175.79 133.75C165.28 135.88 154.78 138.01 144.27 140.14C147.48 134.65 152.41 124.51 153.34 111.04C153.63 106.84 154.07 94.4899 148.7 81.8399C135.72 51.2799 102.9 52.2099 90.24 21.9799C86.77 13.6499 86.11 6.07986 86 1.66986Z" fill="url(#paint0_linear)"/>
<path d="M195.25 149.01L182.8 171.56C180.9 170.52 177.72 169 173.58 168.2C155.63 164.7 145.02 179.45 123.03 187.02C120.22 187.99 100.76 194.43 78.7102 189.52C56.7802 184.64 42.5802 170.82 36.2202 163.67C39.4402 153.45 42.6602 143.22 45.8902 133C49.1402 138.47 55.6202 147.69 66.9602 155.02C70.4902 157.31 81.0902 163.67 94.7602 165.09C127.79 168.52 142.85 139.35 175.43 142.91C184.39 143.89 191.33 146.98 195.25 149.01Z" fill="url(#paint1_linear)"/>
<path d="M13.9998 169.49L0.799805 147.37C2.6598 146.26 5.56981 144.27 8.34981 141.1C20.4198 127.36 13.0298 110.76 17.5798 87.95C18.1598 85.04 22.4098 64.98 37.7598 48.42C53.0298 31.94 72.1198 26.65 81.5098 24.75C88.7098 32.69 95.9198 40.62 103.12 48.56C96.7598 48.61 85.5298 49.56 73.4798 55.66C69.7198 57.56 58.8898 63.5 50.7698 74.59C31.1598 101.38 48.7598 129.1 29.2598 155.45C23.8998 162.7 17.7298 167.14 13.9998 169.49Z" fill="url(#paint2_linear)"/>
<path d="M1008.42 168.088V144.705H1004.16V141.144H1008.42V138.853C1008.42 135.848 1009.28 133.507 1010.99 131.83C1012.71 130.153 1015.14 129.315 1018.28 129.315C1020.14 129.315 1022.49 129.821 1025.33 130.834L1024.56 134.719C1022.48 133.889 1020.51 133.474 1018.63 133.474C1016.66 133.474 1015.23 133.922 1014.35 134.818C1013.48 135.698 1013.05 137.026 1013.05 138.803V141.144H1018.56V144.705H1013.05V168.088H1008.42ZM1027.62 168.088H1022.99V141.144H1027.62V168.088ZM1039.47 141.144L1039.62 144.53C1041.68 141.94 1044.37 140.646 1047.69 140.646C1053.39 140.646 1056.26 143.858 1056.31 150.283V168.088H1051.7V150.258C1051.68 148.315 1051.24 146.879 1050.36 145.95C1049.49 145.02 1048.14 144.555 1046.3 144.555C1044.8 144.555 1043.49 144.954 1042.36 145.75C1041.23 146.547 1040.35 147.593 1039.72 148.888V168.088H1035.12V141.144H1039.47ZM1062.14 154.392C1062.14 150.258 1063.11 146.938 1065.07 144.431C1067.03 141.907 1069.6 140.646 1072.77 140.646C1075.92 140.646 1078.42 141.725 1080.26 143.883V129.838H1084.87V168.088H1080.64L1080.41 165.199C1078.57 167.457 1076.01 168.586 1072.72 168.586C1069.6 168.586 1067.05 167.308 1065.07 164.751C1063.11 162.194 1062.14 158.857 1062.14 154.74V154.392ZM1066.74 154.915C1066.74 157.969 1067.37 160.36 1068.63 162.086C1069.9 163.813 1071.64 164.676 1073.86 164.676C1076.79 164.676 1078.92 163.365 1080.26 160.742V148.365C1078.89 145.825 1076.77 144.555 1073.91 144.555C1071.66 144.555 1069.9 145.427 1068.63 147.17C1067.37 148.913 1066.74 151.495 1066.74 154.915ZM1113.51 161.339L1119.78 141.144H1124.71L1113.88 172.247C1112.21 176.729 1109.54 178.97 1105.89 178.97L1105.02 178.896L1103.3 178.572V174.836L1104.54 174.936C1106.1 174.936 1107.32 174.621 1108.18 173.99C1109.06 173.359 1109.78 172.205 1110.35 170.528L1111.37 167.789L1101.75 141.144H1106.79L1113.51 161.339ZM1127.23 154.367C1127.23 151.727 1127.74 149.353 1128.77 147.245C1129.82 145.136 1131.26 143.509 1133.11 142.364C1134.97 141.218 1137.08 140.646 1139.46 140.646C1143.13 140.646 1146.09 141.916 1148.35 144.456C1150.62 146.996 1151.76 150.374 1151.76 154.591V154.915C1151.76 157.538 1151.25 159.895 1150.24 161.987C1149.24 164.062 1147.81 165.681 1145.93 166.843C1144.07 168.005 1141.93 168.586 1139.51 168.586C1135.85 168.586 1132.89 167.316 1130.62 164.776C1128.36 162.236 1127.23 158.874 1127.23 154.69V154.367ZM1131.86 154.915C1131.86 157.903 1132.55 160.302 1133.93 162.111C1135.32 163.921 1137.18 164.826 1139.51 164.826C1141.85 164.826 1143.71 163.913 1145.08 162.086C1146.46 160.244 1147.15 157.67 1147.15 154.367C1147.15 151.412 1146.45 149.021 1145.04 147.195C1143.64 145.352 1141.78 144.431 1139.46 144.431C1137.18 144.431 1135.35 145.335 1133.95 147.145C1132.56 148.955 1131.86 151.544 1131.86 154.915ZM1174.17 165.423C1172.38 167.532 1169.75 168.586 1166.28 168.586C1163.4 168.586 1161.21 167.756 1159.7 166.096C1158.21 164.419 1157.45 161.945 1157.44 158.675V141.144H1162.04V158.55C1162.04 162.634 1163.7 164.676 1167.02 164.676C1170.54 164.676 1172.88 163.365 1174.05 160.742V141.144H1178.65V168.088H1174.27L1174.17 165.423ZM1198.7 145.277C1198 145.161 1197.25 145.103 1196.43 145.103C1193.41 145.103 1191.36 146.39 1190.28 148.963V168.088H1185.68V141.144H1190.16L1190.23 144.256C1191.74 141.849 1193.89 140.646 1196.66 140.646C1197.55 140.646 1198.23 140.762 1198.7 140.994V145.277ZM1005.76 214.392C1005.76 210.258 1006.74 206.938 1008.69 204.431C1010.65 201.907 1013.22 200.646 1016.39 200.646C1019.54 200.646 1022.04 201.725 1023.89 203.883V189.838H1028.49V228.088H1024.26L1024.03 225.199C1022.19 227.457 1019.63 228.586 1016.34 228.586C1013.22 228.586 1010.67 227.308 1008.69 224.751C1006.74 222.194 1005.76 218.857 1005.76 214.74V214.392ZM1010.36 214.915C1010.36 217.969 1010.99 220.36 1012.26 222.086C1013.52 223.813 1015.26 224.676 1017.49 224.676C1020.41 224.676 1022.54 223.365 1023.89 220.742V208.365C1022.51 205.825 1020.39 204.555 1017.54 204.555C1015.28 204.555 1013.52 205.427 1012.26 207.17C1010.99 208.913 1010.36 211.495 1010.36 214.915ZM1048.69 205.277C1047.99 205.161 1047.24 205.103 1046.42 205.103C1043.4 205.103 1041.35 206.39 1040.27 208.963V228.088H1035.66V201.144H1040.15L1040.22 204.256C1041.73 201.849 1043.87 200.646 1046.65 200.646C1047.54 200.646 1048.22 200.762 1048.69 200.994V205.277ZM1063.63 228.586C1059.98 228.586 1057.01 227.391 1054.71 225C1052.42 222.593 1051.28 219.38 1051.28 215.363V214.516C1051.28 211.843 1051.78 209.461 1052.8 207.369C1053.83 205.261 1055.25 203.617 1057.08 202.438C1058.92 201.243 1060.92 200.646 1063.06 200.646C1066.56 200.646 1069.28 201.799 1071.22 204.107C1073.17 206.415 1074.14 209.718 1074.14 214.018V215.936H1055.88C1055.95 218.592 1056.72 220.742 1058.2 222.385C1059.69 224.012 1061.59 224.826 1063.88 224.826C1065.51 224.826 1066.88 224.494 1068.01 223.83C1069.14 223.166 1070.13 222.286 1070.98 221.19L1073.79 223.381C1071.53 226.851 1068.15 228.586 1063.63 228.586ZM1063.06 204.431C1061.2 204.431 1059.64 205.111 1058.38 206.473C1057.11 207.817 1056.33 209.71 1056.03 212.15H1069.53V211.802C1069.4 209.461 1068.77 207.651 1067.64 206.373C1066.51 205.078 1064.98 204.431 1063.06 204.431ZM1096.13 228.088C1095.86 227.557 1095.65 226.61 1095.48 225.249C1093.34 227.474 1090.78 228.586 1087.81 228.586C1085.15 228.586 1082.97 227.839 1081.26 226.345C1079.57 224.834 1078.72 222.925 1078.72 220.617C1078.72 217.812 1079.78 215.637 1081.91 214.093C1084.05 212.532 1087.05 211.752 1090.92 211.752H1095.4V209.635C1095.4 208.025 1094.92 206.747 1093.96 205.8C1093 204.837 1091.58 204.356 1089.7 204.356C1088.06 204.356 1086.68 204.771 1085.57 205.601C1084.46 206.431 1083.9 207.436 1083.9 208.614H1079.27C1079.27 207.27 1079.74 205.975 1080.69 204.729C1081.65 203.468 1082.95 202.472 1084.57 201.741C1086.22 201.011 1088.02 200.646 1089.98 200.646C1093.08 200.646 1095.51 201.426 1097.27 202.986C1099.03 204.53 1099.95 206.664 1100.01 209.386V221.788C1100.01 224.261 1100.33 226.229 1100.96 227.689V228.088H1096.13ZM1088.48 224.577C1089.93 224.577 1091.3 224.203 1092.59 223.456C1093.89 222.709 1094.82 221.738 1095.4 220.542V215.014H1091.79C1086.15 215.014 1083.33 216.666 1083.33 219.97C1083.33 221.414 1083.81 222.543 1084.77 223.356C1085.73 224.17 1086.97 224.577 1088.48 224.577ZM1111.57 201.144L1111.69 204.132C1113.67 201.808 1116.33 200.646 1119.68 200.646C1123.45 200.646 1126.02 202.09 1127.38 204.979C1128.28 203.684 1129.44 202.638 1130.87 201.841C1132.31 201.044 1134.01 200.646 1135.97 200.646C1141.88 200.646 1144.89 203.775 1144.99 210.034V228.088H1140.38V210.308C1140.38 208.382 1139.94 206.946 1139.06 206C1138.18 205.037 1136.7 204.555 1134.63 204.555C1132.92 204.555 1131.5 205.07 1130.37 206.099C1129.24 207.112 1128.58 208.481 1128.4 210.208V228.088H1123.77V210.432C1123.77 206.514 1121.85 204.555 1118.02 204.555C1114.99 204.555 1112.93 205.842 1111.82 208.415V228.088H1107.21V201.144H1111.57ZM1158.21 194.619V201.144H1163.24V204.705H1158.21V221.414C1158.21 222.493 1158.43 223.307 1158.88 223.854C1159.33 224.386 1160.09 224.651 1161.17 224.651C1161.7 224.651 1162.43 224.552 1163.36 224.353V228.088C1162.15 228.42 1160.97 228.586 1159.83 228.586C1157.77 228.586 1156.22 227.963 1155.17 226.718C1154.12 225.473 1153.6 223.705 1153.6 221.414V204.705H1148.7V201.144H1153.6V194.619H1158.21ZM1179.82 228.586C1176.17 228.586 1173.2 227.391 1170.91 225C1168.62 222.593 1167.47 219.38 1167.47 215.363V214.516C1167.47 211.843 1167.98 209.461 1168.99 207.369C1170.02 205.261 1171.45 203.617 1173.27 202.438C1175.12 201.243 1177.11 200.646 1179.25 200.646C1182.75 200.646 1185.48 201.799 1187.42 204.107C1189.36 206.415 1190.33 209.718 1190.33 214.018V215.936H1172.08C1172.15 218.592 1172.92 220.742 1174.4 222.385C1175.89 224.012 1177.78 224.826 1180.07 224.826C1181.7 224.826 1183.08 224.494 1184.21 223.83C1185.34 223.166 1186.32 222.286 1187.17 221.19L1189.98 223.381C1187.73 226.851 1184.34 228.586 1179.82 228.586ZM1179.25 204.431C1177.39 204.431 1175.83 205.111 1174.57 206.473C1173.31 207.817 1172.53 209.71 1172.23 212.15H1185.73V211.802C1185.59 209.461 1184.96 207.651 1183.83 206.373C1182.7 205.078 1181.18 204.431 1179.25 204.431ZM1212.32 228.088C1212.06 227.557 1211.84 226.61 1211.67 225.249C1209.53 227.474 1206.98 228.586 1204 228.586C1201.35 228.586 1199.16 227.839 1197.45 226.345C1195.76 224.834 1194.91 222.925 1194.91 220.617C1194.91 217.812 1195.98 215.637 1198.1 214.093C1200.24 212.532 1203.25 211.752 1207.12 211.752H1211.6V209.635C1211.6 208.025 1211.12 206.747 1210.15 205.8C1209.19 204.837 1207.77 204.356 1205.9 204.356C1204.25 204.356 1202.88 204.771 1201.76 205.601C1200.65 206.431 1200.09 207.436 1200.09 208.614H1195.46C1195.46 207.27 1195.94 205.975 1196.88 204.729C1197.84 203.468 1199.14 202.472 1200.77 201.741C1202.41 201.011 1204.21 200.646 1206.17 200.646C1209.27 200.646 1211.71 201.426 1213.47 202.986C1215.23 204.53 1216.14 206.664 1216.21 209.386V221.788C1216.21 224.261 1216.52 226.229 1217.15 227.689V228.088H1212.32ZM1204.68 224.577C1206.12 224.577 1207.49 224.203 1208.79 223.456C1210.08 222.709 1211.02 221.738 1211.6 220.542V215.014H1207.99C1202.34 215.014 1199.52 216.666 1199.52 219.97C1199.52 221.414 1200 222.543 1200.97 223.356C1201.93 224.17 1203.17 224.577 1204.68 224.577ZM1227.76 201.144L1227.89 204.132C1229.86 201.808 1232.53 200.646 1235.88 200.646C1239.65 200.646 1242.21 202.09 1243.57 204.979C1244.47 203.684 1245.63 202.638 1247.06 201.841C1248.5 201.044 1250.21 200.646 1252.17 200.646C1258.08 200.646 1261.08 203.775 1261.18 210.034V228.088H1256.57V210.308C1256.57 208.382 1256.13 206.946 1255.25 206C1254.37 205.037 1252.9 204.555 1250.82 204.555C1249.11 204.555 1247.69 205.07 1246.56 206.099C1245.43 207.112 1244.78 208.481 1244.59 210.208V228.088H1239.96V210.432C1239.96 206.514 1238.05 204.555 1234.21 204.555C1231.19 204.555 1229.12 205.842 1228.01 208.415V228.088H1223.4V201.144H1227.76Z" fill="#9DA0A3"/>
<defs>
<linearGradient id="paint0_linear" x1="154.808" y1="26.7619" x2="102.772" y2="115.861" gradientUnits="userSpaceOnUse">
<stop stop-color="#FEB12B"/>
<stop offset="0.1976" stop-color="#FEAE2B"/>
<stop offset="0.3521" stop-color="#FEA42B"/>
<stop offset="0.4919" stop-color="#FD932A"/>
<stop offset="0.6231" stop-color="#FD7C2A"/>
<stop offset="0.7483" stop-color="#FD5E29"/>
<stop offset="0.8689" stop-color="#FC3928"/>
<stop offset="0.9839" stop-color="#FB0E27"/>
<stop offset="0.9949" stop-color="#FB0927"/>
</linearGradient>
<linearGradient id="paint1_linear" x1="139.949" y1="197.068" x2="87.1602" y2="108.413" gradientUnits="userSpaceOnUse">
<stop stop-color="#FEB12B"/>
<stop offset="0.1976" stop-color="#FEAE2B"/>
<stop offset="0.3521" stop-color="#FEA42B"/>
<stop offset="0.4919" stop-color="#FD932A"/>
<stop offset="0.6231" stop-color="#FD7C2A"/>
<stop offset="0.7483" stop-color="#FD5E29"/>
<stop offset="0.8689" stop-color="#FC3928"/>
<stop offset="0.9839" stop-color="#FB0E27"/>
<stop offset="0.9949" stop-color="#FB0927"/>
</linearGradient>
<linearGradient id="paint2_linear" x1="0.376642" y1="97.5527" x2="103.56" y2="96.6554" gradientUnits="userSpaceOnUse">
<stop stop-color="#FEB12B"/>
<stop offset="0.1976" stop-color="#FEAE2B"/>
<stop offset="0.3521" stop-color="#FEA42B"/>
<stop offset="0.4919" stop-color="#FD932A"/>
<stop offset="0.6231" stop-color="#FD7C2A"/>
<stop offset="0.7483" stop-color="#FD5E29"/>
<stop offset="0.8689" stop-color="#FC3928"/>
<stop offset="0.9839" stop-color="#FB0E27"/>
<stop offset="0.9949" stop-color="#FB0927"/>
</linearGradient>
</defs>
</svg>
