<svg width="1039" height="191" viewBox="0 0 1039 191" fill="none" xmlns="http://www.w3.org/2000/svg">
<path d="M97.33 153.66C123.945 153.66 145.52 132.085 145.52 105.47C145.52 78.8554 123.945 57.28 97.33 57.28C70.7154 57.28 49.14 78.8554 49.14 105.47C49.14 132.085 70.7154 153.66 97.33 153.66Z" fill="white"/>
<path d="M97.33 127.15C110.049 127.15 120.36 116.839 120.36 104.12C120.36 91.4009 110.049 81.0901 97.33 81.0901C84.6109 81.0901 74.3 91.4009 74.3 104.12C74.3 116.839 84.6109 127.15 97.33 127.15Z" fill="#063040"/>
<path d="M268.53 143.47C254.85 143.47 243.17 138.8 233.49 129.46C223.81 120.12 218.97 108.85 218.97 95.65C218.97 82.48 223.81 71.2201 233.49 61.8801C243.17 52.5101 254.85 47.8201 268.53 47.8201H318.09V71.73H268.53C261.69 71.73 255.85 74.08 251.01 78.78C246.17 83.45 243.75 89.07 243.75 95.64C243.75 102.24 246.17 107.88 251.01 112.55C255.85 117.22 261.69 119.56 268.53 119.56H318.09V143.47H268.53Z" fill="white"/>
<path d="M343.47 129.46C333.79 120.12 328.95 108.85 328.95 95.65C328.95 82.48 333.79 71.2201 343.47 61.8801C353.15 52.5101 364.83 47.8201 378.51 47.8201C392.16 47.8201 403.82 52.5101 413.5 61.8801C423.21 71.2201 428.07 82.48 428.07 95.65C428.07 108.85 423.21 120.12 413.5 129.46C403.82 138.8 392.16 143.47 378.51 143.47C364.83 143.47 353.15 138.8 343.47 129.46V129.46ZM395.99 112.55C400.86 107.88 403.3 102.24 403.3 95.64C403.3 89.07 400.86 83.45 395.99 78.78C391.15 74.08 385.33 71.73 378.52 71.73C371.68 71.73 365.84 74.08 361 78.78C356.16 83.45 353.74 89.07 353.74 95.64C353.74 102.24 356.16 107.88 361 112.55C365.84 117.22 371.68 119.56 378.52 119.56C385.32 119.56 391.15 117.23 395.99 112.55Z" fill="white"/>
<path d="M438.94 143.47V95.65C438.94 82.48 443.78 71.2201 453.46 61.8801C463.14 52.5101 474.82 47.8201 488.5 47.8201C502.15 47.8201 513.81 52.5101 523.49 61.8801C533.2 71.2201 538.06 82.48 538.06 95.65V143.47H513.28V95.65C513.28 89.08 510.84 83.46 505.97 78.79C501.13 74.09 495.31 71.7401 488.5 71.7401C481.66 71.7401 475.82 74.09 470.98 78.79C466.14 83.46 463.72 89.08 463.72 95.65V143.47H438.94Z" fill="white"/>
<path d="M563.45 129.46C553.77 120.12 548.93 108.85 548.93 95.65C548.93 82.48 553.77 71.2201 563.45 61.8801C573.13 52.5101 584.81 47.8201 598.49 47.8201C612.14 47.8201 623.8 52.5101 633.48 61.8801C643.19 71.2201 648.05 82.48 648.05 95.65H623.27C623.27 89.08 620.83 83.46 615.96 78.79C611.12 74.09 605.3 71.7401 598.49 71.7401C591.65 71.7401 585.81 74.09 580.97 78.79C576.13 83.46 573.71 89.08 573.71 95.65C573.71 102.25 576.13 107.89 580.97 112.56C585.81 117.23 591.65 119.57 598.49 119.57V143.48C584.81 143.47 573.13 138.8 563.45 129.46V129.46Z" fill="white"/>
<path d="M708.48 143.47C694.8 143.47 683.12 138.8 673.44 129.46C663.76 120.12 658.92 108.85 658.92 95.65C658.92 82.48 663.76 71.2201 673.44 61.8801C683.12 52.5101 694.8 47.8201 708.48 47.8201H758.04V71.73H708.48C701.64 71.73 695.8 74.08 690.96 78.78C686.12 83.45 683.7 89.07 683.7 95.64C683.7 102.24 686.12 107.88 690.96 112.55C695.8 117.22 701.64 119.56 708.48 119.56H758.04V143.47H708.48Z" fill="white"/>
<path d="M783.43 129.46C773.75 120.12 768.91 108.85 768.91 95.65V0H793.69V47.82H818.47V71.73H793.69V95.64C793.69 102.24 796.11 107.88 800.95 112.55C805.79 117.22 811.63 119.56 818.47 119.56V143.47C804.79 143.47 793.11 138.8 783.43 129.46V129.46Z" fill="white"/>
<path d="M843.85 129.46C834.17 120.12 829.33 108.85 829.33 95.65C829.33 82.48 834.17 71.2201 843.85 61.8801C853.53 52.5101 865.21 47.8201 878.89 47.8201C892.54 47.8201 904.2 52.5101 913.88 61.8801C923.59 71.2201 928.45 82.48 928.45 95.65V143.47H903.67V95.65C903.67 89.08 901.23 83.46 896.36 78.79C891.52 74.09 885.7 71.7401 878.89 71.7401C872.05 71.7401 866.21 74.09 861.37 78.79C856.53 83.46 854.11 89.08 854.11 95.65C854.11 102.25 856.53 107.89 861.37 112.56C866.21 117.23 872.05 119.57 878.89 119.57V143.48C865.21 143.47 853.53 138.8 843.85 129.46V129.46Z" fill="white"/>
<path d="M939.32 143.47V95.65C939.32 82.48 944.16 71.2201 953.84 61.8801C963.52 52.5101 975.2 47.8201 988.88 47.8201C1002.53 47.8201 1014.19 52.5101 1023.87 61.8801C1033.58 71.2201 1038.44 82.48 1038.44 95.65H1013.66C1013.66 89.08 1011.22 83.46 1006.35 78.79C1001.51 74.09 995.69 71.7401 988.88 71.7401C982.04 71.7401 976.2 74.09 971.36 78.79C966.52 83.46 964.1 89.08 964.1 95.65V143.47H939.32Z" fill="white"/>
<path d="M85.2 0.9599L110.96 0.939941C110.97 3.09994 111.18 6.62989 112.48 10.6399C118.11 28.0399 136.15 30.1799 153.42 45.7699C155.63 47.7599 170.68 61.6699 177.05 83.3399C183.39 104.89 178.17 124 174.99 133.04C164.48 135.17 153.98 137.3 143.47 139.43C146.68 133.94 151.61 123.8 152.54 110.33C152.83 106.13 153.27 93.7799 147.9 81.1299C134.92 50.5699 102.1 51.4999 89.4399 21.2699C85.9699 12.9399 85.31 5.3699 85.2 0.9599V0.9599Z" fill="url(#paint0_linear)"/>
<path d="M194.45 148.3L182 170.85C180.1 169.81 176.92 168.29 172.78 167.49C154.83 163.99 144.22 178.74 122.23 186.31C119.42 187.28 99.96 193.72 77.91 188.81C55.98 183.93 41.78 170.11 35.42 162.96C38.64 152.74 41.8601 142.51 45.0901 132.29C48.3401 137.76 54.82 146.98 66.16 154.31C69.69 156.6 80.2901 162.96 93.9601 164.38C126.99 167.81 142.05 138.64 174.63 142.2C183.59 143.18 190.53 146.27 194.45 148.3V148.3Z" fill="url(#paint1_linear)"/>
<path d="M13.2 168.78L0 146.66C1.86 145.55 4.77 143.56 7.55 140.39C19.62 126.65 12.23 110.05 16.78 87.2401C17.36 84.3301 21.61 64.27 36.96 47.71C52.23 31.23 71.32 25.94 80.71 24.04C87.91 31.98 95.12 39.91 102.32 47.85C95.96 47.9 84.73 48.85 72.68 54.95C68.92 56.85 58.09 62.7901 49.97 73.8801C30.36 100.67 47.96 128.39 28.46 154.74C23.1 161.99 16.93 166.43 13.2 168.78V168.78Z" fill="url(#paint2_linear)"/>
<defs>
<linearGradient id="paint0_linear" x1="154.007" y1="26.052" x2="101.972" y2="115.151" gradientUnits="userSpaceOnUse">
<stop stop-color="#FEB12B"/>
<stop offset="0.1976" stop-color="#FEAE2B"/>
<stop offset="0.3521" stop-color="#FEA42B"/>
<stop offset="0.4919" stop-color="#FD932A"/>
<stop offset="0.6231" stop-color="#FD7C2A"/>
<stop offset="0.7483" stop-color="#FD5E29"/>
<stop offset="0.8689" stop-color="#FC3928"/>
<stop offset="0.9839" stop-color="#FB0E27"/>
<stop offset="0.9949" stop-color="#FB0927"/>
</linearGradient>
<linearGradient id="paint1_linear" x1="139.149" y1="196.358" x2="86.3601" y2="107.703" gradientUnits="userSpaceOnUse">
<stop stop-color="#FEB12B"/>
<stop offset="0.1976" stop-color="#FEAE2B"/>
<stop offset="0.3521" stop-color="#FEA42B"/>
<stop offset="0.4919" stop-color="#FD932A"/>
<stop offset="0.6231" stop-color="#FD7C2A"/>
<stop offset="0.7483" stop-color="#FD5E29"/>
<stop offset="0.8689" stop-color="#FC3928"/>
<stop offset="0.9839" stop-color="#FB0E27"/>
<stop offset="0.9949" stop-color="#FB0927"/>
</linearGradient>
<linearGradient id="paint2_linear" x1="-0.42316" y1="96.8428" x2="102.76" y2="95.9455" gradientUnits="userSpaceOnUse">
<stop stop-color="#FEB12B"/>
<stop offset="0.1976" stop-color="#FEAE2B"/>
<stop offset="0.3521" stop-color="#FEA42B"/>
<stop offset="0.4919" stop-color="#FD932A"/>
<stop offset="0.6231" stop-color="#FD7C2A"/>
<stop offset="0.7483" stop-color="#FD5E29"/>
<stop offset="0.8689" stop-color="#FC3928"/>
<stop offset="0.9839" stop-color="#FB0E27"/>
<stop offset="0.9949" stop-color="#FB0927"/>
</linearGradient>
</defs>
</svg>
