<svg width="2305" height="668" viewBox="0 0 2305 668" fill="none" xmlns="http://www.w3.org/2000/svg">
<path d="M0.428711 667.095H2304.43V2.06187H0.428711V667.095Z" fill="white"/>
<path d="M1222.86 0.428588L1212.22 0.435261C1212.78 21.6846 1215.94 58.1779 1232.74 98.2753C1293.76 243.971 1451.89 239.449 1514.45 386.734C1540.33 447.682 1538.21 507.217 1536.82 527.454C1532.37 591.898 1508.92 640.51 1493.44 667.095H1637.42C1658.26 614.451 1689.18 510.947 1654.88 397.417C1622.68 290.873 1546.99 221.79 1540.98 216.365C1457.77 141.262 1370.81 130.915 1343.7 47.0819C1337.46 27.7952 1336.41 10.8633 1336.37 0.428588H1222.86Z" fill="url(#paint0_linear)"/>
<path d="M1790.14 2.14585C1790.69 23.3952 1793.86 59.8885 1810.65 99.9859C1871.67 245.682 2029.8 241.159 2092.36 388.446C2118.24 449.394 2116.12 508.927 2114.73 529.162C2110.38 592.249 2087.81 640.162 2072.35 667.095H2216.01C2236.83 613.939 2266.73 511.439 2232.79 399.129C2200.6 292.583 2124.91 223.501 2118.9 218.074C2035.68 142.973 1948.73 132.625 1921.61 48.7925C1915.36 29.4592 1914.32 12.4912 1914.28 2.06187L1790.14 2.14585Z" fill="url(#paint1_linear)"/>
<defs>
<linearGradient id="paint0_linear" x1="1212.22" y1="334.021" x2="1670.24" y2="334.021" gradientUnits="userSpaceOnUse">
<stop stop-color="#FB0927"/>
<stop offset="0.285548" stop-color="#FF5757"/>
<stop offset="0.374302" stop-color="#FF5757"/>
<stop offset="0.723819" stop-color="#FF8D8D"/>
<stop offset="0.969274" stop-color="#FF8D8D"/>
<stop offset="1" stop-color="#FF8D8D"/>
</linearGradient>
<linearGradient id="paint1_linear" x1="2125.43" y1="125.368" x2="1874.68" y2="554.753" gradientUnits="userSpaceOnUse">
<stop stop-color="#146072"/>
<stop offset="0.0111732" stop-color="#146072"/>
<stop offset="0.487185" stop-color="#83B3B7"/>
<stop offset="0.586195" stop-color="#83B3B7"/>
<stop offset="0.916861" stop-color="#83B3B7"/>
<stop offset="1" stop-color="#7F7F7E"/>
</linearGradient>
</defs>
</svg>
