<svg width="2305" height="668" viewBox="0 0 2305 668" fill="none" xmlns="http://www.w3.org/2000/svg">
<path d="M0.714355 667.381H2304.71V2.34727H0.714355V667.381Z" fill="white"/>
<path d="M1223.15 0.714232L1212.51 0.720906C1213.07 21.9702 1216.23 58.4636 1233.02 98.5609C1294.04 244.257 1452.18 239.734 1514.73 387.02C1540.62 447.968 1538.5 507.502 1537.1 527.74C1532.66 592.184 1509.21 640.796 1493.73 667.381H1637.7C1658.55 614.737 1689.47 511.233 1655.16 397.702C1622.97 291.158 1547.28 222.076 1541.27 216.65C1458.06 141.548 1371.1 131.201 1343.98 47.3675C1337.75 28.0809 1336.7 11.1489 1336.65 0.714232H1223.15Z" fill="url(#paint0_linear)"/>
<path d="M1501.47 0.714232C1502.05 21.9969 1505.25 58.3622 1521.98 98.3022C1583 243.998 1741.13 239.476 1803.69 386.761C1829.57 447.709 1827.45 507.244 1826.06 527.48C1821.6 592.136 1798.01 640.854 1782.53 667.381H1863.92C1884.83 667.294 1905.75 667.209 1926.66 667.122C1947.5 614.478 1978.42 510.974 1944.12 397.444C1911.93 290.9 1836.24 221.817 1830.23 216.392C1747.01 141.289 1660.05 130.941 1632.94 47.1089C1626.76 27.9809 1625.67 11.1689 1625.61 0.714232H1501.47Z" fill="url(#paint1_linear)"/>
<path d="M1790.42 2.4315C1790.98 23.6808 1794.14 60.1742 1810.94 100.272C1871.96 245.968 2030.09 241.445 2092.64 388.732C2118.53 449.68 2116.41 509.213 2115.01 529.448C2110.67 592.534 2088.1 640.448 2072.63 667.381H2216.29C2237.12 614.225 2267.01 511.725 2233.08 399.414C2200.88 292.869 2125.19 223.786 2119.18 218.36C2035.97 143.258 1949.01 132.91 1921.9 49.0782C1915.65 29.7449 1914.6 12.7768 1914.56 2.34751L1790.42 2.4315Z" fill="url(#paint2_linear)"/>
<defs>
<linearGradient id="paint0_linear" x1="1212.51" y1="334.306" x2="1670.53" y2="334.306" gradientUnits="userSpaceOnUse">
<stop stop-color="#FB0927"/>
<stop offset="0.285548" stop-color="#FF5757"/>
<stop offset="0.374302" stop-color="#FF5757"/>
<stop offset="0.723819" stop-color="#FF8D8D"/>
<stop offset="0.969274" stop-color="#FF8D8D"/>
<stop offset="1" stop-color="#FF8D8D"/>
</linearGradient>
<linearGradient id="paint1_linear" x1="1836.76" y1="123.684" x2="1586.01" y2="553.069" gradientUnits="userSpaceOnUse">
<stop stop-color="#FCB43F"/>
<stop offset="0.0111732" stop-color="#FCB43F"/>
<stop offset="0.451797" stop-color="#FFC255"/>
<stop offset="0.535916" stop-color="#FFC255"/>
<stop offset="0.905767" stop-color="#F8E4B1"/>
<stop offset="0.994413" stop-color="#F8E4B1"/>
<stop offset="1" stop-color="#F8E4B1"/>
</linearGradient>
<linearGradient id="paint2_linear" x1="2125.72" y1="125.654" x2="1874.97" y2="555.039" gradientUnits="userSpaceOnUse">
<stop stop-color="#146072"/>
<stop offset="0.0111732" stop-color="#146072"/>
<stop offset="0.487185" stop-color="#83B3B7"/>
<stop offset="0.586195" stop-color="#83B3B7"/>
<stop offset="0.916861" stop-color="#83B3B7"/>
<stop offset="1" stop-color="#7F7F7E"/>
</linearGradient>
</defs>
</svg>
