<svg width="2304" height="667" viewBox="0 0 2304 667" fill="none" xmlns="http://www.w3.org/2000/svg">
<path d="M0 666.667H2304V1.63316H0V666.667Z" fill="white"/>
<path d="M1500.76 -0.000123024C1501.33 21.2825 1504.54 57.6479 1521.27 97.5879C1582.29 243.284 1740.42 238.761 1802.97 386.047C1828.86 446.995 1826.74 506.529 1825.34 526.765C1820.89 591.421 1797.29 640.14 1781.82 666.667H1863.2C1884.12 666.58 1905.03 666.495 1925.95 666.408C1946.79 613.764 1977.71 510.26 1943.41 396.729C1911.21 290.185 1835.52 221.103 1829.51 215.677C1746.3 140.575 1659.34 130.227 1632.23 46.3945C1626.04 27.2665 1624.96 10.4545 1624.89 -0.000123024H1500.76Z" fill="url(#paint0_linear)"/>
<path d="M1789.71 1.71714C1790.26 22.9665 1793.43 59.4598 1810.22 99.5572C1871.24 245.253 2029.37 240.73 2091.93 388.017C2117.81 448.965 2115.69 508.499 2114.3 528.733C2109.95 591.82 2087.39 639.733 2071.92 666.667H2215.58C2236.4 613.511 2266.3 511.01 2232.36 398.7C2200.17 292.154 2124.48 223.072 2118.47 217.645C2035.25 142.544 1948.3 132.196 1921.18 48.3638C1914.93 29.0305 1913.89 12.0625 1913.85 1.63316L1789.71 1.71714Z" fill="url(#paint1_linear)"/>
<defs>
<linearGradient id="paint0_linear" x1="1836.05" y1="122.97" x2="1585.3" y2="552.355" gradientUnits="userSpaceOnUse">
<stop stop-color="#FCB43F"/>
<stop offset="0.0111732" stop-color="#FCB43F"/>
<stop offset="0.451797" stop-color="#FFC255"/>
<stop offset="0.535916" stop-color="#FFC255"/>
<stop offset="0.905767" stop-color="#F8E4B1"/>
<stop offset="0.994413" stop-color="#F8E4B1"/>
<stop offset="1" stop-color="#F8E4B1"/>
</linearGradient>
<linearGradient id="paint1_linear" x1="2125" y1="124.939" x2="1874.25" y2="554.324" gradientUnits="userSpaceOnUse">
<stop stop-color="#146072"/>
<stop offset="0.0111732" stop-color="#146072"/>
<stop offset="0.487185" stop-color="#83B3B7"/>
<stop offset="0.586195" stop-color="#83B3B7"/>
<stop offset="0.916861" stop-color="#83B3B7"/>
<stop offset="1" stop-color="#7F7F7E"/>
</linearGradient>
</defs>
</svg>
